<svg width="296" height="189" viewBox="0 0 296 189" fill="none" xmlns="http://www.w3.org/2000/svg">
<g opacity="0.19">
<path d="M50.2659 108.55C47.6206 110.158 49.1959 112.793 52.7067 115.732C56.2168 118.661 61.6436 121.864 66.5124 124.637C71.3695 127.432 75.634 129.868 76.6976 131.581C77.7603 133.273 75.5932 134.4 67.5638 134.093C76.5735 139.185 83.557 142.008 89.6992 143.714C95.8501 145.411 101.173 146.01 107.069 146.399C86.2934 135.03 112.892 146.848 102.697 138.106C120.587 143.154 138.396 147.5 156.059 151.064C173.708 154.602 191.269 157.405 208.375 158.71C210.506 158.846 212.635 158.992 214.747 159.091C217.246 159.184 217.935 159.217 219.286 159.215C221.74 159.251 224.174 159.163 226.591 158.991C229.01 158.822 231.411 158.48 233.771 157.943C236.121 157.39 238.46 156.61 240.513 155.282C242.565 153.998 244.267 151.946 244.694 149.498C245.164 147.056 244.335 144.596 243.119 142.543C240.598 138.402 236.861 135.221 233.004 132.256C231.951 130.891 230.687 129.531 229.27 128.201C228.569 127.539 227.8 126.868 227.052 126.239C225.896 125.365 224.599 124.441 223.352 123.586C218.304 120.113 213.028 117.014 207.634 114.231C196.838 108.662 185.596 104.331 174.166 100.839C162.726 97.3511 151.076 94.7013 139.264 92.5938C133.357 91.5406 127.408 90.6268 121.418 89.8183C118.422 89.4424 115.418 89.0664 112.402 88.6883C108.789 88.173 107.743 88.4005 106.798 88.6566C102.324 85.9052 98.9755 82.29 98.7542 79.0092C98.6311 77.371 99.3246 75.8433 100.585 74.5014C101.82 73.1495 103.619 71.9881 105.04 70.885C94.2578 67.9811 83.2922 65.3648 72.1239 63.2982C80.3745 62.2314 91.4354 62.3889 105.166 63.6056C105.84 61.6499 101.285 59.2803 94.4887 56.6876C87.7238 54.0923 78.964 51.4001 71.7284 48.6456C67.4922 48.3002 63.4517 48.0862 59.6271 48.006C58.9676 45.4962 60.1565 43.7512 63.0696 42.7713C65.9702 41.7904 70.6178 41.6101 76.5612 42.2125C82.4969 42.8129 89.697 44.1721 97.4798 46.1441C101.369 47.1227 105.398 48.2498 109.483 49.4784C111.491 50.1059 113.525 50.7426 115.579 51.3845C116.525 51.6981 117.475 52.0137 118.43 52.3303L119.12 52.5626L119.623 52.7477L120.631 53.1197C142.243 61.0621 165.406 72.759 183.91 77.1114C173.209 73.2658 168.094 72.0888 166.206 72.1488C164.312 72.2332 165.626 73.6201 167.658 75.3786C171.741 78.8898 178.62 83.8769 169.116 82.3506C173.416 84.1818 177.695 86.0567 181.95 87.9892C170.248 83.5572 145.495 79.9036 114.599 72.3747C135.754 78.9374 156.735 85.8904 177.261 93.3873C197.751 100.952 217.903 108.857 236.684 118.815C241.404 121.346 246.167 124.137 250.783 127.324C255.384 130.518 259.836 134.119 263.574 138.344C267.265 142.537 270.394 147.54 270.936 153.188C271.166 155.971 270.751 158.826 269.65 161.317L268.798 163.171L267.695 164.851C267.348 165.435 266.913 165.923 266.488 166.423C266.052 166.909 265.674 167.467 265.191 167.899C261.444 171.538 256.986 174.081 252.16 176.112C247.327 178.136 242.046 179.613 236.42 180.727C230.784 181.835 224.795 182.419 218.633 182.847C215.27 182.974 213.172 183.182 210.676 183.261C208.248 183.374 205.831 183.466 203.443 183.499C205.778 182.529 211.76 181.458 205.097 179.503C191.737 178.002 180.943 178.621 171.694 179.895C162.483 181.118 154.907 182.912 148.73 183.006C152.845 182.944 156.963 182.805 161.059 182.646C153.269 178.69 142.474 176.608 131.094 174.635C119.726 172.683 107.765 170.835 98.0032 167.886C88.3233 161.849 80.6833 156.086 71.0827 150.337C61.484 144.513 49.9413 138.926 32.564 131.428L35.6156 128.412C27.1368 122.941 18.8695 117.083 10.9773 110.665C17.5842 114.342 15.9415 111.14 15.1421 109.558C17.5905 109.798 18.3778 111.349 22.5228 114.619C27.3844 110.24 18.5952 95.1593 10.6833 82.1578C13.7825 85.5636 17.1982 88.9016 20.1376 90.6003C18.0443 88.2381 14.6122 84.5759 11.3892 80.4795C8.14387 76.3976 5.21676 71.8564 3.71512 68.119C3.04323 66.2493 2.51316 64.5966 2.46801 63.2805C2.29312 61.9491 2.54617 60.9713 2.96169 60.337C3.37436 59.6997 4.00438 59.4026 4.84877 59.4527C5.29015 59.4833 5.69517 59.5782 6.29685 59.8074C6.90141 60.0377 7.57122 60.3657 8.28687 60.8058C11.5146 65.4797 14.9173 70.1704 17.6478 74.3314C20.4491 78.5178 22.5551 82.4257 24.9198 86.1782C29.6014 93.6649 34.8783 101.098 50.2659 108.55Z" fill="#1B4579"/>
<path d="M31.5313 9.44849C23.9948 8.4671 20.5433 8.08878 19.7908 7.42799C19.0165 6.81883 20.8498 6.17281 23.4901 5.47558C26.1552 4.72285 29.492 4.21199 31.8388 3.43593C34.1363 2.75426 35.3894 1.93302 33.6998 0.760032C43.0869 0.926253 52.1663 1.73492 61.0827 2.89308C61.1131 4.06809 59.4782 4.71059 56.9476 5.15851C54.4308 5.57331 51.0245 5.77404 47.4961 6.04577C43.9844 6.27757 40.327 6.6349 37.3952 7.15446C34.4406 7.72954 32.2334 8.42207 31.5313 9.44849Z" fill="#1B4579"/>
<path d="M94.7627 102.945C92.5927 104.072 93.7256 105.206 95.6758 106.24C97.6556 107.292 100.144 108.109 101.8 109.298C111.247 111.376 117.676 111.667 124.729 112.783C128.274 113.335 132.031 114.101 136.487 115.318C137.586 115.633 138.736 115.96 139.945 116.306C140.437 116.456 140.941 116.609 141.458 116.766L141.705 116.845C141.993 116.922 142.285 116.999 142.579 117.077C145.169 117.756 148.123 118.569 151.403 119.498C145.679 121.213 143.949 123.119 144.954 125.317C145.956 127.501 149.73 129.935 154.912 132.346C160.091 134.757 166.657 137.118 173.169 139.209C179.682 141.292 186.127 143.099 191.171 144.663C184.247 145.626 173.882 146.933 162.491 146.364C156.807 146.084 150.885 145.377 145.082 144.014C142.181 143.334 139.31 142.498 136.517 141.46C133.69 140.395 131.111 138.959 128.58 137.435C130.358 136.269 126.512 133.707 121.136 130.813C115.751 127.928 108.845 124.662 104.301 122.407C96.0524 122.244 97.5472 127.3 93.379 129.761C91.1713 130.904 87.1837 131.345 78.4116 129.128C74.044 128.01 68.4554 126.207 61.6417 123.341C58.2343 121.912 54.5423 120.21 50.6539 118.193C46.7597 116.18 42.6459 113.854 38.5449 111.174C36.3217 109.056 32.819 106.316 29.3247 103.276C25.814 100.242 22.2894 96.914 19.5943 93.7626C14.186 87.5105 11.9847 81.8101 16.0889 83.2366C15.1109 80.1426 11.6327 76.3066 9.56866 71.9488C7.49339 67.6428 6.82937 62.6476 10.5453 58.8708C11.6998 57.5981 13.3807 56.4883 15.3907 55.9452C14.8163 56.5071 14.2793 57.1606 13.8958 57.9401C13.5141 58.7256 13.3612 59.6165 13.2286 60.494C12.9164 62.2465 12.9105 64.0554 13.006 65.8351C13.3163 69.4068 14.4195 72.8967 16.1339 76.0561C19.5904 82.3939 24.9167 87.5917 30.7528 92.0829C30.7203 92.9596 30.6558 94.8422 33.9902 97.1603C33.9922 96.5828 34.7206 96.5933 35.995 96.9842C37.3099 97.3706 38.902 98.1617 41.7314 99.0681C46.9614 100.916 53.2961 103.191 58.8978 104.69C64.533 106.218 69.3663 107.017 72.4456 106.719C75.5853 106.446 76.8994 105.099 77.1359 102.832C72.7838 100.39 68.5074 97.6534 64.6636 94.2986C62.7567 92.6111 60.9595 90.7595 59.4957 88.6396C58.0461 86.5307 56.9188 84.1046 56.7095 81.5218C58.65 80.3543 61.1039 80.6151 63.2829 81.5844C65.5081 82.5581 67.5902 84.235 69.7639 86.0666C71.9095 87.9076 74.2261 89.8623 76.4664 91.5126C78.7153 93.1708 80.828 94.5338 82.4877 95.6409C81.3811 96.8505 81.333 97.9913 81.6553 98.9015C82.0025 99.8179 82.771 100.515 83.8617 101.057C86.008 102.111 89.7888 102.724 94.7627 102.945Z" fill="#1B4579"/>
<path d="M81.0138 68.6692C82.3729 69.5525 83.6793 70.4185 84.9269 71.2848C79.6907 70.535 74.6418 69.9774 69.778 69.7205C64.9206 69.497 60.2218 69.4485 55.7801 70.3644C59.1686 69.0651 63.0138 68.6219 67.2211 68.3993C71.4339 68.2032 76.0328 68.3179 81.0138 68.6692Z" fill="#1B4579"/>
<path d="M187.075 141.064C188.806 141.709 190.252 142.536 191.377 143.359C192.479 144.158 193.235 145 193.375 145.231L193.418 145.28C193.432 145.293 193.409 145.28 193.409 145.28L193.4 145.275L193.69 145.026C194.481 144.355 195.302 143.714 196.151 143.102C196.552 142.8 197.062 142.487 197.393 142.217C197.743 141.944 198.101 141.679 198.468 141.422C199.201 140.908 199.966 140.431 200.762 139.99C201.456 139.561 202.027 139.187 202.719 138.846L204.594 137.97C205.127 137.725 205.694 137.527 206.29 137.38C206.697 137.222 207.096 137.105 207.544 137.042C208.086 136.994 208.184 136.929 208.497 136.923C208.635 136.919 208.778 136.925 208.926 136.943L209.068 136.943C209.117 136.946 209.171 136.955 209.23 136.97L209.275 136.983L209.286 136.986L209.292 136.988L209.295 136.989C201.717 134.991 207.195 136.435 205.503 135.989L205.506 135.988L205.523 135.987C205.549 135.985 205.588 135.99 205.639 136.007C205.667 136.011 205.806 136.076 205.773 136.066C205.612 135.992 205.472 135.908 205.35 135.819C205.229 135.731 205.128 135.637 205.047 135.544C204.897 135.415 204.503 135.117 204.286 134.889C203.963 134.569 203.689 134.227 203.464 133.874C203.812 134.42 204.279 134.94 204.865 135.396C205.06 135.537 205.048 135.551 205.102 135.604L205.253 135.743C205.364 135.835 205.496 135.924 205.649 136.004C205.908 136.134 205.715 136.028 205.679 136.021C205.621 135.999 205.575 135.988 205.542 135.987C205.526 135.986 205.513 135.988 205.503 135.989L205.502 135.989C204.678 135.772 212.683 137.883 209.293 136.988L209.29 136.987L209.278 136.983L209.254 136.976L209.208 136.964L209.121 136.947L208.614 136.921C208.466 136.919 208.326 136.929 208.192 136.95C208.069 136.973 207.949 137.002 207.669 137.024C207.2 137.08 206.758 137.195 206.352 137.359C205.059 137.663 204.176 138.183 202.578 138.917C199.979 140.349 196.303 142.722 192.923 145.69L190.55 147.676C190.591 147.627 190.649 147.584 190.682 147.517L190.651 146.926L190.391 146.144L189.946 145.238C189.254 143.967 188.232 142.53 187.075 141.064Z" fill="#1B4579"/>
<path d="M262.786 111.79C268.395 113.96 275.114 118.444 280.606 124.395C286.153 130.348 290.239 137.556 292.128 145.147C293.066 148.953 293.537 152.92 293.357 156.902C293.218 160.878 292.444 164.791 291.41 168.257C290.38 171.712 288.854 174.666 287.8 177.252C287.525 177.902 287.302 178.565 287.04 179.164C286.741 179.733 286.466 180.29 286.215 180.835C285.715 181.924 285.326 182.975 284.956 183.862C286.142 182.749 286.904 181.59 287.624 180.727C288.355 179.866 288.766 179.043 289.072 178.371C289.702 177.037 289.885 176.292 289.87 175.779C289.839 174.75 288.995 174.731 289.277 173.115C287.988 174.876 286.702 176.489 285.417 178.111C283.905 179.534 282.476 181.033 280.822 182.254C277.699 184.891 274.021 186.901 270.22 188.732C271.523 187.484 272.921 186.36 274.171 185.125C275.339 183.811 276.664 182.682 277.718 181.289C280.043 178.735 282.026 175.805 283.721 172.655C287.396 166.439 289.269 158.401 288.462 151.133C287.741 143.85 285.162 137.17 280.934 130.57C276.681 124.002 270.48 117.567 262.786 111.79Z" fill="#1B4579"/>
<path d="M108.513 106.583C105.083 105.892 102.055 105.537 99.4729 105.457C96.9052 105.375 94.7404 105.578 93.3603 105.983C92.959 106.063 92.7965 106.216 92.5182 106.315C92.329 106.439 92.212 106.569 92.1597 106.683L92.1812 106.731L92.0967 105.735C92.0282 105.017 91.9442 104.3 91.8468 103.585C91.663 102.272 91.4791 100.966 91.2962 99.6658C91.1956 99.0528 91.0786 98.4426 90.9443 97.8351C90.8157 97.2345 90.6328 96.5843 90.567 96.1176C90.3731 95.1012 90.1039 94.0928 89.7614 93.1001C88.7359 89.4662 87.2039 87.1693 86.462 86.584C86.3792 86.5067 86.2819 86.4321 86.171 86.3643C86.1433 86.3453 86.1692 86.3564 86.154 86.3435L86.1358 86.3296L86.1215 86.3216L86.1129 86.3176L86.1081 86.3155L86.1062 86.3146C83.1333 85.0942 90.1537 87.9763 89.4268 87.6771C89.3321 87.6299 89.2305 87.5876 89.1213 87.5501C89.0226 87.5147 88.8719 87.4777 88.797 87.4592C88.7549 87.444 88.706 87.4307 88.6512 87.4193C88.4745 87.3908 88.5533 87.4005 88.5533 87.4005C88.6791 87.4206 89.8866 87.3682 91.9325 86.3929C93.9792 85.4371 96.6546 83.6439 99.822 80.8483C100.621 80.1471 101.494 79.3703 102.27 78.5748C103.046 77.7803 104.042 76.8513 104.864 75.9369L106.188 74.4901C106.251 74.434 106.237 74.4623 106.264 74.4469C106.28 74.4295 106.334 74.437 106.417 74.4654C106.68 74.5458 107.151 74.8195 107.826 75.2082C109.576 76.2517 111.472 77.3831 113.578 78.6384C116.28 80.2217 119.249 81.9618 122.568 83.9067C128.349 88.6821 112.943 84.2418 121.866 89.9342C126.433 92.764 129.758 93.5519 132.499 93.684C135.257 93.8114 137.493 93.2798 140.248 93.3347L137.088 89.5954C138.635 91.4715 141.313 93.636 144.25 95.829C147.155 98.0167 150.433 100.266 152.647 102.237C152.908 102.479 153.143 102.713 153.315 102.934C153.379 103.038 153.444 103.143 153.444 103.234C153.567 102.549 153.066 105.004 152.786 106.452C152.488 108.062 152.191 109.664 151.896 111.258C151.606 113.019 151.364 114.007 151.146 115.292C150.928 116.52 150.74 117.746 150.582 118.97L150.468 119.888L150.349 120.459C150.282 120.841 150.237 121.225 150.216 121.609L150.201 122.188L150.206 122.477C150.282 139.733 150.107 99.1429 150.129 103.312L150.136 103.316L150.2 103.349L150.452 103.484C150.617 103.577 150.779 103.668 150.937 103.756C151.251 103.939 151.549 104.124 151.827 104.31C152.939 105.058 153.743 105.844 154.113 106.677C154.854 108.346 153.866 110.209 150.164 112.352C150.244 132.554 150.177 117.598 150.202 121.948L150.234 121.334C150.269 120.925 150.329 120.519 150.414 120.119L150.954 116.409C151.163 115.108 151.397 113.915 151.67 112.544C151.69 112.347 151.651 112.481 151.645 112.433L151.367 112.347L150.524 112.102C149.895 111.919 149.27 111.736 148.652 111.555C147.361 111.184 146.091 110.819 144.841 110.459C142.314 109.746 139.841 109.084 137.432 108.473C132.61 107.252 128.033 106.238 123.654 105.336C114.907 103.516 106.901 102.195 99.465 100.075C95.7618 98.9999 92.1842 97.7293 88.9472 95.8803C87.3404 94.949 85.7987 93.8786 84.5307 92.5325C83.2693 91.2049 82.2098 89.5597 82.0127 87.6554C81.9103 86.7135 82.0181 85.732 82.337 84.8009C82.672 83.8896 83.3411 83.1301 84.158 82.5729C85.8536 81.5229 87.9162 81.183 89.9492 81.1424C94.057 81.1143 98.258 82.173 102.453 83.9119C104.05 86.9984 105.491 90.1566 106.83 93.2979C113.56 93.9996 120.488 95.2225 127.39 96.6849C128.509 97.9657 127.324 99.6961 134.172 101.304C141.633 102.125 139.458 100.286 135.62 97.7939C131.799 95.2998 126.274 92.3618 127.446 90.5666C141.168 93.1125 154.845 96.5948 168.368 100.866C172.859 103.471 163.501 101.308 164.552 102.735C172.783 108.659 180.764 110.39 188.357 112.78C192.136 113.977 195.799 115.342 199.144 117.495C202.464 119.632 205.548 122.618 207.553 126.901C203.835 124.544 199.923 122.673 195.947 120.973C191.976 119.272 187.923 117.784 183.845 116.402C190.454 120.32 196.418 124.479 201.139 128.914C203.46 131.101 205.525 133.462 206.57 135.462C206.796 135.937 206.994 136.392 207.046 136.708C207.131 136.904 207.051 136.97 207.071 137.074C207.087 137.133 207.071 137.16 207.03 137.148L207.01 137.148L207.211 137.101C207.366 137.069 207.525 137.042 207.686 137.023C208.084 136.997 208.127 136.944 208.356 136.931C208.541 136.913 208.765 136.921 208.949 136.943C209.003 136.937 209.069 136.938 209.146 136.95L209.269 136.979L209.285 136.984L209.294 136.987C211.507 137.571 206.289 136.195 206.824 136.338L206.806 136.343L206.772 136.354C206.561 136.389 206.63 136.495 206.402 136.494C206.329 136.506 206.279 136.525 206.247 136.557C206.136 136.581 206.016 136.605 205.925 136.641C205.818 136.72 205.423 136.804 205.143 136.907C204.503 137.11 203.619 137.321 202.607 137.46C200.576 137.743 198.185 137.806 195.735 137.681C190.787 137.403 185.678 136.538 180.666 135.514C184.273 135.861 187.736 135.967 190.956 135.818C194.156 135.669 197.175 135.249 199.483 134.532C200.003 134.341 200.521 134.151 201.035 133.962L202.144 133.363C202.239 133.261 202.336 133.17 202.435 133.09C202.525 133.011 202.682 132.936 202.615 132.882L202.598 132.815C202.598 132.815 202.582 132.781 202.606 132.81L202.973 133.283L203.366 133.744C203.5 133.895 203.511 133.956 203.595 134.065C203.732 134.26 203.884 134.451 204.05 134.637C204.216 134.823 204.399 135.001 204.596 135.172C204.767 135.33 205.088 135.551 205.077 135.575C205.202 135.71 205.368 135.844 205.576 135.963C205.934 136.152 205.694 136.012 205.638 136.006C205.601 135.994 205.57 135.988 205.547 135.987L205.517 135.988L205.506 135.989C204.683 135.773 212.682 137.882 209.287 136.986L209.27 136.981L209.237 136.972C209.014 136.924 209.09 136.952 208.536 136.924C208.332 136.927 208.142 136.954 207.965 136.999C207.628 137.022 207.304 137.075 206.995 137.153C206.84 137.193 206.691 137.239 206.545 137.29L206.329 137.372L206.004 137.458C205.572 137.578 205.156 137.726 204.758 137.899C204.098 138.242 202.903 138.7 201.986 139.244C201.472 139.517 201.141 139.809 200.524 140.126L200.42 140.121L200.335 140.11L200.154 140.014C199.967 139.909 199.609 139.683 199.294 139.473C198.54 138.998 197.693 138.453 196.661 137.885C194.657 136.755 192.319 135.624 189.897 134.582C185.028 132.488 179.816 130.687 174.572 129.028C164.052 125.712 153.352 122.874 142.434 119.373C131.52 115.916 120.242 111.675 108.513 106.583Z" fill="#1B4579"/>
</g>
</svg>
