<svg width="213" height="205" viewBox="0 0 213 205" fill="none" xmlns="http://www.w3.org/2000/svg">
<path d="M19.6007 84.9884C13.3765 87.5712 6.60327 86.9278 3.86404e-05 86.1446C2.31354 87.0677 4.54622 88.1213 6.73336 89.146C7.69406 89.5973 8.65475 90.0477 9.61825 90.486C18.1494 94.3686 26.5226 97.6023 35.1327 94.612C45.2248 91.1089 54.1379 82.7226 60.7755 75.804C61.017 75.5522 61.2093 75.2538 61.4082 74.9648C61.8003 74.4053 62.2899 73.6967 62.9803 73.0626C75.4536 61.6031 100.351 49.3603 117.791 62.5914C123.461 66.8993 127.528 72.7829 130.894 77.9672C141.072 93.6264 153.115 107.29 172.124 101.312C172.576 101.17 173.042 100.946 173.58 100.684C174.203 100.383 174.828 100.088 175.497 99.8531C175.765 99.7571 176.116 99.6163 176.511 99.4587C178.933 98.49 180.785 97.827 182.366 98.0517C183.431 98.2055 184.335 98.9142 184.741 99.9128C186.033 103.088 183.223 105.608 181.711 106.961C181.467 107.18 181.244 107.371 181.094 107.534C180.165 108.542 179.148 109.336 178.161 110.102C177.019 110.992 175.94 111.833 175.317 112.808C168.668 123.215 168.503 133.484 174.838 142.506C184.589 156.392 208.158 164.573 226.31 160.356C235.136 158.311 246.191 152.56 248.721 136.797L250.581 125.209C250.844 123.558 252.37 122.424 254.035 122.687C255.679 122.942 256.812 124.483 256.567 126.137C255.102 136.061 253.441 147.308 256.766 157.203C258.885 163.502 263.206 169.742 269.979 176.279C294.333 199.781 331.217 209.48 363.926 200.99C379.308 196.995 391.902 188.779 403.558 175.13C411.061 166.345 420.095 154.494 423.373 140.715C428.141 120.697 419.835 98.0023 402.706 84.2424C386.675 71.3656 364.037 66.5823 342.154 71.4309C335.923 72.8202 330.297 74.8995 325.386 77.5663C322.644 79.9346 319.592 82.1165 316.218 84.028C315.534 84.6527 314.851 85.2774 314.222 85.9395C300.276 100.59 302.319 123.924 312.208 137.141C320.946 148.815 333.887 151.362 347.717 144.134C352.025 141.884 357.073 137.06 357.974 131.791C358.443 129.038 357.668 126.619 355.599 124.396C354.457 123.168 354.524 121.244 355.747 120.099C356.968 118.954 358.883 119.018 360.029 120.247C363.38 123.85 364.735 128.198 363.945 132.818C362.689 140.17 356.296 146.509 350.514 149.528C334.032 158.137 317.9 154.874 307.364 140.793C297.536 127.66 294.521 105.803 304.284 89.1628C294.89 92.0813 283.769 93.1713 270.849 91.5079C257.486 89.7876 239.66 81.7995 233.396 64.9318C226.672 46.8428 237.544 27.8772 251.189 19.2149C260.184 13.5085 272.839 12.1659 281.965 15.9422C288.919 18.8234 293.483 24.2407 295.162 31.6256C297.771 43.0944 290.984 54.9083 280.343 57.4072C274.471 58.7872 268.962 57.948 265.6 55.1507C263.812 53.6588 261.725 50.8708 261.938 46.0502C262.07 43.0664 263.782 40.1199 266.403 38.339C268.817 36.7073 271.645 36.2783 274.168 37.1735C275.746 37.7329 276.574 39.4673 276.016 41.0524C275.46 42.6375 273.726 43.4674 272.152 42.9079C271.164 42.5536 270.172 43.1224 269.791 43.3835C268.744 44.0921 268.038 45.2483 267.989 46.3206C267.905 48.2135 268.389 49.5748 269.468 50.4699C271.323 52.0084 275.042 52.4094 278.959 51.4863C287.196 49.5469 290.931 40.353 289.255 32.9775C288.016 27.5228 284.785 23.6906 279.653 21.5646C272.235 18.4876 261.857 19.6438 254.427 24.3526C242.798 31.7374 233.465 47.7192 239.073 62.8059C244.394 77.1373 259.93 83.972 271.617 85.4732C288.749 87.6831 302.382 84.6713 312.722 78.9742C315.396 76.6152 318.438 74.5172 321.75 72.6524C327.665 67.4774 331.908 61.314 334.53 55.1134C342.67 35.8494 337.698 9.44309 324.15 -9.20546C323.887 -9.28938 323.628 -9.40128 323.388 -9.56912C322.578 -10.1193 322.131 -10.9957 322.076 -11.9002C318.75 -16.0308 314.986 -19.7139 310.823 -22.7443C292.798 -35.8915 263.09 -38.9405 244.585 -29.551C231.622 -22.9774 220.828 -10.9956 213.924 4.3894C217.255 5.41507 220.27 6.851 222.876 8.68788C229.341 13.2381 233.373 20.4831 233.396 27.5882C233.403 29.2666 232.049 30.6278 230.376 30.6371H230.366C228.698 30.6371 227.344 29.2758 227.337 27.6068C227.32 22.4411 224.279 17.0983 219.396 13.667C215.09 10.6366 209.278 8.89297 202.588 8.64121C188.222 8.07243 174.918 14.1518 160.643 27.728C159.428 28.8842 157.511 28.8282 156.362 27.6068C155.212 26.3853 155.263 24.4645 156.478 23.3083C171.172 9.34051 185.711 2.52455 200.859 2.52455C201.512 2.52455 202.167 2.5338 202.821 2.56177C204.479 2.62704 206.085 2.78553 207.654 3.00931C209.847 -7.0236 199.73 -16.7674 192.966 -21.1685C181.826 -28.4041 166.4 -29.6163 152.707 -24.3294C140.061 -19.4435 129.105 -8.17973 121.805 7.41046C126.413 12.6134 128.324 19.5972 127.609 25.63C126.688 33.4158 121.091 41.845 108.15 42.134C106.573 42.1713 101.022 41.9289 96.7239 37.304C93.1877 33.4997 91.7206 28.0544 92.3636 21.1264C92.5197 19.4574 94.0304 18.2266 95.6601 18.3851C97.326 18.5343 98.5506 20.0168 98.3954 21.6952C97.9197 26.8142 98.8479 30.6745 101.155 33.1548C103.205 35.3646 106.075 36.0919 108.013 36.0546C119.108 35.8028 121.207 28.1756 121.594 24.9121C122.449 17.6858 117.972 8.79037 108.996 6.39403C97.3139 3.28905 78.7325 7.42911 70.7467 18.3665C68.8718 20.9307 69.1886 22.9727 69.6699 26.0777C70.0592 28.5766 70.5005 31.4204 69.6411 34.7398C67.5404 42.8799 60.217 42.4697 55.8558 42.2366C54.4305 42.1527 53.113 42.1526 51.5837 42.0687C50.5087 42.0034 49.286 41.9289 48.6216 42.1247C42.5954 43.9336 41.093 49.7799 39.4903 58.4887C39.0694 60.7732 38.6736 62.9365 38.1106 64.9785C35.5611 74.2282 29.3323 80.9603 19.6007 84.9884Z" fill="#1B4579"/>
</svg>
