<svg width="324" height="271" viewBox="0 0 324 271" fill="none" xmlns="http://www.w3.org/2000/svg">
<path fill-rule="evenodd" clip-rule="evenodd" d="M121.045 12.2208C122.554 12.575 124.031 13.0063 125.477 13.5289C126.037 13.7319 126.226 14.3914 125.648 14.7031C124.188 15.4912 122.61 15.9975 121.021 16.5073C120.512 16.6706 120.002 16.8342 119.495 17.0075C119.313 17.0689 119.042 17.133 118.733 17.2062C117.812 17.4239 116.549 17.7225 116.286 18.2714C115.836 19.2086 115.696 20.3034 115.557 21.3786L115.557 21.3787L115.557 21.3788C115.476 22.012 115.396 22.6384 115.254 23.2218C115.071 23.9715 114.873 24.7181 114.676 25.4647L114.676 25.4649L114.676 25.4651L114.676 25.4652C114.318 26.8175 113.96 28.1695 113.69 29.5384C113.573 30.1539 112.426 30.1539 112.302 29.5384C112.057 28.2868 111.729 27.0517 111.401 25.8164L111.401 25.816C111.129 24.7925 110.857 23.7688 110.632 22.7354C110.506 22.1612 110.407 21.5846 110.309 21.0081L110.309 21.008L110.308 21.0079C110.229 20.5444 110.15 20.081 110.056 19.6188C110.037 19.519 110.02 19.4113 110.003 19.3001C109.948 18.9484 109.888 18.5612 109.715 18.273C109.512 17.9391 109.142 17.8306 108.757 17.7177L108.676 17.6938C108.055 17.5127 107.443 17.3125 106.831 17.1124C106.565 17.0255 106.299 16.9386 106.032 16.8532C105.835 16.7905 105.637 16.7283 105.44 16.6662C103.69 16.1149 101.948 15.5661 100.351 14.7047C99.7709 14.393 99.9671 13.7335 100.524 13.5304C102.114 12.9575 103.751 12.4632 105.424 12.1217C106.191 11.9674 106.949 11.8336 107.723 11.7345C108.133 11.6794 108.351 11.6982 108.314 11.7644C108.809 10.9087 109.153 9.96432 109.491 9.04016C109.575 8.80995 109.658 8.581 109.743 8.35498C109.956 7.79036 110.177 7.22326 110.398 6.65389C111.189 4.61854 111.992 2.5542 112.499 0.470631C112.567 0.195174 112.887 0 113.195 0H113.384C113.418 0 113.45 0.00433405 113.481 0.00850775L113.5 0.0110122C113.502 0.0110122 113.504 0.0114059 113.506 0.0117994C113.508 0.0121925 113.509 0.0125854 113.511 0.0125854C113.523 0.0125854 113.545 0.0141568 113.562 0.0173049C113.801 0.0487857 114.011 0.188878 114.077 0.470631C114.637 2.84352 115.413 5.19699 116.183 7.52892L116.183 7.52903L116.183 7.52914C116.29 7.85311 116.397 8.17667 116.503 8.49981C116.595 8.77874 116.68 9.07496 116.766 9.37754C117.007 10.2224 117.263 11.1168 117.728 11.8226C117.569 11.5828 118.077 11.675 118.481 11.7484C118.568 11.7641 118.65 11.779 118.719 11.7895C119.498 11.9076 120.278 12.043 121.045 12.2208ZM14.0936 267.381C16.0312 266.045 16.886 264.103 17 261.674C16.9715 261.461 16.9573 261.249 16.943 261.036C16.9288 260.824 16.9145 260.611 16.8861 260.399C16.0882 257.667 14.2646 255.967 11.8711 255.117C10.4464 254.631 8.90773 254.145 7.36906 254.024C4.91859 253.842 2.81007 254.692 1.55634 256.938C-0.0393151 259.853 -0.552205 263.01 0.701525 266.288C1.38538 268.11 2.5251 269.506 4.23474 270.478C5.26052 271.085 6.28632 271.024 7.25511 270.963L7.30227 270.959C8.65681 270.839 10.1189 270.709 11.3582 269.749C11.7561 269.425 12.1252 269.08 12.4892 268.74L12.4896 268.74L12.4903 268.739C13.012 268.252 13.5232 267.774 14.0936 267.381ZM323.618 53.3721C322.561 52.9715 321.482 52.6408 320.379 52.3693C319.818 52.2329 319.249 52.1292 318.679 52.0387C318.629 52.0306 318.569 52.0192 318.505 52.0071C318.21 51.9508 317.839 51.8801 317.955 52.064C317.615 51.5228 317.429 50.8371 317.252 50.1894L317.252 50.1881C317.189 49.9566 317.127 49.73 317.06 49.5165C317.02 49.3886 316.98 49.2606 316.939 49.1325L316.826 48.7716C316.264 46.984 315.696 45.1798 315.287 43.3608C315.239 43.1448 315.085 43.0374 314.911 43.0133C314.898 43.0109 314.883 43.0096 314.874 43.0096C314.871 43.0096 314.868 43.0084 314.866 43.0084L314.852 43.0065C314.829 43.0033 314.805 43 314.78 43H314.642C314.418 43 314.184 43.1496 314.134 43.3608C313.763 44.9582 313.177 46.5408 312.599 48.1012C312.437 48.5378 312.276 48.9726 312.12 49.4055C312.058 49.5788 311.997 49.7543 311.935 49.9308C311.689 50.6393 311.437 51.3634 311.075 52.0193C311.102 51.9687 310.944 51.9542 310.644 51.9964C310.078 52.0724 309.524 52.175 308.964 52.2933C307.741 52.5551 306.545 52.9341 305.383 53.3733C304.976 53.529 304.833 54.0346 305.256 54.2736C306.424 54.934 307.697 55.3547 308.975 55.7774C309.12 55.8251 309.264 55.8728 309.408 55.9208C309.603 55.9863 309.798 56.053 309.992 56.1197C310.439 56.2731 310.887 56.4265 311.34 56.5652L311.399 56.5836C311.681 56.6702 311.951 56.7533 312.099 57.0093C312.226 57.2302 312.27 57.527 312.31 57.7966V57.7968C312.322 57.8821 312.334 57.9646 312.349 58.0411C312.417 58.3955 312.475 58.7509 312.533 59.1062C312.605 59.5483 312.677 59.9903 312.77 60.4305C312.934 61.2228 313.133 62.0077 313.331 62.7924L313.332 62.7933C313.571 63.7401 313.811 64.6868 313.99 65.6461C314.081 66.118 314.919 66.118 315.004 65.6461C315.202 64.5965 315.463 63.5598 315.725 62.523L315.725 62.5207C315.869 61.949 316.013 61.3774 316.147 60.8034C316.251 60.3561 316.31 59.8758 316.369 59.3903C316.47 58.566 316.573 57.7266 316.901 57.0081C317.093 56.5872 318.016 56.3583 318.689 56.1914C318.916 56.1353 319.114 56.0861 319.246 56.0391C319.617 55.9062 319.99 55.7808 320.362 55.6556C321.523 55.2648 322.676 54.8766 323.743 54.2724C324.165 54.0334 324.027 53.5278 323.618 53.3721ZM97.5224 68.9251C98.277 69.1258 99.0157 69.3702 99.7385 69.6664C100.019 69.7814 100.113 70.1551 99.8242 70.3317C99.094 70.7783 98.305 71.0653 97.5106 71.3541C97.2562 71.4466 97.0012 71.5394 96.7475 71.6376C96.6568 71.6724 96.5212 71.7087 96.3664 71.7502C95.9058 71.8736 95.2744 72.0427 95.1428 72.3538C94.9181 72.8848 94.8478 73.5053 94.7787 74.1146C94.7381 74.4734 94.6978 74.8284 94.6268 75.159C94.5353 75.5839 94.4366 76.007 94.3378 76.4302C94.159 77.1965 93.9803 77.9626 93.8448 78.7384C93.7864 79.0872 93.213 79.0872 93.1512 78.7384C93.0284 78.0291 92.8644 77.3292 92.7004 76.6291C92.5645 76.0491 92.4286 75.469 92.3161 74.8834C92.2529 74.558 92.2036 74.2313 92.1543 73.9046C92.1146 73.6419 92.0749 73.3793 92.0281 73.1173C92.0183 73.0607 92.01 72.9997 92.0014 72.9367C91.9741 72.7374 91.9441 72.518 91.8576 72.3547C91.756 72.1655 91.5711 72.104 91.3786 72.04C91.3651 72.0355 91.3515 72.031 91.338 72.0265C91.0275 71.9239 90.7213 71.8104 90.4153 71.697C90.2823 71.6478 90.1493 71.5985 90.0161 71.5502C89.9174 71.5146 89.8187 71.4794 89.72 71.4442C88.845 71.1317 87.9741 70.8208 87.1753 70.3326C86.8855 70.156 86.9836 69.7823 87.2619 69.6673C88.0571 69.3426 88.8753 69.0625 89.7121 68.8689C90.0956 68.7815 90.4747 68.7057 90.8617 68.6495C91.0667 68.6183 91.1754 68.629 91.1568 68.6665C91.4044 68.1816 91.5767 67.6465 91.7453 67.1228C91.7873 66.9923 91.829 66.8626 91.8717 66.7345C91.9781 66.4145 92.0883 66.0931 92.199 65.7705C92.5946 64.6171 92.9959 63.4474 93.2493 62.2667C93.2837 62.1106 93.4436 62 93.5974 62H93.6919C93.7088 62 93.7251 62.0025 93.7407 62.0048C93.7439 62.0053 93.7471 62.0058 93.7502 62.0062C93.752 62.0062 93.7538 62.0071 93.7556 62.0071C93.7617 62.0071 93.7723 62.008 93.7812 62.0098C93.9005 62.0276 94.0056 62.107 94.0383 62.2667C94.3183 63.6114 94.7068 64.945 95.0916 66.2665C95.1451 66.4501 95.1985 66.6334 95.2515 66.8166C95.2974 66.9746 95.3398 67.1425 95.383 67.3139C95.5038 67.7927 95.6316 68.2995 95.8639 68.6995C95.7845 68.5636 96.0384 68.6158 96.2405 68.6574C96.2838 68.6663 96.3248 68.6748 96.3595 68.6807C96.7492 68.7476 97.1389 68.8243 97.5224 68.9251Z" fill="white"/>
</svg>
