<svg width="305" height="159" viewBox="0 0 305 159" fill="none" xmlns="http://www.w3.org/2000/svg">
<path d="M-46.5897 170.436C-40.2165 172.255 -35.0253 176.252 -30.0049 180.118C-26.6776 182.679 -23.5349 185.099 -20.0667 186.945C-11.0313 191.754 -2.64084 193.566 4.86571 192.328C9.73023 191.529 14.3506 188.486 19.8516 182.465C19.9055 182.406 19.9775 182.379 20.0366 182.329C20.4211 180.357 21.4609 178.549 22.9885 177.309C24.6719 175.942 26.7632 175.424 28.8668 175.848C31.4283 176.365 33.0007 178.113 32.8721 180.301C32.8149 181.316 31.9654 182.085 30.9334 182.031C29.9222 181.971 29.15 181.101 29.2104 180.085C29.2253 179.834 28.6674 179.564 28.1427 179.459C26.8483 179.194 25.8773 179.702 25.2954 180.173C24.2264 181.04 23.5516 182.484 23.5334 183.939C23.4964 186.96 24.7531 189.284 27.2685 190.849C31.2835 193.344 38.0113 193.455 42.5842 191.103C46.4343 189.122 49.6024 185.89 52.9569 182.468C55.4073 179.967 57.9441 177.38 60.7908 175.307C68.1122 169.977 75.9162 167.212 83.9852 167.088C93.2155 166.955 100.83 170.205 108.87 173.656C110.535 174.37 112.215 175.091 113.924 175.785C121.409 178.826 128.87 181.219 136.1 182.897C151.331 186.431 166.593 187.315 181.463 185.528C190.202 184.477 198.959 182.488 207.495 179.616C217.063 176.397 226.601 172.337 235.824 168.411C240.374 166.473 245.08 164.47 249.702 162.606C254.854 160.527 260.04 158.875 265.115 157.693C271.45 156.218 277.514 155.48 283.258 155.48C288.244 155.48 292.991 156.037 297.467 157.15C297.497 157.157 297.528 157.167 297.559 157.174C283.46 151.517 269.495 149.7 255.148 151.628C240.941 153.539 226.565 157.623 212.662 161.573C206.318 163.376 199.759 165.24 193.297 166.874C153.988 176.815 124.446 174.438 102.982 159.608C86.8974 148.495 69.4748 138.275 48.888 145.799C41.6971 148.428 35.6271 152.824 29.2 157.479C24.681 160.752 20.0094 164.136 14.9507 166.804C2.67247 173.279 -12.5745 174.066 -26.8803 168.965C-27.872 168.612 -28.8839 168.234 -29.9139 167.851C-38.2096 164.757 -46.7891 161.554 -53.8072 166.931C-55.3107 168.083 -56.5357 169.343 -57.5962 170.732C-54.0898 169.46 -50.115 169.432 -46.5897 170.436Z" fill="#1B4579"/>
<path d="M267.051 166.955C276.991 164.365 286.944 163.071 296.653 163.071C299.343 163.071 302.013 163.177 304.66 163.376C301.909 162.322 299.224 161.381 296.584 160.725C287.524 158.47 277.216 158.657 265.944 161.281C261.054 162.419 256.05 164.015 251.072 166.023C246.481 167.874 241.793 169.871 237.257 171.801C227.969 175.756 218.366 179.844 208.661 183.108C199.891 186.06 190.887 188.104 181.901 189.184C166.612 191.024 150.922 190.117 135.275 186.485C127.858 184.764 120.21 182.313 112.548 179.199C110.816 178.496 109.116 177.766 107.428 177.042C99.7566 173.75 92.469 170.638 84.0421 170.771C79.2848 170.844 74.6157 171.962 70.0837 174.069C69.9889 174.144 69.885 174.211 69.772 174.267C63.2 177.564 59.726 188.728 60.3125 194.664C60.732 198.932 61.8381 202.669 63.5975 205.774C68.0223 213.583 77.4149 218.408 86.4198 217.491C94.5018 216.676 101.708 209.291 102.154 201.366C102.411 196.818 101.044 192.489 98.4954 189.783C96.3586 187.513 93.4302 186.362 89.7931 186.362C89.5548 186.362 89.3294 186.313 89.1203 186.23C85.8275 187.263 82.975 189.127 82.0086 191.968C81.3 194.043 82.006 197.09 83.5803 198.762C84.1512 199.368 86.01 200.081 87.4193 199.831C88.2279 199.684 88.3929 199.295 88.4637 199.128C88.8579 198.191 89.9367 197.754 90.868 198.152C91.8013 198.549 92.2371 199.629 91.8416 200.566C91.1908 202.107 89.8516 203.134 88.0694 203.456C85.6145 203.897 82.4723 202.949 80.9136 201.292C78.4171 198.642 77.3948 194.121 78.5353 190.777C81.2091 182.925 92.3267 180.766 99.0065 181.787C104.354 182.601 109.14 185.085 113.768 187.485C115.632 188.452 117.392 189.365 119.183 190.172C127.899 194.103 134.705 196.654 141.248 198.44C158.791 203.23 176.199 203.92 194.47 200.549C208.289 198 219.938 190.984 232.272 183.555C243.116 177.023 254.329 170.27 267.051 166.955Z" fill="#1B4579"/>
<path d="M-104.704 116.136C-106.086 119.406 -107.868 122.657 -110.04 125.796C-108.067 125.188 -106.056 124.628 -103.963 124.17C-80.2561 118.91 -55.6713 124.151 -38.1938 138.192C-28.6252 145.881 -21.5607 156.109 -17.582 167.224C-2.25959 166.933 11.2821 162.717 20.6459 155.209C32.5706 145.657 43.2945 126.982 40.7271 109.783C39.542 101.842 35.2693 94.4155 29.0072 89.4081C20.1032 82.2895 2.99994 80.3277 -8.34297 85.1201C-15.4187 88.1096 -19.3629 93.1543 -20.0685 100.114C-20.9901 109.213 -14.498 115.398 -8.07578 117.285C-2.51744 118.92 4.84216 117.836 8.84593 109.905C9.60274 108.401 11.4338 107.803 12.9242 108.559C14.4201 109.316 15.0187 111.156 14.26 112.651C9.57389 121.937 0.141173 126.048 -9.78305 123.133C-18.5371 120.555 -27.3806 112.063 -26.1081 99.507C-25.1884 90.4171 -19.7147 83.3078 -10.6981 79.5056C-5.74578 77.4129 0.0499413 76.4039 5.92107 76.4039C15.9039 76.4039 26.1102 79.3 32.7894 84.6437C40.2374 90.5946 45.3201 99.4321 46.7304 108.877C47.2517 112.362 47.2787 115.893 46.9277 119.406C59.2378 128.131 77.0914 127.851 89.462 118.714C94.6964 114.856 98.3883 109.382 102.296 103.58C107.264 96.2185 112.4 88.6047 121.052 84.2513C125.283 82.1213 129.972 81.5982 134.412 81.2525C141.733 80.6733 146.422 82.7659 151.4 84.98C153.329 85.8395 155.323 86.7269 157.58 87.5117C158.435 87.8013 159.262 88.1376 160.081 88.4646C162.02 89.2493 163.696 89.9126 165.552 89.9686C168.93 90.0714 171.493 89.8005 174.115 89.0344C174.314 88.9784 174.511 88.9224 174.708 88.8663C166.192 85.8302 161.929 76.3293 159.546 71.0136C153.849 58.3084 147.656 50.2836 134.406 49.5269C122.298 48.8449 112.946 54.964 103.06 61.438C97.7674 64.9133 92.2956 68.5006 86.2718 71.0696C84.6539 71.7609 83.0593 72.2841 81.4759 72.7325C81.0728 73.1062 80.5683 73.3864 79.9883 73.4985C77.6425 73.947 75.3711 74.1432 73.163 74.1432C59.4808 74.8719 46.9585 68.0521 34.7564 61.3632C25.3814 56.2344 15.6889 50.9281 5.87732 49.4895C-9.25524 47.2661 -24.1253 51.2551 -33.935 60.1395C-35.1778 61.2698 -37.0963 61.1671 -38.2208 59.9152C-39.3454 58.6728 -39.2467 56.7482 -38.0021 55.6178C-28.8682 47.3407 -15.9707 42.7912 -2.30985 42.7912C0.686689 42.7912 3.71765 43.0153 6.75514 43.4638C17.5535 45.0426 27.6508 50.5358 37.4187 55.8888C35.4806 54.0203 33.6458 52.1613 31.9106 50.405C29.1812 47.6397 26.6045 45.024 24.2512 42.9874C22.894 41.8103 21.587 40.6612 20.3126 39.5401C10.1175 30.5531 2.75326 24.0697 -10.7698 21.594C-19.4401 20.0059 -29.0758 21.0054 -37.195 24.3312C-45.6177 27.7878 -50.3997 33.4211 -55.9385 39.9512C-56.915 41.1003 -57.911 42.2773 -58.9499 43.4638C-58.9518 43.4731 -58.9536 43.4731 -58.9583 43.4731C-60.0586 44.7343 -61.979 44.8651 -63.2404 43.7628C-64.0763 43.0247 -64.4142 41.9317 -64.2243 40.9134C-65.3032 39.4187 -69.0873 36.2798 -72.9151 33.7387C-88.4517 23.4251 -105.481 32.5056 -115.61 45.8741C-100.787 66.2398 -95.6326 94.677 -104.704 116.136Z" fill="#1B4579"/>
</svg>
