<svg width="1111" height="843" viewBox="0 0 1111 843" fill="none" xmlns="http://www.w3.org/2000/svg">
<path d="M362.857 629.59C1068.69 641.749 2082.88 550.252 492.937 86.9889L362.857 629.59Z" fill="#295387"/>
<path d="M186.239 546.947C892.076 559.106 1888.18 543.046 298.234 79.7833L186.239 546.947Z" fill="#1F3D62"/>
<path d="M16.107 475.415C717.483 506.186 1706.35 520.328 114.067 66.7938L16.107 475.415Z" fill="#295387"/>
<path d="M173.079 443.245C624.788 451.675 1262.22 442.443 244.289 146.209L173.079 443.245Z" fill="#1F3D62"/>
<ellipse cx="763.563" cy="656.239" rx="23.9631" ry="14.1413" transform="rotate(-166.519 763.563 656.239)" fill="#295387"/>
<path d="M587.405 655.994C587.031 655.906 586.753 655.7 586.686 655.463L586.216 653.799C586.132 653.501 586.4 653.229 586.856 653.149L589.003 652.773C589.399 652.703 589.848 652.796 590.131 653.005L592.132 654.485C592.415 654.694 592.473 654.976 592.278 655.194L591.218 656.374C590.993 656.625 590.493 656.725 590.024 656.614L587.405 655.994Z" fill="#295387"/>
</svg>
