<svg width="672" height="444" viewBox="0 0 672 444" fill="none" xmlns="http://www.w3.org/2000/svg">
<path d="M104.939 52.3792C90.2201 52.3792 76.8551 42.4887 76.8551 28.6896C76.8551 14.8904 90.2201 4.99993 104.939 4.99993C119.659 4.99993 133.024 14.8904 133.024 28.6896C133.024 42.4887 119.659 52.3792 104.939 52.3792Z" fill="#FCFCFA" stroke="#1B3556" stroke-width="8"/>
<path d="M32.0843 114.401C17.3649 114.401 3.99988 104.511 3.99988 90.7119C3.99988 76.9127 17.3649 67.0222 32.0843 67.0222C46.8037 67.0222 60.1686 76.9127 60.1686 90.7119C60.1686 104.511 46.8037 114.401 32.0843 114.401Z" fill="#FCFCFA" stroke="#1B3556" stroke-width="8"/>
<path d="M501.89 319.856L506.492 313.648C501.89 319.856 501.894 319.858 501.898 319.861L501.906 319.866L501.924 319.877L501.967 319.903C501.998 319.922 502.035 319.945 502.077 319.971C502.162 320.022 502.269 320.086 502.398 320.162C502.656 320.312 503.001 320.509 503.426 320.739C504.273 321.199 505.453 321.8 506.906 322.445C509.78 323.719 513.893 325.236 518.726 326.086C528.809 327.861 541.604 326.576 551.751 315.653C556.488 310.552 559.054 305.377 559.682 300.21C560.314 295 558.904 290.382 556.777 286.65C554.697 283.001 551.964 280.24 549.855 278.435C548.782 277.516 547.816 276.799 547.086 276.292C546.719 276.037 546.407 275.832 546.165 275.677C546.043 275.599 545.939 275.534 545.854 275.482C545.811 275.456 545.773 275.432 545.739 275.412L545.693 275.385L545.673 275.373L545.663 275.367C545.659 275.364 545.654 275.362 541.269 281.701L545.654 275.362C542.895 273.731 539.496 273.462 536.762 274.659C534.05 275.847 532.412 278.295 532.464 281.072C532.464 281.092 532.464 281.146 532.461 281.232C532.455 281.413 532.439 281.731 532.395 282.159C532.306 283.021 532.107 284.301 531.665 285.805C530.776 288.83 528.967 292.56 525.316 295.722C521.353 299.153 515.986 301.783 511.297 303.593C509.006 304.477 506.993 305.121 505.57 305.54C504.861 305.749 504.305 305.899 503.943 305.994C503.762 306.042 503.629 306.075 503.551 306.094C503.511 306.104 503.485 306.11 503.474 306.113L503.476 306.112L501.89 319.856ZM501.89 319.856C499.008 318.054 497.391 315.047 497.731 312.118C498.069 309.193 500.298 306.861 503.468 306.114C503.472 306.113 503.475 306.113 503.479 306.112L501.89 319.856Z" fill="#F9E5D4" stroke="#1B3556" stroke-width="16.6193" stroke-miterlimit="12.5097" stroke-linejoin="round"/>
<path d="M128.422 12.9379L266.305 116.062L128.422 184.238L13.1178 118.523C13.1178 118.523 1.97882 98.8338 28.1706 85.5433C40.7763 79.1468 59.7813 68.3149 59.7813 68.3149L106.445 88.4968L91.6931 79.6364C91.6931 79.6364 86.9099 67.591 85.0699 59.7007C83.1324 51.3921 76.6404 43.7029 76.6404 43.7029C76.6404 43.7029 92.9937 26.5982 101.929 21.5521C110.864 16.506 128.422 12.9379 128.422 12.9379Z" fill="#8487A8" stroke="#1B3556" stroke-width="9" stroke-miterlimit="15.9925" stroke-linecap="round"/>
<path d="M361.921 287.146H429.635C429.635 287.146 451.832 291.008 465.854 296.956C479.875 302.905 508.057 315.544 508.057 315.544C508.057 315.544 522.07 310.437 529.788 302.636C537.033 295.312 542.071 280.691 542.071 280.691C542.071 280.691 529.521 269.475 515.93 262.619C502.339 255.763 472.468 245.58 472.468 245.58L248.225 80.8671L102.405 171.485C60.8318 197.302 175.284 223.274 229.958 245.58C284.633 267.886 307.12 313.737 329.167 332.326C352.594 341.786 376.724 326.904 376.724 317.61L361.921 287.146Z" fill="#FCFCFA" stroke="#1B3556" stroke-width="9" stroke-linecap="round" stroke-linejoin="round"/>
<path d="M261.187 8.99993C274.634 23.521 403.947 95.142 472.828 107.94L306.947 222.878C288.181 217.71 239.029 200.875 192.546 174.885C146.064 148.895 133.239 115.652 132.636 102.28L160.032 84.3127L205.793 102.28L164.548 79.3903L261.187 8.99993Z" fill="#1B3556" stroke="#1B3556" stroke-width="16.6193" stroke-linecap="round" stroke-linejoin="round"/>
<path d="M276.689 195.039C278.079 195.5 291.311 232.701 287.251 232.195C287.126 234.157 276.831 234.605 274.931 234.288C266.173 232.825 259.63 229.174 254.717 222.939C251.954 219.432 252.199 215.391 252.491 211.425C252.867 206.335 253.642 199.044 260.351 196.647C265.32 194.873 271.417 193.29 276.689 195.039Z" fill="#F9E5D4" stroke="#1B3556" stroke-width="16.6193" stroke-miterlimit="11.4737"/>
<path d="M517.725 196.248C516.285 196.589 498.422 232.473 502.524 232.313C502.4 234.275 512.583 235.591 514.513 235.435C523.41 234.72 530.378 231.641 536.053 225.855C539.245 222.599 539.513 218.56 539.722 214.59C539.992 209.496 540.143 202.178 533.772 199.228C529.055 197.043 523.19 194.954 517.725 196.248Z" fill="#F9E5D4" stroke="#1B3556" stroke-width="16.6193" stroke-miterlimit="11.4737"/>
<path d="M291.137 241.491C283.129 224.855 282.29 205.182 282.29 205.182L296.076 130.352L509.378 137.168L513.491 214.974C513.491 214.974 511.685 239.551 495.49 251.672C454.666 282.228 307.489 275.466 291.137 241.491Z" fill="#F9E5D4" stroke="#1B3556" stroke-width="16.6193"/>
<g filter="url(#filter0_f_2704_22465)">
<path d="M409.327 229.458C409.327 236.663 386.341 221.336 353.053 249.148C340.14 249.148 329.671 243.308 329.671 236.104C329.671 228.899 340.14 223.059 353.053 223.059C393.475 223.059 409.327 222.254 409.327 229.458Z" fill="#F07F7F"/>
</g>
<g filter="url(#filter1_f_2704_22465)">
<path d="M397.834 229.458C397.834 236.663 420.819 221.336 454.108 249.148C467.021 249.148 477.489 243.308 477.489 236.104C477.489 228.899 467.021 223.059 454.108 223.059C413.686 223.059 397.834 222.254 397.834 229.458Z" fill="#F07F7F"/>
</g>
<path d="M464.924 234.733C465.844 234.733 466.788 234.915 467.626 234.16C469.549 232.425 470.435 229.402 468.238 227.133C465.626 224.434 462.215 224.64 459.52 226.874C452.309 232.855 462.185 242.056 466.473 242.65C469.922 243.127 475.846 241.666 477.334 235.68C478.902 229.371 474.178 223.519 471.246 220.851C466.06 216.132 459.153 216.063 453.846 220.335C450.512 223.019 446.461 228.103 446.983 234.762C447.786 244.985 454.902 248.614 460.385 249.705" stroke="#1B3556" stroke-width="16.6193"/>
<path d="M387.252 237.687C388.172 237.687 389.116 237.868 389.953 237.113C391.877 235.378 392.763 232.355 390.566 230.086C387.954 227.388 384.542 227.593 381.848 229.828C374.637 235.808 384.513 245.009 388.801 245.603C392.25 246.081 398.174 244.619 399.662 238.633C401.23 232.324 396.506 226.473 393.574 223.805C388.387 219.085 381.481 219.016 376.174 223.288C372.84 225.972 368.789 231.056 369.311 237.715C370.114 247.938 377.23 251.568 382.712 252.659" stroke="#1B3556" stroke-width="16.6193"/>
<path d="M282.513 206.424C297.377 201.796 303.937 200.235 303.937 200.235L316.581 207.138C316.581 207.138 343.375 141.905 377.695 175.623C422.016 147.566 402.984 202.327 402.984 202.327L427.369 200.235L442.723 200.235C442.723 200.235 453.922 199.674 473.936 201.716L477.645 158.395L488.368 202.327C518.288 195.713 519.793 209.096 503.536 254.382C503.536 254.382 523.468 232.209 527.62 210.819C531.097 192.911 533.208 189.275 529.837 152.083C526.466 114.89 501.493 66.5674 424.442 59.8822C346.301 53.1024 275.38 78.4796 262.352 124.981C256.693 145.181 255.974 170.879 260.429 195.713C278.308 194.252 279.709 201.958 282.513 206.424Z" fill="#1B3556" stroke="#1B3556" stroke-width="3" stroke-miterlimit="11.4737"/>
<path d="M481.262 325.611C477.864 324.298 474.257 323.74 470.709 323.979L381.148 330.02C356.011 331.715 352.684 366.072 376.756 375.378C380.154 376.691 383.76 377.249 387.309 377.01L476.87 370.969C502.007 369.274 505.334 334.917 481.262 325.611Z" fill="#1B3556"/>
<path d="M590.335 333.265C600.913 299.156 571.479 263.254 534.905 265.655L434.527 272.245C414.721 273.545 398.306 286.255 392.578 304.726C382 338.835 411.434 374.737 448.008 372.336L548.386 365.746C568.192 364.446 584.606 351.736 590.335 333.265Z" fill="#E73646"/>
<path d="M552.239 326.67C550.831 326.488 549.151 326.658 547.693 326.676C543.647 326.727 539.654 326.795 535.612 327.06C533.853 327.175 535.246 326.858 535.643 326.221C536.277 325.204 533.403 324.526 531.804 324.421C528.463 324.201 525.924 325.065 523.547 326.188C521.019 327.382 521.283 328.031 517.369 328.042C514.635 328.05 514.602 327.924 514.245 329.249C513.697 331.286 509.692 335.491 509.692 335.491C509.692 335.491 510.134 332.777 510.167 332.135C510.304 329.445 510.262 328.867 510.983 326.36C512.939 319.558 513.936 316.393 513.936 316.393L517.715 305.87C517.715 305.87 521.45 296.149 523.194 292.31C523.379 291.903 523.344 291.819 522.856 292.254C520.91 293.987 515.752 301.595 515.752 301.595L506.088 317.303C506.088 317.303 502.234 322.957 498.221 330.281C496.595 333.248 495.156 336.251 493.953 339.247C493.321 340.822 491.568 343.937 491.568 343.937C491.568 343.937 493.453 335.537 492.883 331.311C492.778 330.532 493.051 329.14 491.268 328.839C488.295 328.337 486.295 328.401 483.007 328.584C481.344 328.676 479.411 328.971 477.771 328.84C475.289 328.641 475.818 327.882 475.59 326.765C475.226 324.984 474.778 322.28 471.43 321.21C468.103 320.148 463.576 319.514 459.493 320.359C454.927 321.304 453.43 323.473 452.758 325.597C452.411 326.695 452.378 329.408 449.609 330.142C447.547 330.688 443.935 330.943 441.651 330.907C438.814 330.861 435.919 331.146 433.069 331.333" stroke="#FCFCFA" stroke-width="4" stroke-miterlimit="16"/>
<path d="M326.89 328.71L323.445 330.741C322.662 329.414 322.712 327.756 323.571 326.478C324.431 325.2 325.948 324.529 327.471 324.753L327.472 324.753L327.473 324.753L327.492 324.755C327.512 324.758 327.546 324.763 327.594 324.77C327.69 324.782 327.84 324.802 328.039 324.826C328.437 324.874 329.033 324.939 329.792 325.006C331.313 325.141 333.478 325.28 336.02 325.295C341.159 325.324 347.594 324.842 353.331 322.944C358.871 321.111 362.847 317.924 365.453 315.165C366.753 313.788 367.696 312.535 368.302 311.647C368.604 311.203 368.821 310.854 368.955 310.629C369.022 310.516 369.068 310.435 369.093 310.389C369.106 310.367 369.113 310.353 369.116 310.348C369.782 309.089 371.069 308.279 372.493 308.223C373.923 308.167 375.275 308.879 376.037 310.09L372.651 312.22C376.037 310.09 376.038 310.092 376.039 310.094L376.042 310.099L376.048 310.109L376.064 310.135C376.076 310.154 376.09 310.177 376.107 310.205C376.141 310.261 376.184 310.333 376.235 310.422C376.337 310.6 376.472 310.843 376.628 311.146C376.94 311.751 377.342 312.603 377.738 313.653C378.523 315.73 379.331 318.703 379.285 322.119C379.238 325.585 378.307 329.473 375.665 333.216C373.04 336.936 368.899 340.269 362.828 342.952C350.236 348.516 340.212 345.526 333.472 341.018C330.178 338.815 327.703 336.283 326.055 334.318C325.227 333.331 324.595 332.471 324.161 331.843C323.944 331.529 323.775 331.271 323.656 331.084C323.596 330.99 323.549 330.914 323.514 330.856C323.496 330.827 323.481 330.803 323.47 330.784L323.455 330.759L323.449 330.749L323.447 330.745C323.446 330.743 323.445 330.741 326.89 328.71Z" fill="#F9E5D4" stroke="#1B3556" stroke-width="8" stroke-miterlimit="12.5097" stroke-linejoin="round"/>
<defs>
<filter id="filter0_f_2704_22465" x="135.779" y="29.1404" width="467.439" height="413.899" filterUnits="userSpaceOnUse" color-interpolation-filters="sRGB">
<feFlood flood-opacity="0" result="BackgroundImageFix"/>
<feBlend mode="normal" in="SourceGraphic" in2="BackgroundImageFix" result="shape"/>
<feGaussianBlur stdDeviation="96.946" result="effect1_foregroundBlur_2704_22465"/>
</filter>
<filter id="filter1_f_2704_22465" x="203.942" y="29.1404" width="467.439" height="413.899" filterUnits="userSpaceOnUse" color-interpolation-filters="sRGB">
<feFlood flood-opacity="0" result="BackgroundImageFix"/>
<feBlend mode="normal" in="SourceGraphic" in2="BackgroundImageFix" result="shape"/>
<feGaussianBlur stdDeviation="96.946" result="effect1_foregroundBlur_2704_22465"/>
</filter>
</defs>
</svg>
