<svg width="1920" height="277" viewBox="0 0 1920 277" fill="none" xmlns="http://www.w3.org/2000/svg">
<path d="M-230 138.651C-230 60.2035 -164.843 -2.5491 -86.4506 0.399618L180.547 10.4428C251.087 13.0961 317.753 43.3849 366.153 94.7696C422.578 154.676 503.333 185.44 585.315 178.262L740.879 164.641C802.576 159.239 864.739 163.567 925.092 177.468L972.974 188.496C1090.31 215.521 1212.05 217.192 1330.08 193.397L1419.97 175.276C1481.37 162.899 1539.33 137.282 1589.8 100.209L1615.94 81.0183C1664.05 45.6787 1721.15 24.6038 1780.69 20.2066L1976.2 5.76796C2054.92 -0.0462117 2122 62.2589 2122 141.2C2122 216.2 2061.2 277 1986.2 277H-91.6508C-168.059 277 -230 215.059 -230 138.651Z" fill="url(#paint0_linear_2664_1363)"/>
<defs>
<linearGradient id="paint0_linear_2664_1363" x1="946" y1="277" x2="946" y2="-4.99999" gradientUnits="userSpaceOnUse">
<stop stop-color="#1F3A5D"/>
<stop offset="1" stop-color="#3E77C1"/>
</linearGradient>
</defs>
</svg>
