<svg width="448" height="354" viewBox="0 0 448 354" fill="none" xmlns="http://www.w3.org/2000/svg">
<g filter="url(#filter0_f_2975_25419)">
<path d="M416.373 147.514C408.945 145.394 402.895 140.735 397.044 136.23C393.166 133.245 389.503 130.425 385.461 128.274C374.93 122.668 365.152 120.557 356.403 121.999C350.733 122.93 345.349 126.477 338.937 133.495C338.874 133.564 338.79 133.594 338.722 133.653C338.273 135.951 337.062 138.059 335.281 139.503C333.319 141.097 330.882 141.701 328.43 141.206C325.445 140.603 323.612 138.567 323.762 136.017C323.829 134.834 324.819 133.938 326.022 134C327.2 134.07 328.1 135.085 328.03 136.268C328.012 136.561 328.663 136.876 329.274 136.998C330.783 137.306 331.914 136.715 332.593 136.166C333.839 135.155 334.625 133.473 334.646 131.776C334.689 128.256 333.225 125.547 330.293 123.723C325.614 120.816 317.773 120.686 312.443 123.427C307.956 125.736 304.263 129.503 300.354 133.491C297.498 136.406 294.541 139.421 291.224 141.837C282.691 148.048 273.595 151.272 264.191 151.416C253.434 151.571 244.559 147.783 235.188 143.761C233.248 142.929 231.29 142.089 229.299 141.28C220.575 137.736 211.879 134.946 203.452 132.991C185.701 128.872 167.914 127.842 150.584 129.925C140.398 131.15 130.192 133.467 120.244 136.815C109.092 140.566 97.9767 145.298 87.2274 149.874C81.9243 152.133 76.4395 154.467 71.0524 156.639C65.0476 159.062 59.0042 160.988 53.0895 162.366C45.7055 164.084 38.6388 164.944 31.9444 164.944C26.1326 164.944 20.6009 164.296 15.3841 162.999C15.3485 162.99 15.3122 162.978 15.2766 162.97C31.709 169.564 47.9847 171.681 64.7054 169.434C81.2635 167.207 98.0183 162.447 114.221 157.843C121.616 155.742 129.26 153.57 136.791 151.665C182.605 140.08 217.035 142.85 242.051 160.134C260.797 173.086 281.103 184.996 305.096 176.228C313.477 173.164 320.551 168.04 328.042 162.615C333.309 158.8 338.753 154.856 344.649 151.746C358.959 144.201 376.729 143.283 393.402 149.228C394.558 149.64 395.737 150.08 396.938 150.527C406.606 154.133 416.605 157.866 424.785 151.599C426.537 150.257 427.965 148.788 429.201 147.169C425.114 148.652 420.482 148.684 416.373 147.514Z" fill="#48CAE4"/>
<path d="M50.8326 151.571C39.2477 154.589 27.6469 156.098 16.3314 156.098C13.1962 156.098 10.0844 155.974 6.99988 155.743C10.2055 156.97 13.3354 158.067 16.4124 158.832C26.9709 161.46 38.9851 161.242 52.1217 158.183C57.8215 156.857 63.6537 154.997 69.4548 152.657C74.8056 150.5 80.27 148.173 85.5564 145.923C96.3807 141.314 107.573 136.549 118.884 132.745C129.105 129.305 139.599 126.923 150.073 125.663C167.892 123.52 186.177 124.576 204.414 128.81C213.058 130.815 221.971 133.672 230.901 137.301C232.92 138.121 234.901 138.971 236.868 139.815C245.809 143.651 254.303 147.279 264.124 147.123C269.669 147.039 275.11 145.735 280.392 143.279C280.503 143.192 280.624 143.114 280.756 143.049C288.415 139.206 292.464 126.195 291.78 119.276C291.291 114.303 290.002 109.947 287.952 106.328C282.795 97.2271 271.848 91.6043 261.353 92.6724C251.934 93.6227 243.535 102.229 243.015 111.466C242.716 116.766 244.309 121.812 247.279 124.965C249.77 127.611 253.183 128.953 257.422 128.953C257.699 128.953 257.962 129.009 258.206 129.106C262.043 127.903 265.368 125.73 266.494 122.419C267.32 120 266.497 116.449 264.662 114.501C263.997 113.794 261.831 112.964 260.188 113.255C259.246 113.426 259.053 113.88 258.971 114.074C258.512 115.167 257.254 115.676 256.169 115.211C255.081 114.749 254.573 113.49 255.034 112.399C255.793 110.602 257.353 109.406 259.43 109.03C262.292 108.516 265.954 109.621 267.77 111.552C270.68 114.64 271.871 119.909 270.542 123.808C267.426 132.958 254.469 135.474 246.684 134.284C240.452 133.336 234.873 130.441 229.48 127.644C227.307 126.517 225.255 125.453 223.169 124.512C213.01 119.93 205.078 116.958 197.452 114.876C177.006 109.293 156.718 108.489 135.424 112.418C119.317 115.388 105.741 123.566 91.3659 132.224C78.7273 139.837 65.6588 147.708 50.8326 151.571Z" fill="#48CAE4"/>
<path d="M858.359 178.681C865.627 175.665 873.536 176.416 881.247 177.331C878.546 176.253 875.938 175.023 873.385 173.826C872.263 173.299 871.141 172.773 870.016 172.262C860.054 167.728 850.277 163.952 840.223 167.444C828.438 171.534 818.03 181.327 810.28 189.406C809.998 189.7 809.773 190.048 809.541 190.386C809.083 191.039 808.511 191.866 807.705 192.607C793.14 205.988 764.067 220.284 743.703 204.834C737.082 199.804 732.333 192.933 728.402 186.88C716.517 168.594 702.455 152.639 680.259 159.62C679.73 159.786 679.187 160.047 678.559 160.353C677.831 160.705 677.1 161.049 676.319 161.324C676.007 161.436 675.597 161.6 675.136 161.784C672.307 162.915 670.145 163.689 668.298 163.427C667.055 163.247 665.999 162.42 665.525 161.254C664.016 157.546 667.298 154.604 669.063 153.024C669.349 152.768 669.609 152.545 669.784 152.355C670.868 151.177 672.057 150.25 673.209 149.355C674.542 148.317 675.802 147.335 676.53 146.196C684.293 134.044 684.487 122.053 677.088 111.518C665.703 95.3034 638.181 85.7503 616.986 90.6738C606.679 93.0626 593.77 99.7773 590.816 118.184L588.644 131.716C588.337 133.643 586.554 134.967 584.611 134.66C582.691 134.363 581.368 132.563 581.654 130.631C583.365 119.043 585.305 105.91 581.422 94.3561C578.948 87.0013 573.902 79.714 565.993 72.0816C537.555 44.6374 494.485 33.3129 456.291 43.2263C438.329 47.8907 423.624 57.4852 410.013 73.423C401.252 83.6816 390.703 97.5191 386.874 113.609C381.308 136.985 391.006 163.485 411.008 179.552C429.727 194.588 456.161 200.174 481.714 194.512C488.99 192.89 495.559 190.462 501.294 187.348C504.496 184.582 508.06 182.035 511.999 179.803C512.799 179.073 513.596 178.344 514.331 177.571C530.615 160.463 528.23 133.216 516.682 117.783C506.479 104.151 491.367 101.176 475.218 109.617C470.188 112.244 464.294 117.877 463.241 124.03C462.693 127.244 463.598 130.069 466.014 132.665C467.348 134.098 467.27 136.345 465.842 137.683C464.416 139.02 462.18 138.944 460.842 137.509C456.928 133.302 455.346 128.225 456.269 122.83C457.735 114.245 465.201 106.843 471.952 103.318C491.198 93.2651 510.035 97.076 522.339 113.518C533.815 128.854 537.336 154.376 525.935 173.807C536.905 170.399 549.89 169.126 564.977 171.068C580.581 173.077 601.396 182.405 608.711 202.101C616.562 223.224 603.868 245.37 587.934 255.485C577.43 262.148 562.653 263.716 551.997 259.306C543.877 255.942 538.547 249.616 536.587 240.993C533.54 227.601 541.466 213.806 553.89 210.888C560.747 209.276 567.181 210.256 571.106 213.523C573.195 215.265 575.631 218.52 575.383 224.149C575.228 227.633 573.229 231.074 570.169 233.154C567.35 235.059 564.048 235.56 561.101 234.515C559.259 233.861 558.292 231.836 558.943 229.985C559.593 228.134 561.617 227.165 563.455 227.818C564.61 228.232 565.767 227.568 566.212 227.263C567.435 226.436 568.259 225.085 568.317 223.833C568.414 221.623 567.849 220.034 566.59 218.988C564.424 217.192 560.081 216.724 555.507 217.801C545.889 220.066 541.528 230.802 543.485 239.414C544.931 245.784 548.704 250.258 554.697 252.741C563.359 256.334 575.477 254.984 584.153 249.485C597.732 240.862 608.631 222.2 602.082 204.584C595.868 187.849 577.727 179.868 564.08 178.115C544.075 175.534 528.156 179.051 516.082 185.704C512.959 188.458 509.407 190.908 505.539 193.086C498.633 199.129 493.679 206.326 490.616 213.566C481.111 236.061 486.918 266.895 502.737 288.671C503.044 288.769 503.347 288.9 503.628 289.096C504.573 289.738 505.095 290.762 505.16 291.818C509.043 296.641 513.439 300.942 518.299 304.48C539.347 319.832 574.038 323.393 595.645 312.429C610.782 304.753 623.387 290.762 631.449 272.796C627.559 271.599 624.038 269.922 620.995 267.777C613.445 262.464 608.738 254.004 608.711 245.707C608.703 243.747 610.284 242.158 612.237 242.147H612.249C614.196 242.147 615.778 243.737 615.786 245.686C615.806 251.717 619.357 257.956 625.058 261.963C630.087 265.502 636.873 267.538 644.685 267.832C661.46 268.496 676.995 261.397 693.664 245.544C695.083 244.194 697.321 244.259 698.663 245.686C700.006 247.112 699.947 249.355 698.528 250.705C681.37 267.015 664.393 274.974 646.704 274.974C645.942 274.974 645.177 274.963 644.414 274.931C642.477 274.854 640.602 274.669 638.77 274.408C636.209 286.123 648.022 297.501 655.921 302.64C668.929 311.089 686.942 312.505 702.931 306.331C717.698 300.626 730.492 287.473 739.015 269.269C733.635 263.193 731.403 255.038 732.239 247.994C733.314 238.902 739.849 229.06 754.96 228.722C756.802 228.678 763.284 228.962 768.303 234.362C772.432 238.804 774.145 245.163 773.394 253.253C773.212 255.202 771.448 256.639 769.545 256.454C767.6 256.279 766.17 254.548 766.351 252.588C766.906 246.611 765.823 242.103 763.129 239.207C760.734 236.627 757.383 235.777 755.121 235.821C742.165 236.115 739.714 245.021 739.262 248.832C738.263 257.27 743.491 267.657 753.973 270.456C767.614 274.081 789.311 269.247 798.636 256.475C800.826 253.481 800.456 251.097 799.894 247.471C799.439 244.553 798.924 241.232 799.927 237.356C802.38 227.851 810.932 228.33 816.024 228.602C817.689 228.7 819.227 228.7 821.013 228.798C822.268 228.875 823.696 228.962 824.472 228.733C831.509 226.621 833.263 219.794 835.134 209.625C835.626 206.957 836.088 204.431 836.745 202.047C839.723 191.246 846.996 183.385 858.359 178.681Z" fill="#48CAE4"/>
<path d="M484.103 210.8C485.713 206.989 487.791 203.2 490.322 199.542C488.023 200.25 485.679 200.903 483.24 201.436C455.61 207.566 426.957 201.458 406.587 185.094C395.435 176.133 387.202 164.213 382.565 151.258C364.707 151.597 348.924 156.51 338.011 165.261C324.113 176.394 311.615 198.159 314.607 218.204C315.988 227.458 320.968 236.114 328.266 241.95C338.644 250.247 358.577 252.533 371.797 246.948C380.043 243.464 384.64 237.584 385.463 229.473C386.537 218.868 378.97 211.66 371.485 209.461C365.007 207.555 356.43 208.818 351.764 218.062C350.882 219.815 348.747 220.512 347.011 219.63C345.267 218.748 344.569 216.603 345.454 214.861C350.915 204.039 361.909 199.248 373.475 202.645C383.678 205.65 393.985 215.547 392.502 230.18C391.43 240.774 385.05 249.06 374.542 253.492C368.77 255.93 362.015 257.106 355.172 257.106C343.538 257.106 331.643 253.731 323.858 247.503C315.178 240.568 309.254 230.268 307.61 219.26C307.003 215.199 306.971 211.083 307.38 206.989C293.033 196.82 272.225 197.146 257.808 207.795C251.707 212.292 247.404 218.672 242.85 225.433C237.06 234.013 231.074 242.887 220.991 247.961C216.06 250.443 210.595 251.053 205.42 251.456C196.887 252.131 191.422 249.692 185.621 247.111C183.373 246.11 181.048 245.075 178.418 244.161C177.421 243.823 176.458 243.431 175.503 243.05C173.243 242.135 171.29 241.362 169.127 241.297C165.189 241.177 162.203 241.493 159.146 242.386C158.915 242.451 158.685 242.516 158.455 242.582C168.381 246.12 173.349 257.193 176.127 263.389C182.766 278.196 189.984 287.549 205.426 288.431C219.538 289.226 230.438 282.094 241.96 274.549C248.128 270.498 254.505 266.318 261.526 263.323C263.411 262.518 265.27 261.908 267.115 261.385C267.585 260.95 268.173 260.623 268.849 260.493C271.583 259.97 274.23 259.741 276.804 259.741C292.75 258.892 307.344 266.84 321.566 274.636C332.492 280.613 343.788 286.798 355.223 288.475C372.86 291.066 390.191 286.417 401.624 276.062C403.072 274.745 405.308 274.865 406.619 276.324C407.929 277.772 407.814 280.015 406.364 281.332C395.718 290.979 380.687 296.281 364.765 296.281C361.273 296.281 357.74 296.02 354.2 295.497C341.615 293.657 329.847 287.255 318.463 281.016C320.722 283.194 322.86 285.361 324.882 287.408C328.063 290.63 331.066 293.679 333.809 296.052C335.391 297.424 336.914 298.764 338.399 300.07C350.282 310.544 358.864 318.101 374.625 320.986C384.73 322.837 395.96 321.672 405.423 317.796C415.24 313.767 420.813 307.202 427.268 299.591C428.406 298.252 429.567 296.88 430.778 295.497C430.78 295.486 430.782 295.486 430.788 295.486C432.07 294.017 434.308 293.864 435.778 295.149C436.753 296.009 437.146 297.283 436.925 298.47C438.183 300.212 442.593 303.87 447.054 306.832C465.161 318.852 485.008 308.269 496.813 292.688C479.538 268.952 473.531 235.81 484.103 210.8Z" fill="#48CAE4"/>
</g>
<defs>
<filter id="filter0_f_2975_25419" x="0.0783868" y="0.0785394" width="2366.54" height="352.996" filterUnits="userSpaceOnUse" color-interpolation-filters="sRGB">
<feFlood flood-opacity="0" result="BackgroundImageFix"/>
<feBlend mode="normal" in="SourceGraphic" in2="BackgroundImageFix" result="shape"/>
<feGaussianBlur stdDeviation="3.46075" result="effect1_foregroundBlur_2975_25419"/>
</filter>
</defs>
</svg>
