<svg width="1047" height="616" viewBox="0 0 1047 616" fill="none" xmlns="http://www.w3.org/2000/svg">
<g opacity="0.44">
<path d="M290.888 356.955C299.644 363.265 290.669 363.401 288.377 365.6C286.104 367.629 290.598 372.641 326.956 385.918C328.235 381.713 311.168 369.106 290.888 356.955Z" fill="#1B4579"/>
<path d="M640.698 480.655C644.87 483.012 649.077 485.27 653.311 487.511C659.558 486.465 663.486 485.015 640.698 480.655Z" fill="#1B4579"/>
<path d="M660.865 491.518L653.311 487.511C645.976 488.651 635.348 488.937 660.865 491.518Z" fill="#1B4579"/>
<path d="M513.984 553.495C507.87 551.56 501.987 549.698 496.195 547.867C500.937 549.975 506.63 551.85 513.984 553.495Z" fill="#1B4579"/>
<path d="M448.564 530.588C402.26 513.331 417.603 503.852 455.52 511.396C412.454 496.476 409.912 508.641 368.375 486.499L366.298 495.563L342.922 483.193C346.076 485.96 341.86 486.273 338.003 486.891C334.346 487.581 331.234 488.685 336.482 493.111C335.305 491.21 335.781 490.355 337.447 490.261C339.299 490.234 342.186 490.894 345.886 492.033C353.246 494.3 363.585 498.351 373.195 501.941C392.429 509.123 408.667 514.55 391.56 501.303C416.75 520.914 451.495 533.525 496.192 547.867C482.249 541.714 476.769 533.947 465.925 526.04L448.564 530.588Z" fill="#1B4579"/>
<path d="M542.768 503.562C540.296 501.404 537.925 499.669 535.585 497.827C533.375 498.859 533.416 500.273 542.768 503.562Z" fill="#1B4579"/>
<path d="M272.324 396.444C262.094 391.804 251.875 387.115 241.75 382.154C257.809 390.675 267.218 394.625 272.324 396.444Z" fill="#1B4579"/>
<path d="M604.085 482.47L596.15 477.673C588.079 478.398 576.513 478.154 604.085 482.47Z" fill="#1B4579"/>
<path d="M582.85 469.448L596.146 477.677C603.022 476.877 607.291 475.617 582.85 469.448Z" fill="#1B4579"/>
<path d="M325.845 435.26C324.007 432.699 321.259 430.327 301.499 421.596C313.184 428.445 311.296 434.768 345.09 449.362C328.571 440.666 327.705 437.77 325.845 435.26Z" fill="#1B4579"/>
<path d="M462.79 482.312C444.943 476.206 427.25 469.695 409.672 462.904C426.058 469.964 442.585 476.738 459.256 483.2L462.79 482.312Z" fill="#1B4579"/>
<path d="M892.688 446.362C891.203 443.207 889.667 445.293 887.556 449.422C887.728 454.107 889.78 454.746 892.688 446.362Z" fill="#1B4579"/>
<path d="M865.142 410.146L864.98 413.244C865.503 413.229 865.427 411.898 865.142 410.146Z" fill="#1B4579"/>
<path d="M151.694 157.666C148.297 159.603 144.216 163.402 141.108 170.588C141 170.804 140.879 171.017 140.781 171.278C140.835 171.234 140.835 171.303 140.872 171.317C138.46 178.481 136.817 187.647 137.85 199.741C139.351 205.861 140.777 208.857 141.703 210.115C142.363 213.81 143.558 217.356 144.887 220.448C146.91 207.633 146.232 193.67 151.731 177.061C151.876 178.341 151.883 179.755 151.968 181.764C152.1 179.509 152.158 177.166 152.571 174.994C154.415 170.15 158.375 166.201 163.081 163.585C167.802 160.825 173.219 159.015 179.228 157.686C191.276 155.091 205.762 154.059 224.314 155.728C200.962 152.223 184.476 151.759 169.579 153.91C170.367 153.39 171.187 152.971 171.984 152.486C166.929 153.035 164.373 153.147 159.915 154.062C157.772 154.821 155.05 155.425 151.694 157.666Z" fill="#1B4579"/>
<path d="M171.984 152.49C176.565 151.839 183.604 150.474 196.521 148.818C188.734 149.076 180.813 150.054 173.983 151.283L171.984 152.49Z" fill="#1B4579"/>
<path d="M189.056 271.602C181.942 264.036 174.304 255.41 167.236 244.524C160.474 233.618 153.49 220.231 152.976 202.701C152.323 211.661 153.224 219.125 154.401 225.629C155.599 232.14 157.156 237.778 158.829 243.223C162.5 253.996 166.619 264.011 175.591 276.876C178.515 274.688 184.496 280.626 193.153 288.677C201.675 296.739 213.614 307.171 224.849 313.593C219.671 305.483 214.541 298.836 208.683 292.229C202.838 285.649 196.204 279.168 189.056 271.602Z" fill="#1B4579"/>
<path d="M279.799 319.305C278.487 318.16 277.041 316.919 275.295 315.465C276.741 316.733 278.285 318.023 279.799 319.305Z" fill="#1B4579"/>
<path d="M280.51 325.893L294.257 333.924L307.188 341.212L290.931 328.48C287.019 325.372 283.355 322.326 279.802 319.308C285.967 324.692 287.542 326.847 285.419 326.766C282.926 326.685 275.402 323.403 266.975 319.178C250.042 310.975 230.089 298.179 235.807 306.243C242.291 308.513 253.428 315.739 264.022 322.108C274.554 328.491 284.404 333.967 285.484 332.835C287.7 334.189 290.159 335.683 292.053 336.738L285.582 332.595C285.673 331.773 284.121 329.678 280.51 325.893Z" fill="#1B4579"/>
<path d="M189.218 135.974C191.047 135.539 192.877 135.08 194.671 134.548C198.173 133.411 201.984 132.402 206.034 131.475C209.924 130.404 214.601 129.931 219.497 129.66C211.867 128.706 206.172 128.138 202.3 128.048C198.313 127.859 195.745 127.794 194.155 127.817C191.082 127.957 191.842 128.371 192.639 129.036C193.457 129.713 194.376 130.719 191.852 132.089C189.332 133.494 183.256 134.977 171.687 138.522C176.145 138.488 179.974 137.89 183.793 137.271C185.67 136.92 187.469 136.482 189.218 135.974Z" fill="#1B4579"/>
<path d="M408.041 387.279L384.75 375.449C393.018 380.509 400.761 384.318 408.041 387.279Z" fill="#1B4579"/>
<path d="M555.191 564.689L536.232 558.657C539.272 560.728 548.716 563.718 555.191 564.689Z" fill="#1B4579"/>
<path d="M1036.78 466.577L1037.21 458.326C1036.86 463.122 1036.52 468.108 1035.54 474.697C1035.98 472.017 1036.51 469.3 1036.78 466.577Z" fill="#1B4579"/>
<path d="M961.647 337.728C962.049 338.203 962.451 338.681 962.9 339.208L967.256 336.318L961.647 337.728Z" fill="#1B4579"/>
<path d="M744.157 596.072C748.807 597.312 754.475 598.112 761.497 598.522C755.571 597.686 749.774 596.867 744.157 596.072Z" fill="#1B4579"/>
<path d="M607.587 488.318C615.475 488.96 623.35 489.592 631.237 490.078C623.543 486.739 615.922 483.294 608.353 479.804L607.587 488.318Z" fill="#1B4579"/>
<path d="M380.996 450.205C391.972 455.847 390.558 461.66 422.135 473.29C391.289 458.755 418.006 463.825 380.996 450.205Z" fill="#1B4579"/>
<path d="M531.19 497.976C514.62 493.057 498.105 488.046 481.763 482.562C497.042 488.32 512.493 493.672 528.019 498.92L531.19 497.976Z" fill="#1B4579"/>
<path d="M415.692 194.373C409.222 192.43 401.476 190.601 391.537 189.523C397.653 190.998 407.83 193.171 415.692 194.373Z" fill="#1B4579"/>
<path d="M183.627 255.123C189.098 261.96 195.131 268.418 201.553 274.696C195.185 265.84 189.483 257.258 184.654 248.113C189.878 257.149 190.549 259.334 187.989 258.029C185.518 256.665 180.06 251.604 174.852 245.202C169.558 238.864 164.638 231.137 161.555 225.769C158.383 220.447 156.768 217.626 156.563 221.801C160.636 227.88 167.591 241.757 174.645 250.645C181.575 259.677 186.871 264.436 183.627 255.123Z" fill="#1B4579"/>
<path d="M318.392 353.1C311.292 346.136 329.109 349.287 332.309 348.785C321.404 348.343 307.903 345.412 292.046 336.742C300.729 342.346 309.519 347.792 318.392 353.1Z" fill="#1B4579"/>
<path d="M63.2129 149.341C62.1976 153.334 61.0345 156.61 60.8752 157.445C62.8555 154.593 64.0981 146.587 67.6287 137.014C66.6629 138.824 66.1244 140.995 65.3113 143.1C64.5797 145.22 63.6105 147.317 63.2129 149.341Z" fill="#1B4579"/>
<path d="M792.511 221.513C792.98 221.851 793.364 222.131 793.859 222.49L796.949 218.853L792.511 221.513Z" fill="#1B4579"/>
<path d="M6.14897 169.629C8.73671 192.841 17.2666 214.924 28.8172 234.381C37.5467 243.541 43.9184 255.573 53.1748 268.172C58.0919 275.041 63.935 281.755 71.0341 287.99C70.3202 287.149 69.9353 286.653 69.4205 285.935C60.758 274.554 59.223 270.157 60.7065 269.394C62.1581 268.751 66.7085 271.545 70.9227 273.758C75.1156 276.046 78.8782 277.953 78.82 275.979C78.7941 274.994 77.8147 273.04 75.4827 269.682C73.0652 266.37 69.4775 261.455 64.3414 254.424C67.0077 261.146 68.5255 264.682 65.1944 263.361C58.0991 253.636 50.3538 240.53 44.7342 228.106C43.4365 224.915 42.1784 221.824 40.993 218.904C39.9 215.93 39.0995 212.927 38.3322 210.282C36.7188 205.044 36.1796 200.324 36.0483 197.33C37.028 199.543 37.9615 201.648 38.8519 203.656C39.8044 205.575 40.7104 207.4 41.5768 209.138C43.2927 212.593 44.6028 215.885 46.059 218.601C48.7892 224.207 50.6459 228.991 52.5162 232.894C55.971 241.031 58.7023 246.545 64.8468 251.324C77.3416 269.074 92.6716 284.965 98.8551 293.069C103.482 292.221 112.586 295.598 122.458 299.778C127.155 306.257 139.922 317.639 153.477 327.889C166.927 338.363 181.006 347.935 187.091 353.706C187.423 353.509 188.028 353.489 188.468 353.352C191.527 355.551 195.201 358.079 200.202 361.307L198.696 353.555C200.772 353.86 202.931 354.248 205.28 354.752C213.063 359.496 222.011 365.068 225.651 368.964C224.409 366.236 218.648 361.268 213.027 356.461C228.632 360.232 245.378 364.589 248.003 361.576C264.526 375.085 257.794 376.648 267.041 388.078C263.576 388.327 263.928 390.457 275.764 397.214C274.966 397.159 274.003 396.996 272.327 396.441L277.722 398.816C277.141 398.28 276.754 397.923 276.314 397.521C278.835 398.94 281.624 400.458 285.132 402.283L282.135 392.198C290.17 396.609 303.952 402.574 308.787 407.178C307.949 405.631 305.378 403.468 302.287 401.123C313.84 407.096 325.197 413.008 336.394 419.408C333.944 419.766 331.527 419.869 329.331 419.968L324.295 418.008C326.084 418.755 327.463 419.334 329.022 419.985C321.622 420.282 317.718 420.567 332.952 431.328C348.857 435.552 364.819 439.358 380.762 443.011C371.355 436.511 361.969 430.025 352.947 423.788C349.5 420.779 345.148 417.241 343.884 414.945C368.411 426.537 390.781 435.257 412.715 446.283C410.739 446.73 408.701 446.941 406.864 447.134C396.526 443.335 386.233 439.399 375.986 435.342C384.173 439.789 392.465 443.992 400.749 448.306C399.842 448.855 400.126 449.857 401.937 451.51L399.041 450.815L403.822 453.07C405.367 454.252 407.346 455.62 410.216 457.406L415.117 458.407C427.985 464.385 440.953 470.181 454.005 475.85L468.547 469.206C473.322 470.762 477.587 472.153 481.676 473.487L483.231 474.161L471.514 471.974C488.483 479.065 505.591 485.946 522.911 492.391L525.601 491.009C529.282 493.216 532.507 495.455 535.595 497.835C538.71 496.434 546.175 495.792 540.905 492.347C549.41 494.624 557.968 496.726 566.532 498.82L560.816 492.598C577.904 497.627 586.978 501.494 594.534 506.151C583.801 507.048 573.657 508.339 556.231 502.228C571.811 510.466 582.107 515.865 593.321 521.211C599.551 524.201 606.11 527.181 614.076 530.499C574.929 535.077 525.117 524.355 493.853 535.876C544.516 547.637 514.413 550.504 555.201 564.696C567.855 568.616 580.53 572.504 593.306 576.183C577.982 566.419 562.891 556.479 548.003 546.362C566.395 550.355 581 554.505 593.837 558.789C589.99 559.946 585.067 561.098 591.366 565.163C587.019 559.828 600.772 563.059 616.111 566.889C642.289 576.811 664.775 587.145 707.54 591.246C708.459 590.835 709.088 590.449 709.837 590.074C720.496 592.29 731.856 594.21 744.164 596.083C730.381 592.489 724.244 586.196 713.318 580.4L710.774 581.449C705.15 576.344 696.29 572.504 731.247 568.875C751.767 571.567 762.222 573.819 767.618 576.122C757.446 578.4 747.997 581.258 740.282 585.532C745.003 585.974 748.79 586.33 752.228 586.654C758.006 593.191 761.405 595.318 768.583 598.043C775.928 600.718 786.977 604.739 808.616 612.617C823.408 609.801 805.265 606.018 787.45 600.642C791.64 601.428 797.402 601.765 801.733 601.571C795.933 600.974 790.119 600.452 784.383 599.704C772.026 595.913 760.663 591.418 760.248 587.709C780.994 590.855 768.701 597.239 801.733 601.571C814.281 602.689 826.922 603.626 839.82 603.878C836.445 602.808 833.066 601.825 829.757 600.68C831.447 600.807 833.129 600.848 835.163 600.882C827.953 598.582 820.884 596.153 813.933 593.558C839.203 593.97 854.194 594.754 860.821 597.234C867.466 599.558 865.622 603.525 857.22 607.289C878.06 605.036 891.733 603.559 901.578 602.493C911.768 601.586 918.407 601.302 924.409 601.113C930.493 600.635 935.936 600.35 944.2 597.379C952.328 594.388 963.639 589.448 979.704 575.765C966.624 582.361 955.209 584.314 944.509 586.14C933.832 587.466 923.737 588.637 912.688 590.67C922.355 588.593 932.211 585.401 942.05 581.726L934.838 582.243C940.614 580.154 946.521 577.414 952.912 573.95C954.42 571.926 955.127 570.465 955.488 569.257C962.21 566.792 965.026 566.604 966.821 567.631C968.617 568.609 969.301 570.57 971.833 571.066C973.101 571.309 974.842 571.188 977.441 570.337C980.012 569.303 983.448 567.464 988.047 564.366C992.47 560.959 998.429 556.142 1004.94 548.208C1008.29 544.398 1011.36 539.572 1014.79 534.263C1017.83 528.696 1021.18 522.536 1023.68 515.215C1019.93 524.868 1016.23 529.559 1014.51 531.775C1012.64 533.923 1012.08 533.312 1012.17 531.336C1012.42 527.358 1014.99 518.043 1014.7 513.119C1016.63 510.101 1018.52 506.719 1020.09 503.109C1020.94 501.501 1021.85 499.808 1023.05 497.047C1024.28 494.581 1025.51 491.551 1026.94 488.049C1027.63 486.274 1028.36 484.4 1029.12 482.428C1029.78 480.428 1030.25 478.284 1030.83 476.034C1030.28 471.459 1029.58 469.226 1028.89 468.765C1029.13 463.822 1028.89 458.892 1028.75 454.066C1028.4 449.275 1027.6 444.642 1026.95 440.18C1026.41 435.743 1025.1 431.46 1024.2 427.592C1023.37 424.051 1022.65 420.676 1021.87 418.027C1020.41 412.512 1019.55 408.099 1019.75 405.295C1019.9 402.667 1021.17 401.479 1024.04 402.304C1027.79 409.305 1030.68 414.851 1032.57 420.396C1033.02 421.78 1033.45 423.098 1033.87 424.358C1034.31 425.804 1034.73 427.184 1035.13 428.502C1035.9 431.158 1036.51 433.564 1036.77 435.82C1037.97 444.861 1038.03 451.033 1037.22 458.319C1038.18 453.033 1039.81 451.725 1041.62 451.172C1040.55 444.386 1039.2 438.105 1037.73 432.376C1036.83 429.504 1035.87 426.755 1034.92 424.135C1034.06 421.847 1033.24 419.654 1032.44 417.547C1030.71 413.649 1028.97 410.29 1027.32 407.15C1025.68 403.958 1024.05 401.264 1022.44 399.044C1016.12 389.591 1010.83 384.932 1006.14 381.11C996.633 373.769 989.431 370.204 975.089 353.513C973.067 350.621 970.603 347.516 966.859 343.764C965.572 342.28 964.352 340.87 962.907 339.205L962.185 339.607C958.166 336.156 953.18 332.182 946.522 327.801C948.686 330.695 950.617 333.451 952.432 336.338C929.098 310.255 906.211 292.147 884.438 275.987C884.043 275.519 883.48 274.856 883.091 274.395C881.421 271.404 881.92 269.734 882.726 268.185C860.332 250.352 848.773 245.989 840.023 243.789C830.471 236.689 820.814 229.584 811.021 221.534L795.83 223.913C795.129 223.404 794.56 222.989 793.866 222.483L792.17 224.502L791.551 224.578C786.968 209.526 757.93 191.764 729.922 172.016C708.7 162.498 687.029 153.355 665.484 144.759C665.457 144.741 665.406 144.71 665.406 144.71C664.138 144.218 663.072 143.808 661.919 143.362C663.076 143.804 664.141 144.214 665.322 144.667C651.404 137.281 640.704 130.972 658.649 135.123C633.681 126.919 643.201 132.153 627.528 130.375C627.406 130.336 627.328 130.352 627.206 130.323C614.003 125.672 601.136 121.422 588.548 117.642C581.334 113.624 573.733 109.395 566.178 105.186C556.444 102.034 546.652 98.8605 536.887 95.6976C520.868 86.3893 513.836 78.1924 506.262 70.4522C498.709 62.6638 490.572 55.4043 472.09 48.4273C430.614 32.8962 395.388 23.3377 363.936 17.3383C332.48 11.3422 304.84 8.8088 277.945 8.18137C241.54 2.32752 209.998 1.09252 180.533 3.75588C151.062 6.59895 123.941 12.2342 95.2311 25.2152C80.9126 31.6474 66.6656 39.8118 51.2987 53.0533C36.1566 66.2492 23.2946 82.8861 15.2007 102.883C7.20645 122.791 3.46854 145.922 6.14897 169.629ZM750.775 556.82C714.157 550.925 694.501 546.644 676.755 543.256C665.633 541.045 655.273 539.067 642.133 536.317C649.657 534.45 662.439 535.623 675.851 536.026C681.209 537.751 686.976 539.696 694.081 541.69C697.166 537.345 707.306 536.928 719.597 536.485C725.704 536.353 732.452 535.98 738.927 535.5C742.213 535.148 745.449 534.723 748.544 534.186C751.404 533.694 756.091 532.958 759.684 531.915C750.431 531.184 743.973 529.95 735.488 528.89C727.262 527.763 718.584 526.431 710.759 524.936C695.122 521.908 682.94 518.236 684.457 514.667L693.607 516.094C661.828 508.128 653.669 516.043 634.209 514.991C629.891 512.936 627.339 510.985 628.185 509.26L637.969 511.393C633.507 509.965 629.442 508.926 625.725 508.118L627.152 508.363L613.097 494.471C594.798 492.943 577.383 492.856 557.34 488.808L552.041 482.923C543.64 481.732 535.341 480.978 527.067 479.92C523.563 478.565 520.035 477.19 516.328 475.543C521.764 470.602 512.984 465.481 497.179 459.946C488.253 452.76 472.699 444.936 509.972 457.767C511.784 457.74 513.167 457.666 514.354 457.58C521.438 463.977 536.432 468.242 547.012 471.48L546.399 475.869L558.218 477.463C557.764 478.784 554.921 480.209 548.536 481.72C566.925 484.169 568.172 481.609 564.617 478.243L572.043 479.16C565.208 475.668 558.367 472.332 551.621 468.732C550.743 467.356 555.32 468.198 573.429 473.394C603.345 471.092 550.404 467.871 557.001 462.765C548.87 465.437 536.409 465.339 518.76 457.076C522.15 456.293 517.935 454.999 511.827 453.459C511.49 453.282 511.182 453.157 510.939 452.992C510.969 453.096 511.046 453.18 511.085 453.27C501.694 450.99 488.888 447.815 492.658 445.326C483.417 447.951 469.335 446.932 449.728 436.196C450.135 436.301 450.49 436.398 450.9 436.503C451.778 431.772 432.151 419.892 409.134 409.302C419.181 415.015 409.555 416.288 407.356 418.954C405.319 421.353 409.836 425.553 444.16 434.734C450.533 444.893 475.232 451.681 486.972 456.505C465.823 449.783 437.145 441.885 411.487 432.84C405.517 430.015 400.034 427.3 393.583 424.034C394.521 425.169 396.299 426.517 397.607 427.735C383.877 422.486 371.714 416.962 363.233 411.579L371.005 418.316C363.821 415.612 356.497 412.851 349.313 410.147C342.05 405.347 337.993 401.937 319.527 392.683C328.357 398.192 333.256 401.964 336.284 404.861C336.108 404.79 335.969 404.733 335.827 404.676C329.463 401.236 323.723 397.913 316.892 393.979C317.849 395.269 319.76 396.86 321.086 398.265C306.435 391.637 293.598 384.751 284.721 378.302L293.527 387.028L276.397 380.333C265.277 373.052 263.031 369.628 248.165 360.202C247.783 358 244.212 353.973 235.534 347.129C216.312 342.078 209.646 342.028 204.646 342.518C194.989 337.722 185.447 332.64 175.975 327.363C188.356 335.422 195.161 340.102 198.614 342.935C195.457 342.953 191.424 342.366 184.456 340.066C177.463 337.799 167.527 333.874 152.777 326.443C147.672 319.607 145.951 314.876 148.886 313.49C151.814 312.104 159.395 314.039 173.231 319.728C169.165 317.098 166.201 314.869 163.578 312.816C165.776 311.747 164.349 308.222 157.686 300.776C162.584 299.991 169.641 300.018 161.94 290.929L148.844 293.691C136.198 288.435 129.17 286.338 124.393 285.428C120.795 281.636 117.225 277.844 113.84 273.848C110.376 269.954 107.012 265.978 103.816 261.852C107.13 268.965 110.961 275.725 114.779 282.73C103.622 272.297 94.6686 261.057 86.9172 249.911C88.4066 250.958 89.5726 251.777 91.217 252.933C81.1796 241.746 77.4174 234.908 76.4763 231.444C75.5112 227.984 77.4377 227.703 80.0702 228.048C85.402 228.833 93.2068 231.665 88.4328 219.566C81.15 218.844 73.7608 217.645 66.2736 215.815C65.1202 213.638 63.9805 211.454 62.7045 209.303C59.1262 207.046 58.29 209.106 59.1182 213.802C57.5101 210.13 56.3468 206.195 55.1692 202.327C53.8479 198.535 53.1345 194.473 52.294 190.537C54.0561 186.031 57.1069 182.3 60.2145 177.491C54.977 160.89 57.0429 148.757 53.9773 148.544C57.1346 134.897 61.8479 127.612 64.8616 125.007C67.9945 122.38 69.1676 124.025 69.4433 128.607C70.9414 128.341 70.1237 130.277 69.1608 133.286C69.5211 132.402 69.8883 131.504 70.2592 130.593C70.7516 129.745 71.2476 128.884 71.7504 128.015C72.7562 126.275 73.7828 124.497 74.8233 122.695C77.4635 119.495 79.7796 115.842 83.0264 113.07C88.9558 106.954 96.3139 102.711 103.151 99.463C106.72 98.1193 109.983 96.8686 112.989 96.0953C116.082 95.4682 118.79 95.1027 120.996 95.0733C125.387 94.9591 127.983 96.6933 127.583 99.7539C144.53 94.0266 161.682 91.9094 177.851 91.3428C194.075 90.7285 209.593 92.0895 224.734 93.9851C255.088 98.0814 284.176 105.2 317.891 114.116L329.877 109.553C349.87 114.623 368.742 120.568 387.539 127.106C392.627 132.132 391.687 136.686 395.245 141.843C398.796 146.992 406.805 152.685 429.521 160.793C421.427 157.698 415.726 156.778 404.525 154.686L421.482 167.451C417.131 166.173 412.94 164.873 409.193 163.422C406.906 162.02 404.05 160.687 400.86 159.509C397.802 157.797 395.221 155.949 393.53 153.852L399.533 154.752C391.984 150.737 384.368 146.798 376.702 142.9C367.08 145.199 374.16 149.864 387.147 155.26C372.147 151.458 357.243 149.019 334.649 144.053C312.963 136.479 316.843 138.197 316.63 139.85C304.461 136.859 293.829 133.209 286.361 128.902C289.433 129.104 292.496 129.24 295.655 129.581C281.868 125.265 267.462 121.18 252.831 117.77C244.321 120.856 250.703 123.945 263.573 127.438C275.797 130.402 295.728 135.232 316.456 140.256C315.282 141.496 309.876 141.892 286.2 138.521C295.062 141.846 303.416 143.126 312.388 143.816C316.919 144.187 321.556 144.563 326.264 144.947C331.019 145.372 336.062 145.881 340.587 146.76C344.758 147.994 348.801 149.189 352.644 150.326C353.575 150.614 354.496 150.894 355.403 151.171C356.107 151.421 356.801 151.668 357.484 151.907C358.844 152.404 360.16 152.882 361.425 153.343C366.472 155.227 370.662 156.939 373.504 158.503C366.222 157.488 357.507 156.269 349.15 155.103C344.2 154.447 339.359 153.806 334.888 153.214C330.219 152.713 325.99 152.321 322.469 152.111C308.451 146.586 293.346 141.366 277.35 136.443C264.957 136.578 240.868 135.451 224.145 137.428C207.248 139.234 196.956 142.786 203.743 144.929C200.572 146.678 206.441 146.855 214.878 147.089C214.939 147.113 215.017 147.121 215.095 147.136C207.311 147.711 201.731 148.154 196.511 148.794C211.684 148.271 227.994 149.285 244.588 151.35C245.884 152.354 245.061 153.274 241.142 154.555C245.083 153.709 249.359 153.258 253.618 152.534C260.534 153.577 267.478 154.778 274.12 155.958C278.348 160.169 270.683 161.907 259.512 161.62C248.239 161.29 232.766 159.311 218.957 156.222C200.838 159.33 216.129 159.492 230.218 160.992C237.283 161.728 244.041 162.62 246.176 163.319C248.312 164.032 245.813 164.158 234.594 164.181C259.071 167.631 269.176 169.565 273.71 169.442C278.138 169.352 276.642 167.734 275.626 165.981C274.645 164.217 274.09 162.289 281.627 161.891C289.066 161.46 305.185 162.537 336.567 168.813C353.478 175.059 346.964 175.66 336.26 174.68C329.615 172.857 322.864 170.511 317.073 167.505C301.605 166.787 306.982 168.928 315.502 171.385C312.827 171.129 310.057 170.927 307.144 170.789C310.819 171.464 315.74 172.165 320.947 172.897C334.144 176.577 348.036 180.12 324.85 177.052C347.676 183.309 356.548 185.521 360.581 185.524C364.495 185.535 363.082 183.466 364.259 181.897C367.529 182.057 370.799 181.646 374.445 180.493C376.675 180.661 379.604 180.993 382.985 181.53C394.409 187.733 417.755 191.124 424.997 195.049C423.075 195.237 419.955 195.024 415.689 194.352C419.863 195.635 423.486 196.935 426.795 198.118C426.398 198.667 425.763 199.243 424.587 199.868C449.494 206.603 462.269 208.049 474.142 209.049C482.086 211.565 490.326 213.826 495.049 215.834L485.271 216.638C468.909 212.876 453.447 209.321 438.619 205.912L436.844 203.417C424.96 199.655 413.687 196.699 402.398 194.534C391.065 192.407 379.915 190.901 366.463 191.268C359.572 191.598 352.281 192.127 342.55 195.085C339.889 195.99 337.223 197.013 334.625 198.123C331.556 199.614 328.582 201.214 325.531 203.21C323.821 204.409 322.148 205.689 320.529 207.028C318.913 208.367 317.389 209.67 315.657 211.588C312.329 215.195 309.339 218.961 306.83 223.749C306.201 224.906 305.607 226.077 305.042 227.266C304.509 228.394 303.846 229.841 303.655 230.492C303.068 232.14 302.522 233.82 302.02 235.518C301.028 238.921 300.169 242.377 299.601 245.864C298.958 252.906 298.71 260.997 300.22 267.207C300.861 270.48 301.664 273.859 302.63 276.957C303.624 279.616 304.718 282.269 305.91 284.888L307.764 288.788C308.395 290.011 308.989 290.896 309.622 291.965C310.879 294.011 312.19 296.048 313.549 298.058C317.02 299.927 319.457 299.559 321.77 299.365C334.544 313.888 346.618 321.221 358.734 327.809C370.861 334.137 383.133 338.75 396.008 342.357C398.132 346.989 400.305 351.448 402.551 356.043C422.824 366.729 440.29 374.347 456.683 380.76C447.185 380.289 424.273 374.704 406.317 370.332C382.456 364.495 366.863 362.044 403.132 381.447C411.154 385.204 418.702 389.07 425.937 392.933C420.33 391.578 414.405 389.873 408.041 387.272C418.05 392.238 428.121 397.091 438.258 401.845C436.535 400.446 436.199 399.478 436.426 398.692C449.121 405.829 460.842 413.048 472.393 420.071C478.376 423.546 483.261 427.069 491.086 430.559C497.152 433.643 503.145 436.565 509.275 439.336C533.762 450.337 560.05 459.206 593.962 460.863C606.831 462.148 620.588 462.998 635.205 462.99C649.856 462.924 665.273 462.182 682.629 458.62C690.143 458.459 698.741 457.168 708.186 454.334C717.872 450.899 729.48 445.856 740.862 433.155C743.606 429.735 746.198 426.043 748.526 422.207C750.696 418.234 752.451 413.8 753.991 409.367C754.705 407.63 755.562 403.805 756.061 400.348C756.316 398.613 756.527 396.835 756.649 395.116C756.702 393.52 756.707 391.909 756.665 390.295C756.584 387.073 756.308 383.687 755.77 381.154C755.271 378.508 754.621 375.473 753.883 373.205C750.84 363.575 746.954 357.427 743.143 351.818C739.415 346.718 735.562 342.357 731.823 338.781C721.512 328.036 711.465 320.506 701.171 313.276C690.902 306.167 680.483 299.938 669.915 294.029C648.801 282.29 627.138 272.124 605.879 262.941C590.755 256.411 575.858 250.444 561.537 244.957C568.689 246.448 562.958 242.009 564.978 240.705C566.775 241.051 568.652 241.464 570.207 241.579C568.697 241.143 567.603 240.826 566.239 240.433C568.302 240.309 572.784 241.188 582.182 244.322C575.848 245.557 611.039 262.165 628.732 264.571C597.648 255.027 590.681 250.266 592.311 247.123C600.657 250.49 609.648 254.183 618.591 259.306C629.149 263.484 639.437 267.559 649.667 271.608C652.251 274.666 654.872 277.741 659.504 281.366C662.088 278.911 665.373 278.635 668.912 279.361C672.784 280.9 676.568 282.403 680.44 283.941C684.372 285.895 687.9 287.834 690.486 288.061C693.242 289.199 696.008 290.341 698.75 291.472C698.216 292.126 697.716 292.746 697.569 293.397C697.16 295.238 699.4 297.168 710.55 301.298L713.346 303.884L707.699 301.596C716.63 320.162 743.73 326.47 768.301 345.019C802.217 363.72 834.06 382.141 861.817 400.521C862.194 401.347 862.643 402.206 862.926 402.998C864.145 405.88 864.942 408.323 865.132 410.139C865.252 407.718 865.216 405.257 865.14 402.778C868.73 405.184 872.303 407.59 875.744 409.994C876.986 412.466 878.156 414.971 879.216 417.531C877.357 415.55 876.497 416.196 876.378 418.531C876.309 419.705 876.464 421.289 876.693 423.22C876.741 425.208 876.893 427.536 877.132 430.092C877.166 432.685 877.084 435.569 876.988 438.568C876.395 441.567 876.422 444.785 875.322 447.9L873.996 452.625L871.955 457.104C870.768 460.159 868.872 462.742 867.292 465.34C864.15 469.336 861.075 472.838 858.065 475.125C855.259 477.653 852.704 479.133 851.106 479.768C849.532 480.437 848.929 480.274 849.596 479.048C849.929 478.437 850.578 477.56 851.58 476.4C852.499 475.132 853.654 473.435 855.2 471.439C856.667 470.927 858.07 470.325 859.363 469.587C860.874 467.659 862.522 465.892 863.641 463.811C864.672 461.632 865.845 459.576 866.506 457.365C867.117 455.119 867.676 452.931 868.105 450.807C868.237 448.59 868.302 446.455 868.316 444.43C868.255 442.394 867.775 440.422 867.488 438.611C868.881 436.558 869.541 434.468 870.524 432.309C869.53 419.235 860.462 407.907 853.552 401.837C846.492 395.709 841.926 393.641 845.895 396.788C854.247 406.572 861.947 418.002 864.088 428.93C861.228 424.231 859.756 422.925 861.627 426.461C863.252 431.844 863.656 437.416 863.493 442.815C862.826 444.387 862.14 445.816 861.343 447.096L863.166 444.968C862.927 446.475 862.75 447.994 862.461 449.462C861.995 450.881 861.534 452.282 861.083 453.662C860.353 456.525 858.691 458.818 857.491 461.23C852.275 469.372 844.879 474.199 837.699 476.265C841.927 475.35 846.518 474.689 850.589 473.144C849.139 475.411 849.365 476.398 849.028 478.198C848.624 479.915 847.659 482.505 842.353 486.144C835.358 488.737 828.067 490.465 820.759 491.568C823.075 490.241 825.373 489.272 828.327 487.379C818.313 490.06 814.188 491.263 812.155 492.573C808.06 492.929 804.04 493.275 799.98 493.217C800.482 494.502 804.313 495.418 810.019 495.015C809.01 497.101 808.327 499.415 798.844 502.296C782.363 502.496 766.673 500.722 752.513 498.309C752.16 500.344 756.905 501.865 765.538 503.076C774.121 504.169 786.583 504.55 800.596 503.24C814.629 502.029 829.921 498.584 843.445 492.733C846.862 491.326 849.989 489.493 853.226 487.903C856.305 486.104 859.149 484.064 862.028 482.201C864.585 479.971 867.212 477.925 869.525 475.706C871.69 473.336 873.96 471.224 875.825 468.924C882.06 461.094 885.122 453.586 887.539 449.415C887.116 445.806 887.011 439.698 885.869 432.825C884.689 426.504 882.898 419.627 880.518 413.423C883.065 415.243 885.66 417.061 888.116 418.88C904.689 431.032 918.626 443.412 928.355 454.301C929.779 455.711 930.556 456.926 931.676 458.218C932.707 459.481 933.966 460.823 934.632 461.909L935.254 462.763L935.745 463.232C936.074 463.557 936.489 463.821 936.807 464.229L938.657 466.674C941.036 470.112 942.495 474.259 943.244 478.771C943.845 483.391 943.266 488.202 941.868 492.903C941.612 494.154 941.164 495.289 940.641 496.4C940.149 497.538 939.801 498.798 939.051 499.875C938.386 500.966 937.735 502.309 936.906 503.478L934.231 507.037C926.387 510.677 916.978 513.079 906.92 514.609C896.013 520.753 880.185 526.677 862.464 530.898C844.77 535.183 825.508 538.17 808.122 540.523C773.313 545.149 746.097 548.111 750.775 556.82ZM546.018 239.107C529.361 232.929 513.874 227.48 500.106 222.649C500.158 222.567 500.193 222.474 500.211 222.378C514.031 226.542 523.854 228.842 531.803 230.12C538.932 233.204 547.685 236.338 556.043 238.658L546.018 239.107ZM501.593 203.377C493.731 201.943 484.51 199.613 472.84 195.474C468.242 193.55 463.748 191.717 459.464 190.257C466.567 190.945 471.164 191.224 474.105 191.11C479.172 192.987 484.509 195.068 489.479 196.613C489.691 195.565 489.615 194.565 489.344 193.594C495.318 196.989 498.288 200.103 501.593 203.377ZM540.16 218.676C543.85 217.462 546.918 216.316 546.639 214.934L561.44 225.835C555.36 224.239 548.448 222.015 540.16 218.676ZM473.72 182.255C467.266 179.76 459.39 177.497 451.078 175.316C446.88 172.847 445.152 170.726 449.45 169.577C439.509 167.805 433.182 166.991 429.477 166.844L449.516 163.389C485.96 175.688 473.246 177.201 473.72 182.255ZM426.019 168.787C425.024 168.505 424.106 168.218 423.131 167.937L425.198 167.581C425.129 167.902 425.42 168.31 426.019 168.787ZM469.898 198.632C470.142 198.673 470.326 198.703 470.6 198.751L470.294 198.813C470.125 198.735 470.013 198.685 469.898 198.632ZM699.459 392.369C699.418 392.359 699.405 392.355 699.344 392.34C699.334 392.337 699.327 392.337 699.313 392.333C699.317 392.333 699.317 392.333 699.32 392.333C699.35 392.341 699.395 392.351 699.435 392.362L699.459 392.369ZM699.323 392.333C699.33 392.337 699.334 392.333 699.344 392.337L699.415 392.359C699.364 392.344 699.35 392.341 699.323 392.333ZM356.522 251.302C356.383 251.245 356.339 251.228 356.522 251.302V251.302ZM541.353 311.337C563.222 319.204 585.073 328.111 606.391 338.09C627.621 348.078 648.661 359.132 667.061 371.744C671.593 374.904 675.924 378.159 679.81 381.45C683.665 384.698 687.134 388.154 689.162 390.842C689.532 391.42 690.166 392.122 690.335 392.501C690.18 392.689 689.977 392.883 689.652 393.066C688 394.823 683.997 396.649 679.881 398.211C675.488 399.666 670.658 400.988 665.416 401.815C655.042 403.638 643.854 404.426 632.632 404.729C610.102 405.294 587.231 403.988 564.859 402.211C555.816 401.479 546.88 400.614 537.975 399.738C539.43 396.78 540.027 393.684 539.729 390.466C539.506 388.065 538.835 385.604 537.77 383.1C537.238 381.849 536.607 380.587 535.888 379.318L535.332 378.364C535.15 378.203 535.329 378.053 534.852 377.878L533.384 377.325C532.406 376.934 531.43 376.504 530.474 376.03L529.768 375.669L529.591 375.387L529.238 374.819C525.456 368.769 522.346 362.515 517.864 355.928C513.545 349.352 508.532 342.554 503.199 335.767C492.531 322.184 480.639 308.615 470.545 297.303C467.487 293.894 464.629 290.723 461.973 287.792C487.997 293.717 514.817 301.864 541.353 311.337ZM505.133 86.1524C505.103 86.1417 504.987 86.1023 504.987 86.1023C503.86 85.7815 502.797 85.4787 501.764 85.1866C502.797 85.4787 503.86 85.7815 504.957 86.0916C504.954 86.0916 505.103 86.1417 505.133 86.1524Z" fill="#1B4579"/>
</g>
</svg>
