<svg width="307" height="347" viewBox="0 0 307 347" fill="none" xmlns="http://www.w3.org/2000/svg">
<g filter="url(#filter0_f_2975_25228)">
<path d="M277.646 199.616C284.744 196.67 292.469 197.404 300 198.297C297.362 197.244 294.815 196.043 292.321 194.874C291.225 194.359 290.129 193.846 289.031 193.346C279.301 188.918 269.751 185.23 259.932 188.64C248.422 192.636 238.257 202.2 230.686 210.091C230.411 210.378 230.192 210.718 229.965 211.048C229.518 211.686 228.959 212.494 228.172 213.217C213.946 226.286 185.551 240.249 165.661 225.159C159.194 220.246 154.556 213.536 150.717 207.623C139.109 189.764 125.375 174.181 103.695 180.999C103.179 181.161 102.648 181.416 102.035 181.715C101.324 182.059 100.611 182.395 99.8478 182.663C99.5426 182.772 99.1422 182.933 98.6918 183.113C95.9293 184.218 93.8174 184.974 92.0139 184.717C90.7996 184.542 89.7685 183.734 89.3054 182.595C87.8315 178.974 91.0369 176.099 92.7609 174.556C93.0396 174.306 93.2939 174.088 93.4645 173.903C94.5242 172.753 95.6845 171.848 96.8099 170.974C98.1122 169.959 99.3424 169 100.053 167.888C107.636 156.019 107.825 144.307 100.599 134.018C89.4792 118.181 62.5981 108.851 41.8969 113.66C31.8303 115.993 19.2226 122.551 16.3372 140.529L14.2158 153.745C13.9159 155.627 12.1749 156.921 10.2771 156.621C8.4015 156.33 7.10979 154.573 7.38847 152.686C9.05954 141.368 10.9542 128.541 7.16173 117.256C4.74573 110.073 -0.182693 102.955 -7.9075 95.5006C-35.6829 68.696 -77.7488 57.6353 -115.053 67.3178C-132.596 71.8735 -146.958 81.2443 -160.253 96.8107C-168.809 106.83 -179.112 120.345 -182.852 136.061C-188.289 158.891 -178.817 184.774 -159.281 200.467C-140.998 215.152 -115.18 220.608 -90.2218 215.078C-83.1158 213.494 -76.6997 211.122 -71.0984 208.081C-67.9714 205.38 -64.4905 202.891 -60.6429 200.711C-59.8619 199.999 -59.0831 199.286 -58.3657 198.531C-42.4604 181.823 -44.7906 155.211 -56.0694 140.137C-66.0343 126.823 -80.7942 123.917 -96.567 132.161C-101.48 134.727 -107.237 140.229 -108.264 146.238C-108.8 149.378 -107.916 152.136 -105.556 154.673C-104.254 156.072 -104.33 158.267 -105.724 159.573C-107.117 160.879 -109.301 160.805 -110.608 159.404C-114.431 155.295 -115.975 150.336 -115.075 145.067C-113.642 136.682 -106.351 129.452 -99.7565 126.009C-80.9595 116.19 -62.5608 119.912 -50.5445 135.971C-39.3355 150.949 -35.897 175.877 -47.0317 194.855C-36.3177 191.526 -23.6348 190.283 -8.89934 192.18C6.34048 194.142 26.6708 203.253 33.815 222.49C41.4836 243.12 29.0847 264.75 13.5228 274.63C3.26328 281.138 -11.1691 282.669 -21.5769 278.362C-29.5084 275.076 -34.7134 268.898 -36.6281 260.475C-39.6036 247.395 -31.8629 233.922 -19.7278 231.072C-13.0309 229.498 -6.74718 230.455 -2.91338 233.645C-0.873566 235.347 1.50638 238.526 1.26372 244.024C1.1122 247.427 -0.839676 250.788 -3.82893 252.819C-6.58189 254.68 -9.80745 255.169 -12.6855 254.148C-14.4847 253.51 -15.4288 251.532 -14.7931 249.724C-14.1583 247.916 -12.181 246.97 -10.386 247.608C-9.25854 248.012 -8.12791 247.364 -7.69347 247.066C-6.49924 246.258 -5.69391 244.939 -5.63774 243.716C-5.54237 241.557 -6.09447 240.005 -7.32471 238.984C-9.43977 237.229 -13.6815 236.772 -18.149 237.825C-27.5427 240.036 -31.8025 250.522 -29.8909 258.934C-28.4784 265.155 -24.7929 269.525 -18.9405 271.95C-10.4803 275.459 1.35593 274.14 9.82991 268.77C23.0924 260.348 33.7366 242.121 27.3405 224.915C21.272 208.57 3.55362 200.775 -9.77567 199.063C-29.3145 196.543 -44.8626 199.977 -56.6554 206.475C-59.7051 209.165 -63.1744 211.558 -66.952 213.685C-73.6977 219.587 -78.5361 226.616 -81.5275 233.688C-90.811 255.658 -85.1398 285.774 -69.6891 307.043C-69.3892 307.138 -69.0936 307.266 -68.8191 307.457C-67.8962 308.085 -67.3865 309.085 -67.3229 310.116C-63.5304 314.827 -59.2367 319.028 -54.4895 322.484C-33.9324 337.478 -0.0502472 340.955 21.0537 330.247C35.8378 322.749 48.1488 309.084 56.023 291.538C52.2242 290.368 48.7846 288.731 45.8133 286.636C38.4393 281.446 33.8415 273.183 33.815 265.08C33.8076 263.166 35.3515 261.613 37.2588 261.603H37.2705C39.1726 261.603 40.7175 263.155 40.7249 265.059C40.745 270.95 44.2133 277.044 49.7817 280.957C54.6932 284.413 61.3213 286.402 68.9507 286.689C85.335 287.338 100.508 280.404 116.788 264.921C118.174 263.602 120.36 263.666 121.671 265.059C122.983 266.452 122.925 268.643 121.539 269.961C104.781 285.891 88.1991 293.665 70.9227 293.665C70.1788 293.665 69.4318 293.654 68.6858 293.622C66.7943 293.548 64.9632 293.367 63.1735 293.112C60.6727 304.554 72.2102 315.667 79.9254 320.686C92.6295 328.939 110.223 330.321 125.84 324.291C140.263 318.719 152.758 305.873 161.083 288.092C155.828 282.159 153.648 274.194 154.464 267.313C155.514 258.434 161.898 248.82 176.656 248.491C178.456 248.448 184.786 248.725 189.688 253.999C193.721 258.338 195.394 264.548 194.661 272.45C194.483 274.353 192.76 275.757 190.901 275.576C189.001 275.406 187.604 273.715 187.781 271.801C188.324 265.963 187.265 261.56 184.634 258.731C182.296 256.211 179.022 255.382 176.813 255.424C164.159 255.711 161.765 264.41 161.324 268.132C160.348 276.374 165.455 286.519 175.692 289.252C189.015 292.793 210.207 288.071 219.314 275.597C221.453 272.673 221.091 270.344 220.543 266.803C220.099 263.953 219.595 260.709 220.575 256.924C222.971 247.64 231.323 248.108 236.297 248.374C237.923 248.469 239.425 248.469 241.17 248.565C242.396 248.64 243.79 248.725 244.548 248.501C251.421 246.438 253.134 239.771 254.962 229.838C255.442 227.233 255.893 224.766 256.536 222.437C259.443 211.888 266.547 204.21 277.646 199.616Z" fill="#48CAE4"/>
</g>
<defs>
<filter id="filter0_f_2975_25228" x="-2009.18" y="0.64223" width="2316.1" height="345.725" filterUnits="userSpaceOnUse" color-interpolation-filters="sRGB">
<feFlood flood-opacity="0" result="BackgroundImageFix"/>
<feBlend mode="normal" in="SourceGraphic" in2="BackgroundImageFix" result="shape"/>
<feGaussianBlur stdDeviation="3.46075" result="effect1_foregroundBlur_2975_25228"/>
</filter>
</defs>
</svg>
