<svg width="199" height="236" viewBox="0 0 199 236" fill="none" xmlns="http://www.w3.org/2000/svg">
<path d="M3.62826 94.2068C8.90832 76.4324 23.7415 74.971 38.5744 73.5094C67.3074 73.058 67.307 73.058 72.1019 45.217C73.5012 41.5094 73.6508 37.33 75.5165 32.3864C85.1438 -0.69044 92.4754 -4.98319 124.977 7.2833C141.228 13.4165 143.897 21.4835 140.016 35.5501C137.068 47.145 136.154 60.9193 131.956 72.0423C125.893 88.109 129.345 97.8836 147.312 103.253C157.779 105.791 167.312 110.801 176.846 115.811C196.848 123.359 204.068 145.852 193.322 162.975C188.806 171.155 181.475 175.447 171.008 172.909C159.291 169.898 145.857 167.652 134.14 164.642C111.956 159.093 111.956 159.093 106.526 181.047C104.978 188.934 103.43 196.822 101.415 205.945C97.3846 224.191 83.8205 237.427 69.1369 234.709C52.7367 232.755 41.4671 217.206 41.2805 198.781C41.5789 190.422 41.8777 182.063 42.1762 173.704C46.6539 142.92 46.6535 142.92 17.1182 130.361C1.48299 118.812 -2.43543 110.273 3.62826 94.2068Z" fill="#F79433"/>
</svg>
