<svg xmlns="http://www.w3.org/2000/svg" width="243" height="164" fill="none"><mask id="b" width="259" height="173" x="0" y="-9" maskUnits="userSpaceOnUse" style="mask-type:alpha"><g fill="#E73646" clip-path="url(#a)"><path d="M258.671 86.255c-.08-.019-.181-.038-.241-.096-3.732-2.458-7.925-3.773-12.38-4.315-1.605-.194-3.23-.29-4.835-.426-.1 0-.201.02-.301.02 0 .077-.02.116 0 .135 1.866 1.76 2.749 3.986 3.09 6.385.461 3.212.722 6.463 1.023 9.694.281 2.999.422 5.998.783 8.978.22 1.935.983 3.734 2.046 5.398 2.227 3.522 7.063 3.116 9.23.89.461-.483 1.063-.832 1.605-1.238v3.696c-2.488 2.206-5.417 2.805-8.668 2.128-2.167-.445-3.772-1.703-5.036-3.386-1.806-2.419-2.869-5.147-3.13-8.107-.241-2.767-.221-5.553-.381-8.32-.161-2.69-.381-5.36-.642-8.03-.141-1.355-.562-2.651-1.204-3.87-.482-.91-1.164-1.606-2.107-2.051-.501-.232-1.023-.464-1.525-.716-.381-.193-.782-.387-1.143-.638-1.585-1.123-1.405-3.096.361-3.928 1.344-.639 2.809-.794 4.253-.832 6.682-.174 13.002 1.103 18.861 4.276.1.058.22.097.341.135v4.218ZM7.708 164c-.581-1.857-.842-3.773-.943-5.708-.14-2.825-.06-5.65.402-8.455.1-.639.3-1.278.582-1.858.682-1.316 2.126-1.799 3.53-1.18a7.504 7.504 0 0 1 1.646 1.025c2.328 1.916 5.076 2.845 8.046 3.29.441.077.903.135 1.404.232v-.523c-.06-1.335-.16-2.67-.18-4.005-.02-.464.02-.948.16-1.393.221-.716.863-1.142 1.585-1.161.743-.019 1.425.387 1.706 1.103.14.348.2.754.24 1.122.442 4.063.863 8.146 1.305 12.209.12 1.065.34 2.129.421 3.193.08.948-.24 1.451-.802 1.625-.602.174-1.124-.077-1.666-.909-1.224-1.838-1.745-3.928-2.106-6.056-.12-.736-.221-1.49-.322-2.148-4.093.213-7.805-.832-11.256-2.786-.12-.078-.24-.136-.461-.252-.421 4.276-.682 8.456.24 12.635H7.71ZM74.562 164c-2.448-2.186-3.712-5.05-4.715-8.03-.963-2.883-1.826-5.824-2.729-8.726-.06-.174-.12-.368-.22-.678-.14.252-.241.407-.341.562-.582 1.006-1.285 1.915-2.207 2.65-1.445 1.161-3.07 1.452-4.856.852-1.224-.407-2.287-1.064-3.23-1.916a6.398 6.398 0 0 0-.482-.406c-.04.716-.06 1.316-.14 1.915-.14 1.239-.281 2.477-.482 3.715-.06.329-.2.678-.381.987-.321.542-.803.813-1.465.716-.642-.097-1.043-.484-1.204-1.083-.1-.387-.14-.794-.12-1.2.14-2.128.321-4.237.441-6.366.04-.774 0-1.548-.08-2.302-.1-.832.02-1.568.803-2.032.802-.464 1.625-.329 2.287.232.662.542 1.204 1.2 1.786 1.838.562.62 1.003 1.355 1.605 1.935.542.523 1.204.948 1.866 1.335.742.426 1.565.368 2.187-.213.582-.541 1.123-1.199 1.505-1.896.642-1.199 1.143-2.457 1.705-3.715.401-.928.943-1.354 1.766-1.296.782.058 1.344.58 1.625 1.49 1.364 4.527 2.688 9.094 4.153 13.602.602 1.896 1.505 3.696 2.247 5.534.321.813.562 1.645.843 2.477a82.39 82.39 0 0 1-2.167.019ZM211.961 164c-1.223-1.974-2.447-3.947-3.651-5.94a14.581 14.581 0 0 1-.923-1.742 4.763 4.763 0 0 1-.381-1.257c-.121-.987.361-1.838 1.203-2.225.823-.368 1.806-.194 2.488.541.462.503.883 1.045 1.204 1.626 1.044 1.935 2.027 3.889 3.03 5.843.1.174.181.368.321.658.14-.252.241-.406.341-.58 1.124-1.935 2.227-3.87 3.391-5.786.441-.735 1.043-1.393 1.605-2.07.161-.194.401-.368.622-.503.682-.426 1.465-.368 1.966.116.502.464.522 1.141.121 1.838-1.806 3.057-3.612 6.095-5.418 9.152-.06.097-.08.194-.12.29-1.946.039-3.872.039-5.799.039Z"/><path d="M58.15 164c-.14-1.045-.261-2.09-.422-3.135-.12-.754-.22-1.528-.38-2.283-.121-.561-.141-1.103.36-1.509.482-.406 1.064-.503 1.645-.251.663.29 1.325.58 1.907 1.006.963.677 1.805 1.47 2.748 2.167 1.365 1.006 2.79 1.973 4.174 2.98.461.328.903.696 1.364 1.044C65.734 164 61.942 164 58.15 164ZM258.671 7.253c-1.726.348-3.451.213-5.157-.038-1.785-.271-3.551-.639-5.337-.794-1.043-.097-2.127.097-3.19.252-.542.077-.983.367-1.224.928-.261.6-.923.6-1.264.04-.341-.562-.301-1.181.141-1.626.461-.465 1.023-.91 1.625-1.18 1.806-.794 3.732-.852 5.678-.6 1.465.193 2.909.425 4.374.6 1.485.193 2.949.019 4.374-.426-.02.948-.02 1.896-.02 2.844ZM148.539 96.936a2.136 2.136 0 0 0-.161.252c-2.428 4.411-7.985 8.591-13.041 9.674-5.017 1.064-9.631.058-13.785-2.825-3.431-2.38-4.093-5.727-3.29-9.48.542-2.555 1.806-4.819 3.411-6.908a27.854 27.854 0 0 1 5.517-5.457c6.301-4.624 13.243-7.991 21.028-9.597 4.334-.89 8.728-1.064 13.122-.735 4.594.348 9.169.87 13.764 1.354 4.394.465 8.748.387 13.001-.91 3.07-.928 5.759-2.437 7.845-4.856 1.666-1.915 2.348-4.18 2.709-6.578.321-2.11.381-4.238.241-6.366a.669.669 0 0 0-.04-.194c-.061-.02-.101-.039-.121-.02-5.317 2.013-10.513 1.645-15.65-.638-1.585-.696-3.11-1.47-4.314-2.728a5.77 5.77 0 0 1-.682-.832c-.341-.561-.281-1.18.101-1.625a1.407 1.407 0 0 1 1.645-.368c.481.213.943.523 1.384.832 1.987 1.432 4.073 2.67 6.481 3.328 2.668.735 5.317.561 7.885-.387.863-.31 1.605-.948 2.348-1.49.441-.329.782-.793 1.224-1.122 1.364-1.045 3.11-.484 3.591 1.142.14.445.181.928.201 1.412.22 4.237-.241 8.417-1.666 12.422-2.066 5.805-6.34 9.481-12.299 11.416-3.652 1.18-7.444 1.626-11.276 1.432-3.732-.174-7.444-.542-11.176-.832-4.273-.329-8.547-.58-12.841-.213-6.781.58-12.921 2.922-18.599 6.424-2.629 1.625-5.137 3.406-7.344 5.573-1.906 1.857-3.451 3.947-4.474 6.365-.482 1.142-.803 2.303-.722 3.541.06 1.084.481 2.013 1.284 2.767 1.966 1.858 4.414 2.748 7.082 2.98 5.077.445 9.33-1.277 12.841-4.78 1.064-1.044 1.746-2.321 2.147-3.753.101-.329.02-.561-.24-.793-.683-.58-1.385-1.142-2.007-1.8-.461-.503-.903-1.083-1.184-1.683-.441-.948-.08-1.954.743-2.477.782-.522 1.906-.503 2.608.232 1.084 1.123 2.067 2.361 3.03 3.58 1.505 1.935 3.15 3.696 5.558 4.605 1.484.561 2.869.058 3.691-1.296.823-1.355 1.024-2.825.462-4.315-.602-1.606-1.706-2.844-3.331-3.541-1.404-.6-2.849-1.238-4.474-.929a4.936 4.936 0 0 0-1.284.406c-.682.33-1.585.059-2.007-.657-.461-.794-.361-1.606.101-2.361.903-1.49 2.267-2.302 4.073-2.341 1.504-.02 2.929.348 4.273.987 3.07 1.431 6.642 6.056 6.14 10.506-.161 1.432-.602 2.786-1.445 3.986-1.645 2.341-4.374 3.251-7.142 2.36-1.646-.522-3.11-1.354-4.475-2.399-.12-.038-.281-.154-.461-.29ZM185.838 7.93c-.08.523-.141 1.103-.241 1.664-.18.89-.521 1.723-1.164 2.4-.722.774-1.565.716-1.986-.252-.341-.754-.481-1.606-.642-2.438-.261-1.277-.481-2.554-.722-3.83-.02-.136-.081-.252-.181-.543-.14.368-.241.58-.301.813-1.003 3.057-1.424 6.211-1.745 9.384-.201 2.032-.402 4.064 0 6.095.16.774.421 1.568.802 2.283.923 1.703 2.308 2.361 4.254 2.032a17.195 17.195 0 0 0 3.29-.91c3.331-1.276 6.481-2.863 9.35-4.991a138.803 138.803 0 0 1 5.217-3.677c.742-.503 1.565-.87 2.388-1.238.341-.155.782-.194 1.163-.213a1.338 1.338 0 0 1 1.284.755c.261.503.201 1.025-.18 1.432-.622.677-1.244 1.412-1.987 1.934-4.654 3.329-9.329 6.657-14.606 9.037-1.886.85-3.812 1.605-5.919 1.78-3.09.251-5.518-.871-7.243-3.348-1.345-1.896-1.906-4.063-2.087-6.308a45.806 45.806 0 0 1 1.344-14.956c.381-1.529 1.104-3.019 1.806-4.45.341-.697.943-1.355 1.565-1.858 1.665-1.355 3.872-.968 4.956.851.441.735.682 1.587.903 2.419.22.812.321 1.664.421 2.496.04.445.241.58.662.522 1.585-.251 3.21-.367 4.735-.793 3.311-.929 6.561-1.993 9.832-3.019 4.534-1.412 9.189-2.283 13.944-2.438 1.866-.058 3.752.117 5.598.387 2.829.426 5.237 1.8 7.324 3.657 1.946 1.742 2.829 3.986 3.029 6.482.903 10.197-6.179 18.885-16.693 20.55-3.19.502-6.36.347-9.51-.33a5.287 5.287 0 0 1-1.505-.6c-.321-.193-.582-.541-.743-.87-.22-.445-.02-.852.482-.93.803-.135 1.625-.25 2.428-.25 2.488.019 4.956-.059 7.403-.543 3.592-.715 6.842-2.108 9.551-4.546 3.752-3.367 5.477-7.585 5.277-12.52-.08-1.934-1.003-3.463-2.669-4.624-2.588-1.8-5.537-2.457-8.647-2.534-5.879-.136-11.517.948-16.995 2.999-3.049 1.16-6.159 2.186-9.41 2.708-1.264.194-2.528.213-3.832.33ZM129.839 48.331c-.181.078-.361.155-.522.232-3.491 1.606-6.962 3.212-10.473 4.818-.743.33-1.505.639-2.268.93-.541.212-.983-.078-1.063-.64-.18-1.122.201-2.012 1.244-2.573.722-.387 1.465-.793 2.207-1.141 3.812-1.839 7.625-3.677 11.457-5.495.562-.271 1.103-.542 1.705-.716 1.545-.446 2.809.677 2.488 2.205-.1.465-.281.91-.501 1.335-.843 1.548-1.726 3.096-2.589 4.644-.742 1.355-1.505 2.69-2.247 4.044-.1.174-.16.368-.16.62.16-.117.341-.252.501-.368 2.729-2.225 5.458-4.45 8.206-6.656.783-.62 1.626-1.2 2.488-1.722 1.666-1.007 3.291-.31 3.512 1.586.1.91-.061 1.858-.201 2.767-.181 1.22-.482 2.419-.722 3.618.04.02.08.04.12.058.14-.154.301-.27.421-.445a756.732 756.732 0 0 0 2.95-4.256c.501-.736.943-1.51 1.485-2.206 1.284-1.626 2.869-1.76 4.474-.426.501.426.963.91 1.465 1.355.461.406.902.832 1.404 1.18 1.505 1.045 3.15 1.354 4.976.774 4.755-1.51 7.765-6.579 6.762-11.494-.542-2.708-1.846-5.01-4.053-6.81-2.508-2.051-5.317-3.503-8.668-3.831-1.846-.175-3.592.174-5.237.986-1.585.794-2.668 1.993-3.23 3.619-.502 1.49-.06 2.418 1.404 3.115 2.448 1.16 5.819.56 7.284-2.11.2-.348.441-.696.742-.967.582-.522 1.284-.658 2.026-.387.723.271 1.144.794 1.264 1.529.041.251.041.522.021.793-.061.987-.081 1.974-.221 2.941-.121.852-.361 1.684-.622 2.496-.201.62-.562.678-.943.116-.442-.6-.763-1.277-1.104-1.915-.1-.174-.14-.387-.24-.658-.221.116-.402.213-.582.31-2.869 1.47-5.839 1.683-8.849.445-2.969-1.2-4.273-3.715-3.471-6.734.763-2.922 2.609-5.03 5.438-6.308 3.23-1.47 6.581-1.567 9.972-.503 3.591 1.122 6.701 2.98 9.129 5.766 3.451 4.005 4.956 8.61 3.391 13.719-1.585 5.166-5.257 8.32-10.855 9.21-2.568.406-4.876-.387-6.882-1.935-.763-.58-1.405-1.277-2.107-1.916-.16-.154-.301-.348-.501-.6-.402.465-.723.833-1.024 1.22-1.063 1.354-2.086 2.747-3.17 4.082-.542.677-1.184 1.297-1.846 1.858-1.545 1.277-3.15.754-3.471-1.18-.18-1.103-.06-2.245-.02-3.367.02-.697.12-1.393.201-2.225-.321.193-.562.31-.763.464a967.264 967.264 0 0 1-7.062 5.495c-1.184.91-2.368 1.819-3.592 2.67-.481.33-1.103.561-1.685.697-.983.213-1.846-.445-1.906-1.413-.04-.522.04-1.064.18-1.567.582-2.186 1.585-4.218 2.629-6.25.481-.948.983-1.877 1.484-2.825-.12.02-.16-.019-.18-.058Z"/><path d="M209.614 40.92c0-.019.02-.038.02-.058-.161-.909.04-1.702.963-2.147.923-.445 1.786-.174 2.448.483a26.962 26.962 0 0 1 2.388 2.593c2.267 2.922 3.912 6.173 5.296 9.559.382.928.723 1.877 1.224 2.767.402.735.963 1.393 1.525 2.031.442.484.341 1.142-.321 1.335-.562.175-1.083-.019-1.464-.367-.723-.678-1.445-1.393-2.047-2.167-.602-.794-1.063-1.684-1.565-2.535-1.685-2.922-3.451-5.785-5.698-8.359-.301-.348-.622-.522-1.104-.542-1.123-.038-2.247-.154-3.391-.232a38.803 38.803 0 0 0-8.728.426 6.722 6.722 0 0 1-1.524.077c-1.144-.077-1.846-.928-1.706-2.031.04-.31.141-.62.201-.93.2-1.14.481-2.282.582-3.424.22-2.322 1.183-3.522 3.551-4.083 2.669-.638 5.377-.735 8.106-.58 6.119.31 12.219.677 18.339 1.084 3.089.193 6.179.425 9.249.793 1.224.155 2.227 0 3.23-.639 1.846-1.2 3.752-2.302 5.558-3.56 2.288-1.606 3.391-3.947 3.913-6.56.241-1.14-.04-2.263-.903-3.076-.903-.851-1.906-1.625-2.93-2.36-.742-.523-1.625-.561-2.528-.349-1.304.31-2.367 1.007-3.19 2.013-1.906 2.264-.341 4.024 1.405 4.779.301.135.622.213.923.348.602.29.722.716.26 1.22-.722.792-1.665 1.063-2.728.87-3.19-.639-5.377-4.044-4.314-7.005 1.324-3.715 4.133-5.92 8.126-6.617 1.364-.232 2.689.058 3.953.6a13.29 13.29 0 0 1 4.795 3.425c2.006 2.283 2.568 4.876 1.505 7.681-1.284 3.367-3.311 6.25-6.441 8.32-1.966 1.297-3.973 2.477-6.14 3.425a69.494 69.494 0 0 0-9.39 4.953c-.461.29-.902.6-1.344.91-.321.232-.521.503-.521.929 0 .522-.382.754-.923.658-.923-.175-1.465-1.142-1.144-2.11.241-.774.823-1.315 1.465-1.78 1.384-.986 2.768-1.934 4.153-2.921.18-.116.281-.349.421-.523l-.12-.232c-1.304 0-2.629.039-3.933 0-7.323-.27-14.647-.638-21.97-.348-1.906.077-3.792.445-5.678.696-.642.078-.983.445-1.084 1.065-.14.754-.341 1.49-.541 2.283 3.27.038 6.5.116 9.771.213ZM70.89 80.315c-.3-.522-.541-.948-.822-1.373-2.147-3.445-3.812-7.102-5.297-10.855-1.003-2.535-2.227-4.992-3.371-7.488-.16-.33-.381-.639-.602-1.007-.18.175-.341.29-.481.407-1.505 1.47-2.75 3.154-3.813 4.934-1.825 3.018-3.731 5.96-5.898 8.745-.1.117-.161.252-.261.426 2.909-.097 5.778-.193 8.728-.29-.1-.213-.181-.387-.261-.542-.602-1.2-1.184-2.418-1.344-3.773a4.01 4.01 0 0 1 .04-1.2c.26-1.219 1.504-1.702 2.488-.909.461.368.862.87 1.123 1.393.361.677.562 1.451.823 2.167.34.987.662 1.974 1.023 2.941.542 1.413-.18 2.438-1.746 2.535-2.99.174-5.959.329-8.928.62-1.264.115-2.488.502-3.732.754-.401.077-.823.193-1.244.232-1.625.136-2.769-1.16-2.347-2.69a4.82 4.82 0 0 1 .642-1.373c.802-1.122 1.625-2.245 2.548-3.29 1.806-2.05 3.43-4.237 4.976-6.481 1.224-1.761 2.568-3.464 3.932-5.128.662-.813 1.485-1.49 2.267-2.206.663-.6 1.505-.774 2.388-.716.421.02.702.252.943.6 2.608 3.676 3.852 7.933 5.518 12.016a75.56 75.56 0 0 0 5.357 10.603c.421.677.863 1.335 1.284 2.012.421.639.26 1.49-.461 1.877-.402.213-.883.387-1.325.407-3.732.27-7.444.541-11.176.754-3.23.194-6.44.368-9.59 1.161-3.17.813-6.06 2.148-8.387 4.412-.502.484-.903 1.064-1.244 1.645-.341.56-.2.89.381 1.238.863.503 1.806.793 2.77.542 1.283-.33 2.527-.794 3.771-1.2.341-.116.442-.329.402-.697-.12-1.315 1.003-2.07 2.267-1.567 1.505.6 2.066 2.341 1.183 3.657-.18.271-.42.542-.682.735-2.267 1.529-4.654 2.787-7.463 3.077a8.348 8.348 0 0 1-5.097-1.064c-2.267-1.297-3.13-3.6-2.307-5.999.521-1.547 1.505-2.805 2.668-3.947 2.97-2.921 6.621-4.585 10.675-5.611 3.872-.968 7.804-1.142 11.777-.91 2.468.136 4.956.29 7.424.446.12-.02.26-.02.481-.02ZM193.543 148.521c.882-.097 1.705-.232 2.548-.29 2.026-.155 4.073-.291 6.099-.368.542-.019 1.084.077 1.625.213.863.213 1.425.793 1.445 1.47.02.813-.481 1.355-1.204 1.606-.883.31-1.806.581-2.729.716a1106.59 1106.59 0 0 1-13.703 1.78c-1.585.194-3.211.174-4.796-.174a6.7 6.7 0 0 1-1.585-.561c-.722-.387-1.043-1.103-.903-1.819.141-.677.703-1.219 1.525-1.316 1.405-.135 2.809-.193 4.194-.309 1.224-.116 2.447-.271 3.752-.406-.642-7.198-1.666-14.28-3.191-21.381-.421.193-.702.309-.963.464-2.789 1.722-5.638 3.367-8.366 5.186-3.231 2.147-6.682 3.811-10.454 4.818-3.15.851-6.34 1.122-9.55.329-6.762-1.684-11.076-7.043-11.156-13.854-.02-2.787.421-5.515 1.164-8.185.541-1.954 1.224-3.87 1.866-5.785.1-.31.24-.62.421-.91.381-.619 1.003-.929 1.645-.812.723.116 1.224.58 1.304 1.238.081.851.121 1.722-.04 2.554-.441 2.419-1.043 4.818-1.484 7.237-.422 2.302-.743 4.624-.301 6.965.842 4.47 4.313 8.243 10.112 8.591 1.846.116 3.632-.155 5.397-.677 2.889-.871 5.578-2.128 8.046-3.851 2.99-2.089 5.979-4.14 8.949-6.23.702-.484 1.344-1.025 2.026-1.528.261-.194.502-.407.783-.581 1.524-.967 3.29-.638 4.193.89.441.735.742 1.567.983 2.38.823 2.844 1.184 5.766 1.405 8.688.361 4.508.622 9.016.923 13.525-.021.097 0 .193.02.387ZM53.134 35.154c.08-.309.14-.522.2-.735 1.545-4.876 4.274-8.978 8.347-12.248 2.528-2.031 5.437-3.057 8.728-3.231.963-.058 1.565.329 2.006 1.064.622 1.045.903 2.187 1.023 3.367.462 4.334.362 8.688-.44 12.983-.222 1.161-.803 2.283-1.325 3.386-.22.445-.682.832-1.104 1.122-.561.368-1.183.136-1.304-.503-.1-.522-.06-1.122.02-1.664.18-1.083.462-2.167.682-3.25.02-.116.02-.232.02-.426-.22.039-.42.078-.601.116-1.605.33-3.21.658-4.816.968-.22.038-.441.058-.662.038-1.344-.058-2.187-1.122-1.685-2.322.642-1.528 1.404-3.018 2.106-4.508.08-.174.221-.329.362-.464.36-.33.782-.465 1.244-.29.481.174.742.541.722 1.025-.02.426-.14.87-.281 1.277-.28.793-.622 1.567-.963 2.457a40.216 40.216 0 0 1 1.725-.232c.903-.116 1.806-.232 2.71-.329.26-.02.4-.077.42-.348.261-3.521.301-7.024-.22-10.526-.06-.367-.221-.503-.602-.503-1.064 0-2.007.348-2.91.813-1.484.793-2.748 1.857-3.892 3.038-2.89 2.999-5.116 6.385-6.2 10.41-.18.657-.28 1.334-.401 2.012-.281 1.393-1.264 1.915-2.548 1.277a22.173 22.173 0 0 1-2.99-1.82c-3.912-2.805-8.367-4.179-13.182-4.43-2.849-.155-5.658.406-8.427 1.025-.08.02-.16.058-.24.078.541 4.14-.141 8.262-.181 12.441 1.765-.251 3.47-.503 5.257-.754-.422-1.8-.181-3.638-1.024-5.302-.34-.677-.26-1.393.281-1.974.542-.56 1.224-.619 1.967-.425.501.135 1.043.174 1.544.29a11.997 11.997 0 0 1 4.615 2.109 26.578 26.578 0 0 1 4.916 4.721c1.104 1.393 1.966 2.902 2.287 4.721.241-.096.422-.174.602-.232 3.13-1.258 6.26-2.535 9.61-3.154a44.868 44.868 0 0 1 2.328-.348c.923-.116 1.585.155 1.766.716.16.542-.22 1.18-1.063 1.528a43.75 43.75 0 0 1-3.15 1.2c-3.351 1.18-6.722 2.36-10.073 3.54a6.306 6.306 0 0 1-.983.291c-.963.155-1.725-.445-1.585-1.374.22-1.528-.361-2.805-1.204-4.005-1.625-2.302-3.651-4.257-5.979-5.882-.381-.27-.823-.464-1.224-.677-.14-.078-.3-.116-.541-.213.02.29.06.522.06.755 0 1.354.02 2.709-.04 4.044a1.86 1.86 0 0 1-.442 1.102c-.24.271-.682.523-1.043.542-1.866.155-3.732.213-5.618.348-.843.058-1.686.213-2.528.33-.522.077-1.064-.175-1.244-.736a4.458 4.458 0 0 1-.22-1.548c.1-2.341.28-4.663.38-7.004.06-1.451 0-2.903 0-4.373v-.097c-.22-1.567.08-2.167 1.545-2.902 1.686-.851 3.552-1.142 5.397-1.432 5.578-.851 10.855.29 15.911 2.457 1.305.561 2.428 1.47 3.632 2.225.14.117.28.271.522.445ZM96.934 120.348c-.382-1.006-.783-1.973-1.104-2.941-.14-.406-.2-.87-.2-1.296 0-.6.32-1.045.922-1.258.582-.212 1.144-.077 1.545.368.301.329.522.716.723 1.103.622 1.258 1.224 2.554 1.846 3.812.24.483.541.948.862 1.412.161.232.422.406.723.697.16-.542.281-.948.421-1.374.221-.716.582-1.045 1.144-1.026.521.02 1.003.407 1.103 1.065.08.638.121 1.315-.02 1.935-.401 1.741-1.946 2.554-3.712 2.051-.983-.271-1.745-.852-2.367-1.626-.221-.251-.401-.542-.642-.851-.14.155-.281.29-.402.426-3.712 4.179-9.71 4.701-14.145 1.238-3.531-2.748-4.715-6.424-4.294-10.623.442-4.489 2.97-7.817 6.702-10.352 3.892-2.65 8.166-3.095 12.74-2.089 5.96 1.296 10.875 4.218 14.948 8.552 1.405 1.49 2.789 3.019 4.234 4.489 1.926 1.954 4.153 3.405 6.942 3.967 2.889.58 5.438-.097 7.584-2.032 1.284-1.142 2.488-2.38 3.411-3.831.201-.31.542-.6.883-.755.963-.406 2.007.387 1.726 1.374-.241.851-.562 1.741-1.084 2.457-.943 1.297-1.966 2.554-3.09 3.677-1.846 1.818-4.213 2.67-6.822 2.883-4.715.367-8.727-1.161-12.018-4.354-1.485-1.451-2.849-3.018-4.294-4.489-1.083-1.103-2.167-2.186-3.33-3.192-3.371-2.864-7.364-4.335-11.818-4.547-4.715-.233-8.287 1.818-10.634 5.708-1.866 3.076-1.224 7.546 1.244 9.964 1.505 1.471 3.27 2.032 5.377 1.645 1.786-.329 3.451-1.045 4.896-2.187Z"/><path d="M204.217 75.749c.863-.058 1.645-.135 2.407-.194 6.842-.464 13.664-.135 20.446.774.702.097 1.384.29 2.046.523.642.213.963.658.923 1.16-.04.504-.361.93-1.043 1.065-.843.174-1.726.31-2.588.31-1.646 0-3.271-.097-4.916-.194-5.377-.348-10.714-.039-16.051.561-1.505.174-3.01.271-4.515.349a5.396 5.396 0 0 1-1.765-.233c-1.565-.503-2.107-2.09-1.224-3.405.24-.348.521-.677.842-.968 2.348-2.07 4.314-4.43 5.859-7.1.381-.678.923-1.258 1.364-1.916 1.024-1.567 2.569-2.283 4.435-2.283 1.825 0 3.631.135 5.457.251 3.391.213 6.762.426 10.153.658.401.02.501-.116.581-.484.923-4.082 2.689-7.778 5.719-10.797 2.789-2.767 6.34-3.83 10.273-3.521 3.932.31 6.581 2.69 7.483 6.675.743 3.309.663 6.637-.12 9.946-.522 2.244-1.786 4.044-3.892 5.185-.522.29-1.144.465-1.746.542a1.453 1.453 0 0 1-1.545-1.025c-.18-.639.08-1.161.803-1.568.441-.251.903-.464 1.364-.677 1.384-.677 2.287-1.722 2.568-3.212.482-2.631.522-5.243-.16-7.856a8.8 8.8 0 0 0-.783-1.915c-.822-1.529-2.167-2.264-3.952-2.09-3.211.29-5.899 1.606-7.785 4.14-1.465 1.955-2.589 4.083-3.271 6.405-.321 1.123-.361 2.322-.501 3.483-.081.6-.02 1.2-.141 1.78-.221 1.123-1.304 1.645-2.327 1.065a3.513 3.513 0 0 1-1.264-1.2c-.361-.62-.582-1.316-.763-2.012-.1-.368-.24-.465-.622-.445-2.327.077-4.655.154-7.002.154-2.287 0-4.595-.096-6.882-.135-.401 0-.803-.02-1.204.02-.803.077-1.465.386-1.906 1.083-.502.813-1.003 1.625-1.565 2.419-.983 1.431-1.986 2.844-2.99 4.276-.02.135-.08.232-.2.406ZM184.373 92.04c-2.367-2.321-5.096-4.043-8.066-5.494-.04.096-.1.174-.1.251-.16 3.174-1.003 6.211-1.946 9.23-1.224 3.947-2.468 7.914-3.15 11.996a18.189 18.189 0 0 0-.261 3.618c.06 1.664.742 2.09 2.388 1.626 1.444-.407 2.748-1.142 3.972-1.974 2.007-1.354 3.712-2.999 5.257-4.818.963-1.122 1.886-2.283 2.869-3.386a10.256 10.256 0 0 1 1.666-1.528c1.103-.794 2.407-.813 3.491 0 .562.425 1.123.928 1.505 1.509 1.605 2.418 3.932 3.908 6.581 5.05a8.23 8.23 0 0 1 1.484.774c.683.445.703 1.161.101 1.683-.482.426-1.084.523-1.686.445-3.631-.445-6.821-1.722-9.209-4.527-.301-.349-.602-.697-.943-1.103-.281.29-.542.522-.763.793-1.906 2.128-3.952 4.141-6.159 5.979-1.806 1.509-3.752 2.844-5.959 3.792-1.044.445-2.107.794-3.271.813-2.688.058-4.614-1.645-5.016-4.45-.281-1.935-.06-3.851.402-5.708 1.063-4.238 2.227-8.437 3.39-12.655.582-2.147 1.184-4.295 1.244-6.52.02-1.064-.1-2.129-.16-3.212-.02-.29-.08-.6-.08-.89-.02-1.78 1.484-2.903 3.23-2.341.742.232 1.485.619 2.127 1.064 3.33 2.206 6.44 4.682 9.069 7.643.301.329.501.406.943.193 3.752-1.8 7.704-2.883 11.898-3.076 3.11-.155 5.859.774 8.286 2.612.703.541 1.324 1.16 1.625 2.012.181.542.181 1.084-.12 1.567-.241.387-.421.387-.742.058a2.938 2.938 0 0 0-.522-.464c-2.949-1.916-6.12-2.767-9.691-2.148-3.15.561-6.2 1.451-9.089 2.787-1.746.793-2.949 1.954-3.27 3.87-.161.947-1.104 1.257-1.927.696-.581-.387-.842-.948-.943-1.606-.18-1.335.362-2.477 1.084-3.56.16-.175.301-.368.461-.6ZM19.005 67.642c-.12-.174-.221-.33-.341-.484-1.224-1.703-2.167-3.541-2.89-5.476-.461-1.277-.983-2.535-1.464-3.812-.181-.483-.341-.967-.382-1.47-.08-1.239.943-1.954 2.167-1.587.703.213 1.244.639 1.585 1.22.723 1.16 1.505 2.302 2.007 3.56a43.36 43.36 0 0 0 4.494 8.358c.622.91 1.043 1.955 1.445 3 .18.444.1 1.006.02 1.49-.08.502-.482.793-1.003.638-.522-.155-1.084-.368-1.485-.716-.622-.523-1.164-1.161-1.706-1.78-.24-.271-.4-.31-.722-.097-5.558 3.812-8.106 8.959-7.404 15.537.14 1.316.582 2.593.903 3.89.04.154.14.309.261.6.08-.252.12-.388.14-.543.783-4.353 3.15-7.72 6.923-10.138 1.665-1.065 3.47-1.955 5.236-2.825 3.19-1.587 6.401-3.135 9.631-4.663a17.3 17.3 0 0 0 4.394-3c1.345-1.257 2.007-2.786 1.926-4.585-.04-.871-.16-1.742-.26-2.612-.02-.175-.06-.349-.06-.523-.02-.503.18-.91.662-1.122.501-.232 1.003-.155 1.364.232.3.329.562.755.682 1.18.542 1.8.682 3.619.361 5.476-.28 1.51-.963 2.825-1.986 4.005-1.425 1.645-3.15 2.903-5.136 3.87-2.488 1.22-4.976 2.419-7.444 3.657-1.826.929-3.612 1.916-5.418 2.864-4.333 2.302-6.801 5.824-7.403 10.564a51.564 51.564 0 0 0-.301 3.503c-.06.948-.542 1.393-1.485 1.103a8.992 8.992 0 0 1-2.147-1.007c-1.424-.948-2.468-2.244-3.19-3.753-3.41-7.16-2.649-15.654 3.732-21.962 1.123-1.102 2.428-1.973 3.973-2.438l.32-.154ZM129.297.268c.522-.367 1.003-.735 1.545-1.064.783-.484 1.625-.832 2.568-.774.522.039 1.084.213 1.485.522.662.504.441 1.394-.361 1.684-2.227.813-4.033 2.148-5.217 4.18-.16.25-.341.502-.542.715-.601.62-1.504.484-1.785-.329-.141-.367-.141-.832-.081-1.238.061-.406.221-.832.462-1.161.421-.561.321-1.006-.12-1.47-.502-.562-.903-1.2-1.465-1.703-1.164-1.026-2.528-1.316-3.933-.561a20.913 20.913 0 0 0-3.13 2.109c-1.565 1.238-3.049 2.554-4.554 3.87-3.853 3.386-8.487 4.933-13.604 5.398-5.919.522-11.496-.716-16.874-2.941-2.628-1.084-5.176-2.36-7.744-3.56-.201-.097-.422-.194-.703-.31 0 .174-.02.27 0 .368.482 3.018 1.445 5.882 3.19 8.455 1.144 1.684 2.649 3 4.475 3.928.682.348 1.465.6 2.227.658 1.144.116 2.327.02 3.531.02-.04-.446-.14-.968-.14-1.49 0-.6.02-1.2.14-1.78.16-.755.823-1.2 1.525-1.22.722 0 1.344.426 1.525 1.2.22.91.361 1.819.542 2.747a14.792 14.792 0 0 0 1.765 4.683c.321.542.723.948 1.385 1.103.28.058.541.193.802.348.562.329.602.62.18 1.103-.782.91-2.567 1.084-3.71.252-.623-.446-1.185-1.045-1.646-1.665-.482-.619-.823-1.315-1.184-2.012-.16-.29-.28-.348-.622-.29-2.006.368-4.053.58-6.08.097-3.27-.774-5.698-2.748-7.564-5.321-2.99-4.141-4.654-8.727-4.334-13.874.1-1.741 1.184-2.612 2.95-2.167a8.574 8.574 0 0 1 2.067.794c1.966 1.025 3.912 2.05 5.818 3.154a34.82 34.82 0 0 0 12.42 4.334c3.571.522 7.123.406 10.634-.484 2.307-.58 4.294-1.722 6.099-3.212C112.945 1.952 114.61.5 116.296-.93c1.244-1.045 2.528-2.013 4.053-2.67 2.588-1.123 5.317-.697 7.403 1.18.722.638 1.204 1.412 1.405 2.322.02.077.04.174.08.251 0 .078.04.097.06.116Z"/><path d="M30.662 107.984c1.444-.406 2.93-.309 4.153-1.18.602-.445 1.465-.29 1.926.348.261.368.482.794.622 1.219.442 1.297.803 2.632 1.304 3.909a92.807 92.807 0 0 0 2.388 5.611c.983 2.109.863 2.845-.983 4.354-2.267 1.857-4.535 3.715-6.822 5.534a23.367 23.367 0 0 1-2.428 1.702c-.983.6-1.605.368-2.467-.367-2.77-2.419-4.114-5.631-5.237-8.92-3.431-10.004-2.689-19.93.903-29.72.521-1.394 1.384-2.67 2.126-3.967.301-.522.683-1.103 1.425-.91.863.233 1.726.523 1.906 1.568.16.91.361 1.838.502 2.747.521 3.31 1.505 6.482 3.27 9.385.16.251.281.541.401.812.341.736.221 1.394-.16 2.109-.943 1.742-1.806 3.522-2.689 5.283-.04.096-.08.232-.14.483ZM26.91 91.867c-.04 0-.06-.02-.1-.02-.04.078-.06.155-.1.233-1.486 5.456-2.268 10.99-1.987 16.64.18 3.541 1.143 6.927 2.327 10.255.863 2.438 1.886 4.818 2.87 7.256 2.768-2.167 5.477-4.276 8.206-6.424-1.846-3.019-2.79-6.327-3.552-9.752-.24.058-.421.135-.602.174-1.665.387-3.31.813-4.995 1.122-1.244.232-1.967-.387-1.927-1.567.02-.6.12-1.219.301-1.8.703-2.205 1.686-4.295 2.87-6.307.22-.387.22-.678 0-1.065-1.285-2.147-2.308-4.392-2.89-6.81-.14-.639-.28-1.297-.421-1.935ZM62.042 128.669c-2.548-2.4-3.973-5.437-5.056-8.746-.24.271-.381.426-.502.58-.42.6-.822 1.2-1.264 1.78-.34.484-.662.968-1.063 1.394-1.324 1.431-3.23 1.141-3.993-.62a9.696 9.696 0 0 1-.642-2.128c-.622-3.386-1.705-6.617-3.17-9.733-.622-1.335-1.384-2.631-2.087-3.947-.06-.116-.14-.232-.22-.367-.442-.755-.562-1.548 0-2.284.541-.735 1.344-.89 2.207-.657.762.193 1.505.406 2.227.696.782.329 1.565.677 2.287 1.122 4.454 2.651 9.27 4.412 14.306 5.67 1.043.251 2.066.541 3.11.812.04 0 .06-.019.16-.019-.02-.29-.04-.581-.08-.871-.24-2.36-.522-4.721-.702-7.082-.06-.948.08-1.934.22-2.883.06-.425.302-.89.582-1.219.642-.793 1.826-.56 2.187.387.06.155.1.349.12.523.382 3.154.763 6.327 1.124 9.481.12 1.006.181 2.032.221 3.057.06 1.761-1.284 2.767-3.07 2.322-.2-.058-.421-.116-.622-.213-3.23-1.625-6.721-2.612-10.092-3.87-2.729-1.006-5.397-2.128-8.086-3.192-.18-.078-.361-.136-.662-.252 1.726 3.58 3.03 7.159 3.672 11.068.34-.407.562-.677.802-.968.703-.812 1.465-1.567 2.488-2.012 1.465-.638 2.629-.368 3.511.948.502.755.883 1.567 1.224 2.419.843 2.148 1.746 4.257 3.25 6.056.121.135.221.271.382.464.18-.135.361-.251.522-.367 1.003-.755 2.086-1.355 3.33-1.664.201-.039.402-.078.582-.097.803-.077 1.405.252 1.625.89.221.619-.06 1.238-.782 1.606-1.084.542-1.986 1.296-2.789 2.187-2.548 2.844-5.076 5.707-7.624 8.571-.1.097-.16.232-.241.348-.281.407-.662.678-1.184.639-.502-.039-.843-.31-1.063-.735-.321-.62-.281-1.258-.06-1.897a14.204 14.204 0 0 1 2.688-4.74c.682-.851 1.425-1.606 2.227-2.457ZM103.836 49.395c.22-.735.401-1.354.582-1.954l4.574-13.815c.06-.194.161-.406.281-.58.241-.349.562-.484.983-.407.422.097.662.387.702.774.021.349.021.716-.08 1.045-.501 1.935-1.003 3.89-1.585 5.805a364.343 364.343 0 0 1-2.849 9.036c-.421 1.277-.903 2.515-1.384 3.773-.241.638-.662.851-1.284.56a4.376 4.376 0 0 1-1.285-.947c-.441-.484-.802-1.045-1.183-1.587-.703-.967-1.666-1.664-2.79-2.283-.08.232-.14.406-.18.58-.682 2.574-1.344 5.147-2.046 7.72-.16.62-.422 1.24-.663 1.839-.12.29-.32.561-.541.793-.301.31-.703.426-1.144.252-.421-.174-.602-.523-.582-.929.04-.464.1-.948.2-1.412.723-3.116 1.445-6.25 2.188-9.365.1-.426.06-.62-.421-.755-4.053-1.064-8.086-1.045-12.059.31-2.789.948-4.655 2.844-5.758 5.495-1.184 2.805 1.043 5.147 3.671 4.992 1.124-.058 2.247-.174 3.391-.271-.1-.852-.22-1.664-.28-2.477-.04-.58-.04-1.16.04-1.741.08-.735.662-1.239 1.324-1.258.682-.039 1.304.387 1.424 1.142.261 1.373.442 2.786.622 4.18.16 1.296.321 2.592.401 3.888.06.794 0 1.587-.06 2.36-.06.64-.421 1.007-.903 1.046-.501.058-.963-.252-1.123-.89-.341-1.316-.622-2.632-.923-3.967-.06-.213-.1-.445-.14-.658-.803.252-1.546.542-2.328.736-2.147.522-4.194.386-6.04-.93-2.648-1.895-3.651-4.624-2.688-7.739 1.144-3.734 3.772-6.153 7.544-7.41 3.411-1.142 6.922-1.316 10.474-.794 1.565.232 3.11.58 4.735.89.08-.29.16-.638.26-.987.703-2.36 1.365-4.74 2.107-7.081.221-.697.602-1.374 1.024-1.974.22-.329.702-.58 1.103-.677.622-.136 1.204.387 1.204 1.064 0 .561-.1 1.122-.281 1.645-1.063 2.844-1.886 5.766-2.628 8.707-.06.251-.12.445.2.6 1.686.909 3.15 1.934 4.194 3.657ZM227.752 134.009c1.224-.077 2.327-.155 3.451-.232 1.103-.078 2.207-.213 3.311-.271.461-.019.963.058 1.384.213 1.164.425 1.384 1.78.361 2.476a5.613 5.613 0 0 1-2.046.794 63.794 63.794 0 0 1-5.438.561c-1.886.116-3.792.135-5.678.174a8.7 8.7 0 0 1-1.585-.097c-1.043-.155-1.726-.89-1.746-1.799-.02-.91.663-1.703 1.706-1.838.843-.116 1.705-.097 2.568-.078 1.144.02 1.144.039 1.445-1.045 2.147-7.314 3.511-14.802 4.715-22.309.16-.987.361-1.974.541-3.057-.922.038-1.785 0-2.648.155-3.391.561-6.782 1.199-10.173 1.76-.762.136-1.123.445-1.364 1.161-.722 2.09-1.565 4.16-2.347 6.25-.121.348-.221.697-.362 1.142.522.038.964.116 1.405.096 2.648-.154 5.317-.348 7.965-.522.562-.039 1.144-.058 1.686.019.863.155 1.404.736 1.465 1.432.06.658-.382 1.335-1.164 1.625a5.018 5.018 0 0 1-1.585.329c-2.849.174-5.719.329-8.568.426a9.748 9.748 0 0 1-2.488-.193c-1.745-.407-2.728-1.723-2.508-3.445.141-1.025.442-2.031.783-2.999.822-2.322 1.705-4.624 2.568-6.946.381-1.026 1.084-1.606 2.227-1.741 2.568-.31 5.137-.678 7.705-.968 3.07-.329 6.16-.251 9.209.252 1.224.193 1.666.599 1.625 1.78a52.466 52.466 0 0 1-.521 5.611c-1.084 7.12-2.849 14.067-5.739 20.723-.04.155-.08.29-.16.561ZM30.24 13.561c1.144-1.084 1.385-2.593.723-3.734-.281-.484-.582-.93-.843-1.413-.562-1.064.02-2.012 1.264-2.032.843 0 1.565.31 2.147.871.963.91 1.384 2.07 1.384 3.348 0 1.915-.602 3.637-1.926 5.088-.903 1.006-2.006 1.548-3.45 1.2-.121-.039-.362.058-.442.174-1.064 1.742-2.769 2.303-4.735 2.322-4.876.039-8.748-4.218-8.126-8.9.421-3.135 1.825-5.786 4.313-7.818 4.174-3.424 9.05-5.146 14.547-4.914 5.678.251 9.41 3.58 10.173 9.016.34 2.4.34 4.838.481 7.256.14 2.438.24 4.876.441 7.314.06.736.261 1.49.562 2.187.562 1.354 2.207 1.664 3.351.716.24-.213.482-.465.782-.562.221-.077.582-.019.803.097.12.058.14.426.08.62-.822 2.07-3.17 3.173-5.317 2.495-1.384-.444-2.327-1.393-2.728-2.689-.422-1.335-.763-2.728-.883-4.102-.301-3.58-.422-7.16-.703-10.739a22.166 22.166 0 0 0-.642-3.83c-.782-3.02-2.949-4.567-6.059-4.993-1.786-.251-3.531-.116-5.257.329-2.97.755-5.658 2.032-7.845 4.18-1.705 1.663-2.709 3.637-2.97 5.959-.28 2.67 1.746 5.07 4.475 5.282.722.058 1.445-.02 1.846-.658.421-.658.542-1.373.16-2.147a6.7 6.7 0 0 1-.642-1.839c-.18-.928.261-1.702 1.024-2.09.762-.367 1.685-.25 2.387.368.823.716 1.164 1.684 1.345 2.71.04.27.16.541.28.928Z"/><path d="M225.866 145.309c-.04-.445-.08-.813-.1-1.181-.061-.967.24-1.78 1.103-2.321.863-.523 1.806-.503 2.649 0 .682.406 1.304.948 1.886 1.509 2.327 2.322 4.835 4.431 7.604 6.25a36.727 36.727 0 0 0 3.27 1.915c1.445.774 3.01 1.122 4.655 1.238a9.891 9.891 0 0 1 2.127.426c.522.155.843.561.823 1.122-.02.542-.382.852-.883 1.045-1.164.445-2.368.31-3.552.097-2.768-.522-5.276-1.703-7.764-2.941-2.468-1.238-4.856-2.554-7.063-4.199-.06-.058-.14-.097-.341-.213.06.368.08.639.14.89.301 1.219.602 2.419.923 3.638.261 1.026.462 2.051.041 3.057-.161.387-.482.813-.843 1.045-.702.426-1.645 0-1.987-.832-.983-2.438-2.146-4.818-2.387-7.469 0-.058-.04-.135-.08-.251l-1.325.29c-2.267.445-4.534.426-6.781-.097-2.248-.522-4.455-1.199-6.521-2.244-3.572-1.8-6.08-4.605-8.046-7.895-1.525-2.554-2.749-5.243-3.772-8.01-.582-1.567-1.184-3.135-1.766-4.702-.1-.271-.2-.58-.22-.871-.081-.696.18-1.257.822-1.606.642-.348 1.304-.29 1.846.136.381.29.723.677.943 1.083.562 1.084 1.064 2.187 1.565 3.309 1.144 2.612 2.167 5.263 3.431 7.817a28.196 28.196 0 0 0 2.99 4.76c2.588 3.386 6.24 4.992 10.513 5.456 1.967.194 3.993-.058 6.1-.251ZM9.534 135.383c-.622.077-1.324.251-2.026.251-.662.02-1.365-.038-1.987-.213-2.046-.561-3.03-2.186-2.447-4.14.3-1.026.762-2.013 1.324-2.941 1.164-1.935 2.688-3.619 4.414-5.128.12-.116.26-.232.461-.426-.3-.019-.481-.019-.682-.038-2.026-.078-3.752-.794-5.196-2.167-1.565-1.471-1.826-3.348-.662-5.128a8.828 8.828 0 0 1 1.805-2.031 156.286 156.286 0 0 1 5.618-4.528c1.525-1.18 2.569-2.612 3.05-4.45.18-.658.341-1.297-.24-1.935-.322-.349-.221-.832.08-1.219.32-.407.782-.561 1.304-.445.662.154 1.043.619 1.244 1.219.4 1.103.32 2.225.04 3.328-.622 2.438-1.947 4.431-3.933 6.056-1.645 1.354-3.25 2.767-4.855 4.179-.502.445-.943.968-1.345 1.51-.421.58-.36.986.1 1.547.863 1.045 1.987 1.587 3.351 1.587.622 0 1.244-.077 1.846-.116.502-.039 1.024-.097 1.525-.077 1.385.019 2.047 1.161 1.244 2.263-.501.678-1.143 1.277-1.806 1.819-1.685 1.432-3.19 2.999-4.354 4.838-.541.851-.963 1.799-1.344 2.747-.26.619-.06.909.622.987a7.367 7.367 0 0 0 1.846-.058c1.124-.174 2.207-.387 3.09-1.2.28-.271.782-.387 1.204-.425.682-.078 1.304.348 1.565.948.24.58.1 1.238-.381 1.702-.12.116-.281.213-.422.329-.521.407-.682.987-.461 1.606.481 1.316 2.568 2.496 3.993 2.187a2.459 2.459 0 0 0 1.183-.697c1.987-1.993 1.987-5.476.04-7.527-.461-.483-1.023-.754-1.685-.774a25.6 25.6 0 0 0-2.99.097c-.36.039-.722.271-1.003.484-.441.329-.762.367-1.163 0-.522-.484-.643-1.084-.442-1.742.321-.986 1.064-1.625 2.007-2.051 3.05-1.373 7.102-.154 8.707 2.69 1.726 3.076 2.027 6.23.04 9.326-2.467 3.87-8.527 3.986-11.155.174-.502-.696-.743-1.567-1.124-2.418ZM116.576 138.866c.181-.291.362-.6.522-.891 1.505-2.728 3.291-5.282 5.658-7.391 1.084-.948 2.267-1.838 3.511-2.573.823-.484 1.806-.774 2.769-.91 2.789-.367 4.976.697 6.3 3.077 1.706 3.038 1.826 6.211.362 9.384-.723 1.548-1.927 2.69-3.512 3.406a4.906 4.906 0 0 1-1.565.387c-1.264.077-2.207-.755-2.247-1.877-.04-1.181.923-2.264 2.107-2.361.943-.077 2.388-1.219 2.588-2.128.422-1.722.08-3.328-.943-4.78-.903-1.296-2.207-1.664-3.672-.967-.822.387-1.605.909-2.307 1.49-2.127 1.741-3.832 3.85-5.197 6.211-.742 1.296-1.444 2.612-2.207 3.889-.28.484-.622.968-1.023 1.355-1.123 1.102-2.809.948-3.631-.387-.462-.774-.863-1.606-1.064-2.477-.642-2.883-1.184-5.785-1.745-8.688-.161-.774-.261-1.567-.382-2.341-.14-.948.281-1.703 1.064-1.993a1.785 1.785 0 0 1 2.207.793c.361.639.682 1.335.822 2.051.462 2.206.823 4.431 1.224 6.637.061.348.141.716.221 1.064.06 0 .1 0 .14.02ZM134.835 13.077c.02-6.404 3.31-10.796 9.39-12.654 1.444-.445 2.969-.774 4.474-.91 1.324-.135 2.689.078 4.033.136.161 0 .321.077.482.116 3.069.852 4.514 3.193 3.792 6.211-.422 1.838-1.385 3.425-2.809 4.683-1.445 1.277-3.03 2.418-4.515 3.657-1.224 1.025-2.448 2.05-3.591 3.153-.903.852-1.505 1.897-1.946 3.019-.181.445-.402.87-.602 1.296-.462.91-1.004 1.2-2.027.949-2.287-.581-4.113-1.761-5.237-3.832-1.043-1.915-1.424-3.966-1.444-5.824Zm6.019 6.734c1.986-3.25 4.334-6.114 7.705-8.05.461-.27.923-.58 1.344-.909.843-.658 1.705-1.316 2.488-2.05 1.083-1.046 1.806-2.284 1.946-3.793.121-1.22-.381-1.993-1.625-2.264a8.576 8.576 0 0 0-2.327-.155c-2.468.213-4.776 1.045-6.822 2.36-2.308 1.49-3.832 3.522-4.354 6.212-.281 1.509-.341 2.999-.1 4.508.26 1.49.742 2.902 1.745 4.14ZM77.471 133.719c.1-.794.16-1.935.402-3.038.2-.987.882-1.683 1.886-2.012 2.026-.658 3.992-.387 5.919.406 1.685.696 3.15 1.722 4.334 3.057 3.992 4.431 5.617 9.52 4.554 15.344-.18.929-.542 1.857-.923 2.747-.481 1.084-1.364 1.49-2.448.929-2.006-1.025-4.012-2.07-5.878-3.328-1.525-1.025-2.91-2.283-4.194-3.579-2.046-2.129-3.03-4.722-3.39-7.547-.121-.87-.161-1.741-.262-2.979Zm13.363 13.873c.06-.174.1-.252.1-.329.04-.987.181-1.974.12-2.941-.32-4.276-2.126-7.836-5.517-10.623a8.11 8.11 0 0 0-3.712-1.702c-.642-.116-.742-.078-.782.561-.04.561-.08 1.141.02 1.683.622 2.941 1.585 5.727 3.571 8.107 1.445 1.742 3.13 3.232 5.016 4.528.341.252.743.445 1.184.716ZM21.192 34.787c-4.715-.968-8.809.155-12.64 2.457-2.73 1.645-5.177 3.638-7.445 5.844l-.421.406c-.02.02-.06.02-.14.058-.02-.135-.02-.27-.02-.406 0-1.722-.02-3.444.02-5.166 0-.213.1-.504.26-.639 2.73-2.225 5.679-4.16 9.07-5.456 3.33-1.297 6.761-1.51 10.252-1.007.381.058.743.155 1.104.29.943.31 1.485.949 1.725 1.877.502 1.935.02 3.541-1.645 4.722a16.657 16.657 0 0 1-3.15 1.76c-2.348 1.007-4.675 2.032-6.762 3.541-1.083.794-1.946 1.761-2.448 2.98a5.121 5.121 0 0 0-.38 1.741c-.02.93.561 1.374 1.524 1.258.321-.038.642-.135.923-.27.14-.078.281-.291.281-.446.02-.851.823-1.703 1.725-1.741.903-.039 1.726.619 1.746 1.528 0 .484-.14 1.026-.381 1.452-1.003 1.702-3.531 2.825-5.518 2.554-2.448-.349-4.033-2.419-3.631-4.857.441-2.69 1.886-4.799 4.133-6.405 1.806-1.296 3.772-2.321 5.879-3.115 1.565-.6 3.11-1.296 4.634-1.993.442-.232.803-.6 1.305-.967ZM108.491 26.854c.16.058.2.077.26.077 2.97.02 5.939.155 8.909-.251a9.812 9.812 0 0 1 1.846-.039c.622.058 1.043.445 1.123.929.101.522-.18.987-.762 1.277-.983.483-2.027.483-3.09.483-2.367 0-4.735.04-7.103.097-.762.02-1.524.136-2.287.174-.381.02-.762.02-1.144-.058-1.083-.212-1.725-1.122-1.304-2.09 1.144-2.592 2.508-5.088 4.475-7.197.441-.484 1.163-.774 1.825-.987 2.328-.755 4.756-.774 7.203-.697 2.027.059 4.053.078 6.06.117.12 0 .241-.02.481-.04-.14-.212-.261-.347-.361-.502-1.344-1.993-2.769-3.967-4.013-6.018-.622-1.006-.983-2.186-1.304-3.328-.16-.6-.12-1.296.02-1.915.321-1.316 1.726-1.78 2.789-.89.562.464 1.104 1.025 1.405 1.644 1.545 3.193 3.511 6.153 5.277 9.23.682 1.18 1.183 2.438 1.765 3.676.08.194.121.406.161.62.2.986-.301 1.431-1.284 1.102-.582-.193-1.084-.561-1.626-.832-.22-.116-.461-.251-.682-.251-3.973.116-7.945.27-11.898.425-.321.02-.642.097-.983.136-1.826.232-3.25 1.045-4.153 2.65-.482.832-1.044 1.607-1.605 2.458ZM8.551 2.184c.22-1.548.442-3.174.662-4.721C6.364-1.28 3.475-.003.505 1.333c0-.775-.02-1.452.02-2.129 0-.116.161-.252.281-.329 3.07-1.838 6.12-3.676 9.19-5.495.381-.213.742-.445 1.143-.62.783-.367 1.425-.309 1.866.136.442.426.502 1.045.1 1.761-.661 1.2-1.203 2.438-1.464 3.792-.502 2.748-.562 5.534-.24 8.301.18 1.606.46 3.212.902 4.76.341 1.142 1.023 2.206 1.525 3.309.16.348.341.716.361 1.083.04.677-.542 1.239-1.304 1.2-1.846-.097-3.471.542-5.096 1.219-2.348.967-4.515 2.302-6.601 3.715-.201.135-.382.251-.703.445v-1.103c0-.87.02-1.722 0-2.593 0-.329.1-.522.402-.638 1.846-.774 3.671-1.548 5.497-2.322 1.365-.561 2.749-1.122 4.073-1.664-.481-1.413-.943-2.845-1.404-4.238-1.605.716-3.23 1.451-4.876 2.168-.522.212-1.043.406-1.605.522-1.023.232-1.746-.271-1.725-1.258.06-2.476.12-4.953.26-7.391.1-1.742 1.224-2.419 2.99-1.993a8.454 8.454 0 0 0 1.565.213c.943.02 1.886 0 2.89 0ZM3.154 4.467c-.06 1.664-.14 3.425-.2 5.224l.48-.116c1.225-.387 2.449-.774 3.673-1.18.42-.136.822-.368 1.244-.523.34-.135.42-.329.38-.696-.1-.813-.12-1.645-.16-2.477-.02-.213 0-.426 0-.619-1.866.135-3.611.27-5.417.387ZM163.346 152.487c-2.628 2.361-5.598 4.006-8.628 5.553-3.691 1.877-7.564 3.309-11.717 3.928-1.786.252-3.571.174-5.277-.483-1.444-.562-2.608-1.452-3.451-2.729-.943-1.451-1.445-3.057-1.645-4.759-.04-.252-.02-.523.02-.794.1-.58.542-1.025 1.083-1.122.582-.097 1.144.116 1.445.619.181.29.281.639.401.968.181.561.321 1.161.522 1.722.923 2.399 2.568 3.424 5.237 3.27 2.568-.155 5.016-.871 7.423-1.664 3.472-1.123 6.642-2.806 9.611-4.838 2.047-1.373 3.672-3.154 5.096-5.088.141-.194.281-.407.442-.6.682-.794 1.645-1.064 2.528-.697.883.368 1.304 1.239 1.184 2.264a104.326 104.326 0 0 0-.462 4.296c-.14 1.664-.06 3.308.522 4.895.06.155.08.309.1.464.161 1.045-.702 1.8-1.725 1.393-.482-.193-.943-.561-1.264-.948-.903-1.064-1.244-2.322-1.365-3.657 0-.638-.02-1.257-.08-1.993ZM104.458 68.338c2.187.194 4.293.407 6.42.542 1.866.116 3.752.155 5.618.213.261 0 .542-.078.803-.136 1.485-.406 2.688.639 2.347 2.09-.1.445-.321.89-.541 1.316-.883 1.683-1.826 3.367-2.709 5.07-.301.6-.562 1.218-.762 1.857-.502 1.47-1.465 2.031-3.01 1.683-1.324-.31-2.629-.696-3.973-.967-2.468-.503-4.976-.33-7.464-.097-.923.097-1.846.232-2.769.232-2.046.039-3.09-1.47-2.247-3.27 1.023-2.186 2.087-4.334 3.15-6.501.522-1.084 1.425-1.664 2.629-1.8.842-.116 1.705-.154 2.508-.232Zm10.333 2.864h-.361c-3.311.174-6.622.348-9.932.542-.401.019-.803.038-1.184.135-.221.058-.481.252-.582.445a122.634 122.634 0 0 0-1.785 3.677c-.081.174-.161.328-.281.6 1.565 0 3.009-.117 4.434.019 2.107.212 4.213.6 6.3.928.381.058.562 0 .682-.367.161-.484.401-.948.602-1.413.682-1.49 1.384-2.999 2.107-4.566ZM90.232-6.717c.923.058 1.846.136 2.79.136 3.51.019 7.042-.039 10.553.019 1.705.039 3.411.213 5.096.406 1.806.233 1.786 1.626 1.144 2.612-.301.445-.602.89-.983 1.258-1.926 1.858-3.973 3.58-6.381 4.857-3.03 1.586-6.22 1.954-9.39.464-3.03-1.432-5.116-3.734-6.1-6.888-.36-1.142-.04-2.07.823-2.554.281-.155.642-.213.984-.252.481-.038.983-.02 1.464-.02v-.038Zm15.269 3.154c-.221-.02-.301-.039-.401-.039-2.348-.077-4.695-.077-7.043-.232-2.548-.174-5.096-.484-7.664-.716-.401-.038-.803 0-1.304 0 1.083 1.548 2.207 2.883 3.712 3.87C94.466.404 96.27.713 98.218.462c2.949-.407 5.096-2.129 7.283-4.025Z"/><path d="M152.17 144.283c-.02 4.122-3.29 7.779-7.524 8.417-3.471.503-6.621-1.877-6.962-5.243-.14-1.51.04-2.98.863-4.277.722-1.161 1.565-2.302 2.548-3.27 1.445-1.412 3.331-2.051 5.377-1.876 3.371.232 5.718 2.844 5.698 6.249Zm-10.573 2.225c-.021 1.858 1.203 2.864 3.009 2.477 2.187-.464 4.133-3.018 3.933-5.166-.141-1.393-1.024-2.167-2.468-1.974-2.488.349-4.414 1.993-4.474 4.663ZM190.914 37.438c-.04 2.283-.08 4.566-.1 6.85 0 1.276-.743 2.205-2.087 2.534-1.545.368-3.07.213-4.595-.155-2.508-.6-4.795-1.625-6.962-2.98-.341-.212-.642-.464-.943-.715-.421-.368-.602-.852-.622-1.413-.12-2.322.241-4.586.702-6.85.061-.251.101-.522.141-.773.12-.774.602-1.2 1.424-1.142a5.967 5.967 0 0 1 1.646.368 20.667 20.667 0 0 0 5.878 1.315c1.224.097 2.468-.038 3.712-.058.221 0 .442-.058.662-.058.783 0 1.264.426 1.285 1.18.02.64 0 1.258 0 1.897h-.141Zm-3.01 6.85c.281-2.322.542-4.528.803-6.792-1.806.27-3.571.077-5.317-.368-1.705-.445-3.431-.89-5.156-1.354 0 .038-.061.193-.081.348-.12 1.006-.12 2.051-.381 3.019-.301 1.122.141 1.625 1.124 2.109 2.046 1.006 4.013 2.147 6.28 2.65.923.194 1.866.252 2.728.387ZM177.913 56.98c2.207.097 4.394.426 6.46 1.22 1.044.406 2.007.947 2.689 1.837.441.581.722 1.22.542 1.974-.101.406-.281.774-.743.89-.441.097-.622-.251-.883-.484-.26-.251-.561-.522-.902-.638-2.689-1.045-5.458-1.316-8.307-.851-.843.135-1.525.56-1.966 1.277-.382.638-.341 1.025.281 1.45.421.291.902.523 1.404.678 1.405.426 2.829.387 4.274.29.521-.038 1.063-.038 1.565.078.722.154 1.204.638 1.344 1.373.141.755-.14 1.355-.782 1.78a3.624 3.624 0 0 1-1.084.484c-2.147.445-4.294.542-6.44.02-1.646-.387-2.97-1.22-3.953-2.555-1.084-1.49-1.264-3.095-.522-4.76 1.064-2.36 2.99-3.656 5.618-3.966.281-.039.582-.039.863-.058.16-.039.361-.039.542-.039ZM99.763 97.613c-1.064-.251-2.167-.406-3.19-.793-1.305-.464-1.927-1.8-1.605-3.115.24-1.045.802-1.954 1.444-2.806 2.348-3.115 5.638-4.798 9.47-5.592a11.252 11.252 0 0 1 2.268-.213c2.046.02 3.451.987 4.394 2.748.602 1.122.441 2.032-.341 2.902a28.34 28.34 0 0 1-2.468 2.38c-1.626 1.394-3.391 2.593-5.398 3.445-1.444.6-2.949.87-4.514.89-.02.058-.04.096-.06.154Zm-1.987-3.308c.382.058.763.154 1.124.174 2.929.077 5.658-.639 8.166-2.11 1.605-.947 2.408-2.418 2.95-4.082-3.431-.813-10.996 2.864-12.24 6.018ZM139.63 67.777c-.582.097-1.103.155-1.605.271-4.534 1.084-8.708 2.883-12.239 5.92-.763.64-1.364.755-1.906.368-.562-.406-.682-1.18-.181-1.954a12.979 12.979 0 0 1 1.666-2.07c2.307-2.322 5.236-3.657 8.326-4.683 2.328-.754 4.715-1.315 7.223-1.277.181 0 .402-.193.522-.348.642-.755 1.184-1.606 1.906-2.303.522-.503 1.224-.89 1.906-1.16.903-.368 1.806 0 2.227.716.402.715.221 1.547-.521 2.166-1.927 1.665-2.91 3.851-3.732 6.153-.101.271-.121.562-.221.813-.462 1.161-1.766 1.393-2.608.445-.582-.638-.743-1.432-.783-2.264 0-.232.02-.464.02-.793ZM44.687 130.255c.24 1.335-.381 2.322-1.325 3.193-1.163 1.103-2.287 2.264-3.49 3.347-1.225 1.084-2.549 2.09-3.833 3.115-.542.426-1.324.387-1.846-.116a4.175 4.175 0 0 1-.963-1.315c-.481-1.026-.883-2.071-1.324-3.116-.542-1.335-.08-2.515.722-3.579.321-.426.783-.774 1.224-1.122 2.328-1.877 4.655-3.715 6.982-5.592.12-.097.241-.213.341-.349.643-.735 1.586-.754 2.188.02.34.464.662.987.802 1.528.301 1.316.502 2.651.742 3.986h-.22Zm-3.25-1.993a.746.746 0 0 0-.161.058 1606.017 1606.017 0 0 0-6.14 5.534c-.08.078-.12.271-.08.348.32.678.662 1.355 1.023 2.051.12-.077.24-.135.341-.212 1.425-1.258 2.87-2.477 4.234-3.793 1.545-1.49 1.545-1.722.883-3.754-.04-.077-.06-.135-.1-.232ZM240.031 140.433c.161-5.844 4.154-9.384 9.832-9.829 2.989-.233 5.678 1.741 6.32 4.488.1.446.08.949-.06 1.374-.181.542-.803.755-1.304.503-.121-.058-.261-.154-.301-.271-.382-1.102-1.244-1.838-2.187-2.457-.943-.6-1.987-.619-3.05-.271-4.896 1.529-6.08 6.269-4.796 9.578.201.522.462 1.045.663 1.567.18.484.301 1.006-.161 1.432-.441.406-1.003.387-1.545.213-.822-.271-1.424-.832-1.946-1.49-.943-1.238-1.465-2.96-1.465-4.837ZM55.903 2.397c-.281-.33-.542-.58-.703-.871-.481-.793-1.083-1.587-1.324-2.438-.582-1.993.983-3.58 3.09-3.347 1.063.116 1.986.56 2.789 1.238 1.083.89 2.046 1.877 2.648 3.115.743 1.567 1.405 3.154 2.047 4.76.341.87.361 1.78-.14 2.65-.241.426-.582.64-1.064.717-2.87.406-5.658-.02-8.427-.736-.823-.212-1.565-.58-2.127-1.219-1.003-1.122-.822-2.554.542-3.25.622-.33 1.364-.407 2.067-.58.14-.059.32-.04.602-.04Zm-.883 2.515c0 .058 0 .116-.02.174 2.227.987 4.594 1.22 7.062 1.374-.04-.136-.06-.213-.08-.271-.662-1.374-1.324-2.728-1.986-4.102-.542-1.122-1.244-2.109-2.167-2.96-.301-.271-.662-.484-1.023-.678-.141-.077-.362-.019-.562-.038 0 .174-.06.367 0 .503.18.406.36.812.602 1.18.622.948 1.304 1.858 1.926 2.806.702 1.064.16 2.012-1.164 2.031-.582 0-1.164-.077-1.745-.077-.261-.02-.562.039-.843.058ZM132.768 99.645c-.682-.135-1.665-.213-2.568-.503-2.006-.639-3.07-2.36-2.749-4.373.341-2.109 1.325-3.909 3.09-5.224.522-.387 1.164-.658 1.786-.87.742-.252 1.465.038 1.826.58.361.541.321 1.2-.141 1.818-.401.523-.883 1.007-1.204 1.568-.381.677-.662 1.431-.963 2.167-.16.367.04.58.422.696 1.103.29 2.207.29 3.29-.038 1.324-.407 2.609-.91 3.893-1.355.421-.155.862-.31 1.304-.387.642-.116 1.204.097 1.565.639.381.56.301 1.16-.08 1.683-.221.29-.502.58-.803.774-2.508 1.664-5.317 2.593-8.668 2.825ZM.485 79.541c0-1.431-.02-2.767.02-4.102 0-.154.181-.348.342-.483.762-.658 1.544-1.277 2.307-1.935.481-.407.522-.852.28-1.413-.862-1.935-1.604-3.928-2.006-6.017-.32-1.703-.34-3.386.16-5.07a6.127 6.127 0 0 1 1.847-2.883c.461-.406.963-.58 1.545-.329.521.232.782.755.702 1.413-.02.251-.08.522-.16.774-.763 2.244-.663 4.508-.02 6.753.38 1.335.802 2.67 1.304 3.966.742 1.974.36 3.657-1.044 5.224-1.464 1.722-3.21 3.019-5.277 4.102ZM39.049 50.653h.421c.883-.02 1.204.174 1.384 1.006.301 1.47.542 2.98.803 4.45.1.542-.321.813-.722.987-.502.213-1.044.33-1.565.465-2.79.677-5.578 1.374-8.367 2.05-.462.117-.923.252-1.384.291-1.204.097-2.047-.658-2.027-1.819.02-.677.14-1.354.18-2.05.04-.659.04-1.336.06-1.994 0-.928.462-1.625 1.385-1.78 3.25-.56 6.501-1.064 9.751-1.587.04-.019.08-.019.08-.019Zm-.803 2.341s-.02-.019-.04-.019c-2.408.542-4.815 1.103-7.203 1.645-.1.02-.26.174-.26.27-.081.678-.121 1.355-.161 2.071 2.648-.522 5.256-1.026 7.825-1.529-.06-.87-.12-1.644-.16-2.438ZM182.226 141.961c.02 1.2-.461 1.897-1.685 2.206-1.705.445-3.21 1.219-4.615 2.206-.702.503-1.424.987-2.187 1.374-1.645.832-2.989 0-2.929-1.8.04-1.432.08-2.883.08-4.315 0-.89.462-1.412 1.264-1.78a87.044 87.044 0 0 0 3.632-1.722c.762-.387 1.465-.851 2.227-1.238 1.505-.735 2.99.077 3.451 1.393.401 1.18.622 2.419.903 3.618-.04.039-.08.039-.141.058Zm-8.206 2.284c1.625-.794 3.15-1.548 4.735-2.342-.2-.677-.401-1.412-.622-2.186-.12.039-.2.039-.24.077-1.224.736-2.428 1.471-3.652 2.206-.1.058-.201.213-.201.329-.04.619-.02 1.238-.02 1.916ZM41.998 143.238c-.3 2.342-.602 4.664-.903 7.005-.02.193-.1.367-.12.561-.2 1.509-2.649 2.631-4.073 1.47-1.826-1.489-3.371-3.192-4.615-5.166-.502-.793-.08-1.761.622-2.476.24-.252.562-.445.863-.639 1.585-1.103 3.17-2.186 4.755-3.289.441-.31.923-.6 1.505-.503 1.083.193 1.926 1.18 1.946 2.244v.793h.02Zm-4.113 5.631.18-.058c.241-1.645.462-3.289.723-5.089-1.244.832-2.328 1.567-3.491 2.341.903.968 1.745 1.877 2.588 2.806ZM226.046 97.265h-7.704c-.462 0-.943-.039-1.405-.116-1.244-.252-1.866-1.316-1.384-2.438a6.948 6.948 0 0 1 1.063-1.76 195.073 195.073 0 0 1 4.254-4.819c.321-.367.762-.638 1.184-.91.582-.386 1.344-.29 1.825.272.382.445.763.91 1.024 1.432.863 1.8 1.705 3.618 2.508 5.437.2.445.281.948.301 1.431.06.93-.642 1.568-1.666 1.471Zm-4.233-6.076c-1.023 1.2-2.067 2.4-3.11 3.619.04.038.06.096.1.135 1.886.097 3.792.213 5.739.31-.943-1.413-1.846-2.728-2.729-4.064ZM71.994 92.428h-.281c-1.164-.078-2.026-.813-2.107-1.838-.08-1.026.642-1.897 1.806-2.11.823-.135 1.665-.212 2.488-.309 4.073-.387 8.146-.774 12.24-1.142a7.417 7.417 0 0 1 2.066.097c.903.174 1.444.813 1.464 1.567.02.716-.461 1.335-1.324 1.626a4.916 4.916 0 0 1-1.163.213c-4.696.232-9.35.928-13.965 1.76-.401.078-.783.117-1.184.174-.04-.019-.04-.038-.04-.038ZM103.996 143.296c1.184-.058 2.408.368 3.632.813.622.232.863.832.742 1.49-.18.909-.561 1.703-1.103 2.438-1.987 2.748-4.675 4.431-8.126 4.915-.723.096-1.505.038-2.207-.116-.382-.078-.783-.445-1.023-.774-.783-1.045-.703-2.206-.281-3.367 1.163-3.135 4.614-5.399 8.366-5.399Zm1.706 2.516c-2.528-1.219-7.665 1.877-8.086 4.876 2.428.193 6.882-2.477 8.086-4.876ZM245.87-8.98c-.983.677-1.866 1.257-2.709 1.896-2.428 1.838-4.293 4.082-5.357 6.907-.602 1.625-.622 3.25-.201 4.915.121.464.221.929.301 1.393.121.658-.341 1.084-1.003.87-.421-.135-.883-.386-1.184-.715-1.625-1.664-2.267-3.677-1.946-5.921.522-3.676 2.448-6.637 5.177-9.172.1-.096.281-.193.421-.193 2.127.02 4.254.02 6.501.02ZM131.785 30.782c1.064 0 1.726.522 2.007 1.393a73.885 73.885 0 0 1 1.183 4.102c.101.387.061.813-.02 1.2-.261 1.412-1.504 2.205-2.949 1.876-.963-.212-1.866-.6-2.829-.793-1.164-.232-2.368-.348-3.552-.522-.421-.058-.842-.04-1.243-.155-1.325-.368-1.706-1.8-.743-2.748.221-.213.502-.425.783-.58a387.41 387.41 0 0 1 6.24-3.483c.321-.155.742-.194 1.123-.29Zm-1.043 5.166c-.121-.561-.201-1.006-.321-1.567-.582.348-1.084.657-1.706 1.044.763.194 1.345.349 2.027.523ZM211.319 124.721c.562.116 1.385.329 2.228.484 1.043.194 2.086.348 3.109.503.582.097 1.164.136 1.706.329.281.097.582.406.702.697.281.658.141 1.315-.241 1.915a809.788 809.788 0 0 1-3.631 5.399 3.436 3.436 0 0 1-.502.561c-.802.735-1.906.619-2.468-.31a6.243 6.243 0 0 1-.682-1.644c-.502-1.839-1.083-3.657-1.986-5.341-.081-.155-.141-.329-.201-.484-.361-1.199.401-2.147 1.966-2.109ZM78.154 72.073c.12-.62.18-1.258.38-1.839.603-1.702 2.288-2.554 4.094-2.147 2.107.483 4.093 2.593 4.334 4.682.02.213-.12.523-.281.677a410.507 410.507 0 0 1-4.314 3.967c-.823.755-1.485.755-2.267-.058a4.647 4.647 0 0 1-.883-1.258c-.602-1.122-.983-2.747-1.063-4.024ZM37.704 63.675c-.08 2.806-1.484 5.128-4.654 5.534-1.545.213-2.83-.368-3.712-1.567-.642-.871-1.144-1.877-1.565-2.883-.402-.93.02-1.626 1.043-1.858 1.926-.464 3.852-.89 5.778-1.335.482-.116.943-.252 1.425-.348.722-.136 1.304.232 1.445.928.06.271.14.542.18.832.04.233.04.465.06.697ZM80.983 31.227c.1-2.922 1.504-5.147 3.772-6.966.562-.445 1.224-.851 2.006-.561.381.135.803.368 1.044.677.36.484.641 1.064.882 1.626.422.986.803 1.992 1.204 2.999.24.6.16.832-.441 1.141-.442.213-.903.387-1.325.62-1.665.909-3.33 1.818-4.975 2.747-.743.406-1.465.232-1.766-.561-.24-.542-.28-1.142-.401-1.722ZM173.378 1.1c-.08.252-.221.794-.441 1.277-.542 1.22-1.124 2.438-1.706 3.657-.521 1.084-.862 1.161-2.127 1.064-1.123-.077-2.247.02-3.37.097-.883.058-1.766.232-2.669.271a2.306 2.306 0 0 1-1.224-.31c-.461-.251-.521-.85-.301-1.431.602-1.548 1.224-3.077 1.826-4.625.321-.793.903-1.219 1.786-1.238l6.16-.116c.14 0 .28-.039.421-.078.983-.29 1.665.194 1.645 1.432Zm-9.41 4.49c1.585 0 3.01 0 4.454-.02.121 0 .281-.194.321-.31.361-.89.703-1.8 1.044-2.709.1-.251.2-.503.321-.774-1.465.194-2.869.349-4.234.542a.632.632 0 0 0-.381.252c-.502.967-.983 1.954-1.525 3.018ZM6.525 106.437c-2.488 0-4.515-1.935-4.515-4.315 0-2.38 2.087-4.373 4.535-4.373 2.468 0 4.454 1.973 4.454 4.353 0 2.419-1.986 4.335-4.474 4.335Zm-1.445-4.315c0 .774.622 1.412 1.384 1.412.763 0 1.445-.658 1.445-1.374 0-.716-.642-1.315-1.424-1.315-.823-.02-1.405.522-1.405 1.277ZM65.955 91.48c.02 1.683-1.325 3.231-3.25 3.792-1.325.368-2.569.232-3.552-.735-.983-.948-1.485-2.11-1.043-3.502.16-.503.28-1.007.42-1.529.322-1.103 1.124-1.683 2.248-1.915 2.508-.523 5.157 1.47 5.177 3.889ZM154.678 117.756c.281-1.664.562-3.328.863-5.012.12-.658.281-1.296.421-1.954.221-1.122 1.044-1.799 2.067-1.703 1.023.097 1.806.91 1.746 2.013-.061 1.161-.301 2.302-.442 3.444-.22 1.915-.421 3.831-.642 5.766-.04.29-.06.6-.12.89-.241 1.103-1.365 1.548-2.247.832-.482-.387-.903-.948-1.104-1.509-.301-.89-.361-1.819-.542-2.767ZM186.54 111.448c.702 0 1.385.213 1.826.716 1.164 1.258 2.328 2.515 3.371 3.85.642.832.481 1.761-.121 2.245-.622.484-1.484.367-2.327-.29l-2.468-1.916c-.321-.252-.602-.213-.863.077-.561.6-1.103 1.219-1.665 1.8-.261.29-.522.6-.843.832-.501.368-1.083.406-1.645.077-.542-.329-.742-.851-.662-1.451.02-.097.02-.213.06-.309.763-1.626 1.505-3.29 2.909-4.528.703-.6 1.445-1.103 2.428-1.103ZM211.56 8.395c.502.213 1.064.367 1.485.677.642.464.662 1.238.16 1.819-.963 1.103-1.324 2.38-1.063 3.773.14.697.381 1.393.562 2.09.14.522.321 1.044.361 1.586.08 1.045-.762 1.664-1.786 1.316a5.17 5.17 0 0 1-1.525-.87c-2.066-1.742-2.889-5.09-1.866-7.547.582-1.393 1.545-2.418 3.171-2.69.14-.019.28-.019.441-.038l.06-.116ZM95.088 156.783c-.261 1.412-.502 2.825-.783 4.237-.1.503-.582.774-1.184.716-.24-.019-.501-.116-.742-.174l-5.477-1.451c-.442-.116-.883-.213-1.284-.426-.863-.425-.963-1.393-.241-2.012.26-.232.602-.387.923-.561 2.207-1.142 4.434-2.264 6.661-3.386.702-.368 1.425-.078 1.706.677.06.155.1.309.12.464l.18 1.877c.04.019.08.039.12.039Zm-2.85 2.612v-3.367c-1.344.735-2.608 1.413-3.972 2.167 1.384.426 2.628.794 3.973 1.2ZM245.027 123.367c1.184 0 2.267.29 3.15 1.103.402.367.662.793.622 1.354-.04.6-.381.91-.963.774-2.327-.561-3.952.581-5.437 2.071-.502.503-.923 1.083-1.405 1.625-.622.716-1.264.909-1.966.638-.722-.29-1.184-1.044-1.124-1.876.02-.233.061-.465.121-.678.863-2.747 4.073-5.03 7.002-5.011ZM164.59 16.734c0 2.148-1.906 4.141-4.093 4.276-1.685.097-2.99-1.006-3.27-2.612-.442-2.554 1.264-4.121 2.949-4.701 2.307-.794 4.414.677 4.414 3.037Zm-3.27-.406c-.181.077-.502.155-.743.348a3.22 3.22 0 0 0-.762.87c-.121.194-.241.523-.141.659.101.174.442.29.683.27.742-.057 1.524-.87 1.605-1.586 0-.329-.121-.542-.642-.561ZM243.181 63.559c-.06 1.219-.582 2.303-1.866 2.922-1.203.58-2.387.406-3.431-.426-1.103-.87-1.464-2.012-1.123-3.367.12-.464.16-.928.241-1.393.22-1.412 1.023-2.38 2.126-2.593 1.104-.212 2.248.368 3.01 1.587.622.968 1.023 1.993 1.043 3.27Zm-3.431-.987c-.281.445-.501.697-.642 1.006-.08.174-.16.484-.06.561.161.155.482.29.682.252.161-.039.381-.368.361-.542-.02-.387-.18-.754-.341-1.277ZM16.035 27.454c-1.043.077-2.066.154-3.11.212-.542.02-1.103.04-1.625-.058-.763-.135-1.084-.793-.783-1.49.04-.096.08-.193.14-.29 1.245-1.8 2.489-3.58 3.733-5.379l.12-.174c.2-.464.542-.774 1.064-.755.541 0 .862.349 1.083.774.24.504.462 1.026.682 1.548.442 1.045.883 2.07 1.325 3.116.12.27.24.56.3.851.181.793-.26 1.47-1.063 1.625-.602.116-1.224.078-1.846.116-.02-.038-.02-.058-.02-.096Zm-3.35-1.51h3.872a302.272 302.272 0 0 1-1.866-3.328 120.78 120.78 0 0 0-2.007 3.328ZM18.543 117.04c-.02 1.141-.863 1.838-1.926 1.722a107.054 107.054 0 0 0-3.592-.271c-.28-.019-.581-.019-.862-.058-1.264-.194-1.806-1.296-1.184-2.38.04-.077.08-.155.14-.232.843-1.084 1.666-2.167 2.549-3.231.762-.91 1.524-.891 2.407-.117 1.264 1.103 1.866 2.535 2.348 4.025.08.232.1.445.12.542ZM199.14 91.983c.502.155 1.244.29 1.927.6.822.387 1.224 1.219 1.083 1.954-.16.87-.802 1.277-1.625 1.432-.843.155-1.706.213-2.528.425-1.104.271-2.187.639-3.251 1.026-.622.213-1.163.27-1.705-.097-.562-.387-.883-.967-.702-1.606.14-.522.421-1.083.822-1.432 1.626-1.373 3.572-2.031 5.979-2.302ZM190.172 79.503c.261.116.802.31 1.244.638.802.6 1.565 1.238 2.307 1.916.341.31.642.677.863 1.064.361.658.06 1.374-.642 1.567-1.726.484-3.471.929-5.197 1.393-.2.058-.401.078-.582.097-1.123.097-1.765-.677-1.424-1.703.401-1.219.802-2.438 1.184-3.657.301-.89.903-1.315 2.247-1.315ZM125.064 156.473c-.081 1.645-.161 3.29-.281 4.934-.02.387-.181.794-.381 1.142-.442.735-1.405.716-1.766-.058-.241-.542-.361-1.142-.442-1.722-.321-2.709-.501-5.418-.361-8.146.02-.484.081-.987.201-1.451a1.3 1.3 0 0 1 1.204-.987c.582-.039 1.164.271 1.364.851.161.465.261.948.281 1.432.04 1.335.02 2.67.02 4.005h.161ZM169.706 24.435c.121.232.221.407.301.58a141.565 141.565 0 0 1 1.766 3.967c.14.31.201.697.161 1.026-.021.232-.221.56-.442.658-.201.077-.542-.058-.782-.136-.121-.039-.221-.193-.301-.29-1.124-1.432-2.268-2.844-3.351-4.296a17.162 17.162 0 0 1-1.304-2.07c-.201-.367-.281-.813-.281-1.219 0-.851.702-1.49 1.585-1.47.261 0 .502.038.742.116 1.164.31 2.308.638 3.471.967.161.039.321.097.462.174.562.271.843.832.702 1.355-.14.56-.642.948-1.304.91-.441-.059-.883-.175-1.425-.272ZM104.097 16.85c-.04.968-.382 2.032-1.224 2.883-1.284 1.316-3.29 1.2-4.314-.329-.381-.58-.602-1.315-.702-2.012-.14-.967.2-1.915.682-2.786 1.043-1.838 3.431-1.993 4.755-.33.562.717.803 1.51.803 2.574Zm-2.93-.812c-.682.29-.923 1.064-.582 1.78.161.348.362.348.602.077.362-.445.362-1.258-.02-1.857ZM74.301 99.838c0-.948.883-1.722 1.766-1.528 1.344.31 2.669.31 4.013.232.26-.02.562.02.802.097.903.251 1.244 1.141.642 1.838-1.304 1.471-2.608 2.941-3.992 4.334-.883.89-1.926.523-2.207-.677a273.269 273.269 0 0 1-.943-3.889c-.06-.174-.06-.33-.08-.407ZM98.94 130.662c1.826.019 3.552.715 5.237 1.451.02 0 .04.019.04.019.281.271.722.523.803.832.04.213-.442.561-.743.774-1.525 1.006-3.07 1.954-4.574 2.96-.863.562-1.505.329-1.766-.638a81.46 81.46 0 0 0-1.063-3.599c-.462-1.412.642-1.838 1.725-1.819.08-.019.16 0 .341.02ZM27.913 154.635c0-1.354.562-2.148 1.505-2.361.943-.212 1.866.213 2.347 1.142.221.406.382.832.482 1.277.381 1.587.722 3.193 1.043 4.779.16.832-.1 1.471-.602 1.722-.521.252-1.284.117-1.826-.483-1.645-1.819-2.648-3.948-2.949-6.076ZM48.499 141.458c-.361 2.806-.723 5.67-1.084 8.553-.02.116-.06.232-.1.348-.1.406-.341.774-.782.755-.362-.02-.823-.194-1.024-.445-.28-.407-.481-.929-.501-1.413-.04-1.277 0-2.554.1-3.831.12-1.606.321-3.212.522-4.818.04-.31.18-.639.36-.909.322-.445.803-.6 1.345-.484.542.116.923.445 1.023.987.12.367.12.774.14 1.257ZM185.938 20.082c-.822 0-1.424-.175-1.906-.62-.441-.406-.562-.986-.301-1.431.301-.503.763-.561 1.304-.523.422.039.883.02 1.284-.097 1.706-.445 3.191-1.335 4.655-2.263a15.267 15.267 0 0 1 1.746-.968c.281-.135.642-.174.963-.155.943.04 1.465.871.983 1.645a4.333 4.333 0 0 1-1.143 1.258c-2.027 1.45-4.234 2.534-6.702 3.076-.361.039-.702.058-.883.078ZM113.406 60.889c-.341-.116-.822-.232-1.224-.465a5.005 5.005 0 0 1-2.066-2.128c-.883-1.741-1.244-3.58-.983-5.514.04-.33.14-.658.281-.949.341-.773 1.063-1.141 1.785-.948.743.194 1.104.813 1.084 1.684a38.466 38.466 0 0 0 0 3.037c.06 1.336.602 2.438 1.745 3.232.241.174.462.406.642.638.462.6.281 1.103-.481 1.277-.181.058-.401.078-.783.136ZM232.868 160.865h-3.33c-1.024 0-1.646-.425-1.706-1.122-.06-.696.462-1.277 1.485-1.393a159.96 159.96 0 0 1 6.842-.735 3.576 3.576 0 0 1 1.685.309c1.104.503 1.164 1.858.141 2.477-.482.271-1.084.387-1.646.464-.581.078-1.163.02-1.745.02-.602-.02-1.164-.02-1.726-.02ZM216.997 58.16c0 .949-.782 1.684-1.685 1.452-1.304-.33-2.568-.155-3.832.096a5.315 5.315 0 0 1-1.244.117c-.702-.02-1.124-.484-1.124-1.161 0-.62.301-1.103.763-1.529 1.304-1.16 4.293-1.567 5.879-.774.742.407 1.243 1.103 1.243 1.8ZM93.382 72.305c-.06.135-.14.425-.32.658-.422.503-.843 1.006-1.345 1.45-1.525 1.413-3.09 2.787-4.655 4.16-.22.194-.441.369-.702.485-.462.212-.943.154-1.304-.213-.361-.387-.382-.832-.12-1.277.14-.233.32-.445.5-.62 1.726-1.547 3.432-3.095 5.177-4.624.462-.406 1.024-.735 1.606-.987.622-.232 1.163.194 1.163.968ZM160.296 59.264c.201.116.743.251 1.003.6 1.044 1.373 2.047 2.766 2.95 4.217.461.716.221 1.49-.361 1.897-.582.406-1.324.329-2.007-.213-.321-.271-.622-.542-.862-.87-.783-1.084-1.606-2.149-2.268-3.27-.642-1.162.061-2.361 1.545-2.361ZM28.334 22.79c.602.04 1.204.04 1.786.117 1.023.135 1.585 1.044 1.023 1.838a17.821 17.821 0 0 1-2.528 2.805c-.682.62-1.705.29-2.086-.541a20.72 20.72 0 0 1-.963-2.632c-.221-.774.28-1.451 1.123-1.548.542-.058 1.084-.02 1.625-.02.02 0 .02 0 .02-.018ZM168.523 83.566c0 1.354-1.104 2.438-2.468 2.457a2.41 2.41 0 0 1-2.468-2.438c0-1.393 1.103-2.496 2.488-2.476a2.46 2.46 0 0 1 2.448 2.457ZM53.796 21.436c-.281-.213-.602-.348-.743-.58-.842-1.568-1.023-3.193-.22-4.799.762-1.51 2.127-2.341 3.852-2.477.462-.038 1.003.155 1.404.387.402.213.502.678.362 1.123-.14.425-.482.56-.923.6-2.087.232-3.05 1.083-3.431 3.076-.12.832-.16 1.664-.301 2.67ZM138.366 27.608c0 .987-.241 1.606-.682 2.168-.281.348-.602.406-.943.174-.361-.232-.742-.484-1.003-.813-.622-.735-1.224-1.49-1.746-2.283-.542-.832-.381-1.78.301-2.36.682-.562 1.685-.562 2.468.038 1.104.851 1.525 2.032 1.605 3.076ZM.485 144.419c0-1.239 0-2.361.02-3.464 0-.116.14-.271.261-.348 1.084-.6 2.167-1.18 3.25-1.741.121-.078.261-.136.402-.194.722-.29 1.384-.135 1.766.387.38.542.3 1.277-.301 1.741a40.785 40.785 0 0 1-2.81 2.013c-.822.561-1.665 1.045-2.588 1.606ZM212.624 50.73c0 .813-.462 1.316-1.124 1.258a3.176 3.176 0 0 1-1.364-.464c-1.445-.929-2.227-2.341-2.769-3.87-.341-.967.582-1.838 1.585-1.529.401.136.843.388 1.103.716.803 1.007 1.545 2.07 2.288 3.135.18.27.22.62.281.755ZM88.326 114.196c.02-.832.2-1.626.763-2.303.481-.581 1.083-.871 1.866-.735.742.135 1.203.851.882 1.451-.501.89-.421 1.838-.36 2.767.02.464.14.909.16 1.354.04.774-.622 1.297-1.365 1.026a2.39 2.39 0 0 1-1.083-.832c-.582-.794-.843-1.722-.863-2.728ZM97.656 60.502c.14-.523.22-1.064.401-1.587a65.432 65.432 0 0 1 1.144-2.96c.361-.87 1.063-1.22 1.786-.987.722.232 1.163 1.006.862 1.819-.581 1.49-1.264 2.94-1.986 4.373-.321.658-.883.832-1.384.677-.502-.155-.763-.58-.823-1.335ZM70.81 131.919c-.02.542-.28 1.026-.782 1.297-1.164.638-2.368 1.257-3.552 1.877-.16.077-.34.116-.521.135-.602.077-1.104-.155-1.345-.619-.28-.503-.2-1.006.18-1.432 1.124-1.219 2.509-2.128 4.134-2.554 1.344-.329 1.726.077 1.886 1.296ZM9.434 62.437c0-1.567 1.124-2.264 2.327-1.742 1.264.542 2.428 2.477 2.308 3.812-.1 1.122-1.224 1.703-2.348 1.122-1.404-.716-2.106-1.954-2.287-3.192ZM233.871 28.556c.021 1.278-1.043 2.38-2.347 2.361-1.304-.039-2.488-.813-2.488-2.38 0-1.335 1.083-2.438 2.408-2.438 1.344-.02 2.427 1.064 2.427 2.457Zm-1.464-.116c-.101-.058-.281-.251-.462-.29-.421-.058-.963.426-.943.794.02.29.121.56.522.541.461 0 .903-.464.883-1.045ZM.485 87.784c0-1.142 0-2.225.02-3.309 0-.135.12-.29.221-.367a78.03 78.03 0 0 1 2.629-1.8c.2-.135.4-.232.622-.31.541-.174 1.103-.019 1.444.368.341.387.361.948.08 1.432-.08.116-.16.232-.26.348-.903 1.007-3.391 2.942-4.756 3.638ZM63.928 15.012c.08-.193.16-.58.341-.91.542-.947 1.124-1.876 1.706-2.824.04-.078.1-.136.16-.213.442-.484 1.044-.62 1.565-.368.522.233.863.832.682 1.413-.461 1.528-1.244 2.883-2.407 4.005-.381.368-.903.484-1.405.252-.501-.233-.662-.658-.642-1.355ZM89.951 38.986c.02-1.18 1.004-2.129 2.228-2.129 1.243 0 2.247.987 2.227 2.206-.02 1.22-1.044 2.186-2.268 2.167a2.193 2.193 0 0 1-2.187-2.244ZM118.182 157.247c-.02.523-.041 1.045-.081 1.567-.04.329-.1.658-.2.987-.181.581-.602.929-1.064.89-.582-.038-.842-.425-.983-.909-.401-1.374-.381-2.767-.14-4.16.02-.155.1-.31.16-.445.261-.523.743-.755 1.284-.658.522.077.863.464.943 1.025.04.291.04.6.04.891v.832c.021-.02.041-.02.041-.02ZM151.428 67.603c.281-.774.502-1.567.863-2.283.301-.6.883-.735 1.424-.33.763.581 1.485 1.24 2.087 1.955.602.735.181 1.49-.783 1.645-.541.077-1.083.154-1.625.213-.241.019-.501.038-.762.019-.803-.078-1.084-.406-1.064-1.161a.992.992 0 0 1-.14-.058ZM48.8 132.035a1.98 1.98 0 0 1 1.986 1.974c0 1.238-.883 2.206-2.026 2.186-1.144 0-2.027-.909-2.027-2.07.02-1.161.943-2.09 2.067-2.09ZM190.874 61.257v-.213c-.02-1.18.682-1.993 1.726-2.032 1.063-.02 1.886.813 1.906 1.954.02.813-.261 1.529-.963 2.012-1.024.716-2.388.194-2.609-1.006-.04-.251-.04-.522-.06-.715ZM175.064 158.931c-1.124-.02-2.007-.871-2.007-1.955 0-1.083.903-1.935 2.007-1.935 1.143 0 2.046.871 2.026 1.974 0 1.084-.903 1.935-2.026 1.916ZM3.455 92.718c0-1.026.742-1.838 1.745-1.858a1.818 1.818 0 0 1 1.866 1.8c.02 1.045-.802 1.916-1.825 1.916-1.004.019-1.786-.794-1.786-1.858ZM160.517 126.347c0 1.006-.863 1.799-1.886 1.78-1.023-.02-1.866-.852-1.866-1.838 0-.968.843-1.742 1.866-1.742 1.043 0 1.886.794 1.886 1.8ZM35.016 17.489c-.02-1.064.822-1.954 1.866-1.954.983 0 1.745.754 1.765 1.702 0 1.007-.822 1.877-1.805 1.897-1.004.019-1.826-.736-1.826-1.645ZM106.043 136.447c-.281.368-.442.774-.743.929-1.203.638-2.467 1.199-3.711 1.76-.341.155-.723.155-.963-.212-.241-.368-.081-.697.2-.948a6.66 6.66 0 0 1 1.003-.813c.783-.523 1.585-1.006 2.388-1.49.381-.232.803-.329 1.184-.058.22.174.381.484.642.832ZM116.978 11.974c.401.194.722.29.963.484.682.6 1.324 1.258 1.966 1.896.161.155.281.368.341.58.221.678-.281 1.22-.963 1.007-1.204-.368-2.267-.968-3.07-1.935-.341-.406-.481-.91-.16-1.374.22-.251.602-.425.923-.658ZM119.506 65.494c-1.003-.02-1.766-.774-1.766-1.722.02-.987.883-1.78 1.926-1.76.984.018 1.726.754 1.726 1.682 0 1.026-.843 1.82-1.886 1.8ZM3.977 23.739c0-1.045.702-1.8 1.645-1.78.963.019 1.806.832 1.806 1.76 0 .968-.823 1.877-1.706 1.877-.843-.02-1.745-.967-1.745-1.857ZM214.57 14.064c.02-.967.822-1.703 1.806-1.664.943.039 1.685.813 1.645 1.742-.02.948-.843 1.702-1.806 1.664a1.656 1.656 0 0 1-1.645-1.742ZM65.975 46.88c-1.044-.058-1.726-.6-1.766-1.412-.04-.832.642-1.51 1.645-1.548.422-.02.883.077 1.264.212.562.213.883.678.863 1.297-.02.58-.361.987-.903 1.2-.34.116-.742.154-1.103.251ZM232.467 89.332c0-.929.662-1.625 1.545-1.625.843 0 1.485.658 1.505 1.49.02.89-.682 1.625-1.565 1.625-.843 0-1.485-.639-1.485-1.49ZM108.551 120.465c-.803 0-1.425-.6-1.445-1.355 0-.793.642-1.432 1.505-1.432.823 0 1.485.581 1.485 1.316 0 .774-.743 1.49-1.545 1.471ZM2.13 147.282c-.782.02-1.304-.657-1.063-1.412.241-.716.783-1.18 1.545-1.354.542-.117 1.084.096 1.324.522.281.464.221.909-.1 1.335-.341.503-1.124.909-1.705.909ZM194.706 32.31c0 .658-.521 1.2-1.163 1.22-.683.019-1.285-.581-1.264-1.258.02-.658.581-1.18 1.223-1.161.683 0 1.204.541 1.204 1.2ZM160.958 39.334c-.02.6-.481 1.064-1.063 1.045-.682-.02-1.304-.716-1.284-1.413.02-.56.481-.986 1.063-.967.702 0 1.304.638 1.284 1.335Z"/><path d="M54.94 20.101c0-.948 1.203-1.625 2.046-1.18.381.193.502.483.24.87-.14.194-.28.407-.36.639-.241.6-.582.89-1.024.832-.501-.078-.902-.6-.902-1.161ZM109.554 157.944c0-.658.421-1.161 1.003-1.181.622-.019 1.264.62 1.264 1.277 0 .6-.481 1.103-1.083 1.103-.662.02-1.164-.503-1.184-1.199Z"/></g></mask><g mask="url(#b)"><path fill="#FAC600" d="m180.521 113.958 60.241-56.842L180.117-.422l-60.239 57.154 60.643 57.226Z"/><path fill="#FFDD01" d="m190.02-.422 55.219 52.901v-52.9H190.02Z"/><path fill="#FFF46D" fill-rule="evenodd" d="M245.239 113.958H190.02l55.219-52.9v52.9Zm0 0H190.02l55.219 52.901v-52.901Z" clip-rule="evenodd"/><path fill="#DB8200" d="m60.181-.422 54.472 52.901 54.474-52.9H60.181Z"/><path fill="#EAA001" fill-rule="evenodd" d="M169.127 113.958H61.674l53.727-52.9 53.726 52.9Zm0 0H61.674l53.727 52.901 53.726-52.901Z" clip-rule="evenodd"/></g><defs><clipPath id="a"><path fill="#fff" d="M.485-9H258.67v173H.485z"/></clipPath></defs></svg>