<svg width="517" height="663" viewBox="0 0 517 663" fill="none" xmlns="http://www.w3.org/2000/svg">
<path d="M200.09 99.0183L160.644 75.7732L137.964 104.36L177.41 127.605L200.09 99.0183Z" fill="#C5C4D1" stroke="#373435" stroke-width="4.00032" stroke-miterlimit="2.61313"/>
<path fill-rule="evenodd" clip-rule="evenodd" d="M246.688 468.052C240.679 350.297 254.005 289.135 286.667 284.57C325.467 314.054 359.613 333.807 389.106 343.831C390.578 352.413 386.528 357.658 376.956 359.563C348.805 352.173 334.73 348.478 334.73 348.478C317.735 419.516 309.238 455.035 309.238 455.035C277.444 471.999 256.594 476.337 246.687 468.052L246.688 468.052Z" fill="#C5C4D1" stroke="#1B3556" stroke-width="4.00032" stroke-miterlimit="2.61313"/>
<path fill-rule="evenodd" clip-rule="evenodd" d="M80.8487 324.159C78.8002 321.223 76.7743 320.102 74.7719 320.794C50.0286 337.837 34.705 366.702 28.8014 407.387C7.0062 448.066 -14.0572 465.168 -34.391 458.693C-39.0451 449.773 -40.4096 441.334 -38.485 433.377C-54.335 456.021 -62.2594 467.344 -62.2594 467.344C-91.2579 450.212 -105.758 441.647 -105.758 441.647C-71.5834 399.788 -54.4971 378.859 -54.4971 378.859C-62.3188 307.872 -9.58842 230.443 103.694 146.57C121.694 125.534 132.5 107.43 136.11 92.2589C139.515 87.2263 144.171 85.5335 150.08 87.1823C188.382 99.9246 202.072 113.196 191.151 126.996C172.157 155.021 154.482 177.717 138.128 195.086C153.875 205.315 161.766 215.807 161.798 226.564C151.158 273.657 128.55 309.279 93.9756 333.433C88.475 332.171 84.0997 329.08 80.8492 324.159L80.8487 324.159Z" fill="#1B3556" stroke="#1B3556" stroke-width="4.00032" stroke-miterlimit="2.61313"/>
<path fill-rule="evenodd" clip-rule="evenodd" d="M142.858 289.685C71.2551 288.812 12.1172 337.551 -34.5552 435.901C-35.2673 522.731 -7.36254 579.124 49.1582 605.082C129.393 614.187 205.753 566.969 278.236 463.427C291.881 439.048 300.902 421.647 305.301 411.223C280.638 410.033 277.21 402.699 295.016 389.222C274.439 388.157 264.565 383.744 265.392 375.985C261.848 357.159 262.638 343.122 267.764 333.873C270.059 319.911 266.986 312.647 258.547 312.078C247.827 326.021 243.907 337.984 246.787 347.965C173.374 365.282 140.584 346.688 148.417 292.181C147.484 289.148 145.63 288.316 142.858 289.685L142.858 289.685Z" fill="#E73646" stroke="#1B3556" stroke-width="4.00032" stroke-miterlimit="2.61313"/>
<path d="M58.5286 545.325C80.0998 558.035 110.718 551.789 126.916 531.374C143.115 510.96 138.759 484.108 117.188 471.399C95.6171 458.689 64.9988 464.935 48.8004 485.349C32.602 505.764 36.9575 532.616 58.5286 545.325Z" fill="#FEFEFE" stroke="#1B3556" stroke-width="4.00032" stroke-miterlimit="2.61313"/>
<path d="M75.2629 524.231C83.8182 529.272 96.3917 526.252 103.347 517.487C110.302 508.722 109.004 497.53 100.449 492.489C91.8938 487.449 79.3203 490.468 72.3653 499.233C65.4104 507.998 66.7077 519.19 75.2629 524.231Z" fill="#E73646" stroke="#1B3556" stroke-width="4.00032" stroke-miterlimit="2.61313"/>
<path d="M53.6786 457.032C56.897 458.929 61.6085 457.816 64.2021 454.547C66.7956 451.279 66.2891 447.092 63.0708 445.196C59.8524 443.299 55.1409 444.412 52.5474 447.681C49.9538 450.949 50.4603 455.136 53.6786 457.032Z" fill="#FEFEFE" stroke="#1B3556" stroke-width="4.00032" stroke-miterlimit="2.61313"/>
<path d="M109.759 445.958C113.295 448.041 118.313 447.017 120.968 443.671C123.623 440.325 122.91 435.924 119.374 433.84C115.838 431.757 110.82 432.781 108.165 436.127C105.509 439.473 106.223 443.874 109.759 445.958Z" fill="#FEFEFE" stroke="#1B3556" stroke-width="4.00032" stroke-miterlimit="2.61313"/>
<path d="M150.066 470.701C152.809 472.317 157.037 471.102 159.51 467.986C161.982 464.87 161.762 461.034 159.018 459.417C156.275 457.801 152.047 459.016 149.575 462.132C147.102 465.248 147.322 469.084 150.066 470.701Z" fill="#FEFEFE" stroke="#1B3556" stroke-width="4.00032" stroke-miterlimit="2.61313"/>
<path d="M159.216 510.632C163.225 512.994 168.82 511.954 171.712 508.309C174.605 504.664 173.7 499.794 169.691 497.432C165.682 495.07 160.087 496.11 157.194 499.755C154.302 503.4 155.207 508.27 159.216 510.632Z" fill="#FEFEFE" stroke="#1B3556" stroke-width="4.00032" stroke-miterlimit="2.61313"/>
<path d="M274.113 436.678C277.65 438.762 282.622 437.798 285.219 434.526C287.816 431.253 287.053 426.911 283.517 424.827C279.98 422.744 275.008 423.707 272.411 426.98C269.815 430.252 270.577 434.595 274.113 436.678Z" fill="#FEFEFE" stroke="#1B3556" stroke-width="4.00032" stroke-miterlimit="2.61313"/>
<path fill-rule="evenodd" clip-rule="evenodd" d="M144.441 294.246C135.478 348.883 168.464 367.918 243.4 351.352C243.872 324.061 263.478 297.05 302.218 270.32C336.761 282.36 359.218 288.396 369.588 288.428C385.724 269.896 393.402 252.233 392.624 235.436C331.84 211.406 288.473 200.844 262.524 203.753C250.404 213.828 243.664 228.447 242.301 247.608C213.626 277.241 181.006 292.787 144.44 294.246L144.441 294.246Z" fill="#E1E1E8" stroke="#1B3556" stroke-width="4.00032" stroke-miterlimit="2.61313"/>
<path fill-rule="evenodd" clip-rule="evenodd" d="M351.316 221.367C351.501 219.008 351.593 217.828 351.593 217.828C354.465 211.821 356.309 205.115 357.124 197.709C382.129 185.089 394.63 178.779 394.63 178.779C392.395 166.378 391.278 160.177 391.278 160.177C365.336 175.362 352.365 182.955 352.365 182.955C350.127 174.708 349.008 170.584 349.008 170.584C372.273 150.011 383.906 139.725 383.906 139.725C380.423 127.973 378.682 122.098 378.682 122.098C352.86 143.588 339.95 154.334 339.95 154.334C336.029 145.441 334.068 140.995 334.068 140.995C355.092 116.329 365.604 103.996 365.604 103.996C354.202 97.6199 348.5 94.432 348.5 94.432C327.101 120.954 316.401 134.216 316.401 134.216C270.4 117.115 232.494 125.939 202.684 160.689C186.421 178.146 173.091 200.55 162.692 227.901C160.21 247.35 151.928 269.056 137.841 293.018C174.944 294.783 209.1 279.699 240.309 247.766C241.229 229.588 247.941 215.025 260.446 204.076C287.037 203.054 317.328 208.818 351.317 221.366L351.316 221.367Z" fill="#C5C4D1" stroke="#1B3556" stroke-width="4.00032" stroke-miterlimit="2.61313"/>
<path d="M276.019 321.941C281.35 325.082 288.917 323.539 292.92 318.494C296.923 313.449 295.847 306.813 290.516 303.672C285.185 300.531 277.618 302.075 273.615 307.12C269.612 312.165 270.688 318.801 276.019 321.941Z" stroke="#1B3556" stroke-width="4.00032" stroke-miterlimit="2.61313"/>
<path fill-rule="evenodd" clip-rule="evenodd" d="M320.631 210.999C325.436 212.56 327.837 213.341 327.837 213.341C329.868 173.706 306.332 154.383 257.229 155.371C214.536 172.357 182.884 217.653 162.27 291.26C169.809 289.788 173.578 289.052 173.578 289.052C190.024 218.027 218.953 176.009 260.368 163C301.164 160.407 321.252 176.407 320.632 210.999L320.631 210.999Z" fill="#E73646" stroke="#1B3556" stroke-width="4.00032" stroke-miterlimit="2.61313"/>
<path fill-rule="evenodd" clip-rule="evenodd" d="M299.312 206.479C304.802 207.524 307.547 208.046 307.547 208.046C309.649 186.839 294.277 176.421 261.433 176.791C221.961 196.803 199.748 231.585 194.794 281.135C200.453 278.203 203.283 276.737 203.283 276.737C210.316 229.54 230.476 198.215 263.762 182.764C291.053 184.772 302.904 192.677 299.312 206.479L299.312 206.479Z" fill="#1B3556" stroke="#1B3556" stroke-width="4.00032" stroke-miterlimit="2.61313"/>
<path d="M-11.8428 362.749C-8.6244 364.646 -3.91289 363.533 -1.31933 360.265C1.27424 356.996 0.767735 352.809 -2.45062 350.913C-5.66898 349.016 -10.3805 350.129 -12.974 353.398C-15.5676 356.666 -15.0611 360.853 -11.8428 362.749Z" fill="#FEFEFE" stroke="#1B3556" stroke-width="4.00032" stroke-miterlimit="2.61313"/>
<path d="M10.6452 332.703C13.8636 334.599 18.5751 333.487 21.1686 330.218C23.7622 326.949 23.2557 322.762 20.0373 320.866C16.819 318.97 12.1075 320.082 9.51392 323.351C6.92035 326.62 7.42685 330.807 10.6452 332.703Z" fill="#FEFEFE" stroke="#1B3556" stroke-width="4.00032" stroke-miterlimit="2.61313"/>
<path d="M45.9137 307.202C49.1321 309.098 53.8436 307.986 56.4371 304.717C59.0307 301.449 58.5242 297.262 55.3059 295.365C52.0875 293.469 47.376 294.582 44.7824 297.85C42.1889 301.119 42.6954 305.306 45.9137 307.202Z" fill="#FEFEFE" stroke="#1B3556" stroke-width="4.00032" stroke-miterlimit="2.61313"/>
<path d="M84.815 289.996C88.0333 291.892 92.7448 290.779 95.3384 287.511C97.9319 284.242 97.4254 280.055 94.2071 278.159C90.9887 276.263 86.2772 277.375 83.6837 280.644C81.0901 283.913 81.5966 288.1 84.815 289.996Z" fill="#FEFEFE" stroke="#1B3556" stroke-width="4.00032" stroke-miterlimit="2.61313"/>
<path d="M84.815 289.996C88.0333 291.892 92.7448 290.779 95.3384 287.511C97.9319 284.242 97.4254 280.055 94.2071 278.159C90.9887 276.263 86.2772 277.375 83.6837 280.644C81.0901 283.913 81.5966 288.1 84.815 289.996Z" fill="#FEFEFE" stroke="#1B3556" stroke-width="4.00032" stroke-miterlimit="2.61313"/>
<path d="M123.889 282.603C127.107 284.5 131.819 283.387 134.413 280.119C137.006 276.85 136.5 272.663 133.281 270.767C130.063 268.87 125.351 269.983 122.758 273.252C120.164 276.52 120.671 280.707 123.889 282.603Z" fill="#FEFEFE" stroke="#1B3556" stroke-width="4.00032" stroke-miterlimit="2.61313"/>
<path d="M138.565 260.611C141.784 262.508 146.495 261.395 149.089 258.126C151.682 254.858 151.176 250.671 147.958 248.775C144.739 246.878 140.028 247.991 137.434 251.259C134.841 254.528 135.347 258.715 138.565 260.611Z" fill="#FEFEFE" stroke="#1B3556" stroke-width="4.00032" stroke-miterlimit="2.61313"/>
<path d="M140.778 234.843C143.997 236.739 148.708 235.627 151.302 232.358C153.895 229.089 153.389 224.902 150.171 223.006C146.952 221.11 142.241 222.223 139.647 225.491C137.054 228.76 137.56 232.947 140.778 234.843Z" fill="#FEFEFE" stroke="#1B3556" stroke-width="4.00032" stroke-miterlimit="2.61313"/>
<path d="M126.765 213.211C129.983 215.107 134.695 213.995 137.288 210.726C139.882 207.458 139.375 203.271 136.157 201.374C132.939 199.478 128.227 200.591 125.633 203.859C123.04 207.128 123.546 211.315 126.765 213.211Z" fill="#FEFEFE" stroke="#1B3556" stroke-width="4.00032" stroke-miterlimit="2.61313"/>
<path d="M262.819 233.56C255.087 237.129 247.85 241.75 241.109 247.424" stroke="#373435" stroke-width="4.00032" stroke-miterlimit="2.61313"/>
<path d="M392.635 238.111C362.825 246.193 355.204 263.743 369.773 290.761" stroke="#373435" stroke-width="4.00032" stroke-miterlimit="2.61313"/>
<path d="M334.181 349.175C313.659 340.326 291.049 333.394 266.352 328.378" stroke="#373435" stroke-width="4.00032" stroke-miterlimit="2.61313" stroke-dasharray="8 4"/>
<path d="M312.291 349.83C313.222 373.153 313.687 384.814 313.687 384.814" stroke="#373435" stroke-width="4.00032" stroke-miterlimit="2.61313" stroke-dasharray="8 4"/>
</svg>
