<svg width="1920" height="956" viewBox="0 0 1920 956" fill="none" xmlns="http://www.w3.org/2000/svg">
<path d="M-420.348 633.341C-414.047 678.786 -363.429 697.082 -326.108 683.481C-288.786 669.876 -259.546 636.27 -225.663 613.396C-197.454 594.35 -167.14 583.273 -135.643 576.464C-132.622 591.782 -120.392 604.155 -108.524 612.958C-73.3884 639.01 -32.8739 654.907 8.48262 658.865C37.259 661.619 68.2028 659.293 92.6762 677.379C131.024 705.719 134.77 773.418 113.686 820.496C104.384 841.262 91.4138 859.516 82.2412 880.365C73.0686 901.214 67.9565 926.448 75.65 948.146C94.2602 964.437 122.778 951.288 135.134 928.24C147.49 905.188 148.045 876.268 147.755 848.986C147.466 821.705 146.975 793.049 157.747 768.916C163.3 756.468 171.865 745.064 172.706 731.03C173.723 714.07 163.128 699.382 152.382 687.997C117.682 651.243 73.824 626.633 27.7577 618.066C6.33449 614.084 -20.0691 614.768 -39.1238 600.821C-50.9446 592.167 -55.3497 578.528 -60.7146 566.685C-5.91957 562.812 50.2395 563.086 103.543 550.611C150.718 539.569 195.394 518.514 239.72 496.032C248.776 514.712 265.85 528.142 283.179 536.567C305.127 547.232 328.993 552.557 349.675 566.301C394.135 595.84 414.688 656.792 434.73 712.071C454.772 767.35 482.607 826.767 531.479 844.06C567.253 856.72 605.538 843.246 640.734 828.673C678.58 813.001 716.013 795.956 752.962 777.567C773.047 767.57 819.06 743.824 832.076 711.754C829.019 731.747 821.035 752.449 814.381 771.294C809.014 786.491 804.603 803.969 810.239 819.053C814.889 831.497 825.863 839.658 837.255 841.788C865.639 847.092 892.289 816.763 896.831 783.366C901.374 749.97 888.81 716.282 871.759 689.011C854.708 661.744 833.113 638.81 815.576 611.969C798.042 585.128 784.339 552.349 787.08 518.678C789.382 490.423 804.093 464.156 824.886 449.969C924.82 460.459 1027.77 452.954 1110.69 390.092C1118.28 401.805 1128.49 411.878 1138.88 420.036C1159.52 436.246 1183 449.377 1197.55 473.042C1238.7 540.01 1185.09 644.677 1224.42 713.14C1255.08 766.494 1325.72 763.143 1371.93 728.885C1418.14 694.627 1449.45 639.006 1489.54 595.357C1557.95 520.876 1653.94 482.829 1746.78 493.391C1771.53 496.206 1798.11 501.899 1819.99 488.065C1825.61 484.51 1830.04 480.377 1833.42 475.989C1842.91 506.163 1839.72 542.95 1857.23 567.834C1866.99 581.699 1882.21 590.077 1889.34 606.004C1909.03 649.994 1852.14 696.327 1859.63 745.246C1866.06 787.322 1915.09 798.766 1949.16 784.127C1981.38 770.275 2009.51 740.633 2020.19 702.248C2030.86 663.863 2021.59 617.373 1994.49 592.507C1957.3 558.381 1896.24 568.06 1868.45 523.204C1847.85 489.938 1855.62 440.155 1833.91 407.889C1815.16 380.032 1781.02 375.029 1750.94 377.459C1714.31 380.417 1670.15 392.733 1639.27 361.725C1629.36 351.777 1624.67 328.663 1619.31 309.875C1621.11 308.993 1622.91 308.097 1624.69 307.181C1677.34 280.263 1724.93 241.247 1777.11 213.11C1847.79 175.001 1940.68 162.177 1995.84 226.92C2046.53 286.431 2042.87 383.34 2072.38 460.109C2084.13 490.687 2105.39 520.975 2133.85 522.552C2175.3 524.855 2200.51 461.486 2187.13 415.188C2173.76 368.889 2137.26 338.23 2102.88 310.765C2083.31 295.127 2078.55 265.86 2066.03 242.364C2046.1 185.038 2008.28 135.288 1960.69 108.262C1874.18 59.1407 1765.44 80.9189 1689.78 150.269C1643.85 192.368 1604.98 252.331 1547.9 265.896C1448 289.635 1360.97 158.256 1259.31 167.238C1258.08 167.348 1256.89 167.549 1255.67 167.693C1253.57 151.836 1244.63 137.19 1232.18 130.472C1212.33 119.767 1189.42 128.942 1167.81 132.389C1146.2 135.835 1118.51 128.032 1113.99 102.887C1111.28 87.8138 1118.38 73.0052 1124.94 59.6998C1131.51 46.3944 1138.01 30.9224 1134.09 16.2196C1130.17 1.51687 1109.91 -5.36779 1104.32 8.54423C1086.16 27.6871 1067.17 48.3484 1060.5 75.9669C1051.65 112.586 1072.82 157.489 1104.97 161.73C1126.27 164.539 1150.38 151.534 1167.88 166.122C1177.25 173.932 1181.5 187.95 1181.46 201.596C1130.62 241.804 1088.12 307.343 1034.37 345.804C978.992 385.435 914.057 394.447 848.418 389.319C838.953 386.879 829.331 386.031 819.652 386.226C790.844 382.317 762.15 376.154 734.313 369.105C633.78 343.65 529.989 308.761 429.972 336.456C419.524 339.35 409.295 342.918 399.217 346.972C397.586 339.811 397.788 331.164 400.575 320.596C404.266 306.59 413.31 295.61 419.883 283.156C442.309 240.667 434.339 185.978 425.612 136.95C409.784 118.334 378.555 125.279 369.654 149.4C391.409 188.835 406.38 243.509 381.805 280.466C364.665 306.245 331.475 317.31 323.665 348.747C320.652 360.887 322.599 373.242 327.627 384.192C272.907 417.846 220.345 458.629 162.17 482.921C3.06229 549.354 -176.982 485.478 -340.036 537.055C-380.634 549.898 -427.129 584.444 -420.348 633.341ZM1335.03 252.51C1379.98 262.353 1414.73 304.504 1457.4 323.862C1492.95 339.99 1531.75 339.223 1569.2 329.041C1570.75 360.228 1584.01 396.74 1610.18 410.662C1638.72 425.846 1671.28 425.606 1702.48 422.947C1734.44 420.224 1771.6 418.166 1799.13 432.983C1769.78 443.267 1740.11 471.803 1703.9 473.243C1660.45 474.973 1615.65 469.044 1574.51 485.48C1527.32 504.327 1492.02 549.622 1456.3 590.491C1420.57 631.36 1378.46 671.288 1328.68 674.267C1278.89 677.246 1225.15 623.972 1237.86 567.229C1246.75 527.54 1283.91 489.747 1266.44 454.157C1246.94 414.406 1183.47 437.864 1164.59 397.7C1157.81 383.29 1159.48 364.877 1158.74 348.106C1213.96 295.658 1268.47 237.932 1335.03 252.51ZM746.721 438.641C751.423 444.087 757.267 449.02 761.675 454.631C793.319 494.928 748.161 567.567 774.429 612.902C787.181 634.907 813.057 642.322 825.64 664.456C827.124 667.062 828.343 669.743 829.367 672.475C817.323 654.588 791.07 659.627 772.273 667.458C690.908 701.368 645.627 835.041 539.801 772.175C488.974 741.983 467.562 671.447 449.657 607.821C437.226 563.659 413.813 510.851 374.412 513.785C358.803 514.947 343.681 525.52 328.355 521.799C313.971 518.31 303.945 503.339 295.488 489.188C292.209 483.701 288.801 478.042 285.04 472.874C327.351 451.443 370.016 431.377 414.91 420.133C523.816 392.862 636.121 419.421 746.721 438.641Z" fill="white" fill-opacity="0.5"/>
</svg>
