<svg width="1436" height="766" viewBox="0 0 1436 766" fill="none" xmlns="http://www.w3.org/2000/svg">
<g opacity="0.19">
<path d="M739.377 590.492C723.333 586.802 744.434 595.728 761.049 603.761C777.649 611.754 789.728 619.138 754.876 612.947C777.119 623.754 814.29 631.295 853.234 637.21C892.207 643.139 932.847 647.293 962.735 652.907C964.611 661.766 951.376 667.743 950.896 675.188C950.48 682.453 962.776 692.162 1017.25 705.398C1054.02 712.137 1073.99 712.557 1085 710.575C1096.03 708.558 1098.24 704.08 1099.98 699.188C1101.71 694.312 1103.02 689.063 1111.82 685.354C1120.58 681.565 1136.91 679.533 1167.68 678.85C1139.61 677.696 1110.92 675.011 1082.07 671.301C1104.57 666.044 1133.72 663.576 1165.62 660.969C1181.48 659.572 1198.01 658.123 1214.17 656.04C1230.29 653.977 1246.08 651.198 1259.37 647.567C1266.23 645.859 1271.77 643.693 1277.01 641.778L1278.68 640.98C1279.38 640.652 1279.54 640.577 1279.69 640.531C1280.05 640.464 1280.59 640.255 1281.07 639.985C1282.07 639.519 1283.04 638.996 1283.97 638.405C1287.72 636.115 1290.92 632.743 1292.48 628.767C1293.23 626.787 1293.64 624.698 1293.62 622.622C1293.43 620.558 1292.97 618.508 1292.04 616.649C1291.63 615.701 1291.13 614.8 1290.54 613.951L1289.68 612.682L1288.85 611.661L1287.8 610.268L1285.39 606.902L1282.3 603.363C1280.21 601.004 1278.42 598.697 1275.82 596.301C1267.22 578.331 1254.67 557.995 1239.82 537.731C1224.9 517.396 1207.54 496.855 1187.4 476.933C1147.09 437.083 1095.43 399.593 1025.06 371.424C1034 372.448 1070.57 383.351 1068.67 372.39C1048.06 352.948 1000.64 336.013 972.237 327.807C930.856 320.878 932.981 329.175 940.788 339.168C948.666 349.178 962.176 361.102 944.988 362.045C912.696 353.535 880.57 347.103 846.401 337.814C812.184 328.565 775.901 316.539 734.196 297.589C702.804 274.385 670.51 251.765 637.249 229.868C591.903 241.69 544.151 229.755 486.694 214.574C458.008 207.026 426.896 198.893 393.148 193.142C359.515 187.471 322.873 184.103 285.769 187.857C278.644 181.868 263.27 179.438 244.664 180.333C226.094 181.115 204.163 185.285 185.913 192.05L179.229 194.581C176.936 195.377 175.708 196.229 173.924 197.032C172.281 197.861 170.621 198.602 169.045 199.454C167.513 200.363 165.997 201.266 164.495 202.155C161.394 203.772 158.851 205.975 156.118 207.726C153.517 209.635 151.245 211.729 148.856 213.526C146.835 215.623 144.576 217.414 142.683 219.271C140.965 221.23 139.03 222.914 137.068 224.427C133.855 227.749 129.841 230.134 126.088 231.613C122.594 242.709 118.765 248.66 111.447 252.731C104.411 256.747 94.9727 258.412 84.5753 259.689C74.3408 261.063 63.3747 261.915 54.2437 267.35C49.5465 270.114 45.9857 274.01 43.2797 279.956C41.9998 282.913 40.8151 286.418 40.3553 290.423C39.9855 294.408 40.0397 298.974 40.6331 304.165C41.5987 308.621 42.9736 312.357 44.1285 315.843C45.1968 319.142 46.1659 322.13 47.039 324.83C48.9236 330.015 50.405 334.091 51.5399 337.214C53.6387 343.635 54.064 346.258 53.0283 346.62C50.8666 347.595 43.3905 338.578 36.2355 328.967C32.6734 323.61 29.1112 318.252 26.4097 314.186C23.7014 309.646 21.6302 306.549 20.4939 306.674C18.386 306.293 19.1722 322.616 34.2165 353.458C31.3778 349.528 28.7798 345.736 26.4076 342.09C25.2272 340.258 24.0831 338.5 23.0292 336.71C22.0485 334.807 21.0968 332.957 20.1742 331.158C18.4504 327.673 16.6472 323.814 15.1022 320.161C13.5536 316.505 12.5361 312.655 11.5417 309.2C7.40531 295.231 7.82345 284.057 9.05056 275.386C10.8856 266.63 14.2257 260.171 17.924 254.847C21.9853 249.519 26.7128 245.258 31.3738 240.946C35.8477 236.622 41.373 232.324 46.4408 227.014C51.307 221.675 57.3652 215.592 63.2297 207.765C66.6498 203.994 69.9516 199.715 73.6795 195.045C75.7923 192.819 77.9483 190.463 80.1558 187.96C81.241 186.707 82.3564 185.421 83.5064 184.099C84.7966 182.881 86.125 181.626 87.4875 180.342C97.8254 169.72 112.061 158.341 132.125 147.385C127.773 146.253 123.244 145.233 118.548 144.341C153.043 116.611 204.005 111.902 248.431 111.299C293.131 111.059 332.898 114.631 357.467 104.388C401.296 109.567 421.943 115.817 430.33 120.725C438.654 125.816 434.605 130.01 427.898 134.259C421.188 138.452 411.758 143.043 409.016 148.288C406.23 153.673 410.122 159.417 429.263 167.406C454.653 160.904 514.827 164.593 570.17 169.543C625.533 174.192 676.31 179.089 684.905 165.82C642.446 153.857 599.529 142.957 556.054 133.402C577.411 137.354 562.876 127.692 572.247 127.101C592.726 139.263 624.687 144.896 659.856 148.817C695.038 152.62 733.605 154.431 766.856 157.142C800.023 159.955 827.871 163.471 841.002 169.951C854.174 176.459 852.535 185.594 827.667 200.25C818.379 199.74 802.921 195.31 787.757 191.417C772.495 187.746 757.538 184.629 749.162 187.186C748.556 197.754 770.598 207.255 800.42 217.641C830.255 227.974 867.996 239.247 898.866 252.184C935.713 254.973 976.743 256.132 1020.57 264.189C1064.28 272.291 1111.04 287.138 1156.84 317.781C1187.56 340.212 1160.56 340.167 1190.47 362.876C1242.33 385.583 1278.37 407.465 1305.77 428.949C1333.16 450.476 1352.17 471.137 1369.45 493.923C1378 505.464 1386.26 517.313 1394.28 531.046C1396.27 534.502 1398.37 537.86 1400.36 541.516C1402.32 545.306 1404.32 549.173 1406.37 553.131C1408.63 557.14 1410.54 562.094 1412.58 566.699C1413.57 569.046 1414.58 571.424 1415.6 573.831C1416.48 576.275 1417.24 578.79 1418.07 581.31C1424.61 601.322 1428.39 624.73 1421.89 650.377C1418.24 663.01 1413.11 676.283 1404.64 689.195C1396.17 702.065 1384.86 714.651 1370.32 725.998L1362.4 730.121C1359.7 731.411 1356.91 732.561 1354.18 733.764C1351.43 734.934 1348.73 736.165 1345.95 737.247L1337.46 740.275C1326.94 743.9 1316.38 746.617 1305.87 748.978C1284.82 753.602 1263.9 756.295 1243.02 758.02C1201.3 761.307 1159.58 761.09 1118.33 758.517C1035.94 753.322 955.306 739.404 886.906 714.257C895.713 725.07 871.464 722.927 841.573 716.462C811.673 710.05 776.395 699.154 762.357 694.648C744.37 682.316 671.317 651.239 614.686 640.809C647.401 649.139 630.281 635.993 654.39 637.607C590.813 625.474 555.982 610.052 537.189 596.052C518.432 581.994 515.392 569.081 515.713 560.243C539.066 564.588 559.159 566.384 576.218 567.029C593.449 567.708 608.369 567.398 623.561 567.787C653.989 568.476 685.336 572.22 739.377 590.492Z" fill="#8B9EFF"/>
<path d="M367.024 434.072C356.713 439.578 362.801 448.546 376.413 458.535C390.022 468.487 411.082 479.355 429.978 488.762C448.827 498.244 465.378 506.507 469.489 512.336C473.598 518.096 465.154 521.961 433.93 520.988C468.897 538.263 496.017 547.821 519.88 553.578C543.778 559.306 564.47 561.297 587.394 562.565C506.76 524.003 610.034 564.04 570.511 534.335C640.017 551.373 709.216 566.016 777.86 577.999C846.45 589.89 914.705 599.28 981.213 603.563C989.499 604.008 997.777 604.483 1005.99 604.801C1015.71 605.095 1018.39 605.202 1023.64 605.18C1033.18 605.282 1042.65 604.955 1052.06 604.348C1061.47 603.748 1070.81 602.56 1080 600.706C1089.14 598.799 1098.25 596.117 1106.25 591.567C1114.25 587.171 1120.9 580.158 1122.6 571.808C1124.46 563.479 1121.27 555.1 1116.58 548.112C1106.83 534.018 1092.34 523.208 1077.38 513.139C1073.31 508.495 1068.41 503.87 1062.92 499.349C1060.2 497.098 1057.22 494.818 1054.32 492.68C1049.84 489.711 1044.81 486.575 1039.97 483.67C1020.39 471.879 999.913 461.365 978.975 451.927C937.067 433.045 893.408 418.389 849.003 406.593C804.563 394.811 759.291 385.889 713.384 378.817C690.425 375.283 667.3 372.225 644.015 369.526C632.371 368.273 620.693 367.02 608.967 365.76C594.925 364.038 590.854 364.824 587.174 365.706C569.815 356.369 556.843 344.075 556.029 332.892C555.574 327.308 558.293 322.093 563.214 317.506C568.037 312.885 575.05 308.908 580.593 305.134C538.701 295.337 496.092 286.523 452.686 279.584C484.789 275.868 527.805 276.298 581.188 280.315C583.836 273.641 566.158 265.606 539.762 256.832C513.489 248.049 479.46 238.954 451.359 229.633C434.889 228.496 419.177 227.805 404.304 227.568C401.775 219.018 406.424 213.057 417.768 209.689C429.063 206.316 447.141 205.657 470.247 207.654C493.324 209.644 521.306 214.208 551.546 220.857C566.657 224.156 582.31 227.96 598.181 232.109C605.981 234.229 613.881 236.381 621.864 238.549C625.535 239.609 629.225 240.676 632.934 241.746L635.615 242.532L637.569 243.158L641.484 244.417C725.424 271.287 815.34 310.943 887.242 325.604C845.68 312.596 825.805 308.632 818.461 308.855C811.094 309.161 816.183 313.876 824.061 319.852C839.888 331.784 866.571 348.72 829.63 343.608C846.326 349.81 862.944 356.161 879.465 362.708C834.015 347.711 737.799 335.492 617.749 310.121C699.93 332.292 781.429 355.795 861.148 381.157C940.727 406.752 1018.99 433.508 1091.89 467.276C1110.21 475.86 1128.69 485.33 1146.6 496.154C1164.45 506.997 1181.71 519.23 1196.19 533.601C1210.48 547.86 1222.58 564.886 1224.61 584.135C1225.46 593.624 1223.8 603.359 1219.49 611.862L1216.15 618.194L1211.83 623.93C1210.47 625.926 1208.77 627.594 1207.12 629.303C1205.41 630.962 1203.94 632.869 1202.05 634.347C1187.42 646.79 1170.05 655.502 1151.25 662.473C1132.43 669.421 1111.87 674.506 1089.97 678.359C1068.03 682.189 1044.73 684.239 1020.76 685.756C1007.68 686.221 999.518 686.951 989.812 687.245C980.366 687.652 970.965 687.989 961.677 688.126C970.771 684.797 994.053 681.088 968.168 674.487C916.228 669.497 874.24 671.711 838.251 676.141C802.41 680.403 772.92 686.589 748.896 686.971C764.901 686.72 780.917 686.205 796.849 685.625C766.609 672.212 724.656 665.218 680.425 658.6C636.241 652.053 589.75 645.868 551.828 635.909C514.268 615.42 484.637 595.844 447.382 576.338C410.135 556.572 365.324 537.635 297.849 512.239L309.76 501.929C276.864 483.359 244.795 463.464 214.194 441.661C239.836 454.133 233.493 443.23 230.407 437.846C239.926 438.642 242.965 443.922 259.039 455.028C278.01 440.052 244.044 388.723 213.461 344.473C225.465 356.054 238.701 367.402 250.109 373.165C242.001 365.132 228.706 352.679 216.23 338.744C203.668 324.859 192.349 309.405 186.563 296.677C183.977 290.309 181.939 284.68 181.782 280.193C181.121 275.656 182.119 272.319 183.745 270.153C185.359 267.976 187.813 266.957 191.097 267.12C192.813 267.22 194.387 267.54 196.723 268.315C199.071 269.095 201.672 270.207 204.449 271.7C216.934 287.604 230.1 303.563 240.66 317.723C251.494 331.969 259.628 345.272 268.771 358.043C286.871 383.522 307.286 408.813 367.024 434.072Z" fill="#8B9EFF"/>
<path d="M293.3 97.4986C263.97 94.2007 250.537 92.9346 247.616 90.6723C244.61 88.5874 251.758 86.3507 262.048 83.9303C272.436 81.319 285.435 79.5319 294.584 76.8436C303.54 74.4799 308.43 71.647 301.869 67.6344C338.416 68.1144 373.756 70.8042 408.456 74.6959C408.557 78.7316 402.182 80.9543 392.323 82.5173C382.517 83.9665 369.252 84.6889 355.509 85.6564C341.833 86.4866 327.588 87.7493 316.165 89.5623C304.653 91.5662 296.049 93.9663 293.3 97.4986Z" fill="#8B9EFF"/>
<path d="M539.722 414.385C531.266 418.252 535.656 422.106 543.226 425.615C550.912 429.184 560.581 431.947 567.004 435.988C603.718 442.983 628.722 443.914 656.139 447.651C669.923 449.502 684.525 452.078 701.84 456.187C706.111 457.248 710.58 458.355 715.275 459.524C717.187 460.03 719.147 460.546 721.155 461.076L722.116 461.344C723.234 461.603 724.368 461.862 725.512 462.128C735.575 464.418 747.052 467.162 759.799 470.3C737.508 476.205 730.753 482.723 734.63 490.209C738.496 497.648 753.14 505.913 773.262 514.087C793.373 522.261 818.877 530.251 844.176 537.32C869.48 544.36 894.524 550.463 914.12 555.748C887.177 559.099 846.841 563.658 802.542 561.824C780.435 560.926 757.411 558.569 734.86 553.978C723.584 551.686 712.427 548.861 701.581 545.35C690.598 541.745 680.588 536.872 670.764 531.696C677.699 527.704 662.775 519.003 641.903 509.184C621.001 499.394 594.185 488.323 576.544 480.675C544.461 480.197 550.202 497.426 533.954 505.863C525.35 509.782 509.833 511.323 475.744 503.847C458.771 500.075 437.059 493.978 410.597 484.268C397.364 479.43 383.028 473.658 367.932 466.816C352.814 459.989 336.846 452.095 320.933 442.992C312.315 435.789 298.731 426.478 285.182 416.145C271.571 405.828 257.909 394.513 247.471 383.79C226.524 362.518 218.044 343.097 233.988 347.923C230.228 337.379 216.754 324.329 208.789 309.486C200.778 294.819 198.268 277.788 212.776 264.871C217.285 260.519 223.839 256.718 231.665 254.846C229.423 256.768 227.325 259.002 225.822 261.665C224.326 264.347 223.718 267.388 223.19 270.382C221.95 276.362 221.901 282.531 222.247 288.601C223.402 300.78 227.643 312.672 234.266 323.432C247.62 345.015 268.263 362.692 290.898 377.954C290.76 380.944 290.482 387.366 303.418 395.24C303.434 393.271 306.267 393.299 311.219 394.62C316.328 395.926 322.509 398.609 333.501 401.673C353.818 407.926 378.425 415.624 400.193 420.683C422.09 425.84 440.879 428.518 452.861 427.473C465.077 426.511 470.208 421.903 471.161 414.172C454.268 405.882 437.673 396.591 422.77 385.185C415.377 379.448 408.413 373.15 402.75 365.934C397.142 358.755 392.792 350.491 392.015 341.683C399.58 337.683 409.121 338.549 417.583 341.834C426.224 345.134 434.299 350.833 442.727 357.059C451.047 363.318 460.029 369.962 468.72 375.569C477.443 381.204 485.642 385.832 492.081 389.592C487.76 393.728 487.556 397.62 488.797 400.721C490.134 403.843 493.113 406.214 497.348 408.053C505.681 411.624 520.378 413.679 539.722 414.385Z" fill="#8B9EFF"/>
<path d="M486.143 297.87C491.424 300.932 496.5 303.934 501.347 306.937C480.962 304.379 461.303 302.487 442.361 301.64C423.444 300.91 405.142 300.787 387.827 304.019C401.045 299.463 416.029 297.882 432.421 297.066C448.833 296.341 466.745 296.696 486.143 297.87Z" fill="#8B9EFF"/>
<path d="M899.498 543.7C906.217 545.88 911.829 548.682 916.191 551.474C920.461 554.186 923.388 557.05 923.932 557.834L924.098 557.999C924.153 558.043 924.064 557.999 924.064 557.999L924.027 557.982L925.157 557.134C928.243 554.84 931.443 552.648 934.754 550.553C936.318 549.521 938.305 548.449 939.597 547.526C940.96 546.593 942.357 545.686 943.787 544.807C946.643 543.052 949.623 541.418 952.726 539.908C955.431 538.439 957.657 537.159 960.353 535.993L967.653 532.988C969.73 532.151 971.938 531.468 974.255 530.963C975.84 530.421 977.393 530.02 979.136 529.8C981.246 529.63 981.628 529.41 982.844 529.386C983.379 529.37 983.936 529.388 984.512 529.449L985.062 529.447C985.252 529.458 985.465 529.486 985.692 529.538L985.867 529.583L985.912 529.593L985.934 529.6L985.946 529.604C956.51 522.87 977.788 527.735 971.218 526.233L971.23 526.23L971.293 526.224C971.395 526.218 971.548 526.236 971.745 526.291C971.853 526.305 972.392 526.526 972.265 526.492C971.641 526.24 971.096 525.955 970.626 525.655C970.156 525.354 969.765 525.038 969.449 524.722C968.869 524.284 967.342 523.271 966.503 522.495C965.25 521.408 964.189 520.245 963.32 519.045C964.664 520.903 966.473 522.671 968.743 524.216C969.502 524.696 969.452 524.745 969.663 524.924L970.249 525.395C970.678 525.709 971.189 526.01 971.783 526.281C972.789 526.722 972.039 526.363 971.901 526.339C971.674 526.263 971.495 526.229 971.368 526.224C971.305 526.221 971.256 526.227 971.218 526.233L971.215 526.233C968.014 525.501 999.104 532.615 985.938 529.6L985.927 529.597L985.879 529.583L985.786 529.559L985.607 529.518L985.271 529.462L983.297 529.376C982.725 529.372 982.178 529.407 981.656 529.48C981.18 529.56 980.71 529.659 979.624 529.737C977.798 529.933 976.078 530.33 974.496 530.891C969.468 531.939 966.028 533.719 959.802 536.235C949.677 541.138 935.349 549.257 922.168 559.401L912.912 566.192C913.072 566.023 913.299 565.875 913.426 565.646L913.316 563.634L912.315 560.972L910.6 557.89C907.926 553.567 903.975 548.68 899.498 543.7Z" fill="#8B9EFF"/>
<path d="M1195.48 444.305C1217.11 451.618 1243 466.777 1264.12 486.931C1285.46 507.089 1301.14 531.52 1308.33 557.274C1311.9 570.187 1313.66 583.651 1312.9 597.172C1312.31 610.674 1309.27 623.964 1305.22 635.741C1301.2 647.481 1295.26 657.524 1291.15 666.316C1290.08 668.524 1289.21 670.777 1288.19 672.813C1287.03 674.748 1285.96 676.644 1284.98 678.494C1283.03 682.198 1281.51 685.769 1280.07 688.785C1284.67 684.993 1287.63 681.051 1290.42 678.115C1293.26 675.186 1294.85 672.387 1296.05 670.103C1298.5 665.566 1299.22 663.036 1299.17 661.294C1299.06 657.8 1295.8 657.745 1296.92 652.256C1291.91 658.246 1286.92 663.737 1281.93 669.254C1276.08 674.101 1270.53 679.205 1264.13 683.366C1252.03 692.347 1237.79 699.208 1223.09 705.46C1228.14 701.209 1233.56 697.38 1238.4 693.177C1242.93 688.703 1248.06 684.858 1252.15 680.117C1261.17 671.424 1268.87 661.458 1275.46 650.748C1289.75 629.607 1297.1 602.302 1294.08 577.631C1291.4 552.914 1281.54 530.26 1265.3 507.891C1248.97 485.631 1225.11 463.844 1195.48 444.305Z" fill="#8B9EFF"/>
<path d="M593.564 426.998C580.235 424.673 568.462 423.493 558.42 423.244C548.434 422.989 540.011 423.7 534.638 425.097C533.076 425.372 532.442 425.897 531.358 426.236C530.62 426.661 530.163 427.105 529.958 427.494L530.041 427.658L529.727 424.264C529.471 421.815 529.154 419.369 528.786 416.933C528.09 412.458 527.394 408.006 526.701 403.574C526.318 401.485 525.872 399.405 525.359 397.335C524.867 395.288 524.165 393.073 523.916 391.482C523.176 388.018 522.144 384.582 520.826 381.2C516.89 368.818 510.964 361.001 508.087 359.012C507.766 358.749 507.389 358.496 506.959 358.266C506.851 358.201 506.952 358.239 506.892 358.195L506.822 358.148L506.766 358.121L506.733 358.107L506.714 358.1L506.707 358.097C495.162 353.964 522.426 363.725 519.603 362.711C519.235 362.551 518.841 362.408 518.416 362.281C518.033 362.161 517.447 362.037 517.156 361.974C516.993 361.923 516.803 361.878 516.59 361.84C515.903 361.744 516.209 361.776 516.209 361.776C516.698 361.844 521.395 361.654 529.367 358.308C537.341 355.029 547.773 348.889 560.133 339.325C563.252 336.926 566.656 334.269 569.687 331.549C572.715 328.833 576.604 325.655 579.814 322.529L584.984 317.583C585.231 317.391 585.177 317.488 585.279 317.435C585.344 317.375 585.553 317.4 585.877 317.496C586.897 317.768 588.726 318.697 591.346 320.016C598.137 323.558 605.495 327.397 613.666 331.657C624.152 337.03 635.678 342.936 648.557 349.536C670.972 365.764 611.116 350.771 645.739 370.096C663.461 379.702 676.384 382.357 687.044 382.781C697.768 383.189 706.472 381.354 717.186 381.515L704.95 368.795C710.938 375.177 721.326 382.532 732.716 389.982C743.982 397.414 756.701 405.051 765.285 411.751C766.296 412.573 767.207 413.372 767.871 414.121C768.119 414.477 768.371 414.833 768.369 415.143C768.856 412.807 766.874 421.184 765.765 426.125C764.583 431.617 763.405 437.082 762.231 442.521C761.08 448.53 760.123 451.901 759.256 456.283C758.392 460.473 757.644 464.656 757.009 468.83L756.553 471.961L756.085 473.91C755.819 475.213 755.638 476.524 755.548 477.835L755.483 479.807L755.499 480.792C755.547 539.635 755.451 401.226 755.473 415.443L755.503 415.456L755.752 415.568L756.728 416.027C757.37 416.342 757.997 416.651 758.61 416.95C759.83 417.57 760.987 418.197 762.065 418.829C766.381 421.37 769.493 424.041 770.921 426.88C773.781 432.564 769.911 438.926 755.48 446.27C755.499 515.157 755.456 464.158 755.49 478.989L755.624 476.894C755.765 475.5 756.003 474.116 756.341 472.75L758.496 460.096C759.326 455.656 760.255 451.585 761.334 446.91C761.417 446.236 761.263 446.692 761.239 446.528L760.159 446.24L756.883 445.413C754.439 444.793 752.013 444.176 749.61 443.567C744.594 442.312 739.66 441.078 734.804 439.865C724.987 437.458 715.377 435.223 706.015 433.164C687.279 429.045 669.493 425.634 652.474 422.6C618.48 416.478 587.36 412.048 558.467 404.892C544.079 401.261 530.182 396.962 517.619 390.688C511.383 387.528 505.402 383.893 500.49 379.315C495.603 374.8 491.505 369.2 490.767 362.708C490.382 359.498 490.815 356.15 492.069 352.972C493.385 349.861 495.998 347.264 499.184 345.357C505.794 341.76 513.821 340.581 521.729 340.423C537.706 340.288 554.03 343.857 570.321 349.747C576.487 360.256 582.047 371.012 587.21 381.711C613.378 384.039 640.304 388.142 667.129 393.063C671.461 397.419 666.828 403.331 693.439 408.747C722.448 411.475 714.013 405.227 699.123 396.765C684.296 388.297 662.849 378.332 667.434 372.199C720.766 380.749 773.916 392.492 826.449 406.927C843.881 415.766 807.512 408.481 811.581 413.336C843.509 433.458 874.526 439.282 904.024 447.361C918.704 451.405 932.932 456.027 945.911 463.335C958.793 470.59 970.745 480.744 978.483 495.329C964.056 487.328 948.867 480.983 933.428 475.224C918.007 469.462 902.263 464.428 886.423 459.754C912.071 473.051 935.208 487.175 953.507 502.253C962.502 509.691 970.501 517.721 974.536 524.529C975.405 526.148 976.172 527.696 976.37 528.776C976.695 529.443 976.384 529.667 976.46 530.022C976.52 530.223 976.458 530.316 976.298 530.274L976.223 530.274L977.005 530.113C977.609 530.001 978.225 529.909 978.855 529.844C980.402 529.749 980.57 529.57 981.462 529.524C982.182 529.459 983.049 529.486 983.767 529.558C983.977 529.537 984.235 529.539 984.534 529.581L985.011 529.678L985.074 529.696L985.108 529.706C993.708 531.676 973.432 527.034 975.508 527.514L975.441 527.534L975.309 527.569C974.487 527.693 974.754 528.052 973.867 528.052C973.582 528.093 973.386 528.159 973.264 528.268C972.832 528.351 972.363 528.434 972.009 528.558C971.593 528.829 970.053 529.117 968.965 529.472C966.471 530.171 963.029 530.898 959.091 531.381C951.187 532.367 941.889 532.605 932.363 532.2C913.121 531.301 893.263 528.401 873.781 524.957C887.805 526.105 901.274 526.435 913.8 525.895C926.247 525.355 937.996 523.895 946.986 521.426C949.011 520.771 951.025 520.119 953.028 519.47L957.35 517.414C957.723 517.067 958.099 516.756 958.485 516.482C958.838 516.211 959.449 515.956 959.19 515.77L959.123 515.542C959.123 515.542 959.062 515.425 959.157 515.526L960.577 517.136L962.099 518.703C962.618 519.215 962.659 519.426 962.986 519.795C963.513 520.46 964.1 521.109 964.744 521.742C965.388 522.374 966.096 522.981 966.861 523.561C967.525 524.097 968.769 524.848 968.727 524.931C969.209 525.389 969.852 525.844 970.661 526.248C972.05 526.89 971.119 526.415 970.902 526.393C970.757 526.355 970.637 526.334 970.547 526.33L970.431 526.333L970.39 526.339C967.191 525.61 998.271 532.723 985.082 529.702L985.015 529.685L984.884 529.654C984.019 529.494 984.317 529.586 982.162 529.496C981.368 529.51 980.626 529.604 979.938 529.759C978.627 529.839 977.366 530.022 976.163 530.293C975.562 530.429 974.979 530.588 974.411 530.764L973.571 531.047L972.304 531.341C970.624 531.755 969.002 532.263 967.453 532.859C964.879 534.034 960.225 535.606 956.651 537.471C954.647 538.406 953.357 539.404 950.954 540.494L950.546 540.477L950.217 540.441L949.516 540.115C948.788 539.759 947.398 538.99 946.176 538.276C943.251 536.664 939.963 534.816 935.959 532.889C928.181 529.052 919.104 525.219 909.701 521.691C890.793 514.596 870.546 508.505 850.174 502.898C809.304 491.692 767.727 482.116 725.314 470.284C682.914 458.599 639.112 444.249 593.564 426.998Z" fill="#8B9EFF"/>
</g>
<g opacity="0.44">
<path d="M550.063 379.758C559.676 385.819 549.796 385.975 547.264 388.101C544.753 390.064 549.68 394.885 589.649 407.588C591.074 403.53 572.338 391.42 550.063 379.758Z" fill="#4886FF"/>
<path d="M936.067 498.595C940.655 500.864 945.283 503.037 949.941 505.194C956.83 504.164 961.165 502.751 936.067 498.595Z" fill="#4886FF"/>
<path d="M958.282 509.03L949.969 505.158C941.876 506.286 930.155 506.593 958.282 509.03Z" fill="#4886FF"/>
<path d="M796.165 568.566C789.433 566.708 782.954 564.918 776.576 563.16C781.796 565.191 788.065 566.992 796.165 568.566Z" fill="#4886FF"/>
<path d="M723.87 546.573C672.906 530.004 689.855 520.792 731.616 527.987C684.211 513.669 681.359 525.446 635.669 504.137L633.342 512.912L607.628 501.008C611.094 503.677 606.445 503.991 602.191 504.6C598.158 505.277 594.724 506.353 600.49 510.621C599.201 508.786 599.728 507.957 601.565 507.861C603.606 507.831 606.785 508.461 610.859 509.553C618.962 511.726 630.34 515.617 640.918 519.063C662.088 525.96 679.963 531.166 661.162 518.397C688.846 537.3 727.089 549.407 776.294 563.16C760.952 557.245 754.943 549.746 743.023 542.126L723.87 546.573Z" fill="#4886FF"/>
<path d="M827.931 520.6C825.218 518.525 822.614 516.858 820.046 515.088C817.608 516.089 817.647 517.452 827.931 520.6Z" fill="#4886FF"/>
<path d="M529.413 417.7C518.16 413.243 506.918 408.739 495.783 403.973C513.443 412.164 523.795 415.956 529.413 417.7Z" fill="#4886FF"/>
<path d="M895.612 500.338L886.882 495.706C877.98 496.431 865.227 496.226 895.612 500.338Z" fill="#4886FF"/>
<path d="M872.227 487.829L886.846 495.748C894.427 494.956 899.136 493.727 872.227 487.829Z" fill="#4886FF"/>
<path d="M588.533 454.98C586.519 452.513 583.502 450.232 561.778 441.862C574.618 448.438 572.512 454.544 609.668 468.534C591.513 460.188 590.57 457.396 588.533 454.98Z" fill="#4886FF"/>
<path d="M739.607 500.179C719.96 494.319 700.484 488.066 681.138 481.543C699.169 488.33 717.359 494.841 735.708 501.048L739.607 500.179Z" fill="#4886FF"/>
<path d="M1214.15 465.641C1212.54 462.609 1210.84 464.621 1208.51 468.6C1208.68 473.107 1210.93 473.717 1214.15 465.641Z" fill="#4886FF"/>
<path d="M1183.77 430.861L1183.58 433.839C1184.14 433.824 1184.06 432.544 1183.77 430.861Z" fill="#4886FF"/>
<path d="M396.54 188.307C392.794 190.183 388.287 193.856 384.837 200.791C384.718 201 384.583 201.206 384.474 201.458C384.535 201.415 384.533 201.482 384.574 201.496C381.891 208.407 380.045 217.248 381.133 228.903C382.76 234.799 384.316 237.683 385.331 238.893C386.042 242.453 387.343 245.868 388.793 248.845C391.072 236.486 390.382 223.029 396.502 207.003C396.656 208.236 396.658 209.599 396.743 211.535C396.898 209.361 396.971 207.103 397.434 205.008C399.484 200.333 403.858 196.516 409.048 193.982C414.255 191.308 420.224 189.549 426.842 188.251C440.112 185.717 456.059 184.682 476.469 186.241C450.784 182.925 432.642 182.523 416.239 184.637C417.108 184.134 418.012 183.728 418.892 183.259C413.326 183.801 410.512 183.916 405.602 184.81C403.241 185.548 400.243 186.137 396.54 188.307Z" fill="#4886FF"/>
<path d="M418.724 183.416C423.78 182.767 431.55 181.415 445.805 179.763C437.214 180.036 428.473 181.013 420.934 182.232L418.724 183.416Z" fill="#4886FF"/>
<path d="M437.511 297.797C429.733 290.535 421.383 282.255 413.668 271.797C406.29 261.319 398.677 248.455 398.184 231.585C397.432 240.21 398.39 247.392 399.656 253.648C400.944 259.911 402.631 265.332 404.445 270.568C408.431 280.926 412.912 290.553 422.708 302.909C425.927 300.796 432.468 306.494 441.939 314.218C451.261 321.954 464.324 331.961 476.631 338.111C470.981 330.321 465.376 323.937 458.972 317.595C452.583 311.278 445.327 305.059 437.511 297.797Z" fill="#4886FF"/>
<path d="M537.702 343.599C536.264 342.498 534.677 341.306 532.761 339.909C534.347 341.127 536.042 342.366 537.702 343.599Z" fill="#4886FF"/>
<path d="M538.471 349.919L553.583 357.638L567.799 364.643L549.941 352.389C545.644 349.398 541.62 346.466 537.718 343.561C544.488 348.745 546.214 350.821 543.876 350.749C541.13 350.678 532.854 347.529 523.587 343.47C504.966 335.594 483.036 323.288 489.303 331.061C496.436 333.237 508.676 340.186 520.321 346.309C531.898 352.445 542.728 357.707 543.922 356.611C546.358 357.912 549.062 359.349 551.144 360.363L544.031 356.379C544.135 355.585 542.434 353.565 538.471 349.919Z" fill="#4886FF"/>
<path d="M437.739 167.534C439.758 167.107 441.778 166.656 443.758 166.134C447.625 165.019 451.832 164.028 456.303 163.116C460.596 162.065 465.756 161.592 471.156 161.315C462.746 160.409 456.468 159.872 452.198 159.795C447.803 159.623 444.971 159.567 443.217 159.593C439.828 159.738 440.664 160.137 441.54 160.783C442.439 161.438 443.449 162.413 440.66 163.752C437.875 165.124 431.169 166.582 418.395 170.059C423.312 170.013 427.537 169.422 431.752 168.81C433.822 168.464 435.808 168.033 437.739 167.534Z" fill="#4886FF"/>
<path d="M679.211 408.896L653.599 397.531C662.688 402.397 671.202 406.055 679.211 408.896Z" fill="#4886FF"/>
<path d="M841.642 579.32L820.764 573.525C824.108 575.524 834.508 578.396 841.642 579.32Z" fill="#4886FF"/>
<path d="M1373.18 485.07L1373.67 477.141C1373.27 481.75 1372.89 486.542 1371.82 492.875C1372.31 490.299 1372.88 487.687 1373.18 485.07Z" fill="#4886FF"/>
<path d="M1290.27 361.303C1290.71 361.761 1291.16 362.221 1291.65 362.729L1296.46 359.926L1290.27 361.303Z" fill="#4886FF"/>
<path d="M1050.24 609.467C1055.36 610.669 1061.61 611.437 1069.36 611.821C1062.82 611.017 1056.43 610.231 1050.24 609.467Z" fill="#4886FF"/>
<path d="M899.501 506.009C908.191 506.608 916.867 507.198 925.557 507.647C917.092 504.44 908.707 501.129 900.38 497.776L899.501 506.009Z" fill="#4886FF"/>
<path d="M649.5 469.344C661.567 474.761 659.986 480.377 694.721 491.52C660.803 477.571 690.211 482.393 649.5 469.344Z" fill="#4886FF"/>
<path d="M815.116 515.226C796.869 510.505 778.683 505.695 760.688 500.427C777.509 505.963 794.521 511.106 811.617 516.149L815.116 515.226Z" fill="#4886FF"/>
<path d="M687.683 223.586C680.555 221.711 672.019 219.95 661.061 218.928C667.8 220.348 679.017 222.437 687.683 223.586Z" fill="#4886FF"/>
<path d="M431.521 281.949C437.506 288.517 444.11 294.718 451.142 300.746C444.18 292.237 437.948 283.989 432.678 275.196C438.383 283.882 439.111 285.984 436.303 284.735C433.593 283.429 427.616 278.571 421.919 272.42C416.127 266.332 410.751 258.906 407.385 253.745C403.921 248.63 402.158 245.918 401.915 249.939C406.367 255.78 413.953 269.123 421.669 277.662C429.248 286.34 435.048 290.907 431.521 281.949Z" fill="#4886FF"/>
<path d="M580.271 376.1C572.473 369.383 592.098 372.382 595.626 371.888C583.61 371.49 568.741 368.692 551.301 360.349C560.847 365.745 570.513 370.989 580.271 376.1Z" fill="#4886FF"/>
<path d="M298.679 180.332C297.555 184.174 296.272 187.327 296.095 188.13C298.268 185.382 299.656 177.681 303.548 168.468C302.487 170.211 301.89 172.3 300.995 174.326C300.187 176.367 299.121 178.385 298.679 180.332Z" fill="#4886FF"/>
<path d="M1103.6 249.666C1104.11 249.99 1104.53 250.26 1105.08 250.604L1108.49 247.09L1103.6 249.666Z" fill="#4886FF"/>
<path d="M237.449 200.594C240.204 222.991 249.509 244.281 262.151 263.03C271.728 271.847 278.697 283.443 288.84 295.578C294.228 302.194 300.636 308.659 308.429 314.657C307.646 313.847 307.224 313.37 306.66 312.679C297.166 301.717 295.493 297.478 297.13 296.737C298.732 296.112 303.732 298.797 308.364 300.921C312.973 303.119 317.109 304.949 317.053 303.044C317.029 302.093 315.958 300.21 313.403 296.974C310.754 293.785 306.823 289.051 301.195 282.279C304.104 288.759 305.761 292.168 302.098 290.902C294.323 281.534 285.846 268.906 279.707 256.93C278.291 253.853 276.918 250.874 275.624 248.058C274.432 245.191 273.563 242.295 272.729 239.743C270.973 234.693 270.399 230.139 270.266 227.249C271.336 229.382 272.356 231.411 273.328 233.347C274.37 235.196 275.36 236.955 276.307 238.631C278.183 241.961 279.612 245.134 281.205 247.752C284.189 253.156 286.215 257.768 288.259 261.53C292.031 269.375 295.016 274.688 301.764 279.284C315.453 296.383 332.273 311.679 339.05 319.484C344.15 318.653 354.163 321.887 365.018 325.895C370.165 332.136 384.18 343.087 399.067 352.944C413.839 363.016 429.306 372.217 435.985 377.77C436.351 377.579 437.018 377.558 437.503 377.425C440.863 379.539 444.899 381.969 450.393 385.071L448.767 377.593C451.052 377.881 453.429 378.25 456.013 378.73C464.566 383.287 474.398 388.641 478.392 392.392C477.035 389.763 470.71 384.983 464.539 380.358C481.711 383.955 500.137 388.116 503.04 385.2C521.183 398.194 513.762 399.721 523.9 410.727C520.082 410.978 520.461 413.032 533.47 419.522C532.591 419.471 531.531 419.316 529.688 418.785L535.62 421.063C534.982 420.548 534.558 420.204 534.074 419.817C536.845 421.179 539.911 422.638 543.768 424.389L540.508 414.664C549.339 418.899 564.494 424.618 569.8 429.05C568.884 427.558 566.061 425.478 562.666 423.223C575.366 428.956 587.85 434.631 600.157 440.779C597.457 441.131 594.794 441.237 592.375 441.338L586.837 439.46C588.804 440.176 590.321 440.732 592.034 441.355C583.883 441.662 579.582 441.948 596.317 452.293C613.818 456.326 631.382 459.956 648.926 463.439C638.593 457.191 628.281 450.956 618.37 444.961C614.586 442.066 609.808 438.663 608.425 436.45C635.391 447.573 659.993 455.928 684.106 466.51C681.928 466.947 679.683 467.156 677.659 467.347C666.288 463.709 654.968 459.938 643.698 456.05C652.697 460.32 661.812 464.354 670.918 468.495C669.917 469.028 670.225 469.994 672.214 471.584L669.027 470.922L674.283 473.085C675.981 474.222 678.154 475.537 681.308 477.253L686.702 478.205C700.85 483.94 715.11 489.499 729.461 494.935L745.505 488.483C750.758 489.972 755.45 491.303 759.947 492.579L761.657 493.226L748.762 491.147C767.423 497.945 786.237 504.54 805.286 510.713L808.255 509.372C812.3 511.492 815.843 513.645 819.234 515.933C822.67 514.572 830.895 513.933 825.105 510.622C834.463 512.796 843.879 514.802 853.304 516.8L847.033 510.81C865.834 515.617 875.812 519.325 884.115 523.8C872.289 524.694 861.112 525.968 841.945 520.117C859.07 528.026 870.388 533.208 882.717 538.339C889.566 541.208 896.779 544.066 905.539 547.247C862.404 551.772 807.586 541.559 773.104 552.763C828.856 563.977 795.689 566.826 840.555 580.414C854.476 584.162 868.42 587.88 882.476 591.396C865.638 582.014 849.058 572.462 832.702 562.737C852.942 566.541 869.011 570.506 883.132 574.606C878.891 575.734 873.464 576.859 880.385 580.766C875.619 575.628 890.753 578.709 907.632 582.364C936.423 591.869 961.146 601.783 1008.23 605.624C1009.24 605.225 1009.94 604.85 1010.77 604.487C1022.5 606.597 1035 608.419 1048.55 610.193C1033.38 606.762 1026.65 600.705 1014.64 595.141L1011.83 596.159C1005.66 591.248 995.917 587.566 1034.43 583.968C1057.02 586.51 1068.53 588.655 1074.46 590.863C1063.25 593.09 1052.83 595.874 1044.32 600.02C1049.51 600.434 1053.68 600.767 1057.47 601.07C1063.8 607.364 1067.54 609.408 1075.44 612.018C1083.51 614.58 1095.67 618.431 1119.47 625.976C1135.77 623.219 1115.8 619.617 1096.2 614.476C1100.82 615.223 1107.16 615.533 1111.93 615.333C1105.55 614.773 1099.15 614.286 1092.83 613.579C1079.24 609.953 1066.74 605.646 1066.3 602.067C1089.13 605.048 1075.57 611.242 1111.93 615.333C1125.75 616.379 1139.67 617.248 1153.87 617.457C1150.16 616.433 1146.44 615.494 1142.8 614.398C1144.66 614.516 1146.51 614.55 1148.75 614.578C1140.82 612.378 1133.05 610.052 1125.4 607.567C1153.23 607.895 1169.74 608.611 1177.03 610.987C1184.34 613.212 1182.29 617.046 1173.02 620.702C1195.98 618.47 1211.05 617.008 1221.9 615.952C1233.12 615.049 1240.44 614.756 1247.05 614.558C1253.75 614.08 1259.75 613.79 1268.86 610.9C1277.82 607.991 1290.3 603.192 1308.05 589.942C1293.62 596.344 1281.04 598.26 1269.25 600.052C1257.48 601.361 1246.36 602.518 1234.18 604.51C1244.84 602.479 1255.7 599.372 1266.56 595.798L1258.61 596.316C1264.98 594.284 1271.5 591.624 1278.55 588.263C1280.22 586.305 1281.01 584.894 1281.41 583.726C1288.82 581.329 1291.92 581.14 1293.9 582.126C1295.87 583.065 1296.62 584.956 1299.4 585.428C1300.8 585.659 1302.72 585.537 1305.58 584.709C1308.42 583.704 1312.21 581.919 1317.29 578.917C1322.17 575.616 1328.76 570.951 1335.96 563.276C1339.67 559.589 1343.07 554.923 1346.87 549.789C1350.23 544.408 1353.95 538.453 1356.73 531.38C1352.56 540.707 1348.47 545.245 1346.57 547.388C1344.5 549.467 1343.89 548.878 1344 546.971C1344.28 543.131 1347.15 534.134 1346.85 529.382C1348.99 526.463 1351.09 523.194 1352.83 519.705C1353.77 518.152 1354.78 516.515 1356.11 513.847C1357.48 511.463 1358.85 508.535 1360.43 505.151C1361.2 503.436 1362.01 501.625 1362.86 499.72C1363.59 497.788 1364.12 495.717 1364.77 493.544C1364.18 489.13 1363.42 486.976 1362.67 486.533C1362.95 481.762 1362.71 477.003 1362.57 472.346C1362.2 467.723 1361.34 463.253 1360.65 458.948C1360.07 454.668 1358.63 450.537 1357.66 446.807C1356.77 443.391 1355.98 440.136 1355.13 437.581C1353.55 432.261 1352.62 428.004 1352.86 425.298C1353.03 422.761 1354.44 421.611 1357.59 422.4C1361.69 429.146 1364.86 434.491 1366.91 439.838C1367.4 441.173 1367.87 442.444 1368.32 443.658C1368.8 445.053 1369.26 446.384 1369.7 447.655C1370.54 450.217 1371.2 452.537 1371.47 454.714C1372.76 463.436 1372.8 469.394 1371.88 476.428C1372.96 471.323 1374.75 470.056 1376.75 469.518C1375.6 462.972 1374.14 456.913 1372.55 451.386C1371.57 448.617 1370.52 445.967 1369.48 443.44C1368.54 441.235 1367.65 439.12 1366.79 437.088C1364.9 433.331 1362.98 430.094 1361.18 427.068C1359.39 423.991 1357.61 421.396 1355.84 419.257C1348.92 410.15 1343.11 405.668 1337.96 401.992C1327.52 394.932 1319.6 391.511 1303.88 375.44C1301.66 372.654 1298.96 369.664 1294.85 366.053C1293.44 364.624 1292.1 363.266 1290.52 361.663L1289.72 362.053C1285.31 358.733 1279.83 354.911 1272.52 350.701C1274.89 353.488 1277.01 356.143 1278.99 358.924C1253.4 333.813 1228.27 316.398 1204.35 300.86C1203.92 300.409 1203.3 299.771 1202.87 299.327C1201.05 296.444 1201.6 294.831 1202.5 293.333C1177.91 276.182 1165.19 272.003 1155.56 269.903C1145.07 263.076 1134.47 256.245 1123.71 248.502L1106.97 250.839C1106.2 250.35 1105.58 249.951 1104.81 249.465L1102.94 251.418L1102.26 251.493C1097.27 236.977 1065.36 219.912 1034.59 200.928C1011.26 191.799 987.428 183.033 963.733 174.795C963.704 174.779 963.648 174.748 963.648 174.748C962.253 174.277 961.081 173.884 959.813 173.457C961.085 173.881 962.257 174.274 963.555 174.707C948.256 167.616 936.498 161.556 956.245 165.514C928.779 157.663 939.243 162.689 921.988 161.016C921.854 160.978 921.768 160.994 921.634 160.966C907.111 156.513 892.956 152.446 879.108 148.832C871.179 144.973 862.824 140.912 854.521 136.871C843.813 133.855 833.041 130.818 822.299 127.792C804.694 118.852 796.982 110.959 788.672 103.509C780.385 96.0122 771.453 89.0276 751.125 82.3438C705.508 67.4662 666.749 58.3363 632.132 52.6313C597.512 46.9295 567.079 44.5596 537.46 44.0272C497.389 38.4761 462.653 37.3699 430.19 40.0208C397.72 42.845 367.826 48.3579 336.152 60.965C320.356 67.2122 304.631 75.1312 287.652 87.9536C270.921 100.731 256.687 116.824 247.691 136.147C238.805 155.384 234.593 177.719 237.449 200.594ZM1055.99 572.279C1015.68 566.69 994.052 562.611 974.52 559.389C962.28 557.285 950.878 555.404 936.417 552.786C944.711 550.963 958.784 552.06 973.554 552.413C979.449 554.064 985.792 555.925 993.609 557.831C997.025 553.628 1008.19 553.198 1021.73 552.737C1028.46 552.593 1035.89 552.215 1043.03 551.734C1046.65 551.385 1050.21 550.966 1053.63 550.439C1056.78 549.957 1061.94 549.233 1065.9 548.217C1055.72 547.537 1048.61 546.364 1039.27 545.363C1030.21 544.298 1020.66 543.036 1012.05 541.614C994.837 538.734 981.435 535.223 983.12 531.774L993.192 533.127C958.223 525.525 949.204 533.186 927.776 532.224C923.029 530.252 920.226 528.376 921.165 526.709L931.932 528.741C927.024 527.375 922.551 526.382 918.46 525.613L920.031 525.846L904.607 512.476C884.459 511.05 865.279 511.013 843.221 507.161L837.409 501.495C828.16 500.369 819.023 499.663 809.914 498.665C806.061 497.367 802.181 496.049 798.104 494.469C804.112 489.686 794.462 484.767 777.077 479.468C767.276 472.556 750.177 465.047 791.177 477.33C793.172 477.299 794.697 477.224 796.004 477.138C803.78 483.293 820.277 487.368 831.916 490.465L831.223 494.702L844.234 496.208C843.729 497.485 840.591 498.868 833.552 500.344C853.797 502.658 855.18 500.184 851.278 496.944L859.454 497.809C851.939 494.458 844.419 491.256 837.003 487.799C836.042 486.474 841.08 487.274 861.004 492.24C893.963 489.937 835.667 486.972 842.954 482.025C833.987 484.627 820.263 484.566 800.859 476.639C804.595 475.874 799.958 474.637 793.238 473.167C792.867 472.997 792.528 472.877 792.261 472.719C792.293 472.819 792.378 472.9 792.421 472.987C782.087 470.811 767.996 467.782 772.159 465.369C761.969 467.928 746.464 466.983 724.913 456.673C725.36 456.774 725.752 456.867 726.203 456.967C727.189 452.398 705.62 440.985 680.313 430.826C691.356 436.313 680.748 437.568 678.315 440.147C676.062 442.468 681.02 446.509 718.786 455.278C725.764 465.066 752.939 471.55 765.85 476.174C742.584 469.744 711.03 462.198 682.808 453.538C676.244 450.828 670.217 448.223 663.125 445.088C664.154 446.18 666.106 447.477 667.541 448.649C652.442 443.62 639.068 438.322 629.748 433.149L638.282 439.63C630.379 437.04 622.325 434.395 614.423 431.804C606.444 427.192 601.989 423.911 581.689 415.03C591.392 420.323 596.772 423.951 600.094 426.739C599.901 426.67 599.749 426.616 599.592 426.561C592.597 423.257 586.288 420.066 578.782 416.288C579.83 417.53 581.928 419.061 583.382 420.413C567.273 414.056 553.163 407.444 543.413 401.244L553.076 409.642L534.236 403.227C522.019 396.23 519.559 392.931 503.224 383.874C502.813 381.749 498.896 377.873 489.365 371.29C468.215 366.468 460.874 366.437 455.365 366.924C444.748 362.321 434.259 357.442 423.849 352.374C437.453 360.119 444.928 364.617 448.719 367.342C445.243 367.368 440.803 366.813 433.137 364.612C425.445 362.443 414.518 358.682 398.303 351.55C392.709 344.965 390.832 340.404 394.07 339.058C397.301 337.713 405.643 339.559 420.858 345.012C416.39 342.485 413.135 340.342 410.255 338.368C412.679 337.33 411.123 333.932 403.814 326.763C409.212 325.991 416.984 325.999 408.54 317.247L394.104 319.949C380.199 314.91 372.466 312.905 367.208 312.039C363.262 308.389 359.345 304.739 355.633 300.891C351.834 297.142 348.145 293.314 344.641 289.341C348.262 296.197 352.454 302.711 356.631 309.461C344.385 299.422 334.57 288.598 326.078 277.861C327.714 278.867 328.995 279.655 330.801 280.766C319.792 269.996 315.676 263.406 314.654 260.066C313.605 256.729 315.728 256.452 318.626 256.778C324.495 257.521 333.08 260.234 327.871 248.568C319.853 247.891 311.719 246.754 303.481 245.008C302.219 242.91 300.973 240.805 299.576 238.733C295.644 236.564 294.715 238.555 295.608 243.085C293.852 239.545 292.587 235.75 291.305 232.02C289.866 228.363 289.097 224.445 288.187 220.648C290.146 216.294 293.521 212.685 296.964 208.035C291.263 192.026 293.588 180.31 290.212 180.113C293.745 166.932 298.966 159.888 302.296 157.366C305.758 154.821 307.043 156.405 307.328 160.827C308.979 160.567 308.07 162.438 306.997 165.345C307.398 164.49 307.806 163.623 308.218 162.742C308.764 161.923 309.314 161.09 309.871 160.25C310.986 158.568 312.124 156.849 313.277 155.107C316.198 152.011 318.764 148.479 322.351 145.795C328.907 139.875 337.028 135.76 344.572 132.607C348.509 131.3 352.108 130.084 355.421 129.329C358.83 128.716 361.815 128.355 364.244 128.321C369.08 128.199 371.932 129.866 371.48 132.821C390.168 127.247 409.068 125.157 426.879 124.566C444.75 123.929 461.836 125.2 478.505 126.989C511.919 130.86 543.927 137.652 581.024 146.165L594.244 141.729C616.244 146.568 637.005 152.254 657.68 158.514C663.264 163.351 662.21 167.749 666.107 172.716C669.997 177.677 678.795 183.149 703.782 190.914C694.879 187.948 688.605 187.075 676.276 185.087L694.9 197.362C690.114 196.14 685.503 194.896 681.381 193.506C678.868 192.159 675.729 190.88 672.22 189.752C668.859 188.108 666.024 186.331 664.17 184.312L670.778 185.164C662.479 181.31 654.108 177.529 645.68 173.787C635.073 176.032 642.852 180.516 657.133 185.688C640.628 182.059 624.223 179.746 599.359 175.015C575.505 167.763 579.772 169.411 579.53 171.007C566.14 168.153 554.444 164.659 546.236 160.522C549.62 160.709 552.993 160.832 556.471 161.153C541.303 157.024 525.453 153.121 509.353 149.869C499.968 152.871 506.984 155.835 521.144 159.171C534.595 161.998 556.528 166.607 579.336 171.399C578.039 172.599 572.083 172.996 546.02 169.807C555.768 172.992 564.963 174.205 574.841 174.846C579.831 175.192 584.936 175.542 590.12 175.9C595.355 176.298 600.907 176.775 605.888 177.611C610.477 178.791 614.925 179.933 619.153 181.02C620.177 181.295 621.19 181.563 622.188 181.828C622.962 182.068 623.725 182.304 624.477 182.533C625.973 183.009 627.421 183.467 628.812 183.908C634.363 185.713 638.971 187.353 642.095 188.855C634.078 187.895 624.485 186.743 615.285 185.64C609.836 185.02 604.507 184.415 599.585 183.856C594.444 183.385 589.788 183.018 585.911 182.825C570.495 177.53 553.879 172.533 536.281 167.826C522.632 167.989 496.104 166.967 477.678 168.921C459.061 170.709 447.71 174.166 455.177 176.216C451.678 177.913 458.141 178.067 467.433 178.27C467.499 178.294 467.585 178.301 467.671 178.315C459.096 178.892 452.947 179.334 447.196 179.966C463.91 179.42 481.869 180.355 500.137 182.302C501.56 183.267 500.65 184.158 496.329 185.405C500.673 184.578 505.384 184.131 510.078 183.421C517.691 184.408 525.334 185.549 532.644 186.67C537.284 190.722 528.835 192.421 516.532 192.174C504.117 191.887 487.084 190.019 471.887 187.074C451.919 190.123 468.759 190.239 484.271 191.648C492.049 192.339 499.488 193.181 501.838 193.85C504.187 194.532 501.434 194.661 489.077 194.714C516.022 197.977 527.144 199.816 532.138 199.685C537.015 199.586 535.374 198.029 534.262 196.339C533.189 194.64 532.585 192.78 540.888 192.375C549.083 191.939 566.832 192.935 601.37 198.907C619.97 204.89 612.794 205.487 601.008 204.571C593.697 202.829 586.271 200.583 579.905 197.698C562.872 197.047 568.785 199.098 578.159 201.447C575.214 201.207 572.164 201.019 568.956 200.894C573.001 201.536 578.419 202.199 584.15 202.891C598.67 206.407 613.956 209.789 588.431 206.891C613.546 212.868 623.309 214.98 627.751 214.971C632.062 214.971 630.514 212.978 631.817 211.46C635.418 211.605 639.021 211.2 643.041 210.077C645.497 210.233 648.72 210.546 652.442 211.055C665 217.011 690.699 220.221 698.659 223.989C696.541 224.176 693.106 223.979 688.41 223.342C693.002 224.569 696.987 225.814 700.627 226.947C700.187 227.477 699.485 228.035 698.187 228.642C725.592 235.074 739.656 236.435 752.729 237.369C761.469 239.775 770.535 241.934 775.728 243.86L764.956 244.663C746.95 241.076 729.935 237.687 713.618 234.437L711.673 232.033C698.599 228.435 686.196 225.613 673.771 223.554C661.298 221.532 649.023 220.108 634.206 220.499C626.615 220.836 618.583 221.367 607.852 224.248C604.918 225.129 601.978 226.123 599.112 227.202C595.726 228.649 592.443 230.201 589.075 232.136C587.187 233.299 585.339 234.539 583.55 235.836C581.765 237.133 580.081 238.394 578.166 240.25C574.486 243.74 571.177 247.383 568.394 252.011C567.697 253.13 567.037 254.262 566.411 255.411C565.819 256.501 565.083 257.899 564.87 258.528C564.217 260.121 563.608 261.744 563.048 263.384C561.942 266.671 560.982 270.009 560.342 273.376C559.605 280.175 559.298 287.984 560.936 293.975C561.629 297.132 562.499 300.391 563.551 303.378C564.635 305.942 565.829 308.5 567.131 311.025L569.157 314.783C569.847 315.963 570.498 316.815 571.191 317.845C572.567 319.817 574.003 321.779 575.491 323.716C579.306 325.51 581.992 325.148 584.54 324.954C598.55 338.937 611.818 345.982 625.136 352.307C638.466 358.383 651.964 362.801 666.13 366.248C668.449 370.713 670.825 375.011 673.28 379.44C695.565 389.698 714.771 397.003 732.799 403.149C722.341 402.72 697.128 397.392 677.369 393.221C651.113 387.652 633.949 385.329 673.816 403.957C682.636 407.562 690.933 411.273 698.887 414.981C692.717 413.689 686.197 412.06 679.199 409.567C690.202 414.333 701.275 418.989 712.42 423.55C710.528 422.204 710.163 421.27 710.415 420.512C724.368 427.366 737.249 434.301 749.942 441.049C756.517 444.386 761.883 447.774 770.487 451.12C777.155 454.081 783.744 456.884 790.485 459.542C817.409 470.094 846.326 478.583 883.67 480.09C897.838 481.295 912.987 482.077 929.085 482.03C945.222 481.926 962.205 481.169 981.336 477.683C989.612 477.508 999.087 476.238 1009.5 473.478C1020.18 470.136 1032.99 465.236 1045.58 452.946C1048.61 449.638 1051.48 446.068 1054.06 442.359C1056.47 438.518 1058.42 434.234 1060.13 429.951C1060.93 428.273 1061.89 424.578 1062.45 421.24C1062.74 419.564 1062.98 417.849 1063.12 416.189C1063.18 414.648 1063.2 413.094 1063.16 411.536C1063.08 408.426 1062.79 405.158 1062.21 402.716C1061.67 400.163 1060.97 397.235 1060.16 395.048C1056.85 385.762 1052.6 379.838 1048.42 374.435C1044.34 369.523 1040.11 365.324 1036.01 361.882C1024.69 351.54 1013.66 344.299 1002.35 337.349C991.07 330.516 979.62 324.532 968.004 318.857C944.798 307.584 920.98 297.831 897.603 289.025C880.972 282.764 864.59 277.045 848.839 271.788C856.709 273.208 850.416 268.939 852.646 267.675C854.624 268.004 856.69 268.397 858.402 268.504C856.74 268.088 855.537 267.785 854.035 267.409C856.309 267.284 861.241 268.119 871.579 271.119C864.598 272.329 903.289 288.263 922.767 290.537C888.569 281.409 880.916 276.833 882.724 273.795C891.902 277.022 901.79 280.562 911.619 285.483C923.23 289.486 934.544 293.391 945.795 297.272C948.628 300.216 951.502 303.177 956.59 306.663C959.445 304.287 963.065 304.012 966.959 304.703C971.218 306.177 975.38 307.617 979.638 309.092C983.961 310.967 987.838 312.828 990.686 313.041C993.716 314.132 996.758 315.227 999.773 316.311C999.182 316.943 998.629 317.543 998.464 318.172C998.007 319.95 1000.47 321.807 1012.73 325.762L1015.8 328.251L1009.59 326.058C1019.35 343.953 1049.17 349.967 1076.16 367.804C1113.44 385.762 1148.43 403.455 1178.93 421.119C1179.34 421.916 1179.83 422.744 1180.14 423.507C1181.47 426.286 1182.34 428.641 1182.54 430.394C1182.68 428.057 1182.65 425.681 1182.58 423.289C1186.52 425.602 1190.45 427.914 1194.23 430.225C1195.59 432.607 1196.86 435.022 1198.02 437.49C1195.98 435.583 1195.03 436.209 1194.89 438.463C1194.81 439.596 1194.98 441.125 1195.22 442.988C1195.26 444.907 1195.42 447.153 1195.67 449.62C1195.7 452.122 1195.6 454.906 1195.48 457.8C1194.82 460.697 1194.83 463.803 1193.61 466.812L1192.13 471.377L1189.86 475.705C1188.54 478.657 1186.44 481.156 1184.69 483.667C1181.22 487.532 1177.82 490.921 1174.49 493.137C1171.39 495.584 1168.57 497.02 1166.81 497.636C1165.07 498.286 1164.41 498.131 1165.15 496.946C1165.52 496.355 1166.24 495.507 1167.34 494.385C1168.36 493.159 1169.64 491.518 1171.35 489.586C1172.97 489.089 1174.52 488.504 1175.94 487.788C1177.62 485.923 1179.44 484.213 1180.68 482.201C1181.82 480.095 1183.12 478.107 1183.86 475.972C1184.54 473.802 1185.17 471.689 1185.65 469.638C1185.8 467.498 1185.88 465.437 1185.91 463.483C1185.85 461.518 1185.33 459.615 1185.02 457.868C1186.56 455.883 1187.3 453.864 1188.39 451.777C1187.35 439.161 1177.41 428.252 1169.82 422.412C1162.07 416.517 1157.05 414.533 1161.41 417.559C1170.57 426.981 1179 437.991 1181.31 448.533C1178.18 444.006 1176.57 442.749 1178.61 446.157C1180.38 451.348 1180.8 456.725 1180.6 461.937C1179.86 463.455 1179.1 464.837 1178.22 466.074L1180.23 464.015C1179.96 465.471 1179.76 466.937 1179.44 468.355C1178.92 469.725 1178.4 471.079 1177.9 472.413C1177.09 475.178 1175.25 477.395 1173.92 479.726C1168.14 487.6 1159.97 492.279 1152.06 494.292C1156.72 493.398 1161.78 492.747 1166.27 491.244C1164.66 493.437 1164.9 494.389 1164.53 496.127C1164.07 497.785 1163 500.288 1157.14 503.815C1149.43 506.336 1141.39 508.024 1133.34 509.108C1135.89 507.821 1138.43 506.88 1141.69 505.045C1130.65 507.66 1126.1 508.832 1123.85 510.102C1119.34 510.456 1114.91 510.802 1110.44 510.757C1110.99 511.995 1115.21 512.869 1121.49 512.465C1120.37 514.481 1119.61 516.716 1109.15 519.523C1091 519.761 1073.73 518.091 1058.14 515.801C1057.75 517.766 1062.97 519.221 1072.47 520.366C1081.92 521.397 1095.64 521.732 1111.08 520.429C1126.54 519.222 1143.4 515.855 1158.32 510.172C1162.09 508.804 1165.54 507.026 1169.11 505.483C1172.51 503.738 1175.65 501.762 1178.83 499.955C1181.65 497.796 1184.55 495.814 1187.11 493.666C1189.5 491.373 1192.01 489.328 1194.08 487.103C1200.98 479.528 1204.38 472.273 1207.06 468.242C1206.61 464.759 1206.52 458.864 1205.29 452.233C1204.01 446.136 1202.07 439.503 1199.47 433.522C1202.27 435.272 1205.12 437.018 1207.82 438.767C1226.02 450.451 1241.32 462.363 1251.99 472.847C1253.56 474.203 1254.41 475.374 1255.63 476.618C1256.77 477.834 1258.15 479.126 1258.88 480.172L1259.56 480.995L1260.1 481.446C1260.46 481.759 1260.91 482.013 1261.26 482.406L1263.29 484.76C1265.89 488.073 1267.49 492.071 1268.29 496.424C1268.93 500.882 1268.28 505.526 1266.72 510.067C1266.43 511.276 1265.93 512.373 1265.35 513.446C1264.81 514.545 1264.42 515.763 1263.59 516.804C1262.85 517.859 1262.13 519.158 1261.21 520.288L1258.25 523.73C1249.59 527.265 1239.22 529.609 1228.14 531.113C1216.1 537.073 1198.64 542.833 1179.11 546.956C1159.6 551.14 1138.38 554.075 1119.22 556.393C1080.86 560.953 1050.87 563.887 1055.99 572.279ZM831.77 266.184C813.449 260.266 796.415 255.05 781.27 250.424C781.328 250.345 781.367 250.255 781.387 250.162C796.591 254.144 807.401 256.336 816.15 257.549C823.99 260.506 833.617 263.507 842.813 265.724L831.77 266.184ZM782.987 231.819C774.333 230.456 764.187 228.232 751.351 224.269C746.295 222.425 741.353 220.668 736.64 219.27C744.461 219.915 749.523 220.172 752.762 220.054C758.335 221.852 764.205 223.846 769.672 225.323C769.91 224.311 769.83 223.346 769.536 222.41C776.102 225.67 779.361 228.668 782.987 231.819ZM825.401 246.481C829.471 245.298 832.854 244.184 832.552 242.851L848.809 253.332C842.12 251.809 834.516 249.681 825.401 246.481ZM752.374 211.508C745.276 209.118 736.611 206.955 727.465 204.872C722.852 202.501 720.957 200.458 725.695 199.338C714.754 197.654 707.788 196.886 703.708 196.754L725.793 193.364C765.882 205.136 751.872 206.631 752.374 211.508ZM699.892 198.638C698.797 198.369 697.787 198.095 696.714 197.826L698.992 197.477C698.915 197.787 699.234 198.179 699.892 198.638ZM748.098 227.325C748.367 227.364 748.568 227.393 748.871 227.438L748.533 227.499C748.347 227.424 748.224 227.376 748.098 227.325ZM1000.14 413.693C1000.1 413.683 1000.08 413.68 1000.02 413.666C1000 413.662 999.997 413.662 999.982 413.659C999.986 413.659 999.986 413.659 999.989 413.659C1000.02 413.666 1000.07 413.676 1000.12 413.687L1000.14 413.693ZM999.993 413.659C1000 413.662 1000 413.659 1000.02 413.662L1000.09 413.683C1000.04 413.669 1000.02 413.666 999.993 413.659ZM623.012 278.47C622.859 278.416 622.811 278.399 623.012 278.47V278.47ZM826.337 335.912C850.392 343.446 874.421 351.983 897.86 361.557C921.202 371.139 944.33 381.751 964.543 393.874C969.523 396.912 974.28 400.042 978.546 403.207C982.779 406.332 986.585 409.658 988.807 412.247C989.213 412.804 989.908 413.48 990.092 413.845C989.921 414.027 989.697 414.215 989.338 414.393C987.512 416.093 983.095 417.866 978.556 419.385C973.711 420.801 968.386 422.09 962.609 422.902C951.176 424.691 938.851 425.481 926.489 425.805C901.673 426.411 876.489 425.213 851.855 423.559C841.899 422.877 832.06 422.066 822.256 421.245C823.871 418.386 824.541 415.396 824.225 412.291C823.989 409.974 823.26 407.6 822.098 405.186C821.517 403.981 820.827 402.765 820.041 401.541L819.432 400.622C819.233 400.467 819.43 400.322 818.905 400.155L817.291 399.625C816.216 399.25 815.142 398.838 814.091 398.382L813.315 398.036L813.121 397.764L812.734 397.218C808.594 391.388 805.194 385.36 800.284 379.014C795.554 372.68 790.061 366.132 784.215 359.595C772.52 346.515 759.478 333.45 748.408 322.559C745.053 319.278 741.919 316.224 739.005 313.403C767.643 319.051 797.149 326.841 826.337 335.912ZM787.364 118.666C787.331 118.655 787.204 118.618 787.204 118.618C785.964 118.311 784.794 118.022 783.657 117.743C784.794 118.022 785.964 118.311 787.171 118.607C787.167 118.607 787.331 118.655 787.364 118.666Z" fill="#4886FF"/>
</g>
<path d="M920.522 605.88C914.527 605.838 909.581 610.149 909.473 615.508C909.365 620.866 914.137 625.244 920.132 625.285C926.126 625.326 931.073 621.016 931.181 615.657C931.288 610.299 926.516 605.921 920.522 605.88Z" fill="#B9FFFF"/>
<path d="M1079.05 584.425C1076.03 584.402 1073.55 586.561 1073.5 589.248C1073.46 591.936 1075.86 594.134 1078.88 594.157C1081.89 594.181 1084.38 592.022 1084.43 589.334C1084.47 586.647 1082.07 584.449 1079.05 584.425Z" fill="#B9FFFF"/>
<path d="M1017.77 526.872C1011.94 526.826 1007.14 530.997 1007.05 536.189C1006.96 541.38 1011.61 545.625 1017.43 545.671C1023.26 545.716 1028.06 541.545 1028.15 536.354C1028.24 531.163 1023.59 526.917 1017.77 526.872Z" fill="#B9FFFF"/>
<path d="M944.23 427.195C940.613 427.166 937.635 429.756 937.578 432.978C937.521 436.201 940.407 438.836 944.024 438.864C947.64 438.892 950.618 436.303 950.675 433.081C950.732 429.858 947.846 427.223 944.23 427.195Z" fill="#B9FFFF"/>
<path d="M1223.15 528.988C1220.24 528.965 1217.84 531.051 1217.79 533.646C1217.75 536.242 1220.07 538.364 1222.98 538.387C1225.9 538.41 1228.3 536.324 1228.34 533.729C1228.39 531.133 1226.06 529.011 1223.15 528.988Z" fill="#B9FFFF"/>
<path d="M1205.89 336.343C1200.45 336.3 1195.97 340.194 1195.89 345.039C1195.8 349.885 1200.14 353.847 1205.58 353.89C1211.02 353.933 1215.5 350.039 1215.58 345.194C1215.67 340.348 1211.33 336.385 1205.89 336.343Z" fill="#B9FFFF"/>
<path d="M1059.8 468.478C1058.19 468.466 1056.86 469.617 1056.84 471.049C1056.81 472.481 1058.1 473.652 1059.7 473.665C1061.31 473.677 1062.64 472.527 1062.66 471.094C1062.69 469.662 1061.4 468.491 1059.8 468.478Z" fill="#B9FFFF"/>
<path d="M710.378 383.401C703.145 383.344 697.189 388.522 697.075 394.967C696.962 401.412 702.733 406.683 709.966 406.739C717.199 406.796 723.155 401.617 723.269 395.172C723.382 388.728 717.611 383.457 710.378 383.401Z" fill="#B9FFFF"/>
<path d="M744.38 352.717C738.754 352.673 734.121 356.701 734.033 361.713C733.944 366.726 738.433 370.826 744.059 370.87C749.685 370.914 754.318 366.886 754.406 361.873C754.495 356.86 750.006 352.761 744.38 352.717Z" fill="#B9FFFF"/>
<path d="M800.223 380.489C795.787 380.454 792.135 383.63 792.065 387.582C791.995 391.534 795.534 394.766 799.97 394.801C804.406 394.836 808.058 391.66 808.128 387.708C808.197 383.756 804.658 380.524 800.223 380.489Z" fill="#B9FFFF"/>
<path d="M655.159 302.594C651.519 302.565 648.523 305.171 648.466 308.414C648.408 311.656 651.312 314.308 654.951 314.336C658.59 314.365 661.587 311.759 661.644 308.517C661.702 305.274 658.798 302.622 655.159 302.594Z" fill="#B9FFFF"/>
<path d="M676 339.675C672.163 339.645 669.003 342.392 668.943 345.811C668.882 349.231 671.944 352.027 675.781 352.057C679.619 352.087 682.778 349.339 682.839 345.92C682.899 342.501 679.837 339.705 676 339.675Z" fill="#B9FFFF"/>
<path d="M741.713 303.487C739.893 303.473 738.395 304.776 738.366 306.397C738.337 308.019 739.789 309.345 741.609 309.359C743.429 309.373 744.928 308.071 744.956 306.449C744.985 304.827 743.533 303.501 741.713 303.487Z" fill="#B9FFFF"/>
<path d="M247.529 70.2037C245.709 70.1894 244.211 71.4923 244.182 73.1138C244.153 74.7354 245.606 76.0615 247.425 76.0757C249.245 76.09 250.744 74.787 250.772 73.1655C250.801 71.5439 249.349 70.2179 247.529 70.2037Z" fill="#B9FFFF"/>
<path d="M335.313 325.475C328.664 325.423 323.189 330.183 323.085 336.108C322.98 342.032 328.285 346.877 334.935 346.929C341.584 346.982 347.059 342.221 347.163 336.296C347.268 330.372 341.963 325.527 335.313 325.475Z" fill="#B9FFFF"/>
<path d="M595.494 270.73C592.992 270.71 590.931 272.502 590.892 274.731C590.852 276.961 592.849 278.785 595.351 278.804C597.854 278.824 599.914 277.032 599.954 274.802C599.993 272.573 597.996 270.749 595.494 270.73Z" fill="#B9FFFF"/>
<path d="M590.034 338.795C586.197 338.765 583.037 341.512 582.977 344.931C582.917 348.35 585.978 351.147 589.816 351.177C593.653 351.207 596.813 348.459 596.873 345.04C596.933 341.621 593.872 338.825 590.034 338.795Z" fill="#B9FFFF"/>
<path d="M542.315 307.298C539.319 307.274 536.852 309.419 536.805 312.088C536.758 314.757 539.148 316.94 542.144 316.963C545.139 316.987 547.606 314.842 547.653 312.173C547.7 309.504 545.31 307.321 542.315 307.298Z" fill="#B9FFFF"/>
<path d="M547.446 395.453C543.97 395.426 541.107 397.915 541.053 401.012C540.998 404.109 543.772 406.642 547.248 406.67C550.724 406.697 553.587 404.208 553.641 401.111C553.696 398.013 550.922 395.48 547.446 395.453Z" fill="#B9FFFF"/>
<path d="M656.026 482.203C654.206 482.189 652.708 483.492 652.679 485.114C652.65 486.735 654.103 488.061 655.922 488.075C657.742 488.09 659.241 486.787 659.269 485.165C659.298 483.544 657.846 482.218 656.026 482.203Z" fill="#B9FFFF"/>
<path d="M785.496 495.427C782.688 495.405 780.376 497.415 780.332 499.917C780.288 502.419 782.528 504.465 785.336 504.487C788.144 504.509 790.456 502.498 790.5 499.996C790.544 497.495 788.304 495.449 785.496 495.427Z" fill="#B9FFFF"/>
<path d="M776.731 555.973C775.172 555.961 773.887 557.078 773.863 558.468C773.838 559.858 775.083 560.994 776.643 561.007C778.202 561.019 779.487 559.902 779.511 558.512C779.536 557.122 778.291 555.986 776.731 555.973Z" fill="#B9FFFF"/>
<path d="M849.617 185.676C846 185.648 843.022 188.237 842.965 191.459C842.909 194.682 845.794 197.317 849.411 197.345C853.027 197.374 856.005 194.784 856.062 191.562C856.119 188.34 853.233 185.704 849.617 185.676Z" fill="#B9FFFF"/>
<path d="M1025.71 290.049C1023.09 290.029 1020.93 291.906 1020.89 294.242C1020.85 296.579 1022.94 298.489 1025.56 298.51C1028.19 298.531 1030.34 296.653 1030.39 294.317C1030.43 291.981 1028.34 290.07 1025.71 290.049Z" fill="#B9FFFF"/>
<path d="M970.844 333.936C965.406 333.893 960.928 337.787 960.843 342.632C960.757 347.478 965.096 351.44 970.534 351.483C975.973 351.526 980.45 347.632 980.536 342.787C980.622 337.941 976.282 333.978 970.844 333.936Z" fill="#B9FFFF"/>
<path d="M1309.24 442.564C1304.82 442.53 1301.18 445.695 1301.11 449.634C1301.04 453.573 1304.57 456.795 1308.99 456.83C1313.41 456.864 1317.05 453.699 1317.12 449.76C1317.19 445.82 1313.66 442.599 1309.24 442.564Z" fill="#B9FFFF"/>
<path d="M1109.21 163.767C1106 163.741 1103.35 166.043 1103.3 168.907C1103.25 171.771 1105.82 174.113 1109.03 174.138C1112.24 174.163 1114.89 171.862 1114.94 168.998C1114.99 166.134 1112.43 163.792 1109.21 163.767Z" fill="#B9FFFF"/>
<path d="M1079.08 378.503C1077.57 378.491 1076.33 379.571 1076.31 380.915C1076.29 382.259 1077.49 383.358 1079 383.369C1080.51 383.381 1081.75 382.301 1081.77 380.958C1081.79 379.614 1080.59 378.515 1079.08 378.503Z" fill="#B9FFFF"/>
<path d="M737.196 127.613C731.57 127.568 726.938 131.596 726.85 136.609C726.761 141.622 731.25 145.721 736.876 145.766C742.502 145.81 747.134 141.782 747.223 136.769C747.311 131.756 742.822 127.657 737.196 127.613Z" fill="#B9FFFF"/>
<path d="M641.54 207.503C637.731 207.473 634.595 210.2 634.535 213.593C634.476 216.987 637.514 219.761 641.323 219.791C645.131 219.821 648.267 217.095 648.327 213.701C648.387 210.308 645.348 207.533 641.54 207.503Z" fill="#B9FFFF"/>
<path d="M821.237 273.041C818.735 273.021 816.674 274.813 816.635 277.043C816.595 279.273 818.592 281.096 821.095 281.116C823.597 281.135 825.658 279.344 825.697 277.114C825.736 274.884 823.74 273.061 821.237 273.041Z" fill="#B9FFFF"/>
<path d="M183.602 329.154C176.369 329.097 170.414 334.276 170.3 340.721C170.186 347.166 175.957 352.436 183.19 352.493C190.423 352.549 196.379 347.371 196.493 340.926C196.607 334.481 190.836 329.211 183.602 329.154Z" fill="#B9FFFF"/>
<path d="M206.542 144.312C200.916 144.268 196.283 148.296 196.195 153.309C196.106 158.321 200.595 162.421 206.221 162.465C211.847 162.509 216.48 158.481 216.568 153.468C216.657 148.455 212.168 144.356 206.542 144.312Z" fill="#B9FFFF"/>
<path d="M603.54 13.4632C597.914 13.4191 593.282 17.447 593.193 22.4598C593.105 27.4726 597.594 31.572 603.22 31.6161C608.846 31.6602 613.478 27.6323 613.567 22.6195C613.655 17.6067 609.166 13.5073 603.54 13.4632Z" fill="#B9FFFF"/>
<path d="M262.384 172.084C257.949 172.05 254.297 175.225 254.227 179.177C254.157 183.13 257.696 186.362 262.132 186.396C266.567 186.431 270.22 183.255 270.289 179.303C270.359 175.351 266.82 172.119 262.384 172.084Z" fill="#B9FFFF"/>
<path d="M117.32 94.1894C113.681 94.1609 110.684 96.7665 110.627 100.009C110.57 103.252 113.474 105.903 117.113 105.932C120.752 105.96 123.749 103.355 123.806 100.112C123.863 96.8697 120.959 94.2179 117.32 94.1894Z" fill="#B9FFFF"/>
<path d="M138.16 131.27C134.323 131.24 131.163 133.988 131.103 137.407C131.043 140.826 134.104 143.622 137.942 143.652C141.779 143.682 144.939 140.935 144.999 137.516C145.059 134.097 141.998 131.3 138.16 131.27Z" fill="#B9FFFF"/>
<path d="M174.819 3.23405C173 3.21979 171.501 4.5227 171.472 6.14422C171.444 7.76575 172.896 9.09188 174.716 9.10614C176.536 9.1204 178.034 7.81739 178.063 6.19586C178.091 4.57434 176.639 3.24831 174.819 3.23405Z" fill="#B9FFFF"/>
<path d="M283.394 64.6363C280.891 64.6167 278.831 66.4085 278.791 68.6382C278.752 70.868 280.749 72.6915 283.251 72.7111C285.754 72.7307 287.814 70.939 287.854 68.7092C287.893 66.4795 285.896 64.656 283.394 64.6363Z" fill="#B9FFFF"/>
<path d="M356.47 247.874C352.049 247.839 348.408 251.004 348.339 254.944C348.269 258.883 351.797 262.105 356.218 262.139C360.639 262.174 364.28 259.008 364.349 255.069C364.419 251.13 360.891 247.908 356.47 247.874Z" fill="#B9FFFF"/>
<path d="M486.164 218.157C480.538 218.113 475.906 222.141 475.817 227.154C475.729 232.167 480.218 236.266 485.844 236.31C491.47 236.354 496.102 232.326 496.191 227.314C496.279 222.301 491.79 218.201 486.164 218.157Z" fill="#B9FFFF"/>
<path d="M393.827 77.5502C390.21 77.5219 387.232 80.1111 387.175 83.3335C387.119 86.5559 390.004 89.1911 393.621 89.2194C397.237 89.2478 400.215 86.6585 400.272 83.4361C400.329 80.2137 397.443 77.5785 393.827 77.5502Z" fill="#B9FFFF"/>
<path d="M502.789 269.758C498.879 269.727 495.66 272.526 495.599 276.009C495.537 279.493 498.656 282.342 502.566 282.372C506.475 282.403 509.694 279.604 509.756 276.12C509.817 272.637 506.698 269.788 502.789 269.758Z" fill="#B9FFFF"/>
</svg>
