<svg width="1100" height="653" viewBox="0 0 1100 653" fill="none" xmlns="http://www.w3.org/2000/svg">
<path d="M740.097 628.05C734.634 627.986 730.152 632.439 730.087 637.996C730.021 643.553 734.397 648.11 739.861 648.174C745.324 648.238 749.806 643.785 749.872 638.228C749.937 632.671 745.561 628.114 740.097 628.05Z" fill="#B9FFFF"/>
<path d="M883.774 605.691C881.031 605.659 878.781 607.894 878.748 610.684C878.715 613.474 880.912 615.762 883.655 615.794C886.398 615.827 888.648 613.591 888.681 610.801C888.714 608.011 886.517 605.723 883.774 605.691Z" fill="#B9FFFF"/>
<path d="M828.231 545.791C822.933 545.729 818.586 550.047 818.523 555.436C818.459 560.826 822.703 565.245 828.002 565.307C833.3 565.37 837.646 561.051 837.71 555.662C837.773 550.273 833.53 545.854 828.231 545.791Z" fill="#B9FFFF"/>
<path d="M761.615 442.018C758.326 441.979 755.628 444.66 755.588 448.005C755.549 451.351 758.183 454.094 761.472 454.132C764.761 454.171 767.46 451.491 767.499 448.145C767.538 444.8 764.904 442.057 761.615 442.018Z" fill="#B9FFFF"/>
<path d="M1014.34 547.981C1011.69 547.949 1009.51 550.109 1009.48 552.803C1009.45 555.498 1011.57 557.707 1014.22 557.738C1016.87 557.77 1019.04 555.611 1019.08 552.916C1019.11 550.221 1016.99 548.012 1014.34 547.981Z" fill="#B9FFFF"/>
<path d="M998.681 347.45C993.736 347.392 989.678 351.423 989.619 356.453C989.56 361.483 993.521 365.608 998.467 365.667C1003.41 365.725 1007.47 361.694 1007.53 356.664C1007.59 351.633 1003.63 347.508 998.681 347.45Z" fill="#B9FFFF"/>
<path d="M866.337 484.985C864.875 484.968 863.676 486.16 863.659 487.646C863.641 489.133 864.812 490.352 866.274 490.369C867.735 490.386 868.934 489.195 868.952 487.708C868.969 486.222 867.798 485.003 866.337 484.985Z" fill="#B9FFFF"/>
<path d="M549.711 396.445C543.134 396.368 537.737 401.729 537.659 408.42C537.58 415.11 542.849 420.597 549.426 420.674C556.004 420.752 561.401 415.39 561.479 408.7C561.558 402.009 556.289 396.523 549.711 396.445Z" fill="#B9FFFF"/>
<path d="M580.53 364.496C575.414 364.436 571.216 368.606 571.155 373.81C571.094 379.014 575.192 383.281 580.308 383.341C585.425 383.402 589.622 379.232 589.683 374.028C589.744 368.824 585.646 364.556 580.53 364.496Z" fill="#B9FFFF"/>
<path d="M631.134 393.401C627.1 393.354 623.791 396.641 623.743 400.744C623.694 404.847 626.925 408.212 630.959 408.259C634.993 408.307 638.302 405.019 638.35 400.916C638.399 396.813 635.168 393.449 631.134 393.401Z" fill="#B9FFFF"/>
<path d="M499.703 312.309C496.394 312.271 493.679 314.968 493.639 318.334C493.599 321.701 496.25 324.461 499.56 324.5C502.869 324.539 505.584 321.841 505.624 318.475C505.664 315.109 503.013 312.348 499.703 312.309Z" fill="#B9FFFF"/>
<path d="M518.585 350.912C515.095 350.871 512.233 353.715 512.191 357.264C512.149 360.814 514.944 363.724 518.434 363.766C521.924 363.807 524.786 360.962 524.828 357.413C524.87 353.863 522.075 350.953 518.585 350.912Z" fill="#B9FFFF"/>
<path d="M578.137 313.232C576.482 313.212 575.124 314.561 575.104 316.244C575.085 317.927 576.41 319.308 578.065 319.327C579.72 319.347 581.077 317.998 581.097 316.315C581.117 314.632 579.791 313.251 578.137 313.232Z" fill="#B9FFFF"/>
<path d="M130.381 70.3853C128.726 70.3659 127.369 71.7145 127.349 73.3977C127.329 75.0808 128.655 76.4611 130.309 76.4806C131.964 76.5 133.322 75.1513 133.342 73.4681C133.361 71.785 132.036 70.4048 130.381 70.3853Z" fill="#B9FFFF"/>
<path d="M209.888 336.142C203.841 336.071 198.881 340.999 198.808 347.15C198.736 353.3 203.579 358.344 209.626 358.415C215.673 358.486 220.634 353.558 220.706 347.407C220.779 341.257 215.935 336.213 209.888 336.142Z" fill="#B9FFFF"/>
<path d="M445.65 279.134C443.374 279.107 441.507 280.962 441.48 283.277C441.453 285.591 443.276 287.49 445.551 287.516C447.827 287.543 449.694 285.688 449.721 283.374C449.749 281.059 447.926 279.161 445.65 279.134Z" fill="#B9FFFF"/>
<path d="M440.695 349.996C437.205 349.955 434.343 352.799 434.301 356.348C434.259 359.898 437.054 362.808 440.544 362.849C444.034 362.891 446.897 360.046 446.938 356.497C446.98 352.947 444.185 350.037 440.695 349.996Z" fill="#B9FFFF"/>
<path d="M397.466 317.203C394.741 317.171 392.507 319.391 392.474 322.162C392.441 324.933 394.623 327.205 397.348 327.237C400.072 327.269 402.307 325.049 402.339 322.278C402.372 319.507 400.19 317.235 397.466 317.203Z" fill="#B9FFFF"/>
<path d="M402.111 408.974C398.95 408.937 396.357 411.514 396.319 414.729C396.281 417.945 398.813 420.582 401.974 420.619C405.136 420.656 407.729 418.079 407.767 414.864C407.805 411.648 405.273 409.012 402.111 408.974Z" fill="#B9FFFF"/>
<path d="M500.5 499.274C498.846 499.255 497.488 500.604 497.468 502.287C497.448 503.97 498.774 505.35 500.429 505.37C502.083 505.389 503.441 504.04 503.461 502.357C503.481 500.674 502.155 499.294 500.5 499.274Z" fill="#B9FFFF"/>
<path d="M617.801 513.043C615.247 513.013 613.153 515.094 613.122 517.692C613.091 520.289 615.137 522.419 617.69 522.449C620.244 522.479 622.338 520.398 622.369 517.8C622.4 515.203 620.354 513.073 617.801 513.043Z" fill="#B9FFFF"/>
<path d="M609.867 576.067C608.448 576.05 607.285 577.206 607.268 578.649C607.251 580.092 608.387 581.275 609.805 581.291C611.224 581.308 612.387 580.152 612.404 578.709C612.421 577.267 611.285 576.084 609.867 576.067Z" fill="#B9FFFF"/>
<path d="M675.891 190.599C672.602 190.56 669.904 193.24 669.865 196.586C669.825 199.931 672.46 202.674 675.749 202.713C679.038 202.752 681.736 200.071 681.775 196.726C681.814 193.381 679.18 190.637 675.891 190.599Z" fill="#B9FFFF"/>
<path d="M835.449 299.246C833.065 299.218 831.108 301.162 831.08 303.587C831.051 306.013 832.961 308.001 835.346 308.03C837.731 308.058 839.687 306.114 839.715 303.689C839.744 301.263 837.834 299.274 835.449 299.246Z" fill="#B9FFFF"/>
<path d="M785.718 344.945C780.772 344.886 776.715 348.917 776.656 353.947C776.597 358.978 780.558 363.103 785.504 363.161C790.449 363.219 794.506 359.189 794.566 354.158C794.625 349.128 790.663 345.003 785.718 344.945Z" fill="#B9FFFF"/>
<path d="M1092.33 458.021C1088.31 457.974 1085.01 461.251 1084.96 465.34C1084.92 469.43 1088.14 472.783 1092.16 472.831C1096.18 472.878 1099.48 469.601 1099.52 465.512C1099.57 461.422 1096.35 458.068 1092.33 458.021Z" fill="#B9FFFF"/>
<path d="M911.101 167.789C908.178 167.755 905.78 170.137 905.745 173.11C905.71 176.083 908.051 178.522 910.974 178.556C913.897 178.59 916.295 176.208 916.33 173.235C916.365 170.262 914.024 167.824 911.101 167.789Z" fill="#B9FFFF"/>
<path d="M883.812 391.321C882.44 391.305 881.315 392.423 881.299 393.818C881.282 395.213 882.381 396.357 883.752 396.373C885.124 396.389 886.249 395.271 886.265 393.876C886.282 392.481 885.183 391.337 883.812 391.321Z" fill="#B9FFFF"/>
<path d="M574.021 130.164C568.905 130.104 564.708 134.274 564.647 139.478C564.585 144.682 568.683 148.949 573.8 149.01C578.916 149.07 583.113 144.9 583.175 139.696C583.236 134.492 579.138 130.224 574.021 130.164Z" fill="#B9FFFF"/>
<path d="M487.362 213.321C483.898 213.28 481.057 216.103 481.016 219.626C480.974 223.149 483.748 226.037 487.212 226.078C490.675 226.119 493.517 223.296 493.558 219.774C493.6 216.251 490.825 213.362 487.362 213.321Z" fill="#B9FFFF"/>
<path d="M650.186 281.54C647.91 281.513 646.043 283.368 646.015 285.683C645.988 287.997 647.811 289.896 650.087 289.922C652.363 289.949 654.23 288.094 654.257 285.78C654.284 283.465 652.461 281.567 650.186 281.54Z" fill="#B9FFFF"/>
<path d="M72.4267 339.975C65.8488 339.898 60.4525 345.259 60.3738 351.949C60.2951 358.64 65.5638 364.126 72.1417 364.204C78.7196 364.281 84.1159 358.92 84.1946 352.229C84.2733 345.539 79.0046 340.052 72.4267 339.975Z" fill="#B9FFFF"/>
<path d="M93.221 147.548C88.1046 147.488 83.9073 151.658 83.8461 156.862C83.7849 162.066 87.883 166.333 92.9993 166.393C98.1157 166.454 102.313 162.284 102.374 157.08C102.435 151.876 98.3374 147.608 93.221 147.548Z" fill="#B9FFFF"/>
<path d="M452.922 11.3356C447.805 11.2754 443.608 15.4453 443.547 20.6493C443.486 25.8533 447.584 30.1207 452.7 30.1809C457.816 30.2411 462.014 26.0712 462.075 20.8672C462.136 15.6632 458.038 11.3958 452.922 11.3356Z" fill="#B9FFFF"/>
<path d="M143.825 176.454C139.791 176.406 136.482 179.694 136.434 183.797C136.385 187.899 139.616 191.264 143.65 191.311C147.684 191.359 150.993 188.071 151.041 183.968C151.09 179.866 147.859 176.501 143.825 176.454Z" fill="#B9FFFF"/>
<path d="M12.3939 95.3617C9.08425 95.3227 6.36916 98.0201 6.32956 101.386C6.28996 104.753 8.94085 107.513 12.2505 107.552C15.5601 107.591 18.2751 104.894 18.3147 101.527C18.3543 98.1611 15.7035 95.4006 12.3939 95.3617Z" fill="#B9FFFF"/>
<path d="M31.2755 133.964C27.7857 133.923 24.923 136.767 24.8812 140.316C24.8395 143.866 27.6345 146.777 31.1242 146.818C34.614 146.859 37.4768 144.015 37.5186 140.465C37.5603 136.916 34.7652 134.005 31.2755 133.964Z" fill="#B9FFFF"/>
<path d="M64.5025 0.670313C62.8477 0.650847 61.4901 1.99948 61.4703 3.68262C61.4505 5.36577 62.776 6.74607 64.4308 6.76554C66.0856 6.785 67.4431 5.43626 67.4629 3.75312C67.4827 2.06998 66.1573 0.689779 64.5025 0.670313Z" fill="#B9FFFF"/>
<path d="M162.873 64.5919C160.597 64.5651 158.73 66.42 158.703 68.7348C158.676 71.0496 160.498 72.9478 162.774 72.9746C165.05 73.0014 166.917 71.1465 166.944 68.8317C166.971 66.5169 165.149 64.6187 162.873 64.5919Z" fill="#B9FFFF"/>
<path d="M229.07 255.35C225.05 255.302 221.751 258.579 221.703 262.669C221.655 266.758 224.875 270.112 228.896 270.159C232.917 270.207 236.215 266.93 236.263 262.84C236.311 258.751 233.091 255.397 229.07 255.35Z" fill="#B9FFFF"/>
<path d="M346.574 224.42C341.457 224.36 337.26 228.53 337.199 233.734C337.138 238.938 341.236 243.206 346.352 243.266C351.468 243.326 355.666 239.156 355.727 233.952C355.788 228.748 351.69 224.481 346.574 224.42Z" fill="#B9FFFF"/>
<path d="M262.924 78.0404C259.635 78.0017 256.937 80.6822 256.897 84.0275C256.858 87.3728 259.492 90.116 262.781 90.1547C266.07 90.1934 268.768 87.5129 268.808 84.1676C268.847 80.8223 266.213 78.0791 262.924 78.0404Z" fill="#B9FFFF"/>
<path d="M361.646 278.128C358.09 278.086 355.174 280.984 355.131 284.6C355.089 288.216 357.936 291.182 361.492 291.224C365.047 291.266 367.964 288.368 368.006 284.752C368.049 281.135 365.201 278.17 361.646 278.128Z" fill="#B9FFFF"/>
</svg>
