<svg width="268" height="517" viewBox="0 0 268 517" fill="none" xmlns="http://www.w3.org/2000/svg">
<ellipse cx="261.99" cy="510.684" rx="6.01023" ry="6.31586" transform="rotate(-180 261.99 510.684)" fill="white" fill-opacity="0.4"/>
<ellipse cx="229.992" cy="510.684" rx="6.01023" ry="6.31586" transform="rotate(-180 229.992 510.684)" fill="white" fill-opacity="0.4"/>
<ellipse cx="197.995" cy="510.684" rx="6.01023" ry="6.31586" transform="rotate(-180 197.995 510.684)" fill="white" fill-opacity="0.4"/>
<ellipse cx="165.997" cy="510.684" rx="6.01023" ry="6.31586" transform="rotate(-180 165.997 510.684)" fill="white" fill-opacity="0.4"/>
<ellipse cx="134" cy="510.684" rx="6.01023" ry="6.31586" transform="rotate(-180 134 510.684)" fill="white" fill-opacity="0.4"/>
<ellipse cx="102.003" cy="510.684" rx="6.01023" ry="6.31586" transform="rotate(-180 102.003 510.684)" fill="white" fill-opacity="0.4"/>
<ellipse cx="70.0051" cy="510.684" rx="6.01023" ry="6.31586" transform="rotate(-180 70.0051 510.684)" fill="white" fill-opacity="0.4"/>
<ellipse cx="38.0077" cy="510.684" rx="6.01023" ry="6.31586" transform="rotate(-180 38.0077 510.684)" fill="white" fill-opacity="0.4"/>
<ellipse cx="6.01028" cy="510.684" rx="6.01023" ry="6.31586" transform="rotate(-180 6.01028 510.684)" fill="white" fill-opacity="0.4"/>
<ellipse cx="261.99" cy="477.06" rx="6.01023" ry="6.31586" transform="rotate(-180 261.99 477.06)" fill="white" fill-opacity="0.4"/>
<ellipse cx="229.992" cy="477.06" rx="6.01023" ry="6.31586" transform="rotate(-180 229.992 477.06)" fill="white" fill-opacity="0.4"/>
<ellipse cx="197.995" cy="477.06" rx="6.01023" ry="6.31586" transform="rotate(-180 197.995 477.06)" fill="white" fill-opacity="0.4"/>
<ellipse cx="165.997" cy="477.06" rx="6.01023" ry="6.31586" transform="rotate(-180 165.997 477.06)" fill="white" fill-opacity="0.4"/>
<ellipse cx="134" cy="477.06" rx="6.01023" ry="6.31586" transform="rotate(-180 134 477.06)" fill="white" fill-opacity="0.4"/>
<ellipse cx="102.003" cy="477.06" rx="6.01023" ry="6.31586" transform="rotate(-180 102.003 477.06)" fill="white" fill-opacity="0.4"/>
<ellipse cx="70.0051" cy="477.06" rx="6.01023" ry="6.31586" transform="rotate(-180 70.0051 477.06)" fill="white" fill-opacity="0.4"/>
<ellipse cx="38.0077" cy="477.06" rx="6.01023" ry="6.31586" transform="rotate(-180 38.0077 477.06)" fill="white" fill-opacity="0.4"/>
<ellipse cx="6.01028" cy="477.06" rx="6.01023" ry="6.31586" transform="rotate(-180 6.01028 477.06)" fill="white" fill-opacity="0.4"/>
<ellipse cx="261.99" cy="443.435" rx="6.01023" ry="6.31586" transform="rotate(-180 261.99 443.435)" fill="white" fill-opacity="0.4"/>
<ellipse cx="229.992" cy="443.435" rx="6.01023" ry="6.31586" transform="rotate(-180 229.992 443.435)" fill="white" fill-opacity="0.4"/>
<ellipse cx="197.995" cy="443.435" rx="6.01023" ry="6.31586" transform="rotate(-180 197.995 443.435)" fill="white" fill-opacity="0.4"/>
<ellipse cx="165.997" cy="443.435" rx="6.01023" ry="6.31586" transform="rotate(-180 165.997 443.435)" fill="white" fill-opacity="0.4"/>
<ellipse cx="134" cy="443.435" rx="6.01023" ry="6.31586" transform="rotate(-180 134 443.435)" fill="white" fill-opacity="0.4"/>
<ellipse cx="102.003" cy="443.435" rx="6.01023" ry="6.31586" transform="rotate(-180 102.003 443.435)" fill="white" fill-opacity="0.4"/>
<ellipse cx="70.0051" cy="443.435" rx="6.01023" ry="6.31586" transform="rotate(-180 70.0051 443.435)" fill="white" fill-opacity="0.4"/>
<ellipse cx="38.0077" cy="443.435" rx="6.01023" ry="6.31586" transform="rotate(-180 38.0077 443.435)" fill="white" fill-opacity="0.4"/>
<ellipse cx="6.01028" cy="443.435" rx="6.01023" ry="6.31586" transform="rotate(-180 6.01028 443.435)" fill="white" fill-opacity="0.4"/>
<ellipse cx="261.99" cy="409.81" rx="6.01023" ry="6.31586" transform="rotate(-180 261.99 409.81)" fill="white" fill-opacity="0.4"/>
<ellipse cx="229.992" cy="409.81" rx="6.01023" ry="6.31586" transform="rotate(-180 229.992 409.81)" fill="white" fill-opacity="0.4"/>
<ellipse cx="197.995" cy="409.81" rx="6.01023" ry="6.31586" transform="rotate(-180 197.995 409.81)" fill="white" fill-opacity="0.4"/>
<ellipse cx="165.997" cy="409.81" rx="6.01023" ry="6.31586" transform="rotate(-180 165.997 409.81)" fill="white" fill-opacity="0.4"/>
<ellipse cx="134" cy="409.81" rx="6.01023" ry="6.31586" transform="rotate(-180 134 409.81)" fill="white" fill-opacity="0.4"/>
<ellipse cx="102.003" cy="409.81" rx="6.01023" ry="6.31586" transform="rotate(-180 102.003 409.81)" fill="white" fill-opacity="0.4"/>
<ellipse cx="70.0051" cy="409.81" rx="6.01023" ry="6.31586" transform="rotate(-180 70.0051 409.81)" fill="white" fill-opacity="0.4"/>
<ellipse cx="38.0077" cy="409.81" rx="6.01023" ry="6.31586" transform="rotate(-180 38.0077 409.81)" fill="white" fill-opacity="0.4"/>
<ellipse cx="6.01028" cy="409.81" rx="6.01023" ry="6.31586" transform="rotate(-180 6.01028 409.81)" fill="white" fill-opacity="0.4"/>
<ellipse cx="261.99" cy="376.186" rx="6.01023" ry="6.31586" transform="rotate(-180 261.99 376.186)" fill="white" fill-opacity="0.4"/>
<ellipse cx="229.992" cy="376.186" rx="6.01023" ry="6.31586" transform="rotate(-180 229.992 376.186)" fill="white" fill-opacity="0.4"/>
<ellipse cx="197.995" cy="376.186" rx="6.01023" ry="6.31586" transform="rotate(-180 197.995 376.186)" fill="white" fill-opacity="0.4"/>
<ellipse cx="165.997" cy="376.186" rx="6.01023" ry="6.31586" transform="rotate(-180 165.997 376.186)" fill="white" fill-opacity="0.4"/>
<ellipse cx="134" cy="376.186" rx="6.01023" ry="6.31586" transform="rotate(-180 134 376.186)" fill="white" fill-opacity="0.4"/>
<ellipse cx="102.003" cy="376.186" rx="6.01023" ry="6.31586" transform="rotate(-180 102.003 376.186)" fill="white" fill-opacity="0.4"/>
<ellipse cx="70.0051" cy="376.186" rx="6.01023" ry="6.31586" transform="rotate(-180 70.0051 376.186)" fill="white" fill-opacity="0.4"/>
<ellipse cx="38.0077" cy="376.186" rx="6.01023" ry="6.31586" transform="rotate(-180 38.0077 376.186)" fill="white" fill-opacity="0.4"/>
<ellipse cx="6.01028" cy="376.186" rx="6.01023" ry="6.31586" transform="rotate(-180 6.01028 376.186)" fill="white" fill-opacity="0.4"/>
<ellipse cx="261.99" cy="342.561" rx="6.01023" ry="6.31586" transform="rotate(-180 261.99 342.561)" fill="white" fill-opacity="0.4"/>
<ellipse cx="229.992" cy="342.561" rx="6.01023" ry="6.31586" transform="rotate(-180 229.992 342.561)" fill="white" fill-opacity="0.4"/>
<ellipse cx="197.995" cy="342.561" rx="6.01023" ry="6.31586" transform="rotate(-180 197.995 342.561)" fill="white" fill-opacity="0.4"/>
<ellipse cx="165.997" cy="342.561" rx="6.01023" ry="6.31586" transform="rotate(-180 165.997 342.561)" fill="white" fill-opacity="0.4"/>
<ellipse cx="134" cy="342.561" rx="6.01023" ry="6.31586" transform="rotate(-180 134 342.561)" fill="white" fill-opacity="0.4"/>
<ellipse cx="102.003" cy="342.561" rx="6.01023" ry="6.31586" transform="rotate(-180 102.003 342.561)" fill="white" fill-opacity="0.4"/>
<ellipse cx="70.0051" cy="342.561" rx="6.01023" ry="6.31586" transform="rotate(-180 70.0051 342.561)" fill="white" fill-opacity="0.4"/>
<ellipse cx="38.0077" cy="342.561" rx="6.01023" ry="6.31586" transform="rotate(-180 38.0077 342.561)" fill="white" fill-opacity="0.4"/>
<ellipse cx="6.01028" cy="342.561" rx="6.01023" ry="6.31586" transform="rotate(-180 6.01028 342.561)" fill="white" fill-opacity="0.4"/>
<ellipse cx="261.99" cy="308.937" rx="6.01023" ry="6.31586" transform="rotate(-180 261.99 308.937)" fill="white" fill-opacity="0.4"/>
<ellipse cx="229.992" cy="308.937" rx="6.01023" ry="6.31586" transform="rotate(-180 229.992 308.937)" fill="white" fill-opacity="0.4"/>
<ellipse cx="197.995" cy="308.937" rx="6.01023" ry="6.31586" transform="rotate(-180 197.995 308.937)" fill="white" fill-opacity="0.4"/>
<ellipse cx="165.997" cy="308.937" rx="6.01023" ry="6.31586" transform="rotate(-180 165.997 308.937)" fill="white" fill-opacity="0.4"/>
<ellipse cx="134" cy="308.937" rx="6.01023" ry="6.31586" transform="rotate(-180 134 308.937)" fill="white" fill-opacity="0.4"/>
<ellipse cx="102.003" cy="308.937" rx="6.01023" ry="6.31586" transform="rotate(-180 102.003 308.937)" fill="white" fill-opacity="0.4"/>
<ellipse cx="70.0051" cy="308.937" rx="6.01023" ry="6.31586" transform="rotate(-180 70.0051 308.937)" fill="white" fill-opacity="0.4"/>
<ellipse cx="38.0077" cy="308.937" rx="6.01023" ry="6.31586" transform="rotate(-180 38.0077 308.937)" fill="white" fill-opacity="0.4"/>
<ellipse cx="6.01028" cy="308.937" rx="6.01023" ry="6.31586" transform="rotate(-180 6.01028 308.937)" fill="white" fill-opacity="0.4"/>
<ellipse cx="261.99" cy="275.312" rx="6.01023" ry="6.31586" transform="rotate(-180 261.99 275.312)" fill="white" fill-opacity="0.4"/>
<ellipse cx="229.992" cy="275.312" rx="6.01023" ry="6.31586" transform="rotate(-180 229.992 275.312)" fill="white" fill-opacity="0.4"/>
<ellipse cx="197.995" cy="275.312" rx="6.01023" ry="6.31586" transform="rotate(-180 197.995 275.312)" fill="white" fill-opacity="0.4"/>
<ellipse cx="165.997" cy="275.312" rx="6.01023" ry="6.31586" transform="rotate(-180 165.997 275.312)" fill="white" fill-opacity="0.4"/>
<ellipse cx="134" cy="275.312" rx="6.01023" ry="6.31586" transform="rotate(-180 134 275.312)" fill="white" fill-opacity="0.4"/>
<ellipse cx="102.003" cy="275.312" rx="6.01023" ry="6.31586" transform="rotate(-180 102.003 275.312)" fill="white" fill-opacity="0.4"/>
<ellipse cx="70.0051" cy="275.312" rx="6.01023" ry="6.31586" transform="rotate(-180 70.0051 275.312)" fill="white" fill-opacity="0.4"/>
<ellipse cx="38.0077" cy="275.312" rx="6.01023" ry="6.31586" transform="rotate(-180 38.0077 275.312)" fill="white" fill-opacity="0.4"/>
<ellipse cx="6.01028" cy="275.312" rx="6.01023" ry="6.31586" transform="rotate(-180 6.01028 275.312)" fill="white" fill-opacity="0.4"/>
<ellipse cx="261.99" cy="241.688" rx="6.01023" ry="6.31586" transform="rotate(-180 261.99 241.688)" fill="white" fill-opacity="0.4"/>
<ellipse cx="229.992" cy="241.688" rx="6.01023" ry="6.31586" transform="rotate(-180 229.992 241.688)" fill="white" fill-opacity="0.4"/>
<ellipse cx="197.995" cy="241.688" rx="6.01023" ry="6.31586" transform="rotate(-180 197.995 241.688)" fill="white" fill-opacity="0.4"/>
<ellipse cx="165.997" cy="241.688" rx="6.01023" ry="6.31586" transform="rotate(-180 165.997 241.688)" fill="white" fill-opacity="0.4"/>
<ellipse cx="134" cy="241.688" rx="6.01023" ry="6.31586" transform="rotate(-180 134 241.688)" fill="white" fill-opacity="0.4"/>
<ellipse cx="102.003" cy="241.688" rx="6.01023" ry="6.31586" transform="rotate(-180 102.003 241.688)" fill="white" fill-opacity="0.4"/>
<ellipse cx="70.0051" cy="241.688" rx="6.01023" ry="6.31586" transform="rotate(-180 70.0051 241.688)" fill="white" fill-opacity="0.4"/>
<ellipse cx="38.0077" cy="241.688" rx="6.01023" ry="6.31586" transform="rotate(-180 38.0077 241.688)" fill="white" fill-opacity="0.4"/>
<ellipse cx="6.01028" cy="241.688" rx="6.01023" ry="6.31586" transform="rotate(-180 6.01028 241.688)" fill="white" fill-opacity="0.4"/>
<ellipse cx="261.99" cy="208.063" rx="6.01023" ry="6.31586" transform="rotate(-180 261.99 208.063)" fill="white" fill-opacity="0.4"/>
<ellipse cx="229.992" cy="208.063" rx="6.01023" ry="6.31586" transform="rotate(-180 229.992 208.063)" fill="white" fill-opacity="0.4"/>
<ellipse cx="197.995" cy="208.063" rx="6.01023" ry="6.31586" transform="rotate(-180 197.995 208.063)" fill="white" fill-opacity="0.4"/>
<ellipse cx="165.997" cy="208.063" rx="6.01023" ry="6.31586" transform="rotate(-180 165.997 208.063)" fill="white" fill-opacity="0.4"/>
<ellipse cx="134" cy="208.063" rx="6.01023" ry="6.31586" transform="rotate(-180 134 208.063)" fill="white" fill-opacity="0.4"/>
<ellipse cx="102.003" cy="208.063" rx="6.01023" ry="6.31586" transform="rotate(-180 102.003 208.063)" fill="white" fill-opacity="0.4"/>
<ellipse cx="70.0051" cy="208.063" rx="6.01023" ry="6.31586" transform="rotate(-180 70.0051 208.063)" fill="white" fill-opacity="0.4"/>
<ellipse cx="38.0077" cy="208.063" rx="6.01023" ry="6.31586" transform="rotate(-180 38.0077 208.063)" fill="white" fill-opacity="0.4"/>
<ellipse cx="6.01028" cy="208.063" rx="6.01023" ry="6.31586" transform="rotate(-180 6.01028 208.063)" fill="white" fill-opacity="0.4"/>
<ellipse cx="261.99" cy="174.439" rx="6.01023" ry="6.31586" transform="rotate(-180 261.99 174.439)" fill="white" fill-opacity="0.4"/>
<ellipse cx="229.992" cy="174.439" rx="6.01023" ry="6.31586" transform="rotate(-180 229.992 174.439)" fill="white" fill-opacity="0.4"/>
<ellipse cx="197.995" cy="174.439" rx="6.01023" ry="6.31586" transform="rotate(-180 197.995 174.439)" fill="white" fill-opacity="0.4"/>
<ellipse cx="165.997" cy="174.439" rx="6.01023" ry="6.31586" transform="rotate(-180 165.997 174.439)" fill="white" fill-opacity="0.4"/>
<ellipse cx="134" cy="174.439" rx="6.01023" ry="6.31586" transform="rotate(-180 134 174.439)" fill="white" fill-opacity="0.4"/>
<ellipse cx="102.003" cy="174.439" rx="6.01023" ry="6.31586" transform="rotate(-180 102.003 174.439)" fill="white" fill-opacity="0.4"/>
<ellipse cx="70.0051" cy="174.439" rx="6.01023" ry="6.31586" transform="rotate(-180 70.0051 174.439)" fill="white" fill-opacity="0.4"/>
<ellipse cx="38.0077" cy="174.439" rx="6.01023" ry="6.31586" transform="rotate(-180 38.0077 174.439)" fill="white" fill-opacity="0.4"/>
<ellipse cx="6.01028" cy="174.439" rx="6.01023" ry="6.31586" transform="rotate(-180 6.01028 174.439)" fill="white" fill-opacity="0.4"/>
<ellipse cx="261.99" cy="140.814" rx="6.01023" ry="6.31586" transform="rotate(-180 261.99 140.814)" fill="white" fill-opacity="0.4"/>
<ellipse cx="229.992" cy="140.814" rx="6.01023" ry="6.31586" transform="rotate(-180 229.992 140.814)" fill="white" fill-opacity="0.4"/>
<ellipse cx="197.995" cy="140.814" rx="6.01023" ry="6.31586" transform="rotate(-180 197.995 140.814)" fill="white" fill-opacity="0.4"/>
<ellipse cx="165.997" cy="140.814" rx="6.01023" ry="6.31586" transform="rotate(-180 165.997 140.814)" fill="white" fill-opacity="0.4"/>
<ellipse cx="134" cy="140.814" rx="6.01023" ry="6.31586" transform="rotate(-180 134 140.814)" fill="white" fill-opacity="0.4"/>
<ellipse cx="102.003" cy="140.814" rx="6.01023" ry="6.31586" transform="rotate(-180 102.003 140.814)" fill="white" fill-opacity="0.4"/>
<ellipse cx="70.0051" cy="140.814" rx="6.01023" ry="6.31586" transform="rotate(-180 70.0051 140.814)" fill="white" fill-opacity="0.4"/>
<ellipse cx="38.0077" cy="140.814" rx="6.01023" ry="6.31586" transform="rotate(-180 38.0077 140.814)" fill="white" fill-opacity="0.4"/>
<ellipse cx="6.01028" cy="140.814" rx="6.01023" ry="6.31586" transform="rotate(-180 6.01028 140.814)" fill="white" fill-opacity="0.4"/>
<ellipse cx="261.99" cy="107.19" rx="6.01023" ry="6.31586" transform="rotate(-180 261.99 107.19)" fill="white" fill-opacity="0.4"/>
<ellipse cx="229.992" cy="107.19" rx="6.01023" ry="6.31586" transform="rotate(-180 229.992 107.19)" fill="white" fill-opacity="0.4"/>
<ellipse cx="197.995" cy="107.19" rx="6.01023" ry="6.31586" transform="rotate(-180 197.995 107.19)" fill="white" fill-opacity="0.4"/>
<ellipse cx="165.997" cy="107.19" rx="6.01023" ry="6.31586" transform="rotate(-180 165.997 107.19)" fill="white" fill-opacity="0.4"/>
<ellipse cx="134" cy="107.19" rx="6.01023" ry="6.31586" transform="rotate(-180 134 107.19)" fill="white" fill-opacity="0.4"/>
<ellipse cx="102.003" cy="107.19" rx="6.01023" ry="6.31586" transform="rotate(-180 102.003 107.19)" fill="white" fill-opacity="0.4"/>
<ellipse cx="70.0051" cy="107.19" rx="6.01023" ry="6.31586" transform="rotate(-180 70.0051 107.19)" fill="white" fill-opacity="0.4"/>
<ellipse cx="38.0077" cy="107.19" rx="6.01023" ry="6.31586" transform="rotate(-180 38.0077 107.19)" fill="white" fill-opacity="0.4"/>
<ellipse cx="6.01028" cy="107.19" rx="6.01023" ry="6.31586" transform="rotate(-180 6.01028 107.19)" fill="white" fill-opacity="0.4"/>
<ellipse cx="261.99" cy="73.565" rx="6.01023" ry="6.31586" transform="rotate(-180 261.99 73.565)" fill="white" fill-opacity="0.4"/>
<ellipse cx="229.992" cy="73.565" rx="6.01023" ry="6.31586" transform="rotate(-180 229.992 73.565)" fill="white" fill-opacity="0.4"/>
<ellipse cx="197.995" cy="73.565" rx="6.01023" ry="6.31586" transform="rotate(-180 197.995 73.565)" fill="white" fill-opacity="0.4"/>
<ellipse cx="165.997" cy="73.565" rx="6.01023" ry="6.31586" transform="rotate(-180 165.997 73.565)" fill="white" fill-opacity="0.4"/>
<ellipse cx="134" cy="73.565" rx="6.01023" ry="6.31586" transform="rotate(-180 134 73.565)" fill="white" fill-opacity="0.4"/>
<ellipse cx="102.003" cy="73.565" rx="6.01023" ry="6.31586" transform="rotate(-180 102.003 73.565)" fill="white" fill-opacity="0.4"/>
<ellipse cx="70.0051" cy="73.565" rx="6.01023" ry="6.31586" transform="rotate(-180 70.0051 73.565)" fill="white" fill-opacity="0.4"/>
<ellipse cx="38.0077" cy="73.565" rx="6.01023" ry="6.31586" transform="rotate(-180 38.0077 73.565)" fill="white" fill-opacity="0.4"/>
<ellipse cx="6.01028" cy="73.565" rx="6.01023" ry="6.31586" transform="rotate(-180 6.01028 73.565)" fill="white" fill-opacity="0.4"/>
<ellipse cx="261.99" cy="39.9404" rx="6.01023" ry="6.31586" transform="rotate(-180 261.99 39.9404)" fill="white" fill-opacity="0.4"/>
<ellipse cx="229.992" cy="39.9404" rx="6.01023" ry="6.31586" transform="rotate(-180 229.992 39.9404)" fill="white" fill-opacity="0.4"/>
<ellipse cx="197.995" cy="39.9404" rx="6.01023" ry="6.31586" transform="rotate(-180 197.995 39.9404)" fill="white" fill-opacity="0.4"/>
<ellipse cx="165.997" cy="39.9404" rx="6.01023" ry="6.31586" transform="rotate(-180 165.997 39.9404)" fill="white" fill-opacity="0.4"/>
<ellipse cx="134" cy="39.9404" rx="6.01023" ry="6.31586" transform="rotate(-180 134 39.9404)" fill="white" fill-opacity="0.4"/>
<ellipse cx="102.003" cy="39.9404" rx="6.01023" ry="6.31586" transform="rotate(-180 102.003 39.9404)" fill="white" fill-opacity="0.4"/>
<ellipse cx="70.0051" cy="39.9404" rx="6.01023" ry="6.31586" transform="rotate(-180 70.0051 39.9404)" fill="white" fill-opacity="0.4"/>
<ellipse cx="38.0077" cy="39.9404" rx="6.01023" ry="6.31586" transform="rotate(-180 38.0077 39.9404)" fill="white" fill-opacity="0.4"/>
<ellipse cx="6.01028" cy="39.9404" rx="6.01023" ry="6.31586" transform="rotate(-180 6.01028 39.9404)" fill="white" fill-opacity="0.4"/>
<ellipse cx="261.99" cy="6.31585" rx="6.01023" ry="6.31586" transform="rotate(-180 261.99 6.31585)" fill="white" fill-opacity="0.4"/>
<ellipse cx="229.992" cy="6.31585" rx="6.01023" ry="6.31586" transform="rotate(-180 229.992 6.31585)" fill="white" fill-opacity="0.4"/>
<ellipse cx="197.995" cy="6.31585" rx="6.01023" ry="6.31586" transform="rotate(-180 197.995 6.31585)" fill="white" fill-opacity="0.4"/>
<ellipse cx="165.997" cy="6.31585" rx="6.01023" ry="6.31586" transform="rotate(-180 165.997 6.31585)" fill="white" fill-opacity="0.4"/>
<ellipse cx="134" cy="6.31585" rx="6.01023" ry="6.31586" transform="rotate(-180 134 6.31585)" fill="white" fill-opacity="0.4"/>
<ellipse cx="102.003" cy="6.31585" rx="6.01023" ry="6.31586" transform="rotate(-180 102.003 6.31585)" fill="white" fill-opacity="0.4"/>
<ellipse cx="70.0051" cy="6.31585" rx="6.01023" ry="6.31586" transform="rotate(-180 70.0051 6.31585)" fill="white" fill-opacity="0.4"/>
<ellipse cx="38.0077" cy="6.31585" rx="6.01023" ry="6.31586" transform="rotate(-180 38.0077 6.31585)" fill="white" fill-opacity="0.4"/>
<ellipse cx="6.01028" cy="6.31585" rx="6.01023" ry="6.31586" transform="rotate(-180 6.01028 6.31585)" fill="white" fill-opacity="0.4"/>
</svg>
