<svg width="573" height="298" viewBox="0 0 573 298" fill="none" xmlns="http://www.w3.org/2000/svg">
<ellipse cx="6.99998" cy="290.368" rx="6.66124" ry="6.99998" transform="rotate(-90 6.99998 290.368)" fill="white" fill-opacity="0.4"/>
<ellipse cx="6.99998" cy="254.904" rx="6.66124" ry="6.99998" transform="rotate(-90 6.99998 254.904)" fill="white" fill-opacity="0.4"/>
<ellipse cx="6.99998" cy="219.441" rx="6.66124" ry="6.99998" transform="rotate(-90 6.99998 219.441)" fill="white" fill-opacity="0.4"/>
<ellipse cx="6.99998" cy="183.978" rx="6.66124" ry="6.99998" transform="rotate(-90 6.99998 183.978)" fill="white" fill-opacity="0.4"/>
<ellipse cx="6.99998" cy="148.515" rx="6.66124" ry="6.99998" transform="rotate(-90 6.99998 148.515)" fill="white" fill-opacity="0.4"/>
<ellipse cx="6.99998" cy="113.051" rx="6.66124" ry="6.99998" transform="rotate(-90 6.99998 113.051)" fill="white" fill-opacity="0.4"/>
<ellipse cx="6.99998" cy="77.5879" rx="6.66124" ry="6.99998" transform="rotate(-90 6.99998 77.5879)" fill="white" fill-opacity="0.4"/>
<ellipse cx="6.99998" cy="42.1245" rx="6.66124" ry="6.99998" transform="rotate(-90 6.99998 42.1245)" fill="white" fill-opacity="0.4"/>
<ellipse cx="6.99998" cy="6.66127" rx="6.66124" ry="6.99998" transform="rotate(-90 6.99998 6.66127)" fill="white" fill-opacity="0.4"/>
<ellipse cx="44.2666" cy="290.368" rx="6.66124" ry="6.99998" transform="rotate(-90 44.2666 290.368)" fill="white" fill-opacity="0.4"/>
<ellipse cx="44.2666" cy="254.904" rx="6.66124" ry="6.99998" transform="rotate(-90 44.2666 254.904)" fill="white" fill-opacity="0.4"/>
<ellipse cx="44.2666" cy="219.441" rx="6.66124" ry="6.99998" transform="rotate(-90 44.2666 219.441)" fill="white" fill-opacity="0.4"/>
<ellipse cx="44.2666" cy="183.978" rx="6.66124" ry="6.99998" transform="rotate(-90 44.2666 183.978)" fill="white" fill-opacity="0.4"/>
<ellipse cx="44.2666" cy="148.515" rx="6.66124" ry="6.99998" transform="rotate(-90 44.2666 148.515)" fill="white" fill-opacity="0.4"/>
<ellipse cx="44.2666" cy="113.051" rx="6.66124" ry="6.99998" transform="rotate(-90 44.2666 113.051)" fill="white" fill-opacity="0.4"/>
<ellipse cx="44.2666" cy="77.5879" rx="6.66124" ry="6.99998" transform="rotate(-90 44.2666 77.5879)" fill="white" fill-opacity="0.4"/>
<ellipse cx="44.2666" cy="42.1245" rx="6.66124" ry="6.99998" transform="rotate(-90 44.2666 42.1245)" fill="white" fill-opacity="0.4"/>
<ellipse cx="44.2666" cy="6.66127" rx="6.66124" ry="6.99998" transform="rotate(-90 44.2666 6.66127)" fill="white" fill-opacity="0.4"/>
<ellipse cx="81.5332" cy="290.368" rx="6.66124" ry="6.99998" transform="rotate(-90 81.5332 290.368)" fill="white" fill-opacity="0.4"/>
<ellipse cx="81.5332" cy="254.904" rx="6.66124" ry="6.99998" transform="rotate(-90 81.5332 254.904)" fill="white" fill-opacity="0.4"/>
<ellipse cx="81.5332" cy="219.441" rx="6.66124" ry="6.99998" transform="rotate(-90 81.5332 219.441)" fill="white" fill-opacity="0.4"/>
<ellipse cx="81.5332" cy="183.978" rx="6.66124" ry="6.99998" transform="rotate(-90 81.5332 183.978)" fill="white" fill-opacity="0.4"/>
<ellipse cx="81.5332" cy="148.515" rx="6.66124" ry="6.99998" transform="rotate(-90 81.5332 148.515)" fill="white" fill-opacity="0.4"/>
<ellipse cx="81.5332" cy="113.051" rx="6.66124" ry="6.99998" transform="rotate(-90 81.5332 113.051)" fill="white" fill-opacity="0.4"/>
<ellipse cx="81.5332" cy="77.5879" rx="6.66124" ry="6.99998" transform="rotate(-90 81.5332 77.5879)" fill="white" fill-opacity="0.4"/>
<ellipse cx="81.5332" cy="42.1245" rx="6.66124" ry="6.99998" transform="rotate(-90 81.5332 42.1245)" fill="white" fill-opacity="0.4"/>
<ellipse cx="81.5332" cy="6.66127" rx="6.66124" ry="6.99998" transform="rotate(-90 81.5332 6.66127)" fill="white" fill-opacity="0.4"/>
<ellipse cx="118.8" cy="290.368" rx="6.66124" ry="6.99998" transform="rotate(-90 118.8 290.368)" fill="white" fill-opacity="0.4"/>
<ellipse cx="118.8" cy="254.904" rx="6.66124" ry="6.99998" transform="rotate(-90 118.8 254.904)" fill="white" fill-opacity="0.4"/>
<ellipse cx="118.8" cy="219.441" rx="6.66124" ry="6.99998" transform="rotate(-90 118.8 219.441)" fill="white" fill-opacity="0.4"/>
<ellipse cx="118.8" cy="183.978" rx="6.66124" ry="6.99998" transform="rotate(-90 118.8 183.978)" fill="white" fill-opacity="0.4"/>
<ellipse cx="118.8" cy="148.515" rx="6.66124" ry="6.99998" transform="rotate(-90 118.8 148.515)" fill="white" fill-opacity="0.4"/>
<ellipse cx="118.8" cy="113.051" rx="6.66124" ry="6.99998" transform="rotate(-90 118.8 113.051)" fill="white" fill-opacity="0.4"/>
<ellipse cx="118.8" cy="77.5879" rx="6.66124" ry="6.99998" transform="rotate(-90 118.8 77.5879)" fill="white" fill-opacity="0.4"/>
<ellipse cx="118.8" cy="42.1245" rx="6.66124" ry="6.99998" transform="rotate(-90 118.8 42.1245)" fill="white" fill-opacity="0.4"/>
<ellipse cx="118.8" cy="6.66127" rx="6.66124" ry="6.99998" transform="rotate(-90 118.8 6.66127)" fill="white" fill-opacity="0.4"/>
<ellipse cx="156.067" cy="290.368" rx="6.66124" ry="6.99998" transform="rotate(-90 156.067 290.368)" fill="white" fill-opacity="0.4"/>
<ellipse cx="156.067" cy="254.904" rx="6.66124" ry="6.99998" transform="rotate(-90 156.067 254.904)" fill="white" fill-opacity="0.4"/>
<ellipse cx="156.067" cy="219.441" rx="6.66124" ry="6.99998" transform="rotate(-90 156.067 219.441)" fill="white" fill-opacity="0.4"/>
<ellipse cx="156.067" cy="183.978" rx="6.66124" ry="6.99998" transform="rotate(-90 156.067 183.978)" fill="white" fill-opacity="0.4"/>
<ellipse cx="156.067" cy="148.515" rx="6.66124" ry="6.99998" transform="rotate(-90 156.067 148.515)" fill="white" fill-opacity="0.4"/>
<ellipse cx="156.067" cy="113.051" rx="6.66124" ry="6.99998" transform="rotate(-90 156.067 113.051)" fill="white" fill-opacity="0.4"/>
<ellipse cx="156.067" cy="77.5879" rx="6.66124" ry="6.99998" transform="rotate(-90 156.067 77.5879)" fill="white" fill-opacity="0.4"/>
<ellipse cx="156.067" cy="42.1245" rx="6.66124" ry="6.99998" transform="rotate(-90 156.067 42.1245)" fill="white" fill-opacity="0.4"/>
<ellipse cx="156.067" cy="6.66127" rx="6.66124" ry="6.99998" transform="rotate(-90 156.067 6.66127)" fill="white" fill-opacity="0.4"/>
<ellipse cx="193.333" cy="290.368" rx="6.66124" ry="6.99998" transform="rotate(-90 193.333 290.368)" fill="white" fill-opacity="0.4"/>
<ellipse cx="193.333" cy="254.904" rx="6.66124" ry="6.99998" transform="rotate(-90 193.333 254.904)" fill="white" fill-opacity="0.4"/>
<ellipse cx="193.333" cy="219.441" rx="6.66124" ry="6.99998" transform="rotate(-90 193.333 219.441)" fill="white" fill-opacity="0.4"/>
<ellipse cx="193.333" cy="183.978" rx="6.66124" ry="6.99998" transform="rotate(-90 193.333 183.978)" fill="white" fill-opacity="0.4"/>
<ellipse cx="193.333" cy="148.515" rx="6.66124" ry="6.99998" transform="rotate(-90 193.333 148.515)" fill="white" fill-opacity="0.4"/>
<ellipse cx="193.333" cy="113.051" rx="6.66124" ry="6.99998" transform="rotate(-90 193.333 113.051)" fill="white" fill-opacity="0.4"/>
<ellipse cx="193.333" cy="77.5879" rx="6.66124" ry="6.99998" transform="rotate(-90 193.333 77.5879)" fill="white" fill-opacity="0.4"/>
<ellipse cx="193.333" cy="42.1245" rx="6.66124" ry="6.99998" transform="rotate(-90 193.333 42.1245)" fill="white" fill-opacity="0.4"/>
<ellipse cx="193.333" cy="6.66127" rx="6.66124" ry="6.99998" transform="rotate(-90 193.333 6.66127)" fill="white" fill-opacity="0.4"/>
<ellipse cx="230.6" cy="290.368" rx="6.66124" ry="6.99998" transform="rotate(-90 230.6 290.368)" fill="white" fill-opacity="0.4"/>
<ellipse cx="230.6" cy="254.904" rx="6.66124" ry="6.99998" transform="rotate(-90 230.6 254.904)" fill="white" fill-opacity="0.4"/>
<ellipse cx="230.6" cy="219.441" rx="6.66124" ry="6.99998" transform="rotate(-90 230.6 219.441)" fill="white" fill-opacity="0.4"/>
<ellipse cx="230.6" cy="183.978" rx="6.66124" ry="6.99998" transform="rotate(-90 230.6 183.978)" fill="white" fill-opacity="0.4"/>
<ellipse cx="230.6" cy="148.515" rx="6.66124" ry="6.99998" transform="rotate(-90 230.6 148.515)" fill="white" fill-opacity="0.4"/>
<ellipse cx="230.6" cy="113.051" rx="6.66124" ry="6.99998" transform="rotate(-90 230.6 113.051)" fill="white" fill-opacity="0.4"/>
<ellipse cx="230.6" cy="77.5879" rx="6.66124" ry="6.99998" transform="rotate(-90 230.6 77.5879)" fill="white" fill-opacity="0.4"/>
<ellipse cx="230.6" cy="42.1245" rx="6.66124" ry="6.99998" transform="rotate(-90 230.6 42.1245)" fill="white" fill-opacity="0.4"/>
<ellipse cx="230.6" cy="6.66127" rx="6.66124" ry="6.99998" transform="rotate(-90 230.6 6.66127)" fill="white" fill-opacity="0.4"/>
<ellipse cx="267.867" cy="290.368" rx="6.66124" ry="6.99998" transform="rotate(-90 267.867 290.368)" fill="white" fill-opacity="0.4"/>
<ellipse cx="267.867" cy="254.904" rx="6.66124" ry="6.99998" transform="rotate(-90 267.867 254.904)" fill="white" fill-opacity="0.4"/>
<ellipse cx="267.867" cy="219.441" rx="6.66124" ry="6.99998" transform="rotate(-90 267.867 219.441)" fill="white" fill-opacity="0.4"/>
<ellipse cx="267.867" cy="183.978" rx="6.66124" ry="6.99998" transform="rotate(-90 267.867 183.978)" fill="white" fill-opacity="0.4"/>
<ellipse cx="267.867" cy="148.515" rx="6.66124" ry="6.99998" transform="rotate(-90 267.867 148.515)" fill="white" fill-opacity="0.4"/>
<ellipse cx="267.867" cy="113.051" rx="6.66124" ry="6.99998" transform="rotate(-90 267.867 113.051)" fill="white" fill-opacity="0.4"/>
<ellipse cx="267.867" cy="77.5879" rx="6.66124" ry="6.99998" transform="rotate(-90 267.867 77.5879)" fill="white" fill-opacity="0.4"/>
<ellipse cx="267.867" cy="42.1245" rx="6.66124" ry="6.99998" transform="rotate(-90 267.867 42.1245)" fill="white" fill-opacity="0.4"/>
<ellipse cx="267.867" cy="6.66127" rx="6.66124" ry="6.99998" transform="rotate(-90 267.867 6.66127)" fill="white" fill-opacity="0.4"/>
<ellipse cx="305.133" cy="290.368" rx="6.66124" ry="6.99998" transform="rotate(-90 305.133 290.368)" fill="white" fill-opacity="0.4"/>
<ellipse cx="305.133" cy="254.904" rx="6.66124" ry="6.99998" transform="rotate(-90 305.133 254.904)" fill="white" fill-opacity="0.4"/>
<ellipse cx="305.133" cy="219.441" rx="6.66124" ry="6.99998" transform="rotate(-90 305.133 219.441)" fill="white" fill-opacity="0.4"/>
<ellipse cx="305.133" cy="183.978" rx="6.66124" ry="6.99998" transform="rotate(-90 305.133 183.978)" fill="white" fill-opacity="0.4"/>
<ellipse cx="305.133" cy="148.515" rx="6.66124" ry="6.99998" transform="rotate(-90 305.133 148.515)" fill="white" fill-opacity="0.4"/>
<ellipse cx="305.133" cy="113.051" rx="6.66124" ry="6.99998" transform="rotate(-90 305.133 113.051)" fill="white" fill-opacity="0.4"/>
<ellipse cx="305.133" cy="77.5879" rx="6.66124" ry="6.99998" transform="rotate(-90 305.133 77.5879)" fill="white" fill-opacity="0.4"/>
<ellipse cx="305.133" cy="42.1245" rx="6.66124" ry="6.99998" transform="rotate(-90 305.133 42.1245)" fill="white" fill-opacity="0.4"/>
<ellipse cx="305.133" cy="6.66127" rx="6.66124" ry="6.99998" transform="rotate(-90 305.133 6.66127)" fill="white" fill-opacity="0.4"/>
<ellipse cx="342.4" cy="290.368" rx="6.66124" ry="6.99998" transform="rotate(-90 342.4 290.368)" fill="white" fill-opacity="0.4"/>
<ellipse cx="342.4" cy="254.904" rx="6.66124" ry="6.99998" transform="rotate(-90 342.4 254.904)" fill="white" fill-opacity="0.4"/>
<ellipse cx="342.4" cy="219.441" rx="6.66124" ry="6.99998" transform="rotate(-90 342.4 219.441)" fill="white" fill-opacity="0.4"/>
<ellipse cx="342.4" cy="183.978" rx="6.66124" ry="6.99998" transform="rotate(-90 342.4 183.978)" fill="white" fill-opacity="0.4"/>
<ellipse cx="342.4" cy="148.515" rx="6.66124" ry="6.99998" transform="rotate(-90 342.4 148.515)" fill="white" fill-opacity="0.4"/>
<ellipse cx="342.4" cy="113.051" rx="6.66124" ry="6.99998" transform="rotate(-90 342.4 113.051)" fill="white" fill-opacity="0.4"/>
<ellipse cx="342.4" cy="77.5879" rx="6.66124" ry="6.99998" transform="rotate(-90 342.4 77.5879)" fill="white" fill-opacity="0.4"/>
<ellipse cx="342.4" cy="42.1245" rx="6.66124" ry="6.99998" transform="rotate(-90 342.4 42.1245)" fill="white" fill-opacity="0.4"/>
<ellipse cx="342.4" cy="6.66127" rx="6.66124" ry="6.99998" transform="rotate(-90 342.4 6.66127)" fill="white" fill-opacity="0.4"/>
<ellipse cx="379.667" cy="290.368" rx="6.66124" ry="6.99998" transform="rotate(-90 379.667 290.368)" fill="white" fill-opacity="0.4"/>
<ellipse cx="379.667" cy="254.904" rx="6.66124" ry="6.99998" transform="rotate(-90 379.667 254.904)" fill="white" fill-opacity="0.4"/>
<ellipse cx="379.667" cy="219.441" rx="6.66124" ry="6.99998" transform="rotate(-90 379.667 219.441)" fill="white" fill-opacity="0.4"/>
<ellipse cx="379.667" cy="183.978" rx="6.66124" ry="6.99998" transform="rotate(-90 379.667 183.978)" fill="white" fill-opacity="0.4"/>
<ellipse cx="379.667" cy="148.515" rx="6.66124" ry="6.99998" transform="rotate(-90 379.667 148.515)" fill="white" fill-opacity="0.4"/>
<ellipse cx="379.667" cy="113.051" rx="6.66124" ry="6.99998" transform="rotate(-90 379.667 113.051)" fill="white" fill-opacity="0.4"/>
<ellipse cx="379.667" cy="77.5879" rx="6.66124" ry="6.99998" transform="rotate(-90 379.667 77.5879)" fill="white" fill-opacity="0.4"/>
<ellipse cx="379.667" cy="42.1245" rx="6.66124" ry="6.99998" transform="rotate(-90 379.667 42.1245)" fill="white" fill-opacity="0.4"/>
<ellipse cx="379.667" cy="6.66127" rx="6.66124" ry="6.99998" transform="rotate(-90 379.667 6.66127)" fill="white" fill-opacity="0.4"/>
<ellipse cx="416.933" cy="290.368" rx="6.66124" ry="6.99998" transform="rotate(-90 416.933 290.368)" fill="white" fill-opacity="0.4"/>
<ellipse cx="416.933" cy="254.904" rx="6.66124" ry="6.99998" transform="rotate(-90 416.933 254.904)" fill="white" fill-opacity="0.4"/>
<ellipse cx="416.933" cy="219.441" rx="6.66124" ry="6.99998" transform="rotate(-90 416.933 219.441)" fill="white" fill-opacity="0.4"/>
<ellipse cx="416.933" cy="183.978" rx="6.66124" ry="6.99998" transform="rotate(-90 416.933 183.978)" fill="white" fill-opacity="0.4"/>
<ellipse cx="416.933" cy="148.515" rx="6.66124" ry="6.99998" transform="rotate(-90 416.933 148.515)" fill="white" fill-opacity="0.4"/>
<ellipse cx="416.933" cy="113.051" rx="6.66124" ry="6.99998" transform="rotate(-90 416.933 113.051)" fill="white" fill-opacity="0.4"/>
<ellipse cx="416.933" cy="77.5879" rx="6.66124" ry="6.99998" transform="rotate(-90 416.933 77.5879)" fill="white" fill-opacity="0.4"/>
<ellipse cx="416.933" cy="42.1245" rx="6.66124" ry="6.99998" transform="rotate(-90 416.933 42.1245)" fill="white" fill-opacity="0.4"/>
<ellipse cx="416.933" cy="6.66127" rx="6.66124" ry="6.99998" transform="rotate(-90 416.933 6.66127)" fill="white" fill-opacity="0.4"/>
<ellipse cx="454.2" cy="290.368" rx="6.66124" ry="6.99998" transform="rotate(-90 454.2 290.368)" fill="white" fill-opacity="0.4"/>
<ellipse cx="454.2" cy="254.904" rx="6.66124" ry="6.99998" transform="rotate(-90 454.2 254.904)" fill="white" fill-opacity="0.4"/>
<ellipse cx="454.2" cy="219.441" rx="6.66124" ry="6.99998" transform="rotate(-90 454.2 219.441)" fill="white" fill-opacity="0.4"/>
<ellipse cx="454.2" cy="183.978" rx="6.66124" ry="6.99998" transform="rotate(-90 454.2 183.978)" fill="white" fill-opacity="0.4"/>
<ellipse cx="454.2" cy="148.515" rx="6.66124" ry="6.99998" transform="rotate(-90 454.2 148.515)" fill="white" fill-opacity="0.4"/>
<ellipse cx="454.2" cy="113.051" rx="6.66124" ry="6.99998" transform="rotate(-90 454.2 113.051)" fill="white" fill-opacity="0.4"/>
<ellipse cx="454.2" cy="77.5879" rx="6.66124" ry="6.99998" transform="rotate(-90 454.2 77.5879)" fill="white" fill-opacity="0.4"/>
<ellipse cx="454.2" cy="42.1245" rx="6.66124" ry="6.99998" transform="rotate(-90 454.2 42.1245)" fill="white" fill-opacity="0.4"/>
<ellipse cx="454.2" cy="6.66127" rx="6.66124" ry="6.99998" transform="rotate(-90 454.2 6.66127)" fill="white" fill-opacity="0.4"/>
<ellipse cx="491.467" cy="290.368" rx="6.66124" ry="6.99998" transform="rotate(-90 491.467 290.368)" fill="white" fill-opacity="0.4"/>
<ellipse cx="491.467" cy="254.904" rx="6.66124" ry="6.99998" transform="rotate(-90 491.467 254.904)" fill="white" fill-opacity="0.4"/>
<ellipse cx="491.467" cy="219.441" rx="6.66124" ry="6.99998" transform="rotate(-90 491.467 219.441)" fill="white" fill-opacity="0.4"/>
<ellipse cx="491.467" cy="183.978" rx="6.66124" ry="6.99998" transform="rotate(-90 491.467 183.978)" fill="white" fill-opacity="0.4"/>
<ellipse cx="491.467" cy="148.515" rx="6.66124" ry="6.99998" transform="rotate(-90 491.467 148.515)" fill="white" fill-opacity="0.4"/>
<ellipse cx="491.467" cy="113.051" rx="6.66124" ry="6.99998" transform="rotate(-90 491.467 113.051)" fill="white" fill-opacity="0.4"/>
<ellipse cx="491.467" cy="77.5879" rx="6.66124" ry="6.99998" transform="rotate(-90 491.467 77.5879)" fill="white" fill-opacity="0.4"/>
<ellipse cx="491.467" cy="42.1245" rx="6.66124" ry="6.99998" transform="rotate(-90 491.467 42.1245)" fill="white" fill-opacity="0.4"/>
<ellipse cx="491.467" cy="6.66127" rx="6.66124" ry="6.99998" transform="rotate(-90 491.467 6.66127)" fill="white" fill-opacity="0.4"/>
<ellipse cx="528.733" cy="290.368" rx="6.66124" ry="6.99998" transform="rotate(-90 528.733 290.368)" fill="white" fill-opacity="0.4"/>
<ellipse cx="528.733" cy="254.904" rx="6.66124" ry="6.99998" transform="rotate(-90 528.733 254.904)" fill="white" fill-opacity="0.4"/>
<ellipse cx="528.733" cy="219.441" rx="6.66124" ry="6.99998" transform="rotate(-90 528.733 219.441)" fill="white" fill-opacity="0.4"/>
<ellipse cx="528.733" cy="183.978" rx="6.66124" ry="6.99998" transform="rotate(-90 528.733 183.978)" fill="white" fill-opacity="0.4"/>
<ellipse cx="528.733" cy="148.515" rx="6.66124" ry="6.99998" transform="rotate(-90 528.733 148.515)" fill="white" fill-opacity="0.4"/>
<ellipse cx="528.733" cy="113.051" rx="6.66124" ry="6.99998" transform="rotate(-90 528.733 113.051)" fill="white" fill-opacity="0.4"/>
<ellipse cx="528.733" cy="77.5879" rx="6.66124" ry="6.99998" transform="rotate(-90 528.733 77.5879)" fill="white" fill-opacity="0.4"/>
<ellipse cx="528.733" cy="42.1245" rx="6.66124" ry="6.99998" transform="rotate(-90 528.733 42.1245)" fill="white" fill-opacity="0.4"/>
<ellipse cx="528.733" cy="6.66127" rx="6.66124" ry="6.99998" transform="rotate(-90 528.733 6.66127)" fill="white" fill-opacity="0.4"/>
<ellipse cx="566" cy="290.368" rx="6.66124" ry="6.99998" transform="rotate(-90 566 290.368)" fill="white" fill-opacity="0.4"/>
<ellipse cx="566" cy="254.904" rx="6.66124" ry="6.99998" transform="rotate(-90 566 254.904)" fill="white" fill-opacity="0.4"/>
<ellipse cx="566" cy="219.441" rx="6.66124" ry="6.99998" transform="rotate(-90 566 219.441)" fill="white" fill-opacity="0.4"/>
<ellipse cx="566" cy="183.978" rx="6.66124" ry="6.99998" transform="rotate(-90 566 183.978)" fill="white" fill-opacity="0.4"/>
<ellipse cx="566" cy="148.515" rx="6.66124" ry="6.99998" transform="rotate(-90 566 148.515)" fill="white" fill-opacity="0.4"/>
<ellipse cx="566" cy="113.051" rx="6.66124" ry="6.99998" transform="rotate(-90 566 113.051)" fill="white" fill-opacity="0.4"/>
<ellipse cx="566" cy="77.5879" rx="6.66124" ry="6.99998" transform="rotate(-90 566 77.5879)" fill="white" fill-opacity="0.4"/>
<ellipse cx="566" cy="42.1245" rx="6.66124" ry="6.99998" transform="rotate(-90 566 42.1245)" fill="white" fill-opacity="0.4"/>
<ellipse cx="566" cy="6.66127" rx="6.66124" ry="6.99998" transform="rotate(-90 566 6.66127)" fill="white" fill-opacity="0.4"/>
</svg>
