<svg width="689" height="551" viewBox="0 0 689 551" fill="none" xmlns="http://www.w3.org/2000/svg">
<path d="M-246.449 151.122C-244.113 172.075 -236.413 192.009 -225.986 209.572C-218.106 217.841 -212.355 228.702 -203.999 240.075C-199.56 246.275 -194.286 252.336 -187.878 257.964C-188.522 257.205 -188.87 256.758 -189.334 256.11C-197.154 245.836 -198.539 241.867 -197.2 241.178C-195.89 240.597 -191.782 243.119 -187.978 245.117C-184.193 247.183 -180.797 248.904 -180.85 247.123C-180.873 246.233 -181.757 244.47 -183.862 241.438C-186.044 238.448 -189.283 234.012 -193.919 227.665C-191.512 233.733 -190.142 236.925 -193.149 235.732C-199.554 226.953 -206.545 215.123 -211.618 203.908C-212.79 201.027 -213.925 198.238 -214.995 195.602C-215.982 192.917 -216.705 190.206 -217.397 187.818C-218.854 183.09 -219.34 178.83 -219.459 176.127C-218.575 178.124 -217.732 180.025 -216.928 181.837C-216.068 183.569 -215.251 185.217 -214.468 186.786C-212.92 189.905 -211.737 192.876 -210.422 195.328C-207.958 200.388 -206.282 204.707 -204.594 208.23C-201.475 215.576 -199.009 220.552 -193.463 224.866C-182.184 240.89 -168.346 255.234 -162.764 262.549C-158.587 261.784 -150.37 264.832 -141.458 268.605C-137.218 274.454 -125.694 284.728 -113.458 293.981C-101.317 303.436 -88.6076 312.076 -83.1145 317.285C-82.815 317.108 -82.2687 317.089 -81.8716 316.966C-79.1102 318.951 -75.794 321.233 -71.28 324.147L-72.6392 317.149C-70.7654 317.424 -68.8159 317.774 -66.6958 318.23C-59.6707 322.511 -51.5931 327.542 -48.3068 331.058C-49.428 328.596 -54.629 324.112 -59.7029 319.772C-45.6164 323.176 -30.4996 327.11 -28.1305 324.389C-13.2151 336.584 -19.292 337.994 -10.9455 348.312C-14.0733 348.537 -13.7555 350.46 -3.07135 356.559C-3.79153 356.51 -4.66089 356.363 -6.1731 355.861L-1.30339 358.005C-1.82832 357.522 -2.17722 357.2 -2.57476 356.836C-0.298778 358.117 2.21841 359.488 5.38566 361.135L2.6803 352.032C9.93291 356.013 22.3736 361.397 26.7381 365.554C25.9817 364.157 23.6615 362.205 20.8709 360.088C31.2996 365.48 41.551 370.816 51.6593 376.594C49.4473 376.917 47.2655 377.01 45.2833 377.099L40.7373 375.33C42.3518 376.004 43.597 376.527 45.004 377.114C38.324 377.382 34.8001 377.64 48.5517 387.354C62.9094 391.166 77.3175 394.602 91.7088 397.9C83.2179 392.032 74.7452 386.177 66.6011 380.547C63.4894 377.831 59.5614 374.637 58.4203 372.565C80.5604 383.029 100.753 390.9 120.553 400.853C118.769 401.257 116.93 401.447 115.272 401.621C105.939 398.192 96.6482 394.639 87.3983 390.977C94.7885 394.991 102.273 398.785 109.751 402.679C108.932 403.175 109.188 404.08 110.824 405.571L108.209 404.945L112.525 406.979C113.92 408.047 115.706 409.282 118.297 410.894L122.721 411.797C134.337 417.193 146.043 422.425 157.825 427.543L170.951 421.545C175.262 422.95 179.112 424.206 182.803 425.41L184.206 426.019L173.63 424.044C188.948 430.445 204.391 436.657 220.025 442.474L222.454 441.227C225.776 443.219 228.688 445.24 231.475 447.388C234.287 446.123 241.026 445.544 236.268 442.435C243.945 444.49 251.67 446.387 259.401 448.278L254.241 442.662C269.667 447.201 277.858 450.691 284.678 454.896C274.989 455.705 265.833 456.87 250.103 451.354C264.166 458.791 273.46 463.664 283.583 468.49C289.207 471.189 295.128 473.879 302.319 476.874C266.981 481.007 222.017 471.328 193.795 481.727C239.527 492.344 212.354 494.932 249.173 507.743C260.595 511.281 272.037 514.791 283.57 518.112C269.737 509.299 256.115 500.326 242.675 491.193C259.277 494.798 272.461 498.543 284.049 502.411C280.577 503.455 276.133 504.495 281.819 508.165C277.895 503.349 290.309 506.265 304.156 509.722C327.786 518.679 348.084 528.008 386.687 531.709C387.516 531.338 388.085 530.989 388.76 530.651C398.383 532.652 408.637 534.385 419.747 536.076C407.305 532.832 401.766 527.151 391.903 521.919L389.607 522.866C384.53 518.258 376.532 514.791 408.087 511.516C426.61 513.945 436.048 515.978 440.918 518.057C431.736 520.114 423.207 522.693 416.243 526.551C420.504 526.951 423.923 527.271 427.027 527.564C432.242 533.465 435.311 535.385 441.79 537.845C448.42 540.259 458.394 543.889 477.927 551C491.279 548.459 474.902 545.044 458.821 540.191C462.603 540.9 467.804 541.205 471.714 541.029C466.479 540.49 461.23 540.02 456.052 539.344C444.898 535.922 434.641 531.865 434.266 528.516C452.993 531.357 441.897 537.119 471.714 541.029C483.04 542.039 494.452 542.884 506.095 543.112C503.048 542.146 499.998 541.259 497.01 540.226C498.536 540.34 500.054 540.377 501.891 540.408C495.383 538.332 489.002 536.138 482.726 533.797C505.537 534.168 519.07 534.876 525.052 537.115C531.05 539.213 529.386 542.793 521.801 546.192C540.613 544.157 552.955 542.824 561.842 541.862C571.041 541.043 577.034 540.786 582.452 540.616C587.944 540.185 592.857 539.927 600.317 537.245C607.654 534.546 617.864 530.086 632.366 517.735C620.559 523.689 610.254 525.452 600.596 527.101C590.957 528.297 581.845 529.354 571.871 531.189C580.597 529.314 589.495 526.433 598.376 523.116L591.865 523.582C597.08 521.697 602.412 519.223 608.181 516.097C609.543 514.269 610.181 512.951 610.506 511.86C616.574 509.635 619.116 509.465 620.737 510.392C622.358 511.275 622.975 513.045 625.261 513.493C626.405 513.713 627.977 513.603 630.323 512.835C632.643 511.902 635.745 510.241 639.897 507.445C643.89 504.37 649.268 500.022 655.143 492.86C658.174 489.42 660.942 485.064 664.038 480.271C666.778 475.247 669.806 469.686 672.061 463.077C668.674 471.791 665.336 476.025 663.785 478.025C662.097 479.965 661.594 479.413 661.677 477.629C661.894 474.038 664.216 465.63 663.953 461.185C665.702 458.461 667.407 455.408 668.819 452.149C669.59 450.698 670.406 449.17 671.49 446.678C672.602 444.451 673.717 441.716 675.002 438.555C675.625 436.953 676.286 435.261 676.976 433.481C677.564 431.676 677.989 429.74 678.516 427.709C678.015 423.58 677.392 421.563 676.768 421.147C676.986 416.686 676.769 412.235 676.639 407.878C676.319 403.554 675.598 399.372 675.017 395.344C674.53 391.339 673.34 387.472 672.531 383.982C671.787 380.785 671.13 377.739 670.425 375.347C669.106 370.368 668.331 366.385 668.517 363.854C668.649 361.482 669.8 360.41 672.383 361.154C675.771 367.474 678.384 372.48 680.085 377.485C680.494 378.735 680.884 379.925 681.258 381.061C681.656 382.367 682.034 383.613 682.397 384.803C683.093 387.2 683.647 389.372 683.875 391.408C684.966 399.569 685.013 405.141 684.286 411.718C685.152 406.946 686.619 405.766 688.257 405.267C687.289 399.141 686.074 393.471 684.748 388.299C683.936 385.707 683.066 383.226 682.205 380.86C681.428 378.796 680.688 376.815 679.974 374.913C678.412 371.395 676.834 368.363 675.346 365.529C673.868 362.647 672.4 360.216 670.942 358.211C665.234 349.678 660.462 345.473 656.23 342.023C647.647 335.396 641.146 332.178 628.2 317.111C626.375 314.501 624.151 311.698 620.771 308.311C619.609 306.972 618.507 305.698 617.203 304.195L616.552 304.559C612.923 301.443 608.423 297.856 602.413 293.901C604.366 296.514 606.11 299.002 607.747 301.607C586.684 278.063 566.024 261.717 546.371 247.13C546.014 246.707 545.506 246.109 545.155 245.693C543.647 242.992 544.097 241.485 544.825 240.086C524.61 223.989 514.176 220.051 506.278 218.065C497.655 211.656 488.938 205.242 480.098 197.976L466.385 200.123C465.752 199.663 465.239 199.289 464.612 198.833L463.082 200.655L462.523 200.723C458.386 187.136 432.174 171.102 406.891 153.276C387.734 144.684 368.172 136.431 348.724 128.672C348.699 128.656 348.654 128.627 348.654 128.627C347.509 128.183 346.547 127.813 345.506 127.411C346.55 127.81 347.512 128.18 348.577 128.589C336.014 121.921 326.355 116.227 342.554 119.974C320.016 112.568 328.609 117.292 314.462 115.688C314.352 115.652 314.281 115.667 314.171 115.641C302.253 111.442 290.637 107.606 279.275 104.193C272.763 100.567 265.901 96.7488 259.082 92.9501C250.295 90.1047 241.456 87.2399 232.641 84.3848C218.181 75.9823 211.833 68.5831 204.997 61.5961C198.179 54.5656 190.834 48.0125 174.15 41.7145C136.71 27.6949 104.912 19.0665 76.5206 13.6509C48.1257 8.23827 23.1751 5.9514 -1.10254 5.3851C-33.9644 0.100911 -62.4374 -1.01393 -89.035 1.3903C-115.637 3.95665 -140.12 9.0436 -166.036 20.7613C-178.961 26.5675 -191.821 33.9374 -205.693 45.8904C-219.361 57.8021 -230.971 72.8201 -238.278 90.8709C-245.494 108.842 -248.868 129.721 -246.449 151.122ZM425.715 500.633C392.66 495.313 374.917 491.448 358.898 488.389C348.858 486.393 339.507 484.608 327.645 482.126C334.437 480.44 345.975 481.499 358.082 481.863C362.919 483.42 368.124 485.176 374.537 486.976C377.322 483.053 386.476 482.677 397.571 482.278C403.083 482.158 409.175 481.822 415.02 481.388C417.986 481.07 420.907 480.687 423.701 480.202C426.283 479.758 430.514 479.093 433.757 478.152C425.404 477.492 419.575 476.379 411.916 475.421C404.49 474.404 396.656 473.202 389.593 471.852C375.477 469.119 364.481 465.804 365.85 462.582L374.11 463.871C345.423 456.68 338.058 463.825 320.492 462.875C316.595 461.02 314.291 459.259 315.054 457.702L323.886 459.627C319.859 458.338 316.19 457.4 312.834 456.671L314.122 456.892L301.434 444.352C284.917 442.973 269.196 442.894 251.104 439.24L246.321 433.927C238.736 432.852 231.246 432.172 223.777 431.217C220.614 429.994 217.429 428.752 214.082 427.265C218.99 422.806 211.064 418.183 196.797 413.187C188.74 406.7 174.699 399.637 208.346 411.22C209.981 411.195 211.23 411.129 212.301 411.051C218.695 416.826 232.231 420.675 241.78 423.598L241.228 427.56L251.896 428.999C251.487 430.192 248.92 431.478 243.156 432.842C259.756 435.052 260.881 432.742 257.672 429.703L264.376 430.53C258.206 427.379 252.03 424.368 245.941 421.117C245.149 419.876 249.28 420.636 265.627 425.326C292.632 423.248 244.843 420.34 250.798 415.731C243.458 418.143 232.209 418.055 216.278 410.596C219.338 409.889 215.533 408.721 210.02 407.331C209.715 407.171 209.437 407.059 209.218 406.91C209.245 407.003 209.315 407.079 209.35 407.161C200.873 405.102 189.313 402.236 192.717 399.99C184.374 402.359 171.663 401.439 153.964 391.748C154.331 391.842 154.652 391.93 155.022 392.025C155.815 387.755 138.097 377.03 117.32 367.471C126.39 372.628 117.7 373.777 115.715 376.184C113.877 378.349 117.954 382.14 148.938 390.428C154.691 399.599 176.986 405.726 187.583 410.08C168.492 404.013 142.605 396.883 119.444 388.718C114.055 386.168 109.106 383.718 103.283 380.77C104.129 381.794 105.734 383.01 106.915 384.11C94.5215 379.372 83.542 374.386 75.8858 369.526L82.902 375.607C76.4165 373.167 69.8058 370.674 63.3203 368.233C56.7649 363.901 53.1023 360.823 36.4334 352.469C44.4042 357.442 48.8266 360.848 51.5592 363.463C51.4005 363.398 51.2754 363.347 51.1472 363.296C45.4025 360.19 40.2208 357.19 34.055 353.639C34.9184 354.804 36.6436 356.24 37.8402 357.508C24.6152 351.526 13.0277 345.309 5.01472 339.488L12.9636 347.364L-2.49962 341.321C-12.5372 334.748 -14.5649 331.658 -27.984 323.149C-28.3287 321.161 -31.5522 317.527 -39.3862 311.348C-56.7378 306.789 -62.7545 306.743 -67.2682 307.186C-75.9858 302.857 -84.5992 298.27 -93.1491 293.506C-81.9727 300.781 -75.8301 305.005 -72.7135 307.562C-75.5629 307.579 -79.2033 307.049 -85.4938 304.972C-91.8061 302.927 -100.775 299.383 -114.09 292.676C-118.697 286.504 -120.251 282.234 -117.602 280.983C-114.959 279.732 -108.115 281.478 -95.6257 286.613C-99.2966 284.24 -101.972 282.228 -104.339 280.375C-102.356 279.409 -103.643 276.228 -109.659 269.506C-105.237 268.797 -98.8669 268.822 -105.818 260.617L-117.64 263.111C-129.055 258.366 -135.4 256.473 -139.711 255.652C-142.959 252.229 -146.182 248.806 -149.237 245.198C-152.364 241.683 -155.401 238.095 -158.286 234.37C-155.295 240.791 -151.836 246.893 -148.39 253.216C-158.461 243.798 -166.543 233.652 -173.54 223.591C-172.196 224.536 -171.143 225.275 -169.659 226.319C-178.72 216.221 -182.116 210.048 -182.965 206.922C-183.836 203.798 -182.097 203.544 -179.721 203.856C-174.908 204.564 -167.863 207.121 -172.172 196.199C-178.746 195.548 -185.416 194.465 -192.175 192.813C-193.216 190.848 -194.245 188.877 -195.397 186.935C-198.627 184.898 -199.382 186.757 -198.634 190.996C-200.086 187.682 -201.136 184.129 -202.199 180.638C-203.391 177.214 -204.035 173.548 -204.794 169.995C-203.204 165.927 -200.45 162.559 -197.644 158.219C-202.372 143.233 -200.507 132.281 -203.275 132.089C-200.425 119.769 -196.17 113.193 -193.45 110.842C-190.622 108.47 -189.563 109.955 -189.314 114.091C-187.961 113.852 -188.7 115.599 -189.569 118.315C-189.243 117.517 -188.912 116.707 -188.577 115.884C-188.133 115.119 -187.685 114.341 -187.231 113.557C-186.323 111.987 -185.397 110.382 -184.457 108.755C-182.074 105.866 -179.983 102.569 -177.053 100.067C-171.7 94.5459 -165.058 90.7153 -158.887 87.7838C-155.664 86.5708 -152.719 85.4419 -150.005 84.7438C-147.214 84.1777 -144.769 83.8478 -142.778 83.8212C-138.814 83.7181 -136.471 85.2836 -136.832 88.0464C-121.534 82.8764 -106.051 80.9653 -91.4555 80.4538C-76.8103 79.8992 -62.8025 81.1278 -49.1347 82.839C-21.7349 86.5366 4.52255 92.9628 34.9566 101.01L45.7762 96.892C63.8238 101.469 80.859 106.835 97.8267 112.737C102.42 117.274 101.571 121.385 104.783 126.039C107.988 130.688 115.218 135.826 135.723 143.146C128.417 140.352 123.271 139.521 113.16 137.633L128.467 149.156C124.539 148.002 120.756 146.828 117.373 145.519C115.309 144.253 112.731 143.05 109.852 141.986C107.091 140.441 104.762 138.773 103.235 136.88L108.654 137.692C101.839 134.068 94.9646 130.512 88.044 126.993C79.3584 129.069 85.7495 133.28 97.4725 138.15C83.9323 134.719 70.4788 132.517 50.0841 128.035C30.5082 121.197 34.0108 122.748 33.8184 124.24C22.8336 121.541 13.236 118.246 6.49442 114.358C9.26792 114.54 12.0329 114.663 14.8846 114.971C2.43863 111.075 -10.565 107.388 -23.7719 104.309C-31.4538 107.095 -25.693 109.883 -14.0756 113.036C-3.0414 115.712 14.9504 120.072 33.6608 124.607C32.6018 125.727 27.721 126.084 6.3493 123.041C14.3495 126.042 21.8899 127.198 29.9886 127.82C34.0791 128.155 38.2645 128.495 42.5144 128.841C46.8067 129.225 51.3589 129.684 55.4439 130.478C59.2093 131.592 62.8586 132.671 66.3276 133.697C67.168 133.957 67.9992 134.21 68.8182 134.46C69.4535 134.686 70.0796 134.908 70.6965 135.125C71.9242 135.573 73.1122 136.005 74.2544 136.42C78.8103 138.121 82.5921 139.666 85.1579 141.078C78.5839 140.162 70.7178 139.062 63.1731 138.009C58.7054 137.417 54.3356 136.838 50.2995 136.304C46.0847 135.852 42.2674 135.498 39.0892 135.308C26.4353 130.321 12.7996 125.609 -1.63957 121.166C-12.8262 121.287 -34.5715 120.27 -49.6666 122.054C-64.9195 123.684 -74.2102 126.891 -68.0837 128.825C-70.9454 130.404 -65.6475 130.563 -58.0317 130.775C-57.9767 130.797 -57.9062 130.804 -57.8358 130.818C-64.8622 131.337 -69.8999 131.736 -74.6114 132.314C-60.9149 131.842 -46.192 132.758 -31.2133 134.621C-30.0431 135.527 -30.7859 136.358 -34.3234 137.514C-30.766 136.751 -26.906 136.344 -23.0615 135.691C-16.819 136.631 -10.5506 137.716 -4.55492 138.781C-0.738284 142.582 -7.65749 144.151 -17.7417 143.892C-27.9175 143.594 -41.8849 141.808 -54.35 139.019C-70.7055 141.825 -56.9028 141.971 -44.1847 143.325C-37.807 143.99 -31.7071 144.795 -29.7792 145.426C-27.8515 146.069 -30.1072 146.183 -40.2346 146.204C-18.1399 149.318 -9.0177 151.063 -4.92504 150.952C-0.927844 150.872 -2.27856 149.411 -3.19537 147.828C-4.08136 146.236 -4.58223 144.496 2.22149 144.136C8.93661 143.747 23.4871 144.72 51.8146 150.385C67.0801 156.023 61.2005 156.566 51.5376 155.681C45.5396 154.036 39.4459 151.917 34.2179 149.204C20.2555 148.557 25.1092 150.488 32.7997 152.706C30.3856 152.475 27.885 152.293 25.255 152.169C28.5725 152.778 33.0152 153.411 37.7153 154.071C49.6282 157.393 62.1683 160.592 41.2381 157.822C61.843 163.47 69.8519 165.468 73.4924 165.47C77.0254 165.48 75.7501 163.612 76.8126 162.196C79.7644 162.34 82.7162 161.969 86.007 160.928C88.0202 161.08 90.6635 161.379 93.7156 161.864C104.028 167.464 125.102 170.525 131.639 174.068C129.905 174.238 127.088 174.046 123.237 173.439C127.005 174.597 130.276 175.771 133.263 176.838C132.904 177.333 132.331 177.854 131.269 178.418C153.752 184.498 165.284 185.803 176.002 186.706C183.173 188.977 190.611 191.017 194.874 192.83L186.048 193.556C171.278 190.16 157.321 186.951 143.936 183.874L142.334 181.621C131.606 178.226 121.43 175.558 111.24 173.603C101.01 171.683 90.9447 170.323 78.8017 170.654C72.5815 170.952 66.0002 171.43 57.2157 174.1C54.8138 174.917 52.4077 175.841 50.0619 176.842C47.292 178.189 44.6067 179.633 41.8528 181.434C40.3096 182.517 38.7994 183.673 37.3375 184.881C35.8788 186.09 34.5032 187.266 32.9401 188.997C29.936 192.253 27.237 195.653 24.9718 199.975C24.4044 201.019 23.8674 202.077 23.358 203.15C22.8768 204.168 22.2787 205.474 22.1062 206.061C21.5765 207.549 21.0833 209.066 20.6297 210.599C19.7348 213.67 18.959 216.79 18.4466 219.938C17.8657 226.295 17.6419 233.598 19.0052 239.204C19.5838 242.159 20.3085 245.209 21.1803 248.005C22.0783 250.405 23.0653 252.8 24.1416 255.165L25.8146 258.684C26.3844 259.789 26.9209 260.588 27.4923 261.552C28.6269 263.4 29.8106 265.239 31.0375 267.053C34.1704 268.74 36.3703 268.407 38.4579 268.232C49.9889 281.342 60.8877 287.962 71.8251 293.908C82.7714 299.621 93.8494 303.785 105.472 307.041C107.389 311.222 109.35 315.247 111.378 319.395C129.678 329.041 145.445 335.917 160.242 341.707C151.669 341.281 130.986 336.24 114.777 332.294C93.2387 327.024 79.1628 324.812 111.902 342.326C119.143 345.718 125.957 349.208 132.489 352.695C127.427 351.471 122.078 349.933 116.334 347.585C125.368 352.068 134.459 356.449 143.61 360.74C142.054 359.477 141.752 358.603 141.956 357.894C153.416 364.336 163.997 370.853 174.423 377.192C179.824 380.329 184.234 383.51 191.297 386.659C196.773 389.444 202.182 392.081 207.716 394.582C229.82 404.513 253.55 412.519 284.162 414.015C295.779 415.174 308.197 415.941 321.391 415.934C334.617 415.875 348.533 415.205 364.201 411.989C370.983 411.845 378.744 410.679 387.27 408.121C396.014 405.02 406.492 400.468 416.766 389.003C419.244 385.915 421.583 382.583 423.685 379.12C425.644 375.534 427.228 371.532 428.618 367.53C429.262 365.962 430.036 362.509 430.486 359.388C430.716 357.822 430.907 356.218 431.017 354.665C431.065 353.225 431.07 351.771 431.032 350.314C430.959 347.406 430.709 344.349 430.224 342.063C429.774 339.674 429.186 336.934 428.52 334.886C425.773 326.194 422.266 320.644 418.826 315.581C415.46 310.978 411.983 307.04 408.607 303.813C399.299 294.114 390.231 287.316 380.938 280.79C371.668 274.373 362.263 268.75 352.723 263.416C333.664 252.819 314.11 243.642 294.919 235.353C281.267 229.459 267.82 224.072 254.893 219.119C261.348 220.465 256.175 216.458 257.999 215.281C259.621 215.594 261.315 215.966 262.719 216.07C261.355 215.676 260.368 215.39 259.136 215.036C260.999 214.924 265.045 215.717 273.528 218.546C267.811 219.661 299.577 234.653 315.549 236.825C287.489 228.209 281.2 223.911 282.672 221.074C290.205 224.114 298.321 227.447 306.394 232.072C315.925 235.843 325.212 239.521 334.446 243.177C336.778 245.937 339.144 248.713 343.326 251.985C345.658 249.769 348.624 249.52 351.818 250.175C355.313 251.564 358.729 252.921 362.225 254.309C365.774 256.073 368.958 257.823 371.293 258.029C373.78 259.056 376.277 260.087 378.752 261.108C378.27 261.698 377.819 262.257 377.686 262.845C377.317 264.507 379.339 266.25 389.404 269.977L391.928 272.312L386.831 270.246C394.893 287.006 419.356 292.699 441.535 309.444C472.151 326.325 500.895 342.953 525.95 359.544C526.291 360.291 526.696 361.066 526.952 361.78C528.053 364.382 528.772 366.587 528.943 368.227C529.051 366.041 529.019 363.82 528.95 361.582C532.191 363.754 535.417 365.926 538.523 368.096C539.643 370.327 540.699 372.589 541.657 374.899C539.979 373.111 539.202 373.694 539.094 375.802C539.033 376.862 539.172 378.292 539.379 380.035C539.422 381.829 539.56 383.93 539.775 386.238C539.806 388.578 539.732 391.182 539.645 393.889C539.11 396.596 539.135 399.501 538.142 402.312L536.944 406.578L535.103 410.621C534.03 413.379 532.319 415.711 530.893 418.056C528.057 421.663 525.281 424.824 522.564 426.889C520.031 429.171 517.724 430.507 516.282 431.079C514.861 431.683 514.317 431.537 514.919 430.43C515.22 429.878 515.806 429.087 516.71 428.04C517.54 426.895 518.582 425.363 519.977 423.561C521.302 423.099 522.569 422.556 523.736 421.89C525.099 420.149 526.587 418.554 527.597 416.675C528.528 414.709 529.586 412.853 530.183 410.857C530.735 408.829 531.24 406.854 531.627 404.937C531.746 402.936 531.805 401.009 531.817 399.181C531.762 397.343 531.329 395.563 531.07 393.928C532.327 392.074 532.923 390.188 533.811 388.239C532.913 376.437 524.728 366.212 518.49 360.732C512.117 355.201 507.996 353.334 511.578 356.174C519.117 365.007 526.068 375.324 528.001 385.189C525.42 380.947 524.09 379.768 525.779 382.96C527.246 387.819 527.61 392.849 527.464 397.723C526.862 399.141 526.242 400.432 525.523 401.587L527.168 399.666C526.953 401.027 526.793 402.397 526.532 403.723C526.112 405.004 525.695 406.268 525.288 407.514C524.629 410.099 523.129 412.168 522.046 414.345C517.337 421.696 510.661 426.053 504.18 427.917C507.996 427.092 512.14 426.495 515.816 425.1C514.507 427.147 514.711 428.038 514.407 429.663C514.042 431.212 513.171 433.551 508.381 436.835C502.067 439.176 495.485 440.736 488.888 441.731C490.979 440.533 493.053 439.659 495.72 437.95C486.681 440.37 482.957 441.456 481.121 442.638C477.425 442.96 473.796 443.273 470.132 443.22C470.584 444.38 474.043 445.207 479.194 444.843C478.282 446.726 477.666 448.815 469.106 451.416C454.229 451.596 440.066 449.995 427.284 447.817C426.965 449.653 431.249 451.026 439.041 452.119C446.789 453.106 458.038 453.45 470.688 452.267C483.355 451.175 497.159 448.065 509.366 442.783C512.451 441.513 515.274 439.858 518.195 438.423C520.975 436.799 523.542 434.958 526.141 433.276C528.45 431.263 530.821 429.416 532.908 427.413C534.863 425.274 536.912 423.367 538.596 421.291C544.224 414.223 546.988 407.445 549.17 403.681C548.788 400.423 548.693 394.909 547.662 388.705C546.597 382.999 544.981 376.791 542.832 371.191C545.131 372.834 547.474 374.475 549.69 376.117C564.651 387.086 577.232 398.262 586.014 408.091C587.299 409.364 588.001 410.461 589.011 411.627C589.943 412.767 591.078 413.978 591.68 414.959L592.242 415.73L592.684 416.153C592.982 416.446 593.356 416.685 593.643 417.053L595.313 419.26C597.46 422.364 598.778 426.107 599.454 430.18C599.997 434.351 599.473 438.693 598.212 442.936C597.981 444.066 597.576 445.091 597.104 446.093C596.66 447.12 596.346 448.258 595.669 449.23C595.069 450.215 594.481 451.427 593.732 452.482L591.318 455.695C584.237 458.981 575.744 461.149 566.665 462.53C556.819 468.076 542.531 473.423 526.535 477.234C510.563 481.102 493.175 483.798 477.481 485.922C446.06 490.098 421.492 492.772 425.715 500.633ZM240.883 213.838C225.847 208.262 211.868 203.343 199.439 198.982C199.486 198.908 199.518 198.824 199.534 198.737C212.009 202.496 220.876 204.572 228.052 205.726C234.487 208.51 242.388 211.339 249.933 213.433L240.883 213.838ZM200.782 181.585C193.685 180.291 185.361 178.188 174.827 174.451C170.676 172.715 166.62 171.06 162.753 169.742C169.165 170.364 173.314 170.615 175.968 170.512C180.543 172.207 185.36 174.085 189.846 175.479C190.038 174.533 189.969 173.631 189.725 172.755C195.117 175.819 197.799 178.63 200.782 181.585ZM235.595 195.396C238.927 194.3 241.696 193.265 241.444 192.018L254.804 201.858C249.316 200.418 243.077 198.41 235.595 195.396ZM175.621 162.519C169.795 160.267 162.686 158.224 155.182 156.255C151.393 154.027 149.833 152.112 153.713 151.075C144.739 149.475 139.028 148.74 135.684 148.607L153.773 145.488C186.67 156.591 175.193 157.956 175.621 162.519ZM132.562 150.361C131.664 150.107 130.835 149.848 129.955 149.594L131.821 149.273C131.759 149.562 132.021 149.931 132.562 150.361ZM172.171 177.302C172.392 177.339 172.557 177.366 172.805 177.41L172.528 177.466C172.376 177.395 172.275 177.35 172.171 177.302ZM379.392 352.186C379.356 352.177 379.344 352.173 379.288 352.16C379.279 352.157 379.273 352.157 379.261 352.154C379.264 352.154 379.264 352.154 379.267 352.154C379.295 352.16 379.334 352.17 379.371 352.18L379.392 352.186ZM379.27 352.154C379.276 352.157 379.279 352.154 379.288 352.157L379.353 352.176C379.307 352.163 379.295 352.16 379.27 352.154ZM69.8282 224.847C69.7031 224.796 69.6634 224.78 69.8282 224.847V224.847ZM236.672 279.04C256.414 286.141 276.138 294.181 295.382 303.189C314.545 312.205 333.538 322.183 350.147 333.568C354.239 336.421 358.148 339.359 361.655 342.329C365.136 345.262 368.267 348.381 370.097 350.807C370.432 351.329 371.004 351.963 371.156 352.305C371.016 352.475 370.833 352.65 370.54 352.815C369.049 354.401 365.435 356.049 361.72 357.459C357.754 358.773 353.394 359.966 348.662 360.712C339.298 362.358 329.199 363.069 319.069 363.343C298.732 363.853 278.086 362.674 257.891 361.07C249.728 360.409 241.662 359.628 233.624 358.838C234.937 356.168 235.476 353.373 235.206 350.468C235.005 348.301 234.399 346.079 233.438 343.819C232.958 342.69 232.388 341.551 231.739 340.405L231.237 339.544C231.073 339.399 231.235 339.263 230.804 339.105L229.479 338.606C228.597 338.253 227.715 337.865 226.852 337.437L226.215 337.111L226.055 336.856L225.736 336.344C222.322 330.882 219.515 325.237 215.469 319.291C211.57 313.355 207.045 307.219 202.231 301.092C192.601 288.831 181.867 276.582 172.755 266.371C169.994 263.294 167.415 260.431 165.017 257.786C188.508 263.134 212.719 270.488 236.672 279.04ZM203.977 75.7685C203.95 75.7588 203.846 75.7232 203.846 75.7232C202.828 75.4336 201.868 75.1603 200.936 74.8967C201.868 75.1603 202.828 75.4336 203.818 75.7136C203.815 75.7135 203.95 75.7588 203.977 75.7685Z" fill="#1B4579"/>
</svg>
