<svg width="908" height="754" viewBox="0 0 908 754" fill="none" xmlns="http://www.w3.org/2000/svg">
<g opacity="0.44">
<path d="M148.142 383.246C158.958 383.207 151.751 388.599 151.182 391.73C150.528 394.712 157.122 396.13 194.443 385.494C193.012 381.334 171.747 381.159 148.142 383.246Z" fill="white"/>
<path d="M504.852 277.647C509.624 277.102 514.367 276.457 519.121 275.781C523.579 271.257 525.916 267.77 504.852 277.647Z" fill="white"/>
<path d="M527.609 274.584L519.122 275.781C513.836 281.022 505.374 287.509 527.609 274.584Z" fill="white"/>
<path d="M444.754 411.257C438.653 413.286 432.782 415.239 427.004 417.163C432.093 416.082 437.817 414.251 444.754 411.257Z" fill="white"/>
<path d="M378.179 431.188C330.443 444.45 337.333 427.738 372.553 411.539C328.819 424.79 333.902 436.146 287.166 442.643L290.805 451.212L264.556 454.942C268.743 455.329 265.503 458.064 262.735 460.835C260.171 463.546 258.292 466.272 265.154 466.771C263.082 465.923 262.966 464.951 264.263 463.894C265.751 462.782 268.483 461.618 272.157 460.363C279.465 457.87 290.239 455.069 300.152 452.323C319.989 446.825 336.362 441.668 314.689 440.998C346.664 442.069 382.285 431.844 427.004 417.165C412.068 420.383 403.054 417.312 389.604 417.285L378.179 431.188Z" fill="white"/>
<path d="M438.791 353.845C435.516 353.55 432.571 353.54 429.589 353.424C428.401 355.561 429.265 356.682 438.791 353.845Z" fill="white"/>
<path d="M156.266 426.179C145.233 428.438 134.18 430.651 123.045 432.589C141.091 430.045 151.051 427.709 156.266 426.179Z" fill="white"/>
<path d="M476.189 300.665L466.929 301.447C460.8 306.783 451.266 313.393 476.189 300.665Z" fill="white"/>
<path d="M451.296 302.607L466.928 301.452C472.041 296.757 474.767 293.224 451.296 302.607Z" fill="white"/>
<path d="M222.529 426.142C219.531 425.148 215.906 424.843 194.733 429.395C208.245 428.069 210.425 434.305 246.439 426.247C227.918 428.92 225.513 427.083 222.529 426.142Z" fill="white"/>
<path d="M361.367 383.688C343.289 389.242 325.097 394.377 306.835 399.217C324.287 395.297 341.687 391.061 359.019 386.487L361.367 383.688Z" fill="white"/>
<path d="M689.315 101.559C686.256 99.8752 686.234 102.471 686.946 107.06C689.838 110.755 691.879 110.066 689.315 101.559Z" fill="white"/>
<path d="M645.672 88.4147L647.36 91.0211C647.776 90.7013 646.932 89.6669 645.672 88.4147Z" fill="white"/>
<path d="M-81.9626 303.632C-83.5827 307.201 -84.665 312.681 -82.9672 320.335C-82.9276 320.574 -82.9011 320.818 -82.8273 321.087C-82.8087 321.019 -82.7689 321.076 -82.7303 321.065C-80.4802 328.29 -76.4296 336.687 -68.4857 345.881C-63.6711 349.959 -60.7535 351.548 -59.2621 352.023C-56.5555 354.629 -53.5019 356.8 -50.6063 358.523C-56.4922 346.946 -65.2459 336.029 -70.5387 319.33C-69.669 320.283 -68.8328 321.424 -67.5835 323.002C-68.8013 321.097 -70.1302 319.164 -71.0711 317.16C-72.4196 312.149 -71.5233 306.618 -69.2391 301.728C-67.0276 296.712 -63.6924 292.058 -59.5939 287.444C-51.336 278.251 -40.1801 268.889 -24.1356 259.325C-45.156 270.226 -58.8151 279.552 -69.6474 290.062C-69.3131 289.177 -68.893 288.355 -68.5304 287.493C-72.3129 290.913 -74.323 292.507 -77.4053 295.873C-78.699 297.749 -80.5543 299.84 -81.9626 303.632Z" fill="white"/>
<path d="M15.313 373.991C5.09194 372.046 -6.17779 369.55 -18.3123 364.886C-30.2105 360.025 -43.7462 353.285 -54.4626 339.379C-49.7283 347.025 -44.6114 352.545 -39.8346 357.124C-35.0371 361.696 -30.4603 365.349 -25.9036 368.779C-16.5929 375.35 -7.36455 381.043 7.47759 386.191C8.5665 382.697 16.9119 383.99 28.671 385.42C40.3269 386.94 56.1495 388.369 69.0449 386.962C60.0765 383.437 52.0056 381.068 43.3674 379.16C34.7563 377.267 25.5618 375.917 15.313 373.991Z" fill="white"/>
<path d="M117.018 359.255C115.28 359.099 113.377 358.945 111.104 358.793C113.023 358.97 115.035 359.107 117.018 359.255Z" fill="white"/>
<path d="M121.465 364.176L137.346 362.595L152.127 360.893L131.446 360.14C126.444 359.923 121.68 359.61 117.023 359.255C125.191 359.991 127.735 360.811 125.965 361.995C123.893 363.396 115.855 365.164 106.53 366.699C87.9623 370.015 64.2429 371.385 73.6236 374.556C80.2218 372.581 93.5102 371.883 105.854 370.812C118.155 369.787 129.37 368.428 129.583 366.876C132.177 366.668 135.052 366.432 137.21 366.173L129.521 366.623C129.112 365.904 126.621 365.119 121.465 364.176Z" fill="white"/>
<path d="M261.082 338.879L235.22 342.997C244.906 342.233 253.431 340.764 261.082 338.879Z" fill="white"/>
<path d="M484.789 396.08L465.851 402.348C469.536 402.238 478.961 399.103 484.789 396.08Z" fill="white"/>
<path d="M818.194 33.1429L813.696 26.2023C816.223 30.3006 818.881 34.5386 821.955 40.4567C820.74 38.024 819.57 35.513 818.194 33.1429Z" fill="white"/>
<path d="M656.665 310.312C661.169 308.58 666.241 305.892 672.184 302.093C666.88 304.902 661.693 307.651 656.665 310.312Z" fill="white"/>
<path d="M482.467 303.344C489.25 299.222 496.015 295.1 502.705 290.853C494.496 292.674 486.284 294.367 478.088 295.993L482.467 303.344Z" fill="white"/>
<path d="M276.089 405.801C288.315 403.914 290.582 409.458 323.055 400.302C289.469 406.673 314.141 395.059 276.089 405.801Z" fill="white"/>
<path d="M426.109 356.132C409.764 361.896 393.41 367.553 376.919 372.726C392.708 368.401 408.398 363.646 424.089 358.763L426.109 356.132Z" fill="white"/>
<path d="M153.963 178.022C147.568 180.256 140.204 183.331 131.501 188.307C137.333 185.903 146.873 181.675 153.963 178.022Z" fill="white"/>
<path d="M1.22199 363.83C9.68163 366.153 18.3738 367.836 27.2773 369.146C16.9036 365.715 7.23155 362.115 -2.06254 357.544C7.48835 361.793 9.3167 363.17 6.47115 363.618C3.66398 363.968 -3.74134 363.077 -11.7316 360.953C-19.7535 358.931 -28.2881 355.564 -33.9454 353.027C-39.6471 350.581 -42.6159 349.244 -40.3295 352.749C-33.4509 355.279 -19.651 362.434 -8.70131 365.487C2.2321 368.729 9.32755 369.47 1.22199 363.83Z" fill="white"/>
<path d="M168.21 363.935C158.353 362.469 174.671 354.537 176.974 352.248C167.86 358.306 155.176 363.876 137.206 366.18C147.549 365.612 157.886 364.854 168.21 363.935Z" fill="white"/>
<path d="M-193.113 398.98C-177.375 416.271 -157.476 429.15 -136.666 438.123C-124.196 440.411 -111.954 446.413 -97.0364 451.177C-89.0082 453.851 -80.3193 455.854 -70.8921 456.73C-71.9659 456.468 -72.5693 456.294 -73.4091 456.015C-87.1295 451.887 -90.9588 449.227 -90.2028 447.735C-89.4019 446.36 -84.0657 445.947 -79.3438 445.26C-74.5946 444.648 -70.4192 443.979 -71.6262 442.413C-72.2259 441.63 -74.169 440.623 -78.0358 439.273C-81.9442 438.012 -87.7449 436.139 -96.0457 433.463C-89.9318 437.342 -86.6221 439.315 -90.1031 440.204C-101.578 436.497 -115.566 430.433 -127.428 423.67C-130.357 421.847 -133.194 420.083 -135.872 418.413C-138.507 416.646 -140.921 414.683 -143.098 412.99C-147.485 409.695 -150.696 406.187 -152.561 403.837C-150.466 405.054 -148.471 406.211 -146.569 407.314C-144.668 408.309 -142.86 409.255 -141.135 410.154C-137.712 411.945 -134.715 413.842 -131.937 415.186C-126.426 418.124 -122.108 420.908 -118.296 422.971C-110.71 427.534 -105.254 430.395 -97.4571 430.652C-76.8831 437.687 -55.1 441.545 -45.3181 444.474C-42.0588 441.064 -32.6835 438.444 -22.2119 436.022C-14.591 438.51 2.46193 440.222 19.4902 440.553C36.5647 441.127 53.6203 440.6 61.9513 441.696C62.1053 441.341 62.5845 440.968 62.8615 440.599C66.6376 440.581 71.1057 440.468 77.0624 440.142L71.2857 434.745C73.15 433.77 75.1317 432.813 77.3351 431.84C86.4408 431.105 96.9804 430.355 102.225 431.371C99.6146 429.891 92.0175 429.255 84.6291 428.666C99.5154 422.539 115.673 416.216 116.034 412.229C137.387 413.455 132.839 418.683 147.062 422.506C144.395 424.747 145.931 426.266 159.512 424.777C158.832 425.203 157.954 425.637 156.268 426.173L162.043 424.923C161.257 424.831 160.733 424.769 160.139 424.702C163.02 424.369 166.176 423.959 170.097 423.372L161.739 416.962C170.854 415.809 185.549 412.533 192.18 413.42C190.59 412.659 187.233 412.418 183.345 412.337C196.235 410.379 208.929 408.488 221.782 407.086C220.002 408.818 218.1 410.324 216.375 411.696L211.135 413.071C213.026 412.624 214.486 412.282 216.134 411.892C210.3 416.487 207.298 419.016 225.989 418.773C241.385 412.836 256.582 406.528 271.674 400.107C260.217 400.374 248.785 400.64 237.795 400.894C233.228 400.484 227.616 400.177 225.241 399.06C251.967 394.022 275.253 387.926 299.541 383.954C298.199 385.479 296.669 386.85 295.29 388.087C284.664 391.092 273.994 393.959 263.291 396.701C272.551 395.488 281.753 394.015 291.013 392.636C290.599 393.615 291.418 394.26 293.86 394.533L291.101 395.675L296.307 394.689C298.257 394.738 300.667 394.682 304.047 394.44L308.614 392.367C322.574 389.64 336.51 386.706 350.438 383.62L358.342 369.677C363.134 368.128 367.414 366.746 371.518 365.421L373.177 365.052L362.378 370.175C380.322 365.936 398.256 361.445 416.106 356.476L417.478 353.773C421.764 353.396 425.698 353.313 429.603 353.424C431.309 350.456 436.994 345.542 430.691 345.851C438.934 342.692 447.118 339.359 455.303 336.017L447.006 334.338C463.836 328.357 473.475 326.152 482.346 325.48C474.158 332.523 466.68 339.539 448.94 344.841C466.431 342.35 477.962 340.666 490.209 338.401C497.024 337.158 504.101 335.713 512.518 333.714C483.421 360.463 436.676 381.086 418.058 408.822C466.105 388.541 443.346 408.58 484.803 396.08C497.381 391.809 509.957 387.502 522.492 382.965C504.313 384.069 486.22 384.894 468.187 385.455C485.467 377.868 499.764 372.636 512.704 368.554C510.261 371.756 506.94 375.587 514.443 375.175C507.779 373.409 520.844 367.934 535.549 362.011C562.634 354.648 586.963 349.792 624.097 327.948C624.601 327.075 624.886 326.391 625.273 325.646C635.23 321.17 645.582 316.041 656.676 310.316C643.374 315.514 634.694 314.025 622.417 315.758L620.967 318.104C613.402 317.276 603.952 319.378 630.204 295.865C648.447 285.971 658.259 281.643 663.993 280.334C657.073 288.167 651.079 296.044 647.326 304.048C651.419 301.629 654.703 299.688 657.685 297.927C666.217 299.826 670.227 299.549 677.656 297.534C685.191 295.379 696.525 292.136 718.723 285.788C729.08 274.801 712.126 282.411 694.502 288.538C698.366 286.709 703.243 283.591 706.645 280.885C701.585 283.814 696.558 286.813 691.461 289.583C679.2 293.781 667.333 296.825 664.816 294.063C683.511 284.405 677.279 296.813 706.645 280.885C717.491 274.407 728.306 267.727 738.927 260.341C735.558 261.46 732.237 262.652 728.877 263.672C730.324 262.78 731.713 261.823 733.386 260.653C726.18 263.032 719.013 265.223 711.844 267.211C732.605 252.673 745.238 244.487 752.076 242.597C758.837 240.57 759.67 244.87 755.059 252.866C770.657 238.776 780.891 229.532 788.259 222.874C796.001 216.143 801.224 212.005 805.987 208.32C810.646 204.352 814.898 200.918 819.863 193.646C824.706 186.439 830.988 175.779 835.994 155.234C829.248 168.278 821.126 176.578 813.511 184.356C805.62 191.714 798.111 198.603 790.334 206.753C796.963 199.381 803.092 190.994 808.921 182.225L803.368 186.888C806.832 181.796 810.018 176.099 813.173 169.53C813.208 167.002 812.924 165.402 812.507 164.21C816.518 158.256 818.693 156.447 820.754 156.223C822.787 155.959 824.494 157.146 826.842 156.058C828.014 155.509 829.357 154.386 830.967 152.167C832.447 149.816 834.156 146.303 836.071 141.085C837.661 135.721 839.669 128.31 840.293 118.05C840.78 112.986 840.435 107.269 840.101 100.947C839.295 94.6499 838.4 87.6827 836.128 80.2785C838.752 90.3106 838.505 96.2887 838.412 99.0956C838.155 101.937 837.344 101.77 836.258 100.115C834.116 96.7487 830.733 87.6852 827.603 83.8656C827.403 80.2786 826.949 76.4264 826.099 72.5795C825.849 70.7738 825.587 68.8699 824.941 65.9252C824.492 63.201 823.714 60.0182 822.814 56.3424C822.331 54.4974 821.825 52.5471 821.287 50.4998C820.641 48.4949 819.763 46.4804 818.916 44.3134C815.778 40.9314 813.905 39.5274 813.073 39.5606C810.365 35.4124 807.273 31.5577 804.321 27.7306C801.219 24.0566 797.848 20.7711 794.704 17.5334C791.66 14.2546 788.073 11.5589 785.073 8.9515C782.323 6.56635 779.749 4.25972 777.559 2.57184C773.133 -1.03892 769.843 -4.11031 768.363 -6.50415C766.938 -8.72051 767.275 -10.4331 770.083 -11.4482C777.244 -7.98289 782.852 -5.19084 787.64 -1.80616C788.821 -0.950576 789.947 -0.136862 791.022 0.640627C792.23 1.55294 793.381 2.42538 794.482 3.25679C796.669 4.95623 798.58 6.54473 800.11 8.22506C806.403 14.8416 810.072 19.8134 813.698 26.193C811.371 21.3437 811.923 19.3269 813.072 17.8117C808.215 12.9423 803.431 8.64356 798.873 4.86358C796.454 3.06573 794.058 1.40495 791.743 -0.157206C789.701 -1.50524 787.746 -2.80064 785.867 -4.04312C782.171 -6.18362 778.779 -7.8776 775.596 -9.45264C772.391 -11.0759 769.488 -12.3023 766.872 -13.1516C756.183 -17.0923 749.154 -17.7572 743.102 -18.0962C731.069 -18.4509 723.127 -17.102 701.676 -22.1902C698.335 -23.3447 694.51 -24.4109 689.266 -25.2487C687.349 -25.6939 685.529 -26.1191 683.378 -26.6187L683.029 -25.8675C677.737 -26.2994 671.355 -26.5868 663.374 -26.2189C666.832 -25.1471 670.019 -24.0496 673.188 -22.778C638.918 -30.1867 609.696 -31.3948 582.524 -31.68C581.928 -31.8264 581.081 -32.0326 580.495 -32.1773C577.381 -33.6191 576.805 -35.2663 576.549 -36.9965C547.889 -38.2713 535.941 -35.0052 527.543 -31.6394C515.616 -31.7728 503.6 -31.8481 490.92 -32.6099L479.982 -21.7419C479.114 -21.7423 478.408 -21.7432 477.548 -21.7448L477.357 -19.1106L476.899 -18.6849C464.335 -28.1879 430.321 -25.4963 395.977 -25.0194C373.154 -20.2452 350.186 -14.9028 327.642 -9.19077C327.61 -9.18917 327.55 -9.18502 327.55 -9.18502C326.231 -8.83725 325.125 -8.54257 323.927 -8.22498C325.126 -8.54736 326.232 -8.84211 327.457 -9.16982C311.816 -6.96597 299.422 -5.78228 316.431 -12.9785C291.338 -4.93479 302.143 -6.29524 288.373 1.48732C288.251 1.52705 288.197 1.58642 288.08 1.63462C274.627 5.63434 261.682 9.76224 249.24 14.1062C241.023 15.0949 232.366 16.1404 223.76 17.1753C214.004 20.349 204.188 23.5391 194.401 26.7221C175.926 28.6045 165.4 26.0989 154.703 24.2824C143.995 22.4146 133.123 21.319 114.017 26.5408C71.215 38.3605 36.9967 51.3434 7.93328 64.9902C-21.131 78.6417 -45.0627 92.8545 -67.2694 108.173C-100.268 124.852 -126.606 142.414 -148.966 161.913C-171.225 181.56 -189.936 202.088 -205.622 229.505C-213.469 243.145 -220.241 258.147 -224.939 277.922C-229.482 297.529 -230.152 318.583 -224.976 339.554C-219.771 360.395 -209.217 381.342 -193.113 398.98ZM638.978 274.601C605.782 291.373 587.307 299.47 570.906 307.168C560.577 311.921 551.003 316.414 538.718 321.918C543.73 315.977 554.798 309.406 565.925 301.84C571.289 300.085 577.114 298.267 584.055 295.703C584.007 290.365 591.996 284.06 601.715 276.468C606.597 272.767 611.857 268.493 616.832 264.294C619.294 262.074 621.672 259.825 623.869 257.569C625.902 255.487 629.276 252.132 631.581 249.172C623.638 254.025 617.67 256.826 610.157 260.96C602.816 264.888 594.986 268.915 587.755 272.308C573.278 279.056 561.23 283.249 560.365 279.463L568.633 275.236C538.149 287.481 536.173 298.697 519.755 309.297C515.042 310.172 511.823 310.092 511.496 308.197L520.694 304.168C516.232 305.636 512.321 307.185 508.828 308.719L510.131 308.077L490.557 305.089C474.801 314.619 460.609 324.797 441.957 333.311L434.197 331.659C426.675 335.638 419.494 339.911 412.154 343.922C408.513 344.887 404.84 345.848 400.862 346.695C402.374 339.491 392.236 340.508 376.151 345.322C364.681 344.751 347.455 347.563 385.259 336.027C386.714 334.939 387.794 334.065 388.707 333.297C398.217 334.314 412.897 328.946 423.39 325.345L425.471 329.262L436.004 323.599C436.412 324.937 434.94 327.765 430.644 332.748C447.014 323.91 446.522 321.102 441.658 320.466L448.227 316.838C440.625 318.031 433.111 319.353 425.518 320.405C423.997 319.806 428.208 317.795 445.965 311.35C468.904 291.878 424.024 320.423 426.381 312.402C421.349 319.353 411.173 326.607 391.988 330.295C394.281 327.666 390.098 329.098 384.234 331.444C383.856 331.499 383.533 331.579 383.239 331.588C383.324 331.655 383.436 331.678 383.521 331.728C374.555 335.406 362.293 340.369 363.892 336.133C357.929 343.699 345.897 351.16 323.669 353.996C324.061 353.842 324.407 353.712 324.801 353.556C322.735 349.205 299.818 351.126 274.908 356.088C286.422 354.805 279.353 361.502 279.134 364.957C278.89 368.1 285.025 368.846 318.289 356.089C329.432 360.572 353.475 351.538 365.841 348.54C344.72 355.538 316.793 366.013 290.646 373.781C284.139 375.005 278.092 376.031 270.936 377.18C272.364 377.547 274.599 377.594 276.376 377.811C262.145 381.637 249.024 384.318 238.974 384.945L249.243 385.832C241.821 387.868 234.252 389.94 226.83 391.977C218.114 392.36 212.816 391.984 192.385 395.35C202.791 394.619 208.986 394.794 213.146 395.36C212.961 395.406 212.815 395.442 212.666 395.479C205.477 396.435 198.864 397.12 191.007 397.951C192.542 398.434 195.028 398.599 196.93 398.958C181.14 402.208 166.671 404.18 155.675 404.177L167.951 406.067L150.109 410.722C136.802 411.364 132.967 409.912 115.359 411.02C113.755 409.459 108.489 408.297 97.4217 407.857C78.8467 415.076 73.4047 418.957 69.6328 422.297C58.9735 424.093 48.2403 425.59 37.4489 426.886C52.237 426.132 60.5115 425.92 64.9793 426.185C62.4269 428.057 58.8077 429.955 51.7978 432.191C44.7883 434.47 34.4145 437.135 18.0724 439.793C9.91113 437.255 5.73445 434.434 7.30335 431.584C8.86667 428.737 16.1589 425.844 30.7355 422.312C25.8888 422.574 22.1726 422.511 18.8372 422.391C19.993 420.231 16.7642 418.214 6.97915 416.1C10.495 412.581 16.2411 408.45 4.64822 405.615L-4.36262 415.561C-17.7184 418.742 -24.6579 421.179 -29.0708 423.252C-34.2197 422.296 -39.3463 421.324 -44.4425 420.076C-49.5428 418.959 -54.6104 417.716 -59.6295 416.253C-52.7599 420.068 -45.6778 423.292 -38.4623 426.723C-53.6511 424.833 -67.5242 420.992 -80.3665 416.519C-78.5418 416.491 -77.1139 416.469 -75.0993 416.438C-89.8218 413.278 -96.894 409.949 -99.693 407.696C-102.509 405.459 -101.111 404.097 -98.7701 402.828C-93.9796 400.327 -85.9783 398.029 -96.9631 391.032C-103.3 394.733 -110.005 398.109 -117.16 401.032C-119.375 399.946 -121.583 398.847 -123.883 397.855C-128.115 398.131 -127.583 400.293 -124.152 403.612C-127.615 401.582 -130.872 399.076 -134.1 396.635C-137.401 394.338 -140.366 391.466 -143.361 388.77C-144.578 384.081 -144.292 379.262 -144.594 373.535C-158.6 363.162 -164.05 352.112 -166.664 353.744C-172.119 340.824 -172.571 332.146 -171.654 328.261C-170.654 324.288 -168.735 324.931 -165.82 328.482C-164.759 327.385 -164.286 329.436 -163.3 332.441C-163.527 331.513 -163.756 330.569 -163.99 329.612C-164.088 328.635 -164.192 327.645 -164.294 326.645C-164.499 324.643 -164.71 322.598 -164.924 320.525C-164.66 316.377 -164.926 312.053 -163.918 307.896C-162.696 299.45 -159.215 291.68 -155.571 285.024C-153.462 281.834 -151.548 278.9 -149.561 276.505C-147.419 274.177 -145.434 272.286 -143.661 270.965C-140.162 268.288 -137.036 268.166 -135.562 270.882C-125.166 256.267 -112.483 244.457 -99.6867 234.482C-86.8741 224.436 -73.4744 216.407 -60.0663 209.033C-33.0132 194.491 -5.21195 183.143 27.4015 170.527L34.4536 159.776C53.6661 152.119 72.482 145.832 91.5859 140.07C98.6701 141.149 100.582 145.393 106.5 147.479C112.409 149.563 122.257 149.464 145.465 142.667C137.075 144.922 131.905 147.531 121.582 152.428L142.849 152.795C138.566 154.319 134.399 155.732 130.504 156.761C127.823 156.971 124.721 157.571 121.439 158.493C117.95 158.905 114.769 158.926 112.164 158.222L117.567 155.419C109.078 156.608 100.58 157.896 92.0646 159.248C85.6025 166.774 94.0924 166.389 107.807 163.119C93.3941 168.865 79.8596 175.659 58.5969 184.931C36.5382 191.553 40.6983 190.663 41.4963 192.128C29.8583 196.865 19.0807 200.164 10.4861 201.068C13.0996 199.423 15.6668 197.731 18.4324 196.148C4.70146 200.764 -9.3953 205.931 -23.2786 211.777C-28.3755 219.286 -21.3791 218.034 -8.87687 213.291C2.78972 208.5 21.8115 200.686 41.5929 192.559C41.3692 194.255 37.2116 197.758 16.0067 208.959C25.1564 206.438 32.6912 202.56 40.3812 197.839C44.2787 195.473 48.2645 193.049 52.3127 190.59C56.4238 188.136 60.8172 185.581 65.0084 183.63C69.1206 182.176 73.1052 180.765 76.8936 179.426C77.8185 179.111 78.7309 178.796 79.6302 178.486C80.3486 178.275 81.0567 178.067 81.7524 177.859C83.1483 177.461 84.4981 177.074 85.7961 176.703C91.0011 175.26 95.4084 174.181 98.6354 173.777C92.1255 177.24 84.3338 181.38 76.8622 185.353C72.4579 187.734 68.1507 190.064 64.1726 192.215C60.0872 194.557 56.4232 196.728 53.4406 198.629C38.8123 202.401 23.4804 207.06 7.60017 212.483C-2.38364 219.885 -22.6057 233.148 -35.0226 244.592C-47.6819 255.999 -53.9521 264.935 -47.1822 262.678C-48.7286 265.962 -43.8597 262.651 -36.8716 257.875C-36.8075 257.86 -36.7395 257.82 -36.6675 257.786C-42.6498 262.833 -46.9214 266.476 -50.7834 270.066C-38.7704 260.713 -24.931 251.937 -10.2444 243.845C-8.60231 243.896 -8.72991 245.126 -11.1594 248.47C-8.456 245.466 -5.24876 242.584 -2.21592 239.491C4.01148 236.266 10.3558 233.153 16.4425 230.201C22.3493 231.126 17.1464 237.045 7.90695 243.387C-1.43997 249.754 -15.1665 257.255 -28.1942 262.878C-41.0803 276.059 -28.5691 267.193 -16.2478 260.117C-10.0785 256.556 -4.06774 253.302 -1.92296 252.611C0.22981 251.933 -1.72505 253.505 -10.821 260.127C11.0803 248.519 20.4216 244.139 24.0308 241.371C27.5738 238.692 25.4084 238.262 23.5534 237.438C21.7204 236.586 20.1372 235.35 26.023 230.591C31.8102 225.864 45.5319 217.252 74.6994 203.87C92.1007 198.981 87.1648 203.301 77.8975 208.807C71.431 211.239 64.5711 213.31 58.1027 214.283C45.1218 222.803 50.7451 221.374 59.1062 218.352C56.7843 219.718 54.4164 221.185 51.9696 222.787C55.3506 221.172 59.7586 218.844 64.4162 216.373C77.2941 211.589 90.6557 206.286 70.026 217.444C92.2366 209.082 100.74 205.654 104.017 203.283C107.201 200.989 104.838 200.143 104.872 198.179C107.621 196.384 110.035 194.126 112.318 191.047C114.228 189.87 116.8 188.416 119.861 186.862C132.782 185.166 153.731 174.176 161.917 173.095C160.467 174.379 157.808 176.042 153.949 178.008C158.092 176.591 161.798 175.513 165.18 174.524C165.18 175.203 165.002 176.044 164.415 177.243C188.595 168.044 199.818 161.698 210.046 155.522C217.975 152.886 225.994 149.868 231.008 148.717L223.542 155.123C208.045 161.702 193.402 167.92 179.359 173.883L176.452 172.905C164.592 176.851 153.703 181.088 143.265 185.977C132.813 190.922 122.874 196.263 112.167 204.477C106.765 208.8 101.157 213.519 94.9924 221.644C93.3637 223.943 91.8001 226.341 90.3421 228.77C88.7266 231.784 87.251 234.831 85.9465 238.245C85.2633 240.223 84.6566 242.245 84.1283 244.283C83.6029 246.32 83.1306 248.272 82.8516 250.846C82.2683 255.728 82.053 260.54 82.8283 265.897C82.9977 267.205 83.203 268.505 83.4432 269.801C83.6726 271.028 83.9847 272.591 84.212 273.231C84.7039 274.912 85.2472 276.595 85.8367 278.267C87.0308 281.609 88.3633 284.916 89.9511 288.076C93.5659 294.163 98.1176 300.866 102.992 305.011C105.436 307.287 108.073 309.553 110.677 311.495C113.047 313.065 115.493 314.572 118 315.994L121.796 318.063C123.028 318.684 124.03 319.051 125.172 319.545C127.395 320.464 129.656 321.343 131.941 322.173C135.857 321.645 137.619 319.912 139.383 318.394C158.287 322.648 172.399 321.486 186.108 319.695C199.672 317.688 212.347 314.205 224.92 309.552C229.366 312.056 233.75 314.392 238.273 316.794C261.012 313.524 279.67 309.42 296.748 304.972C288.76 310.179 266.874 319.136 249.726 326.16C226.922 335.47 212.821 342.66 253.669 337.042C262.39 335.367 270.79 334.059 278.935 332.931C273.586 335.133 267.773 337.238 261.078 338.875C272.122 337.01 283.151 335.017 294.174 332.904C291.953 332.784 291.112 332.197 290.835 331.427C305.336 329.741 319.094 328.694 332.6 327.589C339.499 326.884 345.536 326.865 353.939 325.089C360.676 324.019 367.259 322.86 373.865 321.499C400.21 316.005 426.766 307.724 455.276 289.109C466.48 282.578 478.149 275.17 490.013 266.562C501.871 257.886 513.954 248.213 525.953 235.111C531.96 230.559 538.183 224.453 544.187 216.598C550.034 208.114 556.496 197.195 558.276 180.202C558.496 175.815 558.432 171.298 558.068 166.818C557.497 162.321 556.316 157.695 554.963 153.195C554.522 151.367 552.97 147.762 551.344 144.666C550.532 143.11 549.659 141.545 548.748 140.08C547.854 138.755 546.912 137.447 545.929 136.163C543.971 133.599 541.757 131.017 539.833 129.281C537.873 127.43 535.562 125.353 533.63 123.948C525.502 117.934 518.734 115.237 512.345 112.934C506.322 110.994 500.631 109.726 495.494 109.029C480.809 106.388 468.227 106.196 455.621 106.395C443.107 106.676 430.988 107.759 418.935 109.189C394.894 112.1 371.332 116.608 348.675 121.676C332.558 125.284 316.957 129.213 302.105 133.194C308.788 130.194 301.527 129.968 302.401 127.723C304.063 126.946 305.83 126.176 307.16 125.354C305.678 125.889 304.604 126.276 303.265 126.761C304.867 125.445 309.022 123.52 318.495 120.53C314.077 125.259 352.409 118.01 368.189 109.548C337.342 120.105 328.888 120.346 328.365 116.839C337.12 114.657 346.59 112.359 356.862 111.249C367.889 108.421 378.636 105.67 389.322 102.932C393.216 103.89 397.151 104.84 403.042 105.051C403.698 101.541 406.203 99.3845 409.503 97.8904C413.551 96.8586 417.507 95.8497 421.554 94.8179C425.895 94.0877 429.898 93.5832 432.132 92.2454C435.038 91.5464 437.955 90.8442 440.846 90.1473C440.796 90.9917 440.754 91.7881 441.018 92.4025C441.767 94.1351 444.72 94.3815 456.2 91.167L459.99 91.6179L454.06 93.0863C472.219 102.878 497.93 92.0429 528.778 92.618C567.304 87.8163 603.982 84.0074 637.317 82.5702C638.11 83.0182 638.978 83.4504 639.673 83.9252C642.357 85.5438 644.439 87.0544 645.66 88.4153C644.335 86.3822 642.86 84.4085 641.342 82.4442C645.671 82.2816 649.986 82.1288 654.192 82.0527C656.652 83.3253 659.074 84.6676 661.439 86.1179C658.765 85.606 658.446 86.6364 659.721 88.5989C660.356 89.5907 661.412 90.784 662.732 92.2145C663.939 93.7974 665.43 95.594 667.126 97.526C668.676 99.607 670.305 101.993 671.988 104.48C673.269 107.26 675.181 109.852 676.118 113.024L677.817 117.635L678.792 122.466C679.622 125.641 679.601 128.85 679.844 131.885C679.64 136.973 679.201 141.622 678.1 145.247C677.307 148.947 676.102 151.651 675.177 153.105C674.292 154.574 673.707 154.797 673.528 153.411C673.44 152.719 673.452 151.626 673.584 150.096C673.585 148.528 673.526 146.473 673.608 143.945C674.499 142.667 675.285 141.353 675.901 139.994C675.995 137.542 676.295 135.14 675.981 132.795C675.538 130.422 675.282 128.065 674.52 125.884C673.697 123.704 672.865 121.602 671.966 119.628C670.771 117.754 669.57 115.985 668.391 114.335C667.146 112.721 665.598 111.405 664.3 110.106C664.225 107.622 663.533 105.54 663.063 103.211C654.575 93.1992 640.557 89.3539 631.38 88.5008C622.048 87.689 617.125 88.6994 622.196 88.9142C634.726 91.9301 647.693 96.662 655.852 104.26C650.769 102.134 648.806 101.942 652.403 103.707C656.885 107.113 660.486 111.392 663.526 115.864C663.908 117.531 664.19 119.093 664.295 120.599L664.525 117.802C665.217 119.164 665.965 120.499 666.593 121.86C667.048 123.283 667.497 124.69 667.941 126.075C669.031 128.825 669.029 131.661 669.471 134.322C670.019 143.991 666.85 152.256 662.233 158.155C665.129 154.926 668.468 151.689 670.866 148.04C671.021 150.731 671.784 151.398 672.568 153.056C673.248 154.685 673.987 157.352 671.817 163.424C667.659 169.642 662.754 175.334 657.469 180.528C658.569 178.09 659.866 175.953 661.153 172.679C654.597 180.745 651.954 184.148 651.072 186.406C647.957 189.105 644.896 191.752 641.566 194.093C642.727 194.839 646.377 193.327 650.773 189.642C651.179 191.927 651.984 194.205 645.977 202.121C632.712 211.982 618.93 219.777 606.015 226.154C606.923 228.012 611.67 226.452 619.391 222.353C627.003 218.188 637.345 211.163 647.954 201.854C658.637 192.615 669.03 180.823 676.574 168.123C678.522 164.97 679.984 161.645 681.678 158.452C683.121 155.182 684.232 151.855 685.475 148.65C686.242 145.337 687.172 142.133 687.747 138.974C688.113 135.779 688.715 132.731 688.878 129.768C689.341 119.753 687.416 111.866 686.928 107.063C684.464 104.387 680.791 99.4978 675.826 94.5991C671.155 90.1701 665.66 85.6499 660.083 82.0225C663.22 81.9987 666.395 81.9445 669.457 81.9738C690.054 82.0701 708.644 83.9025 722.941 87.0038C724.925 87.3081 726.27 87.8356 727.938 88.2238C729.518 88.6405 731.328 88.9875 732.507 89.4754L733.514 89.8017L734.188 89.8931C734.646 89.963 735.138 89.9329 735.636 90.0765L738.574 90.9689C742.526 92.3564 746.147 94.8584 749.406 98.0746C752.609 101.466 754.964 105.706 756.591 110.338C757.118 111.503 757.421 112.687 757.649 113.895C757.918 115.107 758.376 116.333 758.4 117.647C758.5 118.923 758.761 120.395 758.774 121.83L758.693 126.289C754.463 133.856 748.234 141.339 740.966 148.499C735.719 159.897 726.347 174.013 714.439 187.864C702.588 201.749 688.703 215.506 675.968 227.645C650.422 251.878 630.064 270.296 638.978 274.601ZM286.067 137.585C268.912 142.381 253.136 147.078 239.119 151.265C239.112 151.168 239.086 151.072 239.044 150.983C252.712 146.225 262.039 142.308 269.245 138.667C276.845 136.971 285.793 134.36 293.943 131.322L286.067 137.585ZM229.004 134.769C221.778 138.234 212.921 141.771 201.014 145.284C196.15 146.431 191.425 147.59 187.088 148.927C193.26 145.305 197.156 142.826 199.477 141.003C204.695 139.542 210.251 138.088 215.193 136.416C214.75 135.441 214.101 134.676 213.311 134.048C220.156 133.284 224.397 134.06 229.004 134.769ZM269.307 124.473C271.59 121.317 273.408 118.583 272.369 117.627L290.792 117.752C284.917 120.037 277.999 122.302 269.307 124.473ZM193.962 134.053C187.256 135.828 179.532 138.629 171.501 141.752C166.642 142.222 163.993 141.519 166.808 138.059C157.695 142.473 152.079 145.536 148.984 147.597L163.226 133.004C200.043 121.526 190.608 130.235 193.962 134.053ZM147.318 151.207C146.344 151.565 145.431 151.872 144.474 152.218L145.943 150.714C146.075 151.014 146.551 151.173 147.318 151.207ZM200.481 149.575C200.703 149.465 200.869 149.381 201.12 149.259L200.908 149.489C200.725 149.525 200.605 149.551 200.481 149.575ZM500.698 171.51C500.658 171.525 500.645 171.53 500.587 171.554C500.577 171.557 500.571 171.561 500.558 171.566C500.561 171.564 500.561 171.564 500.564 171.562C500.593 171.55 500.635 171.533 500.674 171.518L500.698 171.51ZM500.566 171.56C500.574 171.559 500.575 171.554 500.585 171.551L500.655 171.527C500.606 171.545 500.593 171.55 500.566 171.56ZM139.365 258.987C139.219 259.022 139.173 259.034 139.365 258.987V258.987ZM324.713 198.875C347.093 192.381 370.068 186.742 393.24 182.284C416.346 177.886 439.924 174.464 462.274 173.859C467.811 173.752 473.239 173.842 478.328 174.222C483.367 174.587 488.214 175.345 491.439 176.331C492.079 176.582 493.006 176.778 493.366 176.985C493.351 177.229 493.3 177.506 493.144 177.846C492.835 180.242 490.657 184.078 488.233 187.766C485.52 191.531 482.375 195.444 478.604 199.199C471.252 206.782 462.631 214.004 453.697 220.855C435.735 234.571 416.397 246.971 397.187 258.698C389.414 263.426 381.65 267.983 373.905 272.514C373.349 269.26 372.015 266.399 369.882 263.967C368.29 262.152 366.299 260.552 363.964 259.149C362.797 258.449 361.544 257.797 360.214 257.191L359.202 256.745C358.96 256.722 359.017 256.495 358.527 256.634L357.01 257.05C355.986 257.307 354.941 257.534 353.886 257.712L353.101 257.835L352.791 257.711L352.171 257.459C345.546 254.78 339.346 251.542 331.837 248.84C324.467 246.052 316.403 243.492 308.085 241.129C291.443 236.398 273.816 232.398 258.974 229.17C254.488 228.207 250.304 227.318 246.426 226.506C271.038 215.993 297.601 206.813 324.713 198.875ZM163.01 37.6723C162.979 37.6816 162.862 37.7174 162.862 37.7174C161.758 38.121 160.717 38.5013 159.707 38.8724C160.717 38.5013 161.758 38.121 162.831 37.7266C162.829 37.7286 162.979 37.6816 163.01 37.6723Z" fill="white"/>
</g>
</svg>
