<svg width="184" height="170" viewBox="0 0 184 170" fill="none" xmlns="http://www.w3.org/2000/svg">
<path fill-rule="evenodd" clip-rule="evenodd" d="M13.9835 0.157963C13.5424 0.480564 13.7293 1.19925 15.7689 7.02378C16.4585 8.99293 17.6844 12.6674 18.4931 15.1893C19.3017 17.7112 20.7702 22.2336 21.7563 25.2392C22.7424 28.2447 23.8486 31.7056 24.2143 32.93L24.8793 35.1561L23.5594 36.573C12.7621 48.1633 8.49732 54.4562 4.63463 64.4965C2.08005 71.1364 0.953032 77.0312 0.419537 86.5434C0.24271 89.6964 -0.0647274 99.6102 0.0120064 99.6868C0.0446591 99.7195 10.2744 98.0679 11.0421 97.906L11.3713 97.8367L11.3618 90.9024C11.3557 86.3959 11.4065 83.3303 11.507 82.1466C12.1201 74.9311 13.7401 69.2938 17.1667 62.4516C20.0574 56.6797 23.5299 52.0809 31.2701 43.774L32.0844 42.9001L32.0985 42.9149L32.0939 42.8827C33.9983 40.9163 38.3761 36.9995 43.2598 34.1092C39.9307 24.784 38.0547 19.0943 38.2307 18.8093C38.3686 18.5863 43.9423 15.8885 45.8146 15.1387C54.0717 11.8314 63.0797 9.72343 71.9995 9.01102C74.5566 8.80675 81.8467 8.80826 84.3071 9.01341C98.4784 10.1954 111.172 14.4039 122.891 21.8058C135.422 29.7207 146.12 41.5171 152.721 54.6979C158.225 65.6889 161.059 76.8566 161.87 90.7518C162.033 93.5406 161.962 99.8051 161.765 100.002C161.596 100.171 154.118 101.666 148.357 102.681C145.732 103.144 143.551 103.561 143.509 103.607C143.468 103.653 143.166 104.765 142.837 106.078C141.24 112.459 139.645 116.755 136.819 122.283C131.898 131.907 125.965 139.136 117.878 145.365C102.241 157.406 81.9934 161.896 62.5805 157.627C50.1315 154.889 38.819 148.657 29.6723 139.5C23.949 133.769 20.8446 129.036 15.9112 118.517C15.1665 116.929 14.5008 115.611 14.4317 115.588C14.3224 115.552 4.43092 117.478 3.83175 117.653C3.67049 117.7 3.62993 117.791 3.68857 117.976C3.84254 118.462 7.75132 126.455 8.95947 128.755C13.2269 136.881 16.7362 141.77 22.2599 147.285C34.4283 159.436 49.9405 167.085 66.9761 169.336C73.1307 170.149 80.5181 170.17 86.7561 169.392C94.0328 168.484 101.599 166.388 108.287 163.428C117.24 159.466 125.004 154.155 131.884 147.286C138.191 140.989 142.255 135.215 149.173 122.723C150.225 120.823 151.124 119.227 151.17 119.176C151.217 119.125 153.937 118.546 157.215 117.889C164.157 116.498 165.167 116.26 167.693 115.413C173.041 113.621 178.165 109.955 180.817 106.026C182.335 103.776 183.542 100.321 183.913 97.1672L184 96.4269L182.379 96.5057C180.241 96.6095 178.492 96.8436 174.102 97.6134C172.099 97.9648 170.262 98.2605 170.02 98.2707L169.581 98.2892L169.484 97.0329C168.814 88.3355 167.965 80.7253 167.122 75.8654C163.311 53.9047 151.524 34.1537 133.977 20.3289C122.17 11.0263 107.908 4.70502 93.2238 2.26554C87.6293 1.33618 84.1997 1.05906 78.2789 1.05768C70.8622 1.05604 65.3688 1.6373 58.5617 3.14378C50.6904 4.88592 43.0249 7.5259 36.8911 10.6074C36.276 10.9165 35.7008 11.1652 35.6131 11.1603C35.5253 11.1553 34.8602 10.4739 34.135 9.64604C32.0747 7.29462 28.8382 4.18494 27.5046 3.27568C24.8881 1.49171 22.0644 0.635204 17.3142 0.184719C14.7892 -0.0548453 14.2799 -0.058863 13.9835 0.157963ZM49.1631 31.5176C48.6459 31.5727 48.0616 31.729 47.403 32.0028C47.0908 31.2971 43.6811 21.7132 43.6802 21.5279C43.6796 21.3991 44.504 21.128 49.7706 19.5253C60.2181 16.3459 65.7074 15.2613 73.8834 14.7612C75.164 14.6829 81.4583 14.8024 83.114 14.9364C98.5238 16.1844 113.097 21.8993 125.186 31.4355C129.782 35.0614 134.664 39.9725 138.221 44.5497C144.175 52.2108 147.827 59.342 151.296 70.0867C152.68 74.3747 154.904 81.983 154.803 82.0844C154.68 82.207 144.363 83.415 144.272 83.3174C144.22 83.2607 143.742 81.7163 143.21 79.8853C139.813 68.1911 137.48 62.4528 133.682 56.4566C122.759 39.2108 104.536 27.8637 84.2569 25.6799C79.0013 25.1138 73.3401 25.2048 68.3575 25.9351C64.0153 26.5717 58.1524 28.2578 50.0846 31.1902C49.7624 31.3073 49.4516 31.4176 49.1631 31.5176ZM70.0014 45.3918C68.5877 45.9866 67.8528 47.0464 67.387 49.1619C67.1707 50.1438 67.1275 50.922 67.0735 54.8005C66.9673 62.4268 67.2208 67.0599 68.8688 87.6112C70.5033 107.993 70.5402 108.537 70.4242 110.475C70.3663 111.442 70.3155 112.502 70.3115 112.83C70.3074 113.158 70.2462 113.427 70.1754 113.427C70.1638 113.427 70.1543 113.43 70.1456 113.433C70.1392 113.435 70.1332 113.437 70.1271 113.438C70.0386 113.445 69.9238 113.136 68.1495 108.355L67.6074 106.894C60.5597 87.9125 58.8892 85.0107 55.0122 85.0149C52.0891 85.0181 49.7343 87.0672 45.576 93.2264C44.8714 94.2702 44.543 94.6408 44.1065 94.8849C42.4835 95.7923 37.4115 96.9238 10.783 102.319C5.8483 103.319 1.79748 104.15 1.78128 104.167C1.72715 104.221 3.32877 112.552 3.40864 112.632C3.49881 112.722 7.4199 111.97 21.8902 109.088C40.3731 105.406 45.5757 104.182 48.0955 102.923C48.6925 102.625 49.3893 102.076 50.528 101.006C52.4202 99.2277 53.1216 98.7917 53.9018 98.9087C55.0096 99.0749 56.0354 100.631 57.347 104.135C57.697 105.07 59.342 109.911 61.0025 114.894C65.3852 128.046 66.8654 132.104 68.6019 135.729C69.6749 137.969 70.5641 139.337 71.6325 140.392C73.2373 141.975 75.3193 142.578 76.9975 141.944C78.975 141.198 80.2336 138.795 80.6172 135.034C80.7933 133.308 80.7536 128.303 80.5362 124.804C80.1729 118.956 79.4087 109.935 77.6516 90.7518L77.5907 90.0865L77.5905 90.0852L77.5904 90.0833C76.0989 73.8012 76.0767 73.5589 76.1869 73.448L76.1968 73.4382C76.2627 73.3723 76.5168 73.6528 76.8129 74.1186C77.2393 74.7894 77.6004 75.839 79.1625 80.9471C87.5843 108.486 89.4194 113.479 92.0519 116.02C93.0963 117.028 93.372 117.133 94.982 117.133C96.5869 117.133 97.069 116.95 98.0079 115.983C99.8022 114.136 100.404 110.844 100.692 101.304C100.878 95.1524 100.932 94.5833 101.325 94.5833C101.618 94.5833 101.888 95.0526 103.149 97.7491C105.02 101.753 106.103 103.245 107.709 104.035L108.542 104.445L110.679 104.436C112.241 104.43 113.288 104.353 114.574 104.149C118.421 103.538 122.661 102.804 132.093 101.116C137.515 100.145 144.693 98.9001 148.043 98.3487C148.782 98.227 149.453 98.1169 150.061 98.0171L150.061 98.017C155.253 97.1647 155.873 97.0629 155.896 96.8833C155.899 96.8589 155.892 96.8331 155.883 96.8038C155.875 96.7786 155.867 96.7507 155.864 96.7189C155.849 96.5461 155.687 94.6806 155.506 92.5733C155.324 90.466 155.139 88.7057 155.094 88.6618C155.007 88.5766 154.153 88.6763 148.985 89.3749C141.659 90.3652 134.336 91.6016 118.156 94.5801C114.394 95.2728 111.277 95.8395 111.231 95.8395C111.185 95.8395 109.978 92.914 108.548 89.3385C107.119 85.763 105.56 82.0265 105.083 81.0353C103.546 77.8363 102.47 76.6632 100.631 76.1841C98.0523 75.5123 95.3122 76.6479 94.3045 78.8064C93.6591 80.1886 93.3287 82.0859 92.9789 86.4178C92.87 87.7651 92.7014 89.8567 92.604 91.0658C92.4121 93.4505 92.2602 94.1229 91.9816 93.8199C91.7257 93.5415 91.4612 92.7184 88.6347 83.4028C80.2719 55.8412 77.5314 48.3829 74.9331 46.1133C74.133 45.4143 73.4054 45.1683 71.9995 45.1215C70.8887 45.0844 70.6579 45.1157 70.0014 45.3918Z" fill="white"/>
<path fill-rule="evenodd" clip-rule="evenodd" d="M32.1102 42.7224L33.0296 43.6868C33.5901 44.2748 34.1703 44.9103 34.3187 45.0991L34.5888 45.4425L33.2229 46.914C26.0815 54.6078 22.9358 58.8666 20.1844 64.5656C17.1994 70.7485 15.7484 75.9182 15.3466 81.8013C15.1858 84.1569 15.1917 90.0228 15.3587 93.7352C15.4333 95.3933 15.5197 96.7752 15.5507 96.8062C15.6315 96.8871 22.7975 95.696 22.8926 95.5859C22.9361 95.5354 22.8705 94.3919 22.7466 93.0445C22.4 89.2738 22.2151 85.1376 22.3002 83.0575C22.5226 77.6142 23.7653 73.0417 26.5689 67.3504C29.008 62.3987 31.4108 59.103 37.2448 52.7065L39.1472 50.6207L43.0878 47.8072C45.2551 46.2596 47.051 44.9344 47.0789 44.8621C47.1067 44.7897 46.4725 42.9242 45.6697 40.7165C44.8004 38.326 43.9947 36.0915 43.2589 34.0318C38.4533 36.849 34.116 40.6855 32.1102 42.7224ZM52.9618 33.0378C61.8951 29.7451 67.1421 28.4225 72.993 27.9886C76.3356 27.7406 80.8176 27.86 84.4842 28.2945C103.283 30.5226 120.042 40.8494 130.442 56.6138C134.542 62.8289 136.71 67.9302 139.971 79.0375C141.103 82.8953 141.231 83.3694 141.156 83.4443C141.078 83.5222 134.268 84.3725 133.703 84.3749C133.322 84.3765 133.308 84.3546 133.031 83.3401C131.753 78.6649 129.687 72.3686 128.509 69.5625C125.741 62.9633 121.766 57.1455 116.43 51.8808C114.397 49.8751 112.998 48.6562 110.983 47.1352C103.008 41.1159 94.0324 37.4722 83.8563 36.1235C81.413 35.7996 75.4871 35.6611 73.1654 35.8735C67.4566 36.3957 62.8268 37.7855 53.1843 41.8711C52.1187 42.3226 51.2242 42.6692 51.1962 42.6413C51.1199 42.5649 48.476 35.0954 48.457 34.9027C48.4407 34.7355 49.1264 34.4516 52.9618 33.0378ZM133.951 104.923C134.581 104.81 136.141 104.529 137.419 104.298C140.047 103.823 140.577 103.773 140.497 104.005C140.467 104.092 140.181 105.123 139.862 106.298C138.229 112.307 136.242 117.194 133.249 122.556C129.993 128.39 126.801 132.703 122.561 136.998C109.886 149.839 92.5675 156.676 74.5 155.97C61.0624 155.446 48.2913 150.774 37.6402 142.487C31.5256 137.729 26.5883 132.143 22.9749 125.895C21.2187 122.858 17.3596 114.839 17.5663 114.657C17.7406 114.502 25.4395 113.012 25.5386 113.114C25.589 113.165 26.0353 114.112 26.5303 115.217C29.9532 122.861 32.4162 126.577 37.321 131.497C40.4222 134.607 42.7973 136.56 46.2429 138.83C57.1203 145.996 70.4394 149.175 83.3539 147.686C100.054 145.762 114.777 136.699 124.033 122.647C127.272 117.729 130.472 111.514 132.202 106.781L132.806 105.128L133.951 104.923Z" fill="white"/>
</svg>
