<svg width="83" height="76" viewBox="0 0 83 76" fill="none" xmlns="http://www.w3.org/2000/svg">
<path fill-rule="evenodd" clip-rule="evenodd" d="M6.23753 0.569705C6.04079 0.712062 6.12414 1.0292 7.03396 3.59943C7.34156 4.46837 7.88837 6.08984 8.24909 7.20269C8.6098 8.31554 9.26484 10.3112 9.7047 11.6375C10.1446 12.9637 10.638 14.491 10.8011 15.0312L11.0977 16.0136L10.509 16.6388C5.69273 21.7534 3.79036 24.5303 2.06736 28.9608C0.927861 31.8909 0.425139 34.4921 0.187167 38.6896C0.108291 40.081 -0.0288452 44.4557 0.00538284 44.4895C0.019948 44.5039 4.58304 43.7751 4.92549 43.7037L5.07232 43.6731L5.06811 40.6131C5.06537 38.6245 5.08806 37.2718 5.13287 36.7494C5.40636 33.5654 6.12896 31.0778 7.65746 28.0585C8.94687 25.5115 10.4958 23.4821 13.9484 19.8165L14.3117 19.4308L14.3182 19.4376L14.3161 19.4231C15.1656 18.5554 17.1183 16.8271 19.2966 15.5517C17.8116 11.4366 16.9748 8.92589 17.0533 8.8001C17.1148 8.7017 19.601 7.51124 20.4362 7.18035C24.1194 5.72092 28.1375 4.79073 32.1163 4.47636C33.2569 4.38622 36.5088 4.38689 37.6062 4.47741C43.9275 4.999 49.5896 6.85611 54.817 10.1224C60.4066 13.615 65.1788 18.8205 68.1231 24.6369C70.5783 29.487 71.8425 34.415 72.2043 40.5467C72.2769 41.7773 72.2451 44.5417 72.1573 44.6286C72.0818 44.7033 68.7462 45.3627 66.1763 45.8109C65.0055 46.0152 64.0325 46.199 64.0141 46.2194C63.9958 46.2398 63.8608 46.7304 63.7143 47.3097C63.0021 50.1256 62.2904 52.0214 61.0296 54.4608C58.8348 58.7074 56.1885 61.8977 52.5809 64.6461C45.606 69.9598 36.5742 71.9411 27.9148 70.057C22.3618 68.8488 17.3157 66.099 13.2357 62.058C10.6828 59.5294 9.298 57.4406 7.09743 52.7987C6.76523 52.0981 6.46827 51.5165 6.43746 51.5063C6.38872 51.4903 1.9765 52.3405 1.70922 52.4175C1.6373 52.4382 1.6192 52.4786 1.64536 52.5602C1.71404 52.7744 3.4576 56.3017 3.99651 57.3168C5.90006 60.9023 7.46542 63.0597 9.92934 65.4936C15.3572 70.8553 22.2766 74.2309 29.8755 75.2242C32.6209 75.583 35.9161 75.5922 38.6986 75.2487C41.9445 74.848 45.3193 73.9233 48.3027 72.6171C52.2964 70.8686 55.7596 68.525 58.8286 65.494C61.6418 62.7154 63.4548 60.1672 66.5405 54.6548C67.0099 53.8164 67.4108 53.112 67.4315 53.0895C67.4521 53.0669 68.6655 52.8114 70.1279 52.5216C73.2244 51.908 73.6748 51.8028 74.8016 51.4292C77.1871 50.6383 79.4729 49.0208 80.6557 47.2867C81.3328 46.2941 81.8714 44.7694 82.0367 43.3777L82.0755 43.051L81.3525 43.0858C80.3986 43.1315 79.6184 43.2349 77.6604 43.5746C76.7669 43.7296 75.9476 43.8601 75.8397 43.8646L75.6437 43.8728L75.6005 43.3184C75.3017 39.4804 74.9229 36.1222 74.5467 33.9777C72.8471 24.2869 67.5891 15.5712 59.7621 9.47069C54.4953 5.36564 48.1337 2.57622 41.5837 1.49973C39.0881 1.08963 37.5584 0.967338 34.9173 0.966728C31.609 0.966008 29.1586 1.2225 26.1222 1.88728C22.6111 2.65605 19.1918 3.82101 16.4558 5.18082C16.1814 5.31719 15.9248 5.42695 15.8857 5.42479C15.8465 5.42257 15.5499 5.12189 15.2263 4.75658C14.3073 3.71895 12.8637 2.34672 12.2688 1.94548C11.1017 1.15826 9.84212 0.780301 7.72323 0.581512C6.59695 0.475798 6.36973 0.474025 6.23753 0.569705ZM21.9299 14.408C21.6992 14.4323 21.4385 14.5013 21.1447 14.6221C21.0056 14.311 19.4845 10.0815 19.4841 9.99976C19.4839 9.94294 19.8516 9.82331 22.2008 9.11608C26.861 7.71308 29.3096 7.23446 32.9566 7.01377C33.5278 6.97923 36.3355 7.03195 37.0741 7.0911C43.9478 7.64179 50.4482 10.1637 55.8407 14.3718C57.891 15.9718 60.0686 18.139 61.6554 20.1588C64.3113 23.5394 65.9399 26.6863 67.4874 31.4277C68.105 33.3199 69.097 36.6772 69.0517 36.722C68.997 36.7761 64.3949 37.3091 64.3545 37.2661C64.331 37.2411 64.1177 36.5595 63.8805 35.7516C62.3654 30.5912 61.3245 28.059 59.6304 25.413C54.758 17.8028 46.6296 12.7956 37.5838 11.8319C35.2395 11.5821 32.7143 11.6223 30.4917 11.9446C28.5549 12.2255 25.9396 12.9695 22.3409 14.2635C22.1972 14.3152 22.0586 14.3638 21.9299 14.408ZM31.225 20.5304C30.5944 20.7929 30.2666 21.2605 30.0588 22.194C29.9623 22.6273 29.9431 22.9707 29.919 24.6822C29.8716 28.0475 29.9847 30.092 30.7198 39.1608C31.4489 48.1549 31.4654 48.3947 31.4136 49.2499C31.3878 49.6768 31.3651 50.1445 31.3633 50.2893C31.3615 50.4341 31.3342 50.5527 31.3026 50.5527C31.3009 50.5527 31.2994 50.5528 31.2979 50.553C31.2947 50.5536 31.292 50.5545 31.2893 50.5554C31.2865 50.5563 31.2838 50.5572 31.2811 50.5574C31.2416 50.5607 31.1905 50.4246 30.399 48.3147L30.399 48.3146L30.3989 48.3144L30.1571 47.67C27.0134 39.2938 26.2683 38.0133 24.5389 38.0151C23.235 38.0165 22.1846 38.9208 20.3297 41.6387C20.0155 42.0993 19.869 42.2628 19.6743 42.3705C18.9503 42.7709 16.6879 43.2702 4.80992 45.6511C2.60873 46.0923 0.801817 46.4592 0.79459 46.4663C0.770446 46.4902 1.48486 50.1666 1.52049 50.2019C1.56072 50.2417 3.30976 49.9099 9.76442 48.6379C18.009 47.0133 20.3296 46.4733 21.4536 45.9178C21.7199 45.7861 22.0307 45.5438 22.5387 45.0716C23.3827 44.2869 23.6956 44.0945 24.0436 44.1462C24.5377 44.2195 24.9953 44.9061 25.5804 46.4522C25.7365 46.8648 26.4702 49.0014 27.2109 51.2001C29.1659 57.0037 29.8262 58.7946 30.6007 60.3943C31.0794 61.3828 31.476 61.9864 31.9526 62.4516C32.6684 63.1504 33.5971 63.4163 34.3457 63.1368C35.2278 62.8074 35.7892 61.7472 35.9603 60.0874C36.0389 59.3259 36.0212 57.1173 35.9242 55.5731C35.7621 52.9926 35.4213 49.0117 34.6375 40.5467L34.6102 40.2517L34.6101 40.2507C33.945 33.0681 33.935 32.9599 33.9841 32.9109L33.9885 32.9066C34.018 32.8775 34.1313 33.0013 34.2634 33.2068C34.4536 33.5029 34.6146 33.966 35.3115 36.2201C39.0681 48.3724 39.8866 50.5758 41.0609 51.697C41.5268 52.1418 41.6498 52.188 42.3679 52.188C43.0838 52.188 43.2989 52.1071 43.7177 51.6807C44.518 50.8658 44.7866 49.413 44.9151 45.2032C44.998 42.4886 45.0219 42.2374 45.1975 42.2374C45.328 42.2374 45.4486 42.4445 46.0108 43.6344C46.8457 45.4013 47.3285 46.0597 48.045 46.4082L48.4167 46.5891L49.3697 46.5854C50.0666 46.5826 50.5335 46.5485 51.107 46.4584C52.8231 46.1888 54.7146 45.8649 58.9218 45.12C61.3404 44.6918 64.542 44.1423 66.0363 43.899L66.9366 43.7527L66.9368 43.7527C69.2532 43.3764 69.5291 43.3316 69.5394 43.2523C69.5408 43.2416 69.5374 43.2302 69.5334 43.2173C69.5316 43.2113 69.5297 43.205 69.5281 43.1982C69.5267 43.1924 69.5256 43.1863 69.525 43.1798C69.5182 43.1036 69.4463 42.2804 69.3654 41.3505C69.2844 40.4206 69.2018 39.6438 69.1818 39.6244C69.143 39.5868 68.7617 39.6308 66.4564 39.9391C63.1887 40.3761 59.9223 40.9217 52.705 42.2361C51.0267 42.5417 49.6367 42.7918 49.6161 42.7918C49.5956 42.7918 49.0571 41.5008 48.4194 39.923C47.7817 38.3453 47.0862 36.6964 46.8738 36.259C46.1882 34.8474 45.7079 34.3297 44.8878 34.1183C43.7374 33.8218 42.5152 34.323 42.0657 35.2754C41.7778 35.8854 41.6304 36.7226 41.4744 38.6342L41.3072 40.6853C41.2216 41.7376 41.1538 42.0343 41.0296 41.9006C40.9154 41.7777 40.7974 41.4145 39.5366 37.3037C35.8063 25.1414 34.5839 21.8503 33.4249 20.8487C33.068 20.5403 32.7434 20.4317 32.1163 20.4111C31.6208 20.3947 31.5179 20.4085 31.225 20.5304Z" fill="url(#paint0_linear_2591_8824)"/>
<path fill-rule="evenodd" clip-rule="evenodd" d="M14.325 19.3524L14.7351 19.778C14.9852 20.0375 15.244 20.3179 15.3102 20.4013L15.4306 20.5528L14.8214 21.2021C11.6359 24.5972 10.2327 26.4765 9.00539 28.9914C7.67391 31.7198 7.02666 34.001 6.84745 36.5971C6.77569 37.6366 6.77832 40.2251 6.85283 41.8633C6.8861 42.5949 6.92464 43.2047 6.93848 43.2184C6.9745 43.2541 10.171 42.7285 10.2134 42.6799C10.2328 42.6576 10.2035 42.153 10.1483 41.5585C9.99369 39.8946 9.91123 38.0693 9.94915 37.1514C10.0484 34.7494 10.6027 32.7317 11.8533 30.2203C12.9413 28.0352 14.013 26.5808 16.6154 23.7582L17.464 22.8378L19.2217 21.5963C20.1885 20.9134 20.9896 20.3286 21.002 20.2967C21.0144 20.2647 20.7315 19.4415 20.3734 18.4673C19.9857 17.4124 19.6263 16.4264 19.2981 15.5175C17.1545 16.7605 15.2198 18.4534 14.325 19.3524ZM23.6262 15.0789C27.611 13.6259 29.9515 13.0422 32.5613 12.8508C34.0523 12.7413 36.0516 12.794 37.6871 12.9858C46.0724 13.969 53.5479 18.526 58.1872 25.4824C60.0162 28.225 60.9832 30.4761 62.4377 35.3775C62.9428 37.0799 62.9997 37.2891 62.9663 37.3221C62.9315 37.3565 59.8936 37.7317 59.6417 37.7328C59.472 37.7335 59.4657 37.7238 59.342 37.2762C58.772 35.2131 57.8503 32.4346 57.3251 31.1964C56.0901 28.2843 54.3173 25.7171 51.937 23.3939C51.0302 22.5088 50.4062 21.9709 49.5073 21.2997C45.9501 18.6435 41.9462 17.0357 37.407 16.4405C36.3172 16.2976 33.6739 16.2365 32.6382 16.3302C30.0917 16.5606 28.0266 17.1739 23.7254 18.9768C23.2501 19.176 22.8511 19.329 22.8386 19.3167C22.8046 19.283 21.6252 15.9868 21.6167 15.9018C21.6094 15.828 21.9153 15.7027 23.6262 15.0789ZM59.7523 46.8002C60.0332 46.7504 60.7295 46.6263 61.2995 46.5244C62.4717 46.3148 62.7081 46.2926 62.6722 46.3952C62.6588 46.4333 62.5314 46.8885 62.3891 47.4068C61.6608 50.0586 60.7741 52.2151 59.4392 54.581C57.9867 57.1556 56.5631 59.0587 54.6717 60.9543C49.018 66.6208 41.2928 69.6376 33.2335 69.3262C27.2395 69.0946 21.5428 67.0331 16.7917 63.3761C14.0643 61.2768 11.8619 58.8119 10.2501 56.0547C9.46676 54.7146 7.74533 51.176 7.83754 51.0954C7.9153 51.0273 11.3495 50.3698 11.3937 50.4145C11.4162 50.4372 11.6152 50.8549 11.8361 51.3427C13.3629 54.7159 14.4615 56.3557 16.6494 58.5266C18.0327 59.8992 19.0921 60.7607 20.6291 61.7624C25.4811 64.9248 31.4223 66.3275 37.1829 65.6707C44.6324 64.8213 51.1998 60.8222 55.3283 54.6214C56.7731 52.4513 58.2005 49.7086 58.9721 47.6199L59.2415 46.8907L59.7523 46.8002Z" fill="url(#paint1_linear_2591_8824)"/>
<defs>
<linearGradient id="paint0_linear_2591_8824" x1="41.0377" y1="0.5" x2="41.0377" y2="75.5" gradientUnits="userSpaceOnUse">
<stop stop-color="#E8BE29"/>
<stop offset="0.536667" stop-color="#FF3F3F"/>
<stop offset="1" stop-color="#E73646"/>
</linearGradient>
<linearGradient id="paint1_linear_2591_8824" x1="34.8162" y1="8.06104" x2="34.8162" y2="69.3482" gradientUnits="userSpaceOnUse">
<stop stop-color="#E8BE29"/>
<stop offset="0.536667" stop-color="#FF3F3F"/>
<stop offset="1" stop-color="#E73646"/>
</linearGradient>
</defs>
</svg>
