<svg width="462" height="438" viewBox="0 0 462 438" fill="none" xmlns="http://www.w3.org/2000/svg">
<path d="M321.29 357.425L71.7672 287.469C48.6349 281.11 36.6253 255.84 44.9281 231.305L84.0917 112.95C92.1414 88.2562 117.495 73.6122 140.454 80.249L389.977 150.204C413.109 156.564 425.118 181.834 416.816 206.369L377.652 324.724C369.602 349.417 344.422 363.784 321.29 357.425Z" fill="#E13E3D" stroke="#1B3556" stroke-width="10" stroke-miterlimit="10"/>
<path d="M244.318 305.426L81.0471 259.684C74.1848 257.709 70.114 250.144 72.6816 242.098L115.201 113.874C117.675 106.541 125.304 101.66 132.846 103.675L296.116 149.416C302.979 151.391 307.049 158.956 304.482 167.002L261.962 295.227C259.315 302.837 251.607 307.282 244.318 305.426Z" fill="white" stroke="#1B3556" stroke-width="10" stroke-miterlimit="10"/>
<path d="M318.604 173.13C316.615 175.747 316.051 180.027 318.061 182.443C319.232 183.947 321.177 184.778 322.869 185.45C327.439 187.15 331.93 188.414 336.594 189.4C338.207 189.637 340.246 189.754 341.952 189.277C350.073 185.862 344.593 175.485 339.343 173.746C333.334 171.532 323.876 166.389 318.604 173.13Z" fill="white" stroke="#1B3556" stroke-width="10" stroke-miterlimit="10"/>
<path d="M366.056 186.207C364.067 188.824 363.503 193.104 365.513 195.519C366.684 197.024 368.629 197.854 370.321 198.526C374.891 200.226 379.382 201.49 384.046 202.477C385.658 202.713 387.698 202.83 389.404 202.353C397.525 198.938 392.044 188.561 386.795 186.823C381.039 184.767 371.154 179.743 366.056 186.207Z" fill="white" stroke="#1B3556" stroke-width="10" stroke-miterlimit="10"/>
<path d="M93.9032 177.768C106.283 180.492 98.6468 179.191 110.853 182.191L115.018 175.531C116.92 179.809 118.568 183.928 120.47 188.206C123.233 184.915 126.075 182.059 128.837 178.768C124.201 202.507 119.608 222.799 116.504 246.339C132.082 211.297 141.101 177.172 154.278 143.717C151.66 162.541 149.041 181.365 146.422 200.189C149.293 195.036 153.35 190.237 158.072 186.627C157.855 190.352 157.559 193.641 157.341 197.366C166.228 200.608 175.115 203.849 184.255 207.249C187.386 208.435 191.183 210.809 194.437 208.983C197.264 207.277 201.625 205.371 201.589 201.488C202.211 206.123 202.579 210.601 203.374 214.959C207.417 211.31 211.712 207.819 215.755 204.17C211.95 222.639 207.719 241.226 203.914 259.695C211.559 226.641 230.037 197.659 242.614 164.6C238.621 184.496 234.375 204.233 230.556 223.85C234.866 219.211 238.923 214.412 243.059 210.05C241.974 215.162 241.36 216.708 243.023 219.679C244.512 222.927 247.658 222.964 250.962 223.872C273.841 230.073 259.69 226.242 282.569 232.443" stroke="#1B3556" stroke-width="10" stroke-linejoin="round"/>
<path d="M373.902 251.342L307.303 232.857C302.813 231.592 300.326 226.562 301.917 221.766C303.508 216.97 308.563 213.954 313.053 215.218L379.651 233.704C384.142 234.968 386.629 239.998 385.038 244.794C383.7 249.749 378.645 252.765 373.902 251.342Z" fill="white" stroke="#1B3556" stroke-width="10" stroke-miterlimit="10"/>
<path d="M366.982 321.179C364.086 328.286 359.632 334.844 354.065 340.088C351.346 342.634 348.255 344.986 344.775 345.822C341.918 346.506 338.989 346.179 336.148 346.951" stroke="#E1E1E8" stroke-width="10" stroke-linecap="round" stroke-linejoin="round"/>
</svg>
