<svg width="2342" height="579" viewBox="0 0 2342 579" fill="none" xmlns="http://www.w3.org/2000/svg">
<g clip-path="url(#clip0_11_206)">
<path d="M2434.47 88.2438L2423.01 642.889L-37.3564 642.889L-31.8991 378.757C-31.8991 378.757 287.041 418.683 377.293 349.232C467.541 279.781 643.777 135.881 914.234 225.682C1184.69 315.484 1156.29 301.71 1315.91 178.172C1315.91 178.172 1446.97 57.4053 1707.83 145.5C1707.83 145.5 1761.15 193.989 1861.19 161.838C1961.23 129.686 2276.51 23.7102 2434.47 88.2438Z" fill="url(#paint0_linear_11_206)"/>
<path d="M2373.93 169.26C2381.98 146.82 2345.55 120.624 2328.99 109.552C2296.39 87.7488 2267.85 88.315 2233.62 111.128C2214.4 123.936 2198.04 140.019 2178.14 151.958C2101.4 197.979 2054.42 92.492 1973.12 131.952C1935.18 150.365 1914.32 185.106 1882.26 209.487C1815.78 260.049 1722.3 260.762 1650.3 222.567C1583.6 187.182 1536.73 123.741 1448.57 139.749C1330.79 161.134 1276.21 250.132 1182.64 305.119C1124.39 339.344 1046.84 348.938 980.904 327.073C947.667 316.05 918.136 297.389 896.264 272.669C872.311 245.594 854.363 211.412 808.613 224.407C742.085 243.303 707.018 262.637 635.741 253.214C480.183 232.647 461.008 394.131 348.716 447.836C272.617 484.233 196.775 446.584 126.316 421.425C63.6496 399.048 -21.8605 392.011 -60.9313 442.135L-81.1642 373.623C10.9184 349.691 108.89 395.354 202.868 378.852C324.302 357.525 423.653 261.207 538.381 219.058C640.891 181.4 757.416 151.626 870.036 164.363C954.141 173.875 1024.02 228.984 1108.01 242.294C1176.22 253.104 1222.46 217.169 1265.55 174.669C1364.05 77.517 1466.56 54.6322 1608.93 79.5385C1712.03 97.5767 1818.98 117.283 1924.44 96.5743C2046.11 72.6851 2312.78 -95.409 2387.64 82.9447C2387.64 82.9447 2373.93 169.272 2373.93 169.26Z" fill="#ECEDF6"/>
<path d="M1728.8 148.007C1729.34 147.825 1729.89 147.65 1730.46 147.474C1767.54 135.935 1800.83 172.525 1772.65 200.401C1729.75 242.835 1657.87 171.506 1728.8 148.007Z" fill="#6DC0DF"/>
<path d="M1641.91 130.37C1654.6 127.138 1669.15 129.174 1671.62 142.074C1673.8 153.503 1660.24 165.284 1648.12 162.495C1606.99 153.033 1622.22 135.376 1641.91 130.37Z" fill="#6DC0DF"/>
<path d="M2132.11 70.6278C2145.43 64.4325 2164.21 65.6877 2173.5 75.2448C2183.06 85.0782 2180.26 102.738 2168.54 111.036C2155.67 120.145 2143.1 114.362 2129.94 110.803C2112.72 106.145 2111.31 89.1762 2123.23 76.8031C2125.67 74.2691 2128.71 72.2084 2132.11 70.6278Z" fill="#6DC0DF"/>
<path d="M2229.23 48.2141C2229 31.8094 2247.49 32.9581 2255.66 47.6598C2255.69 47.6995 2255.71 47.7362 2255.73 47.776C2256.04 48.3449 2256.34 48.9483 2256.63 49.5863C2256.97 50.347 2257.29 51.1579 2257.6 52.0283C2264.37 71.6498 2232.38 70.6277 2229.53 51.6775C2229.34 50.4468 2229.25 49.2943 2229.23 48.2141Z" fill="#6DC0DF"/>
<path d="M1078.39 290.005C1076.65 290.377 1074.8 290.605 1072.86 290.657C1064.86 290.871 1057.22 288.324 1049.79 285.81C1042.09 283.206 1071.68 259.278 1085.78 267.247C1099.06 274.748 1092.23 287.033 1078.39 290.005Z" fill="#6DC0DF"/>
<path d="M1003.89 240.454C984.851 226.221 946.476 218.543 939.342 232.932C928.752 254.288 998.681 280.912 1011.35 265.102C1018.2 256.551 1013.53 247.663 1003.89 240.454Z" fill="#6DC0DF"/>
<path d="M405.996 356.121C395.15 368.627 381.66 382.936 372.935 386.372C351.669 394.751 317.096 377.2 330.059 353.09C339.757 335.079 368.569 337.846 386.59 326.557C416.086 308.084 454.926 298.503 420.133 339.386C416.988 343.086 411.881 349.339 405.996 356.121Z" fill="#6DC0DF"/>
<path d="M267.993 382.961C282.618 381.036 300.203 389.149 298.892 405.348C296.785 430.587 248.039 425.96 249.153 401.106C249.645 390.102 258.149 384.258 267.993 382.961Z" fill="#6DC0DF"/>
</g>
<defs>
<linearGradient id="paint0_linear_11_206" x1="1192.83" y1="642.889" x2="1192.83" y2="67.7965" gradientUnits="userSpaceOnUse">
<stop stop-color="#46B8CD"/>
<stop offset="0.476667" stop-color="#0096C7"/>
<stop offset="1" stop-color="#023E8A"/>
</linearGradient>
<clipPath id="clip0_11_206">
<rect width="2342" height="579" fill="white"/>
</clipPath>
</defs>
</svg>
