<svg width="1920" height="1312" viewBox="0 0 1920 1312" fill="none" xmlns="http://www.w3.org/2000/svg">
<path opacity="0.7" d="M310.165 349.82C310.165 351.367 309.305 352.14 307.584 352.14C305.862 352.14 305.002 351.367 305.002 349.82C305.002 348.274 305.862 347.501 307.584 347.501C308.444 347.501 310.165 348.274 310.165 349.82Z" fill="white"/>
<path opacity="0.7" d="M416.017 349.821C416.017 350.594 415.156 351.367 414.296 351.367C413.435 351.367 412.574 350.594 412.574 349.821C412.574 349.048 413.435 348.274 414.296 348.274C415.156 347.501 416.017 348.274 416.017 349.821Z" fill="white"/>
<path opacity="0.7" d="M206.897 474.317C206.897 475.09 206.036 475.863 205.176 475.863C204.315 475.863 203.455 475.09 203.455 474.317C203.455 473.543 204.315 472.77 205.176 472.77C206.036 472.77 206.897 473.543 206.897 474.317Z" fill="white"/>
<path opacity="0.7" d="M1399.67 379.978C1399.67 380.751 1398.81 381.525 1397.95 381.525C1397.09 381.525 1396.23 380.751 1396.23 379.978C1396.23 379.205 1397.09 378.432 1397.95 378.432C1398.81 378.432 1399.67 379.205 1399.67 379.978Z" fill="white"/>
<path opacity="0.7" d="M438.396 257.801C438.396 258.575 437.536 259.348 436.675 259.348C435.815 259.348 434.954 258.575 434.954 257.801C434.954 257.028 435.815 256.255 436.675 256.255C437.536 256.255 438.396 257.028 438.396 257.801Z" fill="white"/>
<path opacity="0.7" d="M434.951 309.61C434.951 310.383 434.091 311.156 433.23 311.156C432.369 311.156 431.509 310.383 431.509 309.61C431.509 308.837 432.369 308.063 433.23 308.063C434.091 308.063 434.951 308.837 434.951 309.61Z" fill="white"/>
<path opacity="0.7" d="M513.267 39.7392C513.267 41.2858 512.406 42.059 510.685 42.059C508.964 42.059 508.103 41.2858 508.103 39.7392C508.103 38.1927 508.964 37.4194 510.685 37.4194C512.406 37.4194 513.267 38.966 513.267 39.7392Z" fill="white"/>
<path opacity="0.7" d="M522.729 403.949C522.729 405.496 521.008 407.042 519.287 407.042C517.566 407.042 515.845 405.496 515.845 403.949C515.845 402.403 517.566 400.856 519.287 400.856C521.869 400.856 522.729 402.403 522.729 403.949Z" fill="white"/>
<path opacity="0.7" d="M370.412 16.5422C370.412 18.0887 368.691 19.6352 366.97 19.6352C365.249 19.6352 363.528 18.0887 363.528 16.5422C363.528 14.9956 365.249 13.4491 366.97 13.4491C368.691 13.4491 370.412 14.2224 370.412 16.5422Z" fill="white"/>
<path opacity="0.7" d="M84.6953 273.267C84.6953 274.814 82.9741 276.36 81.253 276.36C79.5318 276.36 77.8106 274.814 77.8106 273.267C77.8106 271.721 79.5318 270.174 81.253 270.174C82.9741 270.174 84.6953 271.721 84.6953 273.267Z" fill="white"/>
<path opacity="0.7" d="M35.6413 516.847C35.6413 518.394 33.9201 519.94 32.199 519.94C30.4778 519.94 28.7566 518.394 28.7566 516.847C28.7566 515.3 30.4778 513.754 32.199 513.754C34.7807 513.754 35.6413 515.3 35.6413 516.847Z" fill="white"/>
<path opacity="0.7" d="M203.455 290.279C203.455 291.826 201.734 293.372 200.013 293.372C198.292 293.372 196.571 291.826 196.571 290.279C196.571 288.732 198.292 287.186 200.013 287.186C201.734 287.186 203.455 288.732 203.455 290.279Z" fill="white"/>
<path opacity="0.7" d="M127.726 498.288C127.726 499.834 126.865 500.607 125.144 500.607C123.423 500.607 122.563 499.834 122.563 498.288C122.563 496.741 123.423 495.968 125.144 495.968C126.865 495.968 127.726 496.741 127.726 498.288Z" fill="white"/>
<path opacity="0.7" d="M173.337 188.98C173.337 190.527 172.476 191.3 170.755 191.3C169.034 191.3 168.173 190.527 168.173 188.98C168.173 187.434 169.034 186.66 170.755 186.66C172.476 186.66 173.337 188.207 173.337 188.98Z" fill="white"/>
<path opacity="0.7" d="M85.5566 1.8499C85.5566 2.62317 84.696 3.39643 83.8354 3.39643C82.9748 3.39643 82.1143 2.62317 82.1143 1.8499C82.1143 1.07663 82.9748 0.303357 83.8354 0.303357C84.696 -0.469914 85.5566 0.303362 85.5566 1.8499Z" fill="white"/>
<path opacity="0.7" d="M1093.3 127.892C1093.3 128.665 1092.44 129.439 1091.58 129.439C1090.72 129.439 1089.86 128.665 1089.86 127.892C1089.86 127.119 1090.72 126.346 1091.58 126.346C1092.44 126.346 1093.3 126.346 1093.3 127.892Z" fill="white"/>
<path opacity="0.7" d="M306.728 100.055C306.728 100.829 305.868 101.602 305.007 101.602C304.147 101.602 303.286 100.829 303.286 100.055C303.286 99.2821 304.147 98.5088 305.007 98.5088C305.868 98.5088 306.728 99.2821 306.728 100.055Z" fill="white"/>
<path opacity="0.7" d="M871.269 547.788C871.269 548.561 870.409 549.334 869.548 549.334C868.688 549.334 867.827 548.561 867.827 547.788C867.827 547.014 868.688 546.241 869.548 546.241C870.409 546.241 871.269 547.014 871.269 547.788Z" fill="white"/>
<path opacity="0.7" d="M382.458 192.847C382.458 193.621 381.598 194.394 380.737 194.394C379.876 194.394 379.016 193.621 379.016 192.847C379.016 192.074 379.876 191.301 380.737 191.301C381.598 191.301 382.458 192.074 382.458 192.847Z" fill="white"/>
<path opacity="0.7" d="M243.9 536.952C243.9 537.725 243.04 538.498 242.179 538.498C241.319 538.498 240.458 537.725 240.458 536.952C240.458 536.179 241.319 535.405 242.179 535.405C243.04 535.405 243.9 536.179 243.9 536.952Z" fill="white"/>
<path opacity="0.7" d="M261.974 35.8741C261.974 37.4206 260.253 38.9672 258.532 38.9672C256.81 38.9672 255.089 37.4206 255.089 35.8741C255.089 34.3276 256.81 32.781 258.532 32.781C260.253 32.781 261.974 34.3276 261.974 35.8741Z" fill="white"/>
<path opacity="0.7" d="M1000.35 107.787C1000.35 109.333 998.633 110.88 996.912 110.88C995.191 110.88 993.47 109.333 993.47 107.787C993.47 106.24 995.191 104.694 996.912 104.694C999.494 104.694 1000.35 105.467 1000.35 107.787Z" fill="white"/>
<path opacity="0.7" d="M38.2237 472.77C38.2237 474.316 37.3631 475.09 35.6419 475.09C33.9207 475.09 33.0602 474.316 33.0602 472.77C33.0602 471.223 33.9207 470.45 35.6419 470.45C37.3631 470.45 38.2237 471.223 38.2237 472.77Z" fill="white"/>
<path opacity="0.7" d="M436.675 470.451C436.675 472.771 434.093 475.091 431.512 475.091C428.93 475.091 426.348 472.771 426.348 470.451C426.348 468.131 428.93 465.812 431.512 465.812C434.093 466.585 436.675 468.131 436.675 470.451Z" fill="white"/>
<path opacity="0.7" d="M282.627 390.803C282.627 391.576 281.766 392.349 280.906 392.349C280.045 392.349 279.185 391.576 279.185 390.803C279.185 390.029 280.045 389.256 280.906 389.256C281.766 388.483 282.627 389.256 282.627 390.803Z" fill="white"/>
<path opacity="0.7" d="M388.483 519.939C388.483 520.712 387.623 521.485 386.762 521.485C385.902 521.485 385.041 520.712 385.041 519.939C385.041 519.166 385.902 518.392 386.762 518.392C387.623 518.392 388.483 519.166 388.483 519.939Z" fill="white"/>
<path opacity="0.7" d="M1219.81 344.408C1219.81 345.181 1218.94 345.954 1218.08 345.954C1217.22 345.954 1216.36 345.181 1216.36 344.408C1216.36 343.634 1217.22 342.861 1218.08 342.861C1218.94 342.861 1219.81 343.634 1219.81 344.408Z" fill="white"/>
<path opacity="0.7" d="M1271.44 512.206C1271.44 512.98 1270.58 513.753 1269.72 513.753C1268.86 513.753 1268 512.98 1268 512.206C1268 511.433 1268.86 510.66 1269.72 510.66C1270.58 510.66 1271.44 511.433 1271.44 512.206Z" fill="white"/>
<path opacity="0.7" d="M1011.54 502.155C1011.54 502.928 1010.68 503.701 1009.82 503.701C1008.96 503.701 1008.1 502.928 1008.1 502.155C1008.1 501.382 1008.96 500.608 1009.82 500.608C1010.68 500.608 1011.54 501.382 1011.54 502.155Z" fill="white"/>
<path opacity="0.7" d="M1373.85 434.88C1373.85 435.654 1372.99 436.427 1372.13 436.427C1371.27 436.427 1370.41 435.654 1370.41 434.88C1370.41 434.107 1371.27 433.334 1372.13 433.334C1372.99 432.561 1373.85 433.334 1373.85 434.88Z" fill="white"/>
<path opacity="0.7" d="M1226.69 448.025C1226.69 449.572 1224.97 451.118 1223.25 451.118C1221.53 451.118 1219.81 449.572 1219.81 448.025C1219.81 446.479 1221.53 444.932 1223.25 444.932C1224.97 444.932 1226.69 446.479 1226.69 448.025Z" fill="white"/>
<path opacity="0.7" d="M1168.17 290.279C1168.17 291.826 1166.45 293.372 1164.73 293.372C1163 293.372 1161.28 291.826 1161.28 290.279C1161.28 288.732 1163 287.186 1164.73 287.186C1166.45 287.186 1168.17 288.732 1168.17 290.279Z" fill="white"/>
<path opacity="0.7" d="M1225.83 529.219C1225.83 529.993 1224.97 530.766 1224.11 530.766C1223.25 530.766 1222.39 529.993 1222.39 529.219C1222.39 528.446 1223.25 527.673 1224.11 527.673C1224.97 527.673 1225.83 528.446 1225.83 529.219Z" fill="white"/>
<path opacity="0.7" d="M1271.44 100.055C1271.44 100.829 1270.58 101.602 1269.72 101.602C1268.86 101.602 1268 100.829 1268 100.055C1268 99.2821 1268.86 98.5088 1269.72 98.5088C1270.58 98.5088 1271.44 99.2821 1271.44 100.055Z" fill="white"/>
<path opacity="0.7" d="M1261.11 202.126C1261.11 202.9 1260.25 203.673 1259.39 203.673C1258.53 203.673 1257.67 202.9 1257.67 202.126C1257.67 201.353 1258.53 200.58 1259.39 200.58C1260.25 200.58 1261.11 201.353 1261.11 202.126Z" fill="white"/>
<path opacity="0.7" d="M1171.62 62.9373C1171.62 63.7105 1170.76 64.4838 1169.89 64.4838C1169.03 64.4838 1168.17 63.7105 1168.17 62.9373C1168.17 62.164 1169.03 61.3908 1169.89 61.3908C1170.76 60.6175 1171.62 61.3908 1171.62 62.9373Z" fill="white"/>
<path opacity="0.7" d="M1226.69 35.8741C1226.69 37.4206 1224.97 38.9672 1223.25 38.9672C1221.53 38.9672 1219.81 37.4206 1219.81 35.8741C1219.81 34.3276 1221.53 32.781 1223.25 32.781C1224.97 32.781 1226.69 34.3276 1226.69 35.8741Z" fill="white"/>
<path opacity="0.7" d="M1082.11 268.627C1082.11 270.174 1080.39 271.72 1078.67 271.72C1076.95 271.72 1075.22 270.174 1075.22 268.627C1075.22 267.08 1076.95 265.534 1078.67 265.534C1080.39 265.534 1082.11 267.08 1082.11 268.627Z" fill="white"/>
<path opacity="0.7" d="M1037.36 389.257C1037.36 390.03 1036.5 390.804 1035.64 390.804C1034.78 390.804 1033.92 390.03 1033.92 389.257C1033.92 388.484 1034.78 387.711 1035.64 387.711C1036.5 387.711 1037.36 388.484 1037.36 389.257Z" fill="white"/>
<path opacity="0.7" d="M94.1617 533.085C94.1617 534.632 93.3011 535.405 91.5799 535.405C89.8588 535.405 88.9982 534.632 88.9982 533.085C88.9982 531.539 89.8588 530.765 91.5799 530.765C93.3011 530.765 94.1617 531.539 94.1617 533.085Z" fill="white"/>
<path opacity="0.7" d="M772.303 351.366C772.303 353.686 769.722 356.006 767.14 356.006C764.558 356.006 761.976 353.686 761.976 351.366C761.976 349.047 764.558 346.727 767.14 346.727C769.722 347.5 772.303 349.047 772.303 351.366Z" fill="white"/>
<path opacity="0.7" d="M712.061 344.408C712.061 345.181 711.201 345.954 710.34 345.954C709.479 345.954 708.619 345.181 708.619 344.408C708.619 343.634 709.479 342.861 710.34 342.861C711.201 342.861 712.061 343.634 712.061 344.408Z" fill="white"/>
<path opacity="0.7" d="M606.21 160.37C606.21 161.143 605.35 161.916 604.489 161.916C603.629 161.916 602.768 161.143 602.768 160.37C602.768 159.597 603.629 158.823 604.489 158.823C605.35 158.05 606.21 158.823 606.21 160.37Z" fill="white"/>
<path opacity="0.7" d="M764.554 512.206C764.554 512.98 763.694 513.753 762.833 513.753C761.973 513.753 761.112 512.98 761.112 512.206C761.112 511.433 761.973 510.66 762.833 510.66C763.694 510.66 764.554 511.433 764.554 512.206Z" fill="white"/>
<path opacity="0.7" d="M664.729 474.317C664.729 475.09 663.868 475.863 663.007 475.863C662.147 475.863 661.286 475.09 661.286 474.317C661.286 473.543 662.147 472.77 663.007 472.77C663.868 472.77 664.729 473.543 664.729 474.317Z" fill="white"/>
<path opacity="0.7" d="M892.784 537.724C892.784 538.498 891.924 539.271 891.063 539.271C890.203 539.271 889.342 538.498 889.342 537.724C889.342 536.951 890.203 536.178 891.063 536.178C891.924 536.178 892.784 536.951 892.784 537.724Z" fill="white"/>
<path opacity="0.7" d="M618.255 437.199C618.255 437.972 617.395 438.745 616.534 438.745C615.673 438.745 614.813 437.972 614.813 437.199C614.813 436.426 615.673 435.652 616.534 435.652C617.395 434.879 618.255 435.652 618.255 437.199Z" fill="white"/>
<path opacity="0.7" d="M892.784 309.61C892.784 310.383 891.924 311.156 891.063 311.156C890.203 311.156 889.342 310.383 889.342 309.61C889.342 308.837 890.203 308.063 891.063 308.063C891.924 308.063 892.784 308.837 892.784 309.61Z" fill="white"/>
<path opacity="0.7" d="M699.152 268.627C699.152 269.4 698.291 270.173 697.431 270.173C696.57 270.173 695.709 269.4 695.709 268.627C695.709 267.853 696.57 267.08 697.431 267.08C698.291 267.08 699.152 267.853 699.152 268.627Z" fill="white"/>
<path opacity="0.7" d="M486.59 351.366C486.59 352.913 484.869 354.459 483.148 354.459C481.427 354.459 479.706 352.913 479.706 351.366C479.706 349.82 481.427 348.273 483.148 348.273C484.869 348.273 486.59 349.82 486.59 351.366Z" fill="white"/>
<path opacity="0.7" d="M521.872 309.611C521.872 311.157 520.151 312.704 518.43 312.704C516.709 312.704 514.987 311.157 514.987 309.611C514.987 308.064 516.709 306.518 518.43 306.518C520.151 306.518 521.872 308.064 521.872 309.611Z" fill="white"/>
<path opacity="0.7" d="M493.475 516.847C493.475 518.394 491.753 519.94 490.032 519.94C488.311 519.94 486.59 518.394 486.59 516.847C486.59 515.3 488.311 513.754 490.032 513.754C491.753 513.754 493.475 515.3 493.475 516.847Z" fill="white"/>
<path opacity="0.7" d="M660.423 290.279C660.423 291.826 658.701 293.372 656.98 293.372C655.259 293.372 653.538 291.826 653.538 290.279C653.538 288.732 655.259 287.186 656.98 287.186C658.701 287.186 660.423 288.732 660.423 290.279Z" fill="white"/>
<path opacity="0.7" d="M585.552 498.288C585.552 499.834 584.691 500.607 582.97 500.607C581.249 500.607 580.388 499.834 580.388 498.288C580.388 496.741 581.249 495.968 582.97 495.968C584.691 495.968 585.552 496.741 585.552 498.288Z" fill="white"/>
<path opacity="0.7" d="M835.983 409.362C835.983 411.682 833.401 414.001 830.819 414.001C828.237 414.001 825.656 411.682 825.656 409.362C825.656 407.042 828.237 404.722 830.819 404.722C834.261 404.722 835.983 406.269 835.983 409.362Z" fill="white"/>
<path opacity="0.7" d="M590.72 251.616C590.72 253.162 589.859 253.936 588.138 253.936C586.417 253.936 585.557 253.162 585.557 251.616C585.557 250.069 586.417 249.296 588.138 249.296C588.999 249.296 590.72 250.069 590.72 251.616Z" fill="white"/>
<path opacity="0.7" d="M543.39 1.8499C543.39 2.62317 542.529 3.39643 541.669 3.39643C540.808 3.39643 539.947 2.62317 539.947 1.8499C539.947 1.07663 540.808 0.303357 541.669 0.303357C542.529 -0.469914 543.39 0.303362 543.39 1.8499Z" fill="white"/>
<path opacity="0.7" d="M545.104 161.917C545.104 162.69 544.244 163.463 543.383 163.463C542.522 163.463 541.662 162.69 541.662 161.917C541.662 161.143 542.522 160.37 543.383 160.37C544.244 160.37 545.104 161.143 545.104 161.917Z" fill="white"/>
<path opacity="0.7" d="M764.554 100.055C764.554 100.829 763.694 101.602 762.833 101.602C761.973 101.602 761.112 100.829 761.112 100.055C761.112 99.2821 761.973 98.5088 762.833 98.5088C763.694 98.5088 764.554 99.2821 764.554 100.055Z" fill="white"/>
<path opacity="0.7" d="M754.233 202.126C754.233 202.9 753.372 203.673 752.511 203.673C751.651 203.673 750.79 202.9 750.79 202.126C750.79 201.353 751.651 200.58 752.511 200.58C753.372 200.58 754.233 201.353 754.233 202.126Z" fill="white"/>
<path opacity="0.7" d="M664.729 62.9373C664.729 63.7105 663.868 64.4838 663.007 64.4838C662.147 64.4838 661.286 63.7105 661.286 62.9373C661.286 62.164 662.147 61.3908 663.007 61.3908C663.868 60.6175 664.729 61.3908 664.729 62.9373Z" fill="white"/>
<path opacity="0.7" d="M838.57 194.394C839.521 194.394 840.291 193.702 840.291 192.847C840.291 191.993 839.521 191.301 838.57 191.301C837.62 191.301 836.849 191.993 836.849 192.847C836.849 193.702 837.62 194.394 838.57 194.394Z" fill="white"/>
<path opacity="0.7" d="M619.12 25.0471C619.12 25.8204 618.259 26.5936 617.399 26.5936C616.538 26.5936 615.677 25.8204 615.677 25.0471C615.677 24.2738 616.538 23.5006 617.399 23.5006C618.259 23.5006 619.12 24.2738 619.12 25.0471Z" fill="white"/>
<path opacity="0.7" d="M43.3872 7.26216C43.3872 9.58197 40.8054 11.9018 38.2237 11.9018C35.6419 11.9018 33.0602 9.58197 33.0602 7.26216C33.0602 4.94235 35.6419 2.62256 38.2237 2.62256C41.666 2.62256 43.3872 4.94235 43.3872 7.26216Z" fill="white"/>
<path opacity="0.7" d="M718.948 35.8741C718.948 37.4206 717.227 38.9672 715.506 38.9672C713.785 38.9672 712.064 37.4206 712.064 35.8741C712.064 34.3276 713.785 32.781 715.506 32.781C717.227 32.781 718.948 34.3276 718.948 35.8741Z" fill="white"/>
<path opacity="0.7" d="M689.686 199.032C689.686 200.579 687.965 202.126 686.244 202.126C684.523 202.126 682.802 200.579 682.802 199.032C682.802 197.486 684.523 195.939 686.244 195.939C688.826 195.939 689.686 197.486 689.686 199.032Z" fill="white"/>
<path opacity="0.7" d="M632.025 158.049C632.025 159.596 630.304 161.142 628.582 161.142C626.861 161.142 625.14 159.596 625.14 158.049C625.14 156.503 626.861 154.956 628.582 154.956C631.164 154.956 632.025 155.73 632.025 158.049Z" fill="white"/>
<path opacity="0.7" d="M493.475 105.468C493.475 107.014 491.753 108.561 490.032 108.561C488.311 108.561 486.59 107.014 486.59 105.468C486.59 103.921 488.311 102.375 490.032 102.375C491.753 102.375 493.475 103.148 493.475 105.468Z" fill="white"/>
<path opacity="0.7" d="M585.552 86.1352C585.552 87.6818 584.691 88.4551 582.97 88.4551C581.249 88.4551 580.388 87.6818 580.388 86.1352C580.388 84.5887 581.249 83.8154 582.97 83.8154C584.691 83.8154 585.552 85.362 585.552 86.1352Z" fill="white"/>
<path opacity="0.7" d="M541.664 196.713C541.664 198.26 540.804 199.033 539.083 199.033C537.362 199.033 536.501 198.26 536.501 196.713C536.501 195.167 537.362 194.394 539.083 194.394C539.943 194.394 541.664 195.167 541.664 196.713Z" fill="white"/>
<path opacity="0.7" d="M695.712 144.131C695.712 145.677 694.851 146.45 693.13 146.45C691.409 146.45 690.549 145.677 690.549 144.131C690.549 142.584 691.409 141.811 693.13 141.811C693.991 141.811 695.712 142.584 695.712 144.131Z" fill="white"/>
<path opacity="0.7" d="M483.143 186.66C483.143 188.98 480.561 191.3 477.979 191.3C475.398 191.3 472.816 188.98 472.816 186.66C472.816 184.34 475.398 182.021 477.979 182.021C481.422 182.021 483.143 184.34 483.143 186.66Z" fill="white"/>
<path opacity="0.7" d="M736.157 451.118C736.157 451.892 735.296 452.665 734.435 452.665C733.575 452.665 732.714 451.892 732.714 451.118C732.714 450.345 733.575 449.572 734.435 449.572C735.296 449.572 736.157 450.345 736.157 451.118Z" fill="white"/>
<path opacity="0.7" d="M551.129 533.085C551.129 534.632 550.268 535.405 548.547 535.405C546.826 535.405 545.965 534.632 545.965 533.085C545.965 531.539 546.826 530.765 548.547 530.765C550.268 530.765 551.129 531.539 551.129 533.085Z" fill="white"/>
<path opacity="0.7" d="M811.886 69.8969C811.886 70.6702 811.026 71.4434 810.165 71.4434C809.305 71.4434 808.444 70.6702 808.444 69.8969C808.444 69.1236 809.305 68.3503 810.165 68.3503C811.026 68.3503 811.886 69.1236 811.886 69.8969Z" fill="white"/>
<path opacity="0.7" d="M791.238 260.895C791.238 263.214 788.656 265.534 786.074 265.534C783.493 265.534 780.911 263.214 780.911 260.895C780.911 258.575 783.493 256.255 786.074 256.255C788.656 256.255 791.238 258.575 791.238 260.895Z" fill="white"/>
<path opacity="0.7" d="M839.43 189.754C839.43 191.3 837.709 192.847 835.988 192.847C834.267 192.847 832.546 191.3 832.546 189.754C832.546 188.207 834.267 186.66 835.988 186.66C838.57 186.66 839.43 188.207 839.43 189.754Z" fill="white"/>
<path opacity="0.7" d="M898.807 69.897C898.807 71.4436 897.086 72.9901 895.365 72.9901C893.644 72.9901 891.923 71.4436 891.923 69.897C891.923 68.3505 893.644 66.804 895.365 66.804C897.947 66.804 898.807 68.3505 898.807 69.897Z" fill="white"/>
<path opacity="0.7" d="M870.408 277.906C870.408 279.452 868.687 280.999 866.966 280.999C865.245 280.999 863.523 279.452 863.523 277.906C863.523 276.359 865.245 274.813 866.966 274.813C868.687 274.813 870.408 276.359 870.408 277.906Z" fill="white"/>
<path opacity="0.7" d="M928.929 293.372C928.929 294.918 928.068 295.691 926.347 295.691C924.626 295.691 923.765 294.918 923.765 293.372C923.765 291.825 924.626 291.052 926.347 291.052C927.208 291.052 928.929 292.598 928.929 293.372Z" fill="white"/>
<path opacity="0.7" d="M1179.36 203.673C1179.36 202.9 1180.22 202.126 1181.08 202.126C1181.94 202.126 1182.8 202.9 1182.8 203.673C1182.8 204.446 1181.94 205.219 1181.08 205.219C1180.22 205.993 1179.36 205.219 1179.36 203.673Z" fill="white"/>
<path opacity="0.7" d="M1127.73 35.8738C1127.73 35.1005 1128.59 34.3273 1129.45 34.3273C1130.31 34.3273 1131.17 35.1005 1131.17 35.8738C1131.17 36.6471 1130.31 37.4204 1129.45 37.4204C1128.59 37.4204 1127.73 37.4204 1127.73 35.8738Z" fill="white"/>
<path opacity="0.7" d="M998.638 239.244C998.638 238.47 999.499 237.697 1000.36 237.697C1001.22 237.697 1002.08 238.47 1002.08 239.244C1002.08 240.017 1001.22 240.79 1000.36 240.79C999.499 240.79 998.638 240.017 998.638 239.244Z" fill="white"/>
<path opacity="0.7" d="M1020.15 48.2458C1020.15 45.926 1022.73 43.6062 1025.31 43.6062C1027.9 43.6062 1030.48 45.926 1030.48 48.2458C1030.48 50.5656 1027.9 52.8854 1025.31 52.8854C1022.73 52.8854 1020.15 50.5656 1020.15 48.2458Z" fill="white"/>
<path opacity="0.7" d="M1172.48 100.828C1172.48 99.2814 1174.2 97.7349 1175.92 97.7349C1177.64 97.7349 1179.36 99.2814 1179.36 100.828C1179.36 102.374 1177.64 103.921 1175.92 103.921C1174.2 103.921 1172.48 102.374 1172.48 100.828Z" fill="white"/>
<path opacity="0.7" d="M1138.05 346.727C1138.05 345.954 1138.91 345.18 1139.77 345.18C1140.63 345.18 1141.5 345.954 1141.5 346.727C1141.5 347.5 1140.63 348.274 1139.77 348.274C1138.91 348.274 1138.05 347.5 1138.05 346.727Z" fill="white"/>
<path opacity="0.7" d="M1172.48 512.207C1172.48 510.66 1174.2 509.113 1175.92 509.113C1177.64 509.113 1179.36 510.66 1179.36 512.207C1179.36 513.753 1177.64 515.3 1175.92 515.3C1174.2 515.3 1172.48 514.526 1172.48 512.207Z" fill="white"/>
<path opacity="0.7" d="M376.436 78.4032C376.436 77.63 377.296 76.8567 378.157 76.8567C379.017 76.8567 379.878 77.63 379.878 78.4032C379.878 79.1765 379.017 79.9498 378.157 79.9498C377.296 79.9498 376.436 79.1765 376.436 78.4032Z" fill="white"/>
<path opacity="0.7" d="M1024.46 134.079C1024.46 132.532 1026.18 130.985 1027.9 130.985C1029.62 130.985 1031.34 132.532 1031.34 134.079C1031.34 135.625 1029.62 137.172 1027.9 137.172C1026.18 137.172 1024.46 135.625 1024.46 134.079Z" fill="white"/>
<path opacity="0.7" d="M940.977 31.2336C940.977 29.6871 942.698 28.1405 944.419 28.1405C946.14 28.1405 947.861 29.6871 947.861 31.2336C947.861 32.7801 946.14 34.3267 944.419 34.3267C942.698 34.3267 940.977 32.7801 940.977 31.2336Z" fill="white"/>
<path opacity="0.7" d="M940.977 443.386C940.977 441.839 942.698 440.293 944.419 440.293C946.14 440.293 947.861 441.839 947.861 443.386C947.861 444.932 946.14 446.479 944.419 446.479C941.837 446.479 940.977 444.932 940.977 443.386Z" fill="white"/>
<path opacity="0.7" d="M951.305 362.193C951.305 359.873 953.887 357.554 956.469 357.554C959.051 357.554 961.632 359.873 961.632 362.193C961.632 364.513 959.051 366.833 956.469 366.833C953.027 366.06 951.305 364.513 951.305 362.193Z" fill="white"/>
<path opacity="0.7" d="M1592.44 349.82C1592.44 351.367 1591.58 352.14 1589.85 352.14C1588.13 352.14 1587.27 351.367 1587.27 349.82C1587.27 348.274 1588.13 347.501 1589.85 347.501C1590.72 347.501 1592.44 348.274 1592.44 349.82Z" fill="white"/>
<path opacity="0.7" d="M1537.37 344.408C1537.37 345.181 1536.5 345.954 1535.64 345.954C1534.78 345.954 1533.92 345.181 1533.92 344.408C1533.92 343.634 1534.78 342.861 1535.64 342.861C1536.5 342.861 1537.37 343.634 1537.37 344.408Z" fill="white"/>
<path opacity="0.7" d="M1698.29 349.821C1698.29 350.594 1697.43 351.367 1696.57 351.367C1695.71 351.367 1694.85 350.594 1694.85 349.821C1694.85 349.048 1695.71 348.274 1696.57 348.274C1697.43 347.501 1698.29 348.274 1698.29 349.821Z" fill="white"/>
<path opacity="0.7" d="M1589 512.206C1589 512.98 1588.14 513.753 1587.28 513.753C1586.42 513.753 1585.56 512.98 1585.56 512.206C1585.56 511.433 1586.42 510.66 1587.28 510.66C1588.14 510.66 1589 511.433 1589 512.206Z" fill="white"/>
<path opacity="0.7" d="M235.295 113.2C235.295 113.973 234.434 114.747 233.573 114.747C232.713 114.747 231.852 113.973 231.852 113.2C231.852 112.427 232.713 111.653 233.573 111.653C234.434 110.88 235.295 111.653 235.295 113.2Z" fill="white"/>
<path opacity="0.7" d="M1910 409.363C1910 410.136 1909.14 410.909 1908.28 410.909C1907.41 410.909 1906.55 410.136 1906.55 409.363C1906.55 408.589 1907.41 407.816 1908.28 407.816C1909.14 407.043 1910 407.816 1910 409.363Z" fill="white"/>
<path opacity="0.7" d="M1717.22 309.61C1717.22 310.383 1716.36 311.156 1715.5 311.156C1714.64 311.156 1713.78 310.383 1713.78 309.61C1713.78 308.837 1714.64 308.063 1715.5 308.063C1716.36 308.063 1717.22 308.837 1717.22 309.61Z" fill="white"/>
<path opacity="0.7" d="M1524.46 268.627C1524.46 269.4 1523.6 270.173 1522.73 270.173C1521.87 270.173 1521.01 269.4 1521.01 268.627C1521.01 267.853 1521.87 267.08 1522.73 267.08C1523.6 267.08 1524.46 267.853 1524.46 268.627Z" fill="white"/>
<path opacity="0.7" d="M1492.61 372.245C1492.61 373.792 1491.75 374.565 1490.03 374.565C1488.31 374.565 1487.45 373.792 1487.45 372.245C1487.45 370.699 1488.31 369.925 1490.03 369.925C1490.89 369.925 1492.61 370.699 1492.61 372.245Z" fill="white"/>
<path opacity="0.7" d="M5.51786 75.3103C5.51786 77.6301 2.93612 79.9499 0.354367 79.9499C-2.22739 79.9499 -4.80914 77.6301 -4.80914 75.3103C-4.80914 72.9905 -2.22739 70.6707 0.354367 70.6707C3.7967 71.4439 5.51786 72.9905 5.51786 75.3103Z" fill="white"/>
<path opacity="0.7" d="M1347.18 309.611C1347.18 311.157 1345.46 312.704 1343.73 312.704C1342.01 312.704 1340.29 311.157 1340.29 309.611C1340.29 308.064 1342.01 306.518 1343.73 306.518C1345.46 306.518 1347.18 308.064 1347.18 309.611Z" fill="white"/>
<path opacity="0.7" d="M1485.73 290.279C1485.73 291.826 1484.01 293.372 1482.28 293.372C1480.56 293.372 1478.84 291.826 1478.84 290.279C1478.84 288.732 1480.56 287.186 1482.28 287.186C1484.01 287.186 1485.73 288.732 1485.73 290.279Z" fill="white"/>
<path opacity="0.7" d="M1367.83 1.8499C1367.83 2.62317 1366.97 3.39643 1366.11 3.39643C1365.25 3.39643 1364.39 2.62317 1364.39 1.8499C1364.39 1.07663 1365.25 0.303357 1366.11 0.303357C1366.97 -0.469914 1367.83 0.303362 1367.83 1.8499Z" fill="white"/>
<path opacity="0.7" d="M1725.83 72.2162C1725.83 72.9895 1724.97 73.7628 1724.11 73.7628C1723.25 73.7628 1722.39 72.9895 1722.39 72.2162C1722.39 71.443 1723.25 70.6697 1724.11 70.6697C1724.97 69.8964 1725.83 70.6697 1725.83 72.2162Z" fill="white"/>
<path opacity="0.7" d="M1589 100.055C1589 100.829 1588.14 101.602 1587.28 101.602C1586.42 101.602 1585.56 100.829 1585.56 100.055C1585.56 99.2821 1586.42 98.5088 1587.28 98.5088C1588.14 98.5088 1589 99.2821 1589 100.055Z" fill="white"/>
<path opacity="0.7" d="M1578.67 202.126C1578.67 202.9 1577.81 203.673 1576.95 203.673C1576.09 203.673 1575.23 202.9 1575.23 202.126C1575.23 201.353 1576.09 200.58 1576.95 200.58C1577.81 200.58 1578.67 201.353 1578.67 202.126Z" fill="white"/>
<path opacity="0.7" d="M1489.17 62.9373C1489.17 63.7105 1488.31 64.4838 1487.45 64.4838C1486.59 64.4838 1485.73 63.7105 1485.73 62.9373C1485.73 62.164 1486.59 61.3908 1487.45 61.3908C1488.31 60.6175 1489.17 61.3908 1489.17 62.9373Z" fill="white"/>
<path opacity="0.7" d="M1664.73 192.847C1664.73 193.621 1663.87 194.394 1663.01 194.394C1662.15 194.394 1661.29 193.621 1661.29 192.847C1661.29 192.074 1662.15 191.301 1663.01 191.301C1663.87 191.301 1664.73 192.074 1664.73 192.847Z" fill="white"/>
<path opacity="0.7" d="M1443.56 25.0471C1443.56 25.8204 1442.7 26.5936 1441.84 26.5936C1440.98 26.5936 1440.12 25.8204 1440.12 25.0471C1440.12 24.2738 1440.98 23.5006 1441.84 23.5006C1442.7 23.5006 1443.56 24.2738 1443.56 25.0471Z" fill="white"/>
<path opacity="0.7" d="M1544.25 35.8741C1544.25 37.4206 1542.52 38.9672 1540.8 38.9672C1539.08 38.9672 1537.36 37.4206 1537.36 35.8741C1537.36 34.3276 1539.08 32.781 1540.8 32.781C1542.52 32.781 1544.25 34.3276 1544.25 35.8741Z" fill="white"/>
<path opacity="0.7" d="M1514.99 199.032C1514.99 200.579 1513.27 202.126 1511.55 202.126C1509.83 202.126 1508.11 200.579 1508.11 199.032C1508.11 197.486 1509.83 195.939 1511.55 195.939C1513.27 195.939 1514.99 197.486 1514.99 199.032Z" fill="white"/>
<path opacity="0.7" d="M1457.33 158.049C1457.33 159.596 1455.61 161.142 1453.89 161.142C1452.17 161.142 1450.44 159.596 1450.44 158.049C1450.44 156.503 1452.17 154.956 1453.89 154.956C1455.61 154.956 1457.33 155.73 1457.33 158.049Z" fill="white"/>
<path opacity="0.7" d="M1318.77 105.468C1318.77 107.014 1317.05 108.561 1315.33 108.561C1313.61 108.561 1311.89 107.014 1311.89 105.468C1311.89 103.921 1313.61 102.375 1315.33 102.375C1317.05 102.375 1318.77 103.148 1318.77 105.468Z" fill="white"/>
<path opacity="0.7" d="M1410 86.1352C1410 87.6818 1409.14 88.4551 1407.42 88.4551C1405.7 88.4551 1404.84 87.6818 1404.84 86.1352C1404.84 84.5887 1405.7 83.8154 1407.42 83.8154C1409.14 83.8154 1410 85.362 1410 86.1352Z" fill="white"/>
<path opacity="0.7" d="M1564.9 390.803C1564.9 391.576 1564.04 392.349 1563.18 392.349C1562.32 392.349 1561.46 391.576 1561.46 390.803C1561.46 390.029 1562.32 389.256 1563.18 389.256C1564.04 388.483 1564.9 389.256 1564.9 390.803Z" fill="white"/>
<path opacity="0.7" d="M1055.43 447.253C1055.43 448.799 1053.71 450.346 1051.99 450.346C1050.27 450.346 1048.55 448.799 1048.55 447.253C1048.55 445.706 1050.27 444.16 1051.99 444.16C1053.71 444.16 1055.43 444.933 1055.43 447.253Z" fill="white"/>
<path opacity="0.7" d="M1725.83 516.846C1725.83 517.619 1724.97 518.393 1724.11 518.393C1723.25 518.393 1722.39 517.619 1722.39 516.846C1722.39 516.073 1723.25 515.3 1724.11 515.3C1724.97 515.3 1725.83 516.073 1725.83 516.846Z" fill="white"/>
<path opacity="0.7" d="M1376.43 533.085C1376.43 534.632 1375.57 535.405 1373.85 535.405C1372.13 535.405 1371.27 534.632 1371.27 533.085C1371.27 531.539 1372.13 530.765 1373.85 530.765C1375.57 530.765 1376.43 531.539 1376.43 533.085Z" fill="white"/>
<path opacity="0.7" d="M1888.48 160.37C1888.48 161.143 1887.62 161.916 1886.76 161.916C1885.9 161.916 1885.04 161.143 1885.04 160.37C1885.04 159.597 1885.9 158.823 1886.76 158.823C1887.62 158.05 1888.48 158.823 1888.48 160.37Z" fill="white"/>
<path opacity="0.7" d="M1768.86 351.366C1768.86 352.913 1767.14 354.459 1765.42 354.459C1763.7 354.459 1761.98 352.913 1761.98 351.366C1761.98 349.82 1763.7 348.273 1765.42 348.273C1767.14 348.273 1768.86 349.82 1768.86 351.366Z" fill="white"/>
<path opacity="0.7" d="M1804.14 309.611C1804.14 311.157 1802.42 312.704 1800.7 312.704C1798.98 312.704 1797.26 311.157 1797.26 309.611C1797.26 308.064 1798.98 306.518 1800.7 306.518C1803.28 306.518 1804.14 308.064 1804.14 309.611Z" fill="white"/>
<path opacity="0.7" d="M1775.75 516.847C1775.75 518.394 1774.02 519.94 1772.3 519.94C1770.58 519.94 1768.86 518.394 1768.86 516.847C1768.86 515.3 1770.58 513.754 1772.3 513.754C1774.02 513.754 1775.75 515.3 1775.75 516.847Z" fill="white"/>
<path opacity="0.7" d="M1867.82 498.288C1867.82 499.834 1866.96 500.607 1865.24 500.607C1863.52 500.607 1862.66 499.834 1862.66 498.288C1862.66 496.741 1863.52 495.968 1865.24 495.968C1866.96 495.968 1867.82 496.741 1867.82 498.288Z" fill="white"/>
<path opacity="0.7" d="M1872.99 251.616C1872.99 253.162 1872.13 253.936 1870.41 253.936C1868.69 253.936 1867.83 253.162 1867.83 251.616C1867.83 250.069 1868.69 249.296 1870.41 249.296C1872.13 249.296 1872.99 250.069 1872.99 251.616Z" fill="white"/>
<path opacity="0.7" d="M1910 820.669C1910 821.442 1909.14 822.215 1908.28 822.215C1907.41 822.215 1906.55 821.442 1906.55 820.669C1906.55 819.895 1907.41 819.122 1908.28 819.122C1909.14 818.349 1910 819.122 1910 820.669Z" fill="white"/>
<path opacity="0.7" d="M1888.48 571.676C1888.48 572.449 1887.62 573.222 1886.76 573.222C1885.9 573.222 1885.04 572.449 1885.04 571.676C1885.04 570.902 1885.9 570.129 1886.76 570.129C1887.62 569.356 1888.48 570.129 1888.48 571.676Z" fill="white"/>
<path opacity="0.7" d="M1768.86 762.672C1768.86 764.219 1767.14 765.765 1765.42 765.765C1763.7 765.765 1761.98 764.219 1761.98 762.672C1761.98 761.126 1763.7 759.579 1765.42 759.579C1767.14 759.579 1768.86 761.126 1768.86 762.672Z" fill="white"/>
<path opacity="0.7" d="M1804.14 720.917C1804.14 722.463 1802.42 724.01 1800.7 724.01C1798.98 724.01 1797.26 722.463 1797.26 720.917C1797.26 719.37 1798.98 717.824 1800.7 717.824C1803.28 717.824 1804.14 719.37 1804.14 720.917Z" fill="white"/>
<path opacity="0.7" d="M1872.99 662.922C1872.99 664.468 1872.13 665.242 1870.41 665.242C1868.69 665.242 1867.83 664.468 1867.83 662.922C1867.83 661.375 1868.69 660.602 1870.41 660.602C1872.13 660.602 1872.99 661.375 1872.99 662.922Z" fill="white"/>
<path opacity="0.7" d="M1825.66 1.8499C1825.66 2.62317 1824.8 3.39643 1823.94 3.39643C1823.08 3.39643 1822.22 2.62317 1822.22 1.8499C1822.22 1.07663 1823.08 0.303357 1823.94 0.303357C1824.8 -0.469914 1825.66 0.303362 1825.66 1.8499Z" fill="white"/>
<path opacity="0.7" d="M1901.39 25.0471C1901.39 25.8204 1900.53 26.5936 1899.67 26.5936C1898.81 26.5936 1897.95 25.8204 1897.95 25.0471C1897.95 24.2738 1898.81 23.5006 1899.67 23.5006C1900.53 23.5006 1901.39 24.2738 1901.39 25.0471Z" fill="white"/>
<path opacity="0.7" d="M842.873 475.863C842.873 478.183 840.291 480.503 837.709 480.503C835.127 480.503 832.546 478.183 832.546 475.863C832.546 473.544 835.127 471.224 837.709 471.224C841.151 471.997 842.873 473.544 842.873 475.863Z" fill="white"/>
<g opacity="0.7">
<path opacity="0.7" d="M940.12 130.212L940.98 146.45L959.913 147.997L941.841 148.77L940.12 165.782L938.398 148.77L920.326 147.997L938.398 146.45L940.12 130.212Z" fill="white"/>
<path opacity="0.7" d="M947.863 140.264L941.839 147.224L947.863 154.957L940.118 148.77L931.512 155.73L938.397 147.997L931.512 140.264L940.118 146.451L947.863 140.264Z" fill="white"/>
</g>
<g opacity="0.7">
<path opacity="0.7" d="M744.766 96.9611L746.488 113.2L764.56 114.746L746.488 115.519L744.766 132.531L743.045 115.519L724.973 114.746L743.045 113.2L744.766 96.9611Z" fill="white"/>
<path opacity="0.7" d="M752.51 107.014L746.486 114.746L752.51 121.706L744.765 116.293L736.159 122.479L743.905 114.746L736.159 107.787L744.765 113.2L752.51 107.014Z" fill="white"/>
</g>
<g opacity="0.7">
<path opacity="0.7" d="M869.552 523.807L870.412 534.633L883.321 536.179H870.412L869.552 548.551L868.691 536.179H855.782L868.691 534.633L869.552 523.807Z" fill="white"/>
<path opacity="0.7" d="M874.718 530.766L870.415 535.405L874.718 540.818L869.554 536.178L863.53 540.818L868.694 535.405L863.53 530.766L869.554 534.632L874.718 530.766Z" fill="white"/>
</g>
<g opacity="0.7">
<path opacity="0.7" d="M440.118 74.5365L440.978 85.3623L453.887 86.9088H441.839L440.118 99.2811L439.257 86.9088H426.348L439.257 85.3623L440.118 74.5365Z" fill="white"/>
<path opacity="0.7" d="M446.144 81.4952L441.841 86.1348L446.144 91.5477L440.12 87.6814L434.096 91.5477L439.26 86.9081L434.096 81.4952L440.12 85.3616L446.144 81.4952Z" fill="white"/>
</g>
<g opacity="0.7">
<path opacity="0.7" d="M1240.46 62.1635L1241.32 72.9892L1254.23 74.5357H1241.32L1240.46 86.908L1239.6 74.5357H1226.69L1239.6 72.9892L1240.46 62.1635Z" fill="white"/>
<path opacity="0.7" d="M1246.49 69.1222L1241.32 73.7618L1246.49 79.1747L1240.46 75.3083L1234.44 79.1747L1239.6 74.5351L1234.44 69.1222L1240.46 72.9885L1246.49 69.1222Z" fill="white"/>
</g>
<g opacity="0.7">
<path opacity="0.7" d="M1609.65 478.956L1611.38 494.422L1629.45 496.741H1611.38L1609.65 514.527L1607.93 496.741H1589.86L1607.93 494.422L1609.65 478.956Z" fill="white"/>
<path opacity="0.7" d="M1617.4 488.235L1611.37 495.968L1617.4 503.701L1609.65 497.514L1601.05 503.701L1608.79 495.968L1601.05 489.009L1609.65 494.421L1617.4 488.235Z" fill="white"/>
</g>
<g opacity="0.7">
<path opacity="0.7" d="M1734.44 74.5365L1735.3 85.3623L1748.21 86.9088H1735.3L1734.44 99.2811L1733.58 86.9088H1720.67L1733.58 85.3623L1734.44 74.5365Z" fill="white"/>
<path opacity="0.7" d="M1739.61 81.4952L1735.3 86.1348L1739.61 91.5477L1734.44 87.6814L1728.42 91.5477L1733.58 86.9081L1728.42 81.4952L1734.44 85.3616L1739.61 81.4952Z" fill="white"/>
</g>
<g opacity="0.7">
<path opacity="0.7" d="M1459.91 332.036L1460.77 343.635L1473.68 344.408L1460.77 345.181L1459.91 356.78L1459.05 345.181L1446.14 344.408L1459.05 343.635L1459.91 332.036Z" fill="white"/>
<path opacity="0.7" d="M1465.08 338.994L1460.78 344.407L1465.08 349.82L1459.91 345.181L1453.89 349.82L1459.05 344.407L1453.89 339.768L1459.91 343.634L1465.08 338.994Z" fill="white"/>
</g>
<g opacity="0.7">
<path opacity="0.7" d="M1277.46 403.95L1278.33 415.549L1291.23 416.322L1278.33 417.095L1277.46 428.694L1276.6 417.095L1263.7 416.322L1276.6 415.549L1277.46 403.95Z" fill="white"/>
<path opacity="0.7" d="M1282.63 410.908L1278.33 416.321L1282.63 421.734L1277.47 417.095L1271.44 421.734L1276.61 416.321L1271.44 411.682L1277.47 415.548L1282.63 410.908Z" fill="white"/>
</g>
<g opacity="0.7">
<path opacity="0.7" d="M1355.78 97.7349L1357.5 108.561L1369.55 110.107H1357.5L1355.78 122.479L1354.92 110.107H1342.01L1354.92 108.561L1355.78 97.7349Z" fill="white"/>
<path opacity="0.7" d="M1361.81 104.694L1357.51 109.333L1361.81 114.746L1356.65 110.88L1349.76 114.746L1354.92 110.107L1349.76 104.694L1355.79 108.56L1361.81 104.694Z" fill="white"/>
</g>
<path opacity="0.7" d="M1645.57 951.875C1645.57 950.328 1646.43 949.555 1648.15 949.555C1649.88 949.555 1650.74 950.328 1650.74 951.875C1650.74 953.421 1649.88 954.195 1648.15 954.195C1647.29 954.195 1645.57 953.421 1645.57 951.875Z" fill="white"/>
<path opacity="0.7" d="M1539.87 946.733C1539.87 945.96 1540.73 945.187 1541.59 945.187C1542.45 945.187 1543.31 945.96 1543.31 946.733C1543.31 947.507 1542.45 948.28 1541.59 948.28C1540.73 949.053 1539.87 948.28 1539.87 946.733Z" fill="white"/>
<path opacity="0.7" d="M1756.11 832.491C1756.11 831.717 1756.97 830.944 1757.83 830.944C1758.69 830.944 1759.55 831.717 1759.55 832.491C1759.55 833.264 1758.69 834.037 1757.83 834.037C1756.97 834.037 1756.11 833.264 1756.11 832.491Z" fill="white"/>
<path opacity="0.7" d="M559.426 869.232C559.426 868.458 560.287 867.685 561.147 867.685C562.008 867.685 562.869 868.458 562.869 869.232C562.869 870.005 562.008 870.778 561.147 870.778C560.287 870.778 559.426 870.005 559.426 869.232Z" fill="white"/>
<path opacity="0.7" d="M1512.05 1037.54C1512.05 1036.77 1512.91 1036 1513.77 1036C1514.63 1036 1515.49 1036.77 1515.49 1037.54C1515.49 1038.32 1514.63 1039.09 1513.77 1039.09C1512.91 1039.09 1512.05 1038.32 1512.05 1037.54Z" fill="white"/>
<path opacity="0.7" d="M1518.57 985.975C1518.57 985.201 1519.43 984.428 1520.29 984.428C1521.15 984.428 1522.02 985.201 1522.02 985.975C1522.02 986.748 1521.15 987.521 1520.29 987.521C1519.43 987.521 1518.57 986.748 1518.57 985.975Z" fill="white"/>
<path opacity="0.7" d="M1424.3 1251.73C1424.3 1250.18 1425.16 1249.41 1426.88 1249.41C1428.6 1249.41 1429.47 1250.18 1429.47 1251.73C1429.47 1253.27 1428.6 1254.05 1426.88 1254.05C1425.16 1254.05 1424.3 1252.5 1424.3 1251.73Z" fill="white"/>
<path opacity="0.7" d="M1436.53 887.625C1436.53 886.078 1438.26 884.532 1439.98 884.532C1441.7 884.532 1443.42 886.078 1443.42 887.625C1443.42 889.171 1441.7 890.718 1439.98 890.718C1437.4 890.718 1436.53 889.171 1436.53 887.625Z" fill="white"/>
<path opacity="0.7" d="M1565.57 1281.81C1565.57 1280.27 1567.29 1278.72 1569.01 1278.72C1570.73 1278.72 1572.45 1280.27 1572.45 1281.81C1572.45 1283.36 1570.73 1284.91 1569.01 1284.91C1567.29 1284.91 1565.57 1284.13 1565.57 1281.81Z" fill="white"/>
<path opacity="0.7" d="M1866.16 1039.22C1866.16 1037.67 1867.88 1036.13 1869.6 1036.13C1871.32 1036.13 1873.04 1037.67 1873.04 1039.22C1873.04 1040.77 1871.32 1042.31 1869.6 1042.31C1867.88 1042.31 1866.16 1040.77 1866.16 1039.22Z" fill="white"/>
<path opacity="0.7" d="M1748.58 1016.51C1748.58 1014.97 1750.3 1013.42 1752.03 1013.42C1753.75 1013.42 1755.47 1014.97 1755.47 1016.51C1755.47 1018.06 1753.75 1019.61 1752.03 1019.61C1750.3 1019.61 1748.58 1018.06 1748.58 1016.51Z" fill="white"/>
<path opacity="0.7" d="M1836.59 812.409C1836.59 810.863 1837.45 810.09 1839.17 810.09C1840.89 810.09 1841.75 810.863 1841.75 812.409C1841.75 813.956 1840.89 814.729 1839.17 814.729C1837.45 814.729 1836.59 813.956 1836.59 812.409Z" fill="white"/>
<path opacity="0.7" d="M1772.63 1119.08C1772.63 1117.53 1773.49 1116.76 1775.21 1116.76C1776.93 1116.76 1777.79 1117.53 1777.79 1119.08C1777.79 1120.62 1776.93 1121.4 1775.21 1121.4C1773.49 1121.4 1772.63 1119.85 1772.63 1119.08Z" fill="white"/>
<path opacity="0.7" d="M850.352 1135.72C850.352 1134.94 851.213 1134.17 852.073 1134.17C852.934 1134.17 853.795 1134.94 853.795 1135.72C853.795 1136.49 852.934 1137.26 852.073 1137.26C851.213 1137.26 850.352 1137.26 850.352 1135.72Z" fill="white"/>
<path opacity="0.7" d="M1634.14 1201.41C1634.14 1200.63 1635 1199.86 1635.86 1199.86C1636.72 1199.86 1637.58 1200.63 1637.58 1201.41C1637.58 1202.18 1636.72 1202.95 1635.86 1202.95C1635 1202.95 1634.14 1202.18 1634.14 1201.41Z" fill="white"/>
<path opacity="0.7" d="M1564.04 1105.1C1564.04 1104.33 1564.9 1103.55 1565.76 1103.55C1566.62 1103.55 1567.48 1104.33 1567.48 1105.1C1567.48 1105.87 1566.62 1106.64 1565.76 1106.64C1564.9 1106.64 1564.04 1105.87 1564.04 1105.1Z" fill="white"/>
<path opacity="0.7" d="M1722.88 768.163C1722.88 767.389 1723.74 766.616 1724.61 766.616C1725.47 766.616 1726.33 767.389 1726.33 768.163C1726.33 768.936 1725.47 769.709 1724.61 769.709C1723.74 769.709 1722.88 768.936 1722.88 768.163Z" fill="white"/>
<path opacity="0.7" d="M1675 1267.73C1675 1266.19 1676.72 1264.64 1678.45 1264.64C1680.17 1264.64 1681.89 1266.19 1681.89 1267.73C1681.89 1269.28 1680.17 1270.83 1678.45 1270.83C1676.72 1270.83 1675 1269.28 1675 1267.73Z" fill="white"/>
<path opacity="0.7" d="M941.964 1160.35C941.964 1158.81 943.685 1157.26 945.406 1157.26C947.127 1157.26 948.848 1158.81 948.848 1160.35C948.848 1161.9 947.127 1163.45 945.406 1163.45C942.824 1163.45 941.964 1162.67 941.964 1160.35Z" fill="white"/>
<path opacity="0.7" d="M1526.42 825.447C1526.42 823.127 1529 820.807 1531.59 820.807C1534.17 820.807 1536.75 823.127 1536.75 825.447C1536.75 827.767 1534.17 830.086 1531.59 830.086C1529 829.313 1526.42 827.767 1526.42 825.447Z" fill="white"/>
<path opacity="0.7" d="M1675.5 912.236C1675.5 911.463 1676.36 910.69 1677.22 910.69C1678.09 910.69 1678.95 911.463 1678.95 912.236C1678.95 913.01 1678.09 913.783 1677.22 913.783C1676.36 914.556 1675.5 913.783 1675.5 912.236Z" fill="white"/>
<path opacity="0.7" d="M1577.5 778.186C1577.5 777.413 1578.36 776.639 1579.22 776.639C1580.08 776.639 1580.94 777.413 1580.94 778.186C1580.94 778.959 1580.08 779.732 1579.22 779.732C1578.36 779.732 1577.5 778.959 1577.5 778.186Z" fill="white"/>
<path opacity="0.7" d="M736.917 913.416C736.917 912.643 737.777 911.87 738.638 911.87C739.498 911.87 740.359 912.643 740.359 913.416C740.359 914.19 739.498 914.963 738.638 914.963C737.777 914.963 736.917 914.19 736.917 913.416Z" fill="white"/>
<path opacity="0.7" d="M695.345 743.371C695.345 742.598 696.205 741.824 697.066 741.824C697.927 741.824 698.787 742.598 698.787 743.371C698.787 744.144 697.927 744.917 697.066 744.917C696.205 744.917 695.345 744.144 695.345 743.371Z" fill="white"/>
<path opacity="0.7" d="M954.271 765.928C954.271 765.155 955.132 764.382 955.993 764.382C956.853 764.382 957.714 765.155 957.714 765.928C957.714 766.702 956.853 767.475 955.993 767.475C955.132 767.475 954.271 766.702 954.271 765.928Z" fill="white"/>
<path opacity="0.7" d="M588.467 815.652C588.467 814.879 589.328 814.105 590.188 814.105C591.049 814.105 591.91 814.879 591.91 815.652C591.91 816.425 591.049 817.198 590.188 817.198C589.328 817.972 588.467 817.198 588.467 815.652Z" fill="white"/>
<path opacity="0.7" d="M736.204 809.699C736.204 808.152 737.925 806.606 739.646 806.606C741.368 806.606 743.089 808.152 743.089 809.699C743.089 811.245 741.368 812.792 739.646 812.792C737.925 812.792 736.204 811.245 736.204 809.699Z" fill="white"/>
<path opacity="0.7" d="M785.255 970.038C785.255 968.491 786.976 966.945 788.697 966.945C790.418 966.945 792.139 968.491 792.139 970.038C792.139 971.584 790.418 973.131 788.697 973.131C786.976 973.131 785.255 971.584 785.255 970.038Z" fill="white"/>
<path opacity="0.7" d="M741.901 728.58C741.901 727.806 742.762 727.033 743.622 727.033C744.483 727.033 745.343 727.806 745.343 728.58C745.343 729.353 744.483 730.126 743.622 730.126C742.762 730.126 741.901 729.353 741.901 728.58Z" fill="white"/>
<path opacity="0.7" d="M670.808 1154.93C670.808 1154.16 671.668 1153.38 672.529 1153.38C673.389 1153.38 674.25 1154.16 674.25 1154.93C674.25 1155.7 673.389 1156.48 672.529 1156.48C671.668 1156.48 670.808 1155.7 670.808 1154.93Z" fill="white"/>
<path opacity="0.7" d="M687.199 1053.5C687.199 1052.73 688.059 1051.96 688.92 1051.96C689.78 1051.96 690.641 1052.73 690.641 1053.5C690.641 1054.28 689.78 1055.05 688.92 1055.05C688.059 1055.05 687.199 1054.28 687.199 1053.5Z" fill="white"/>
<path opacity="0.7" d="M768.271 1196.8C768.271 1196.03 769.131 1195.26 769.992 1195.26C770.853 1195.26 771.713 1196.03 771.713 1196.8C771.713 1197.58 770.853 1198.35 769.992 1198.35C769.131 1199.12 768.271 1198.35 768.271 1196.8Z" fill="white"/>
<path opacity="0.7" d="M711.667 1221.26C711.667 1219.71 713.388 1218.17 715.109 1218.17C716.831 1218.17 718.552 1219.71 718.552 1221.26C718.552 1222.8 716.831 1224.35 715.109 1224.35C713.388 1224.35 711.667 1222.8 711.667 1221.26Z" fill="white"/>
<path opacity="0.7" d="M869.901 995.805C869.901 994.258 871.622 992.711 873.343 992.711C875.065 992.711 876.786 994.258 876.786 995.805C876.786 997.351 875.065 998.898 873.343 998.898C871.622 998.898 869.901 997.351 869.901 995.805Z" fill="white"/>
<path opacity="0.7" d="M921.77 877.421C921.77 876.647 922.631 875.874 923.491 875.874C924.352 875.874 925.213 876.647 925.213 877.421C925.213 878.194 924.352 878.967 923.491 878.967C922.631 878.967 921.77 878.194 921.77 877.421Z" fill="white"/>
<path opacity="0.7" d="M1872.18 779.279C1872.18 777.732 1873.04 776.959 1874.76 776.959C1876.48 776.959 1877.34 777.732 1877.34 779.279C1877.34 780.825 1876.48 781.599 1874.76 781.599C1873.04 781.599 1872.18 780.825 1872.18 779.279Z" fill="white"/>
<path opacity="0.7" d="M1184.19 928.192C1184.19 925.872 1186.77 923.552 1189.35 923.552C1191.93 923.552 1194.51 925.872 1194.51 928.192C1194.51 930.512 1191.93 932.831 1189.35 932.831C1186.77 932.058 1184.19 930.512 1184.19 928.192Z" fill="white"/>
<path opacity="0.7" d="M1243.93 937.877C1243.93 937.104 1244.79 936.331 1245.65 936.331C1246.51 936.331 1247.37 937.104 1247.37 937.877C1247.37 938.65 1246.51 939.424 1245.65 939.424C1244.79 939.424 1243.93 938.65 1243.93 937.877Z" fill="white"/>
<path opacity="0.7" d="M1338.67 1126.75C1338.67 1125.98 1339.53 1125.2 1340.39 1125.2C1341.25 1125.2 1342.11 1125.98 1342.11 1126.75C1342.11 1127.52 1341.25 1128.3 1340.39 1128.3C1339.53 1129.07 1338.67 1128.3 1338.67 1126.75Z" fill="white"/>
<path opacity="0.7" d="M1201.5 767.79C1201.5 767.017 1202.37 766.244 1203.23 766.244C1204.09 766.244 1204.95 767.017 1204.95 767.79C1204.95 768.563 1204.09 769.337 1203.23 769.337C1202.37 769.337 1201.5 768.563 1201.5 767.79Z" fill="white"/>
<path opacity="0.7" d="M1298.93 810.435C1298.93 809.661 1299.79 808.888 1300.65 808.888C1301.51 808.888 1302.37 809.661 1302.37 810.435C1302.37 811.208 1301.51 811.981 1300.65 811.981C1299.79 811.981 1298.93 811.208 1298.93 810.435Z" fill="white"/>
<path opacity="0.7" d="M1074.98 736.131C1074.98 735.358 1075.84 734.585 1076.7 734.585C1077.56 734.585 1078.42 735.358 1078.42 736.131C1078.42 736.905 1077.56 737.678 1076.7 737.678C1075.84 737.678 1074.98 736.905 1074.98 736.131Z" fill="white"/>
<path opacity="0.7" d="M1343.12 849.738C1343.12 848.965 1343.98 848.191 1344.84 848.191C1345.7 848.191 1346.56 848.965 1346.56 849.738C1346.56 850.511 1345.7 851.284 1344.84 851.284C1343.98 852.058 1343.12 851.284 1343.12 849.738Z" fill="white"/>
<path opacity="0.7" d="M1061.4 963.918C1061.4 963.145 1062.26 962.372 1063.12 962.372C1063.98 962.372 1064.84 963.145 1064.84 963.918C1064.84 964.692 1063.98 965.465 1063.12 965.465C1062.26 965.465 1061.4 964.692 1061.4 963.918Z" fill="white"/>
<path opacity="0.7" d="M1252.31 1014.17C1252.31 1013.4 1253.17 1012.62 1254.03 1012.62C1254.89 1012.62 1255.75 1013.4 1255.75 1014.17C1255.75 1014.94 1254.89 1015.72 1254.03 1015.72C1253.17 1015.72 1252.31 1014.94 1252.31 1014.17Z" fill="white"/>
<path opacity="0.7" d="M1469.49 941.873C1469.49 940.327 1471.21 938.78 1472.93 938.78C1474.66 938.78 1476.38 940.327 1476.38 941.873C1476.38 943.42 1474.66 944.966 1472.93 944.966C1471.21 944.966 1469.49 943.42 1469.49 941.873Z" fill="white"/>
<path opacity="0.7" d="M1431.77 981.869C1431.77 980.323 1433.5 978.776 1435.22 978.776C1436.94 978.776 1438.66 980.323 1438.66 981.869C1438.66 983.416 1436.94 984.962 1435.22 984.962C1433.5 984.962 1431.77 983.416 1431.77 981.869Z" fill="white"/>
<path opacity="0.7" d="M1472.47 776.298C1472.47 774.752 1474.19 773.205 1475.91 773.205C1477.63 773.205 1479.35 774.752 1479.35 776.298C1479.35 777.845 1477.63 779.391 1475.91 779.391C1474.19 779.391 1472.47 777.845 1472.47 776.298Z" fill="white"/>
<path opacity="0.7" d="M1292.27 994.499C1292.27 992.952 1293.99 991.405 1295.71 991.405C1297.44 991.405 1299.16 992.952 1299.16 994.499C1299.16 996.045 1297.44 997.592 1295.71 997.592C1293.99 997.592 1292.27 996.045 1292.27 994.499Z" fill="white"/>
<path opacity="0.7" d="M1379.42 790.354C1379.42 788.807 1380.28 788.034 1382 788.034C1383.72 788.034 1384.58 788.807 1384.58 790.354C1384.58 791.9 1383.72 792.673 1382 792.673C1380.28 792.673 1379.42 791.9 1379.42 790.354Z" fill="white"/>
<path opacity="0.7" d="M1124.05 867.212C1124.05 864.892 1126.63 862.572 1129.21 862.572C1131.8 862.572 1134.38 864.892 1134.38 867.212C1134.38 869.532 1131.8 871.852 1129.21 871.852C1125.77 871.852 1124.05 870.305 1124.05 867.212Z" fill="white"/>
<path opacity="0.7" d="M1359.57 1036.42C1359.57 1034.88 1360.43 1034.1 1362.16 1034.1C1363.88 1034.1 1364.74 1034.88 1364.74 1036.42C1364.74 1037.97 1363.88 1038.74 1362.16 1038.74C1361.3 1038.74 1359.57 1037.97 1359.57 1036.42Z" fill="white"/>
<path opacity="0.7" d="M1391.96 1288.07C1391.96 1287.3 1392.82 1286.52 1393.68 1286.52C1394.54 1286.52 1395.4 1287.3 1395.4 1288.07C1395.4 1288.84 1394.54 1289.62 1393.68 1289.62C1392.82 1290.39 1391.96 1289.62 1391.96 1288.07Z" fill="white"/>
<path opacity="0.7" d="M1399.79 1128.15C1399.79 1127.38 1400.65 1126.6 1401.51 1126.6C1402.37 1126.6 1403.23 1127.38 1403.23 1128.15C1403.23 1128.92 1402.37 1129.7 1401.51 1129.7C1400.65 1129.7 1399.79 1128.92 1399.79 1128.15Z" fill="white"/>
<path opacity="0.7" d="M1176.97 1179.35C1176.97 1178.58 1177.83 1177.8 1178.69 1177.8C1179.55 1177.8 1180.41 1178.58 1180.41 1179.35C1180.41 1180.12 1179.55 1180.9 1178.69 1180.9C1177.83 1180.9 1176.97 1180.12 1176.97 1179.35Z" fill="white"/>
<path opacity="0.7" d="M1193.35 1077.92C1193.35 1077.15 1194.21 1076.38 1195.07 1076.38C1195.93 1076.38 1196.79 1077.15 1196.79 1077.92C1196.79 1078.7 1195.93 1079.47 1195.07 1079.47C1194.21 1079.47 1193.35 1078.7 1193.35 1077.92Z" fill="white"/>
<path opacity="0.7" d="M1274.43 1221.22C1274.43 1220.45 1275.29 1219.68 1276.15 1219.68C1277.01 1219.68 1277.87 1220.45 1277.87 1221.22C1277.87 1222 1277.01 1222.77 1276.15 1222.77C1275.29 1223.54 1274.43 1222.77 1274.43 1221.22Z" fill="white"/>
<path opacity="0.7" d="M1108.58 1081.5C1107.63 1081.5 1106.86 1082.19 1106.86 1083.04C1106.86 1083.9 1107.63 1084.59 1108.58 1084.59C1109.53 1084.59 1110.31 1083.9 1110.31 1083.04C1110.31 1082.19 1109.53 1081.5 1108.58 1081.5Z" fill="white"/>
<path opacity="0.7" d="M1317.73 1261.26C1317.73 1260.48 1318.59 1259.71 1319.45 1259.71C1320.31 1259.71 1321.17 1260.48 1321.17 1261.26C1321.17 1262.03 1320.31 1262.8 1319.45 1262.8C1318.59 1262.8 1317.73 1262.03 1317.73 1261.26Z" fill="white"/>
<path opacity="0.7" d="M1891.57 1306.92C1891.57 1304.6 1894.15 1302.28 1896.73 1302.28C1899.32 1302.28 1901.9 1304.6 1901.9 1306.92C1901.9 1309.24 1899.32 1311.56 1896.73 1311.56C1893.29 1311.56 1891.57 1309.24 1891.57 1306.92Z" fill="white"/>
<path opacity="0.7" d="M1218.68 1245.72C1218.68 1244.17 1220.41 1242.63 1222.13 1242.63C1223.85 1242.63 1225.57 1244.17 1225.57 1245.72C1225.57 1247.27 1223.85 1248.81 1222.13 1248.81C1220.41 1248.81 1218.68 1247.27 1218.68 1245.72Z" fill="white"/>
<path opacity="0.7" d="M1257.62 1084.2C1257.62 1082.66 1259.34 1081.11 1261.06 1081.11C1262.78 1081.11 1264.5 1082.66 1264.5 1084.2C1264.5 1085.75 1262.78 1087.3 1261.06 1087.3C1258.48 1087.3 1257.62 1085.75 1257.62 1084.2Z" fill="white"/>
<path opacity="0.7" d="M1312.76 1127.91C1312.76 1126.36 1314.48 1124.81 1316.2 1124.81C1317.92 1124.81 1319.64 1126.36 1319.64 1127.91C1319.64 1129.45 1317.92 1131 1316.2 1131C1313.62 1131 1312.76 1130.23 1312.76 1127.91Z" fill="white"/>
<path opacity="0.7" d="M1447.98 1187.09C1447.98 1185.54 1449.7 1183.99 1451.42 1183.99C1453.14 1183.99 1454.86 1185.54 1454.86 1187.09C1454.86 1188.63 1453.14 1190.18 1451.42 1190.18C1449.7 1190.18 1447.98 1189.41 1447.98 1187.09Z" fill="white"/>
<path opacity="0.7" d="M1354.88 1201.91C1354.88 1200.37 1355.74 1199.59 1357.46 1199.59C1359.19 1199.59 1360.05 1200.37 1360.05 1201.91C1360.05 1203.46 1359.19 1204.23 1357.46 1204.23C1355.74 1204.23 1354.88 1202.69 1354.88 1201.91Z" fill="white"/>
<path opacity="0.7" d="M1405.29 1093.61C1405.29 1092.06 1406.15 1091.29 1407.87 1091.29C1409.59 1091.29 1410.45 1092.06 1410.45 1093.61C1410.45 1095.16 1409.59 1095.93 1407.87 1095.93C1407.01 1095.93 1405.29 1095.16 1405.29 1093.61Z" fill="white"/>
<path opacity="0.7" d="M1248.33 1138.7C1248.33 1137.15 1249.19 1136.38 1250.92 1136.38C1252.64 1136.38 1253.5 1137.15 1253.5 1138.7C1253.5 1140.24 1252.64 1141.02 1250.92 1141.02C1250.05 1141.02 1248.33 1140.24 1248.33 1138.7Z" fill="white"/>
<path opacity="0.7" d="M1463.13 1106.59C1463.13 1104.27 1465.71 1101.95 1468.29 1101.95C1470.87 1101.95 1473.45 1104.27 1473.45 1106.59C1473.45 1108.91 1470.87 1111.23 1468.29 1111.23C1464.85 1111.23 1463.13 1108.91 1463.13 1106.59Z" fill="white"/>
<path opacity="0.7" d="M1226.22 830.159C1226.22 829.385 1227.09 828.612 1227.95 828.612C1228.81 828.612 1229.67 829.385 1229.67 830.159C1229.67 830.932 1228.81 831.705 1227.95 831.705C1227.09 831.705 1226.22 830.932 1226.22 830.159Z" fill="white"/>
<path opacity="0.7" d="M1415.87 757.264C1415.87 755.718 1416.73 754.945 1418.45 754.945C1420.17 754.945 1421.03 755.718 1421.03 757.264C1421.03 758.811 1420.17 759.584 1418.45 759.584C1416.73 759.584 1415.87 758.811 1415.87 757.264Z" fill="white"/>
<path opacity="0.7" d="M1127.91 1207.18C1127.91 1206.41 1128.77 1205.64 1129.63 1205.64C1130.49 1205.64 1131.35 1206.41 1131.35 1207.18C1131.35 1207.96 1130.49 1208.73 1129.63 1208.73C1128.77 1208.73 1127.91 1207.96 1127.91 1207.18Z" fill="white"/>
<path opacity="0.7" d="M1159.89 1017.62C1159.89 1015.3 1162.47 1012.98 1165.06 1012.98C1167.64 1012.98 1170.22 1015.3 1170.22 1017.62C1170.22 1019.94 1167.64 1022.26 1165.06 1022.26C1162.47 1022.26 1159.89 1019.94 1159.89 1017.62Z" fill="white"/>
<path opacity="0.7" d="M1107.54 1086.26C1107.54 1084.71 1109.26 1083.16 1110.98 1083.16C1112.7 1083.16 1114.42 1084.71 1114.42 1086.26C1114.42 1087.8 1112.7 1089.35 1110.98 1089.35C1108.4 1089.35 1107.54 1087.8 1107.54 1086.26Z" fill="white"/>
<path opacity="0.7" d="M1041.11 1203.08C1041.11 1201.53 1042.83 1199.99 1044.55 1199.99C1046.27 1199.99 1047.99 1201.53 1047.99 1203.08C1047.99 1204.63 1046.27 1206.17 1044.55 1206.17C1041.97 1206.17 1041.11 1204.63 1041.11 1203.08Z" fill="white"/>
<path opacity="0.7" d="M1081.85 996.738C1081.85 995.191 1083.57 993.645 1085.29 993.645C1087.01 993.645 1088.74 995.191 1088.74 996.738C1088.74 998.284 1087.01 999.831 1085.29 999.831C1083.57 999.831 1081.85 998.284 1081.85 996.738Z" fill="white"/>
<path opacity="0.7" d="M1024.34 978.434C1024.34 976.887 1025.2 976.114 1026.92 976.114C1028.64 976.114 1029.5 976.887 1029.5 978.434C1029.5 979.98 1028.64 980.753 1026.92 980.753C1026.06 980.753 1024.34 979.207 1024.34 978.434Z" fill="white"/>
<path opacity="0.7" d="M768.94 1055.73C768.94 1056.51 768.079 1057.28 767.219 1057.28C766.358 1057.28 765.498 1056.51 765.498 1055.73C765.498 1054.96 766.358 1054.19 767.219 1054.19C768.079 1053.41 768.94 1054.19 768.94 1055.73Z" fill="white"/>
<path opacity="0.7" d="M810.501 1225.78C810.501 1226.55 809.641 1227.32 808.78 1227.32C807.92 1227.32 807.059 1226.55 807.059 1225.78C807.059 1225 807.92 1224.23 808.78 1224.23C809.641 1224.23 810.501 1224.23 810.501 1225.78Z" fill="white"/>
<path opacity="0.7" d="M951.511 1028.92C951.511 1029.69 950.65 1030.46 949.79 1030.46C948.929 1030.46 948.068 1029.69 948.068 1028.92C948.068 1028.14 948.929 1027.37 949.79 1027.37C950.65 1027.37 951.511 1028.14 951.511 1028.92Z" fill="white"/>
<path opacity="0.7" d="M918.662 1218.44C918.662 1220.76 916.081 1223.08 913.499 1223.08C910.917 1223.08 908.335 1220.76 908.335 1218.44C908.335 1216.12 910.917 1213.8 913.499 1213.8C916.081 1213.8 918.662 1216.12 918.662 1218.44Z" fill="white"/>
<path opacity="0.7" d="M769.683 1158.68C769.683 1160.22 767.962 1161.77 766.241 1161.77C764.52 1161.77 762.798 1160.22 762.798 1158.68C762.798 1157.13 764.52 1155.58 766.241 1155.58C767.962 1155.58 769.683 1157.13 769.683 1158.68Z" fill="white"/>
<path opacity="0.7" d="M818.695 914.873C818.695 915.646 817.834 916.419 816.974 916.419C816.113 916.419 815.253 915.646 815.253 914.873C815.253 914.1 816.113 913.326 816.974 913.326C817.834 913.326 818.695 914.1 818.695 914.873Z" fill="white"/>
<path opacity="0.7" d="M794.174 747.889C794.174 749.436 792.453 750.983 790.732 750.983C789.011 750.983 787.289 749.436 787.289 747.889C787.289 746.343 789.011 744.796 790.732 744.796C792.453 744.796 794.174 745.57 794.174 747.889Z" fill="white"/>
<path opacity="0.7" d="M1563.25 1219.5C1563.25 1220.28 1562.38 1221.05 1561.52 1221.05C1560.66 1221.05 1559.8 1220.28 1559.8 1219.5C1559.8 1218.73 1560.66 1217.96 1561.52 1217.96C1562.38 1217.96 1563.25 1218.73 1563.25 1219.5Z" fill="white"/>
<path opacity="0.7" d="M919.473 1132.61C919.473 1134.15 917.751 1135.7 916.03 1135.7C914.309 1135.7 912.588 1134.15 912.588 1132.61C912.588 1131.06 914.309 1129.51 916.03 1129.51C917.751 1129.51 919.473 1131.06 919.473 1132.61Z" fill="white"/>
<path opacity="0.7" d="M996.708 1239.32C996.708 1240.87 994.987 1242.42 993.266 1242.42C991.545 1242.42 989.824 1240.87 989.824 1239.32C989.824 1237.78 991.545 1236.23 993.266 1236.23C994.987 1236.23 996.708 1237.78 996.708 1239.32Z" fill="white"/>
<path opacity="0.7" d="M1021.25 827.764C1021.25 829.31 1019.52 830.857 1017.8 830.857C1016.08 830.857 1014.36 829.31 1014.36 827.764C1014.36 826.217 1016.08 824.671 1017.8 824.671C1020.38 824.671 1021.25 826.217 1021.25 827.764Z" fill="white"/>
<path opacity="0.7" d="M1006.1 908.26C1006.1 910.58 1003.52 912.899 1000.94 912.899C998.355 912.899 995.773 910.58 995.773 908.26C995.773 905.94 998.355 903.62 1000.94 903.62C1004.38 904.393 1006.1 905.94 1006.1 908.26Z" fill="white"/>
<path opacity="0.7" d="M365.142 890.101C365.142 888.555 366.002 887.781 367.723 887.781C369.444 887.781 370.305 888.555 370.305 890.101C370.305 891.648 369.444 892.421 367.723 892.421C366.863 892.421 365.142 891.648 365.142 890.101Z" fill="white"/>
<path opacity="0.7" d="M419.813 898.118C419.813 897.345 420.673 896.571 421.534 896.571C422.394 896.571 423.255 897.345 423.255 898.118C423.255 898.891 422.394 899.664 421.534 899.664C420.673 899.664 419.813 898.891 419.813 898.118Z" fill="white"/>
<path opacity="0.7" d="M259.433 884.96C259.433 884.186 260.293 883.413 261.154 883.413C262.015 883.413 262.875 884.186 262.875 884.96C262.875 885.733 262.015 886.506 261.154 886.506C260.293 887.279 259.433 886.506 259.433 884.96Z" fill="white"/>
<path opacity="0.7" d="M378.242 728.072C378.242 727.299 379.103 726.526 379.963 726.526C380.824 726.526 381.685 727.299 381.685 728.072C381.685 728.846 380.824 729.619 379.963 729.619C379.103 729.619 378.242 728.846 378.242 728.072Z" fill="white"/>
<path opacity="0.7" d="M1706.24 1191.72C1706.24 1190.95 1707.1 1190.17 1707.96 1190.17C1708.82 1190.17 1709.68 1190.95 1709.68 1191.72C1709.68 1192.49 1708.82 1193.27 1707.96 1193.27C1707.1 1194.04 1706.24 1193.27 1706.24 1191.72Z" fill="white"/>
<path opacity="0.7" d="M51.5744 815.304C51.5744 814.531 52.4351 813.758 53.2956 813.758C54.1561 813.758 55.0166 814.531 55.0166 815.304C55.0166 816.078 54.1561 816.851 53.2956 816.851C52.4351 817.624 51.5744 816.851 51.5744 815.304Z" fill="white"/>
<path opacity="0.7" d="M238.142 924.201C238.142 923.428 239.003 922.654 239.863 922.654C240.724 922.654 241.584 923.428 241.584 924.201C241.584 924.974 240.724 925.747 239.863 925.747C239.003 925.747 238.142 924.974 238.142 924.201Z" fill="white"/>
<path opacity="0.7" d="M428.192 974.412C428.192 973.639 429.053 972.865 429.913 972.865C430.774 972.865 431.635 973.639 431.635 974.412C431.635 975.185 430.774 975.958 429.913 975.958C429.053 975.958 428.192 975.185 428.192 974.412Z" fill="white"/>
<path opacity="0.7" d="M466.159 872.518C466.159 870.971 467.019 870.198 468.74 870.198C470.462 870.198 471.322 870.971 471.322 872.518C471.322 874.064 470.462 874.838 468.74 874.838C467.88 874.838 466.159 874.064 466.159 872.518Z" fill="white"/>
<path opacity="0.7" d="M607.655 942.11C607.655 940.564 609.376 939.017 611.097 939.017C612.818 939.017 614.539 940.564 614.539 942.11C614.539 943.657 612.818 945.203 611.097 945.203C609.376 945.203 607.655 943.657 607.655 942.11Z" fill="white"/>
<path opacity="0.7" d="M468.152 954.739C468.152 953.193 469.874 951.646 471.595 951.646C473.316 951.646 475.037 953.193 475.037 954.739C475.037 956.286 473.316 957.833 471.595 957.833C469.874 957.833 468.152 956.286 468.152 954.739Z" fill="white"/>
<path opacity="0.7" d="M568.704 1248.35C568.704 1247.58 569.565 1246.8 570.425 1246.8C571.286 1246.8 572.146 1247.58 572.146 1248.35C572.146 1249.12 571.286 1249.9 570.425 1249.9C569.565 1250.67 568.704 1249.9 568.704 1248.35Z" fill="white"/>
<path opacity="0.7" d="M215.407 1160.84C215.407 1160.07 216.267 1159.29 217.128 1159.29C217.988 1159.29 218.849 1160.07 218.849 1160.84C218.849 1161.61 217.988 1162.39 217.128 1162.39C216.267 1163.16 215.407 1162.39 215.407 1160.84Z" fill="white"/>
<path opacity="0.7" d="M353.705 1139.63C353.705 1138.86 354.566 1138.09 355.426 1138.09C356.287 1138.09 357.147 1138.86 357.147 1139.63C357.147 1140.41 356.287 1141.18 355.426 1141.18C354.566 1141.18 353.705 1140.41 353.705 1139.63Z" fill="white"/>
<path opacity="0.7" d="M370.095 1038.2C370.095 1037.43 370.955 1036.66 371.816 1036.66C372.676 1036.66 373.537 1037.43 373.537 1038.2C373.537 1038.98 372.676 1039.75 371.816 1039.75C370.955 1039.75 370.095 1038.98 370.095 1038.2Z" fill="white"/>
<path opacity="0.7" d="M451.174 1181.51C451.174 1180.73 452.035 1179.96 452.896 1179.96C453.756 1179.96 454.617 1180.73 454.617 1181.51C454.617 1182.28 453.756 1183.05 452.896 1183.05C452.035 1183.83 451.174 1183.05 451.174 1181.51Z" fill="white"/>
<path opacity="0.7" d="M283.608 1043.32C283.608 1042.55 284.469 1041.78 285.329 1041.78C286.19 1041.78 287.051 1042.55 287.051 1043.32C287.051 1044.1 286.19 1044.87 285.329 1044.87C284.469 1044.87 283.608 1044.1 283.608 1043.32Z" fill="white"/>
<path opacity="0.7" d="M494.473 1221.54C494.473 1220.77 495.333 1219.99 496.194 1219.99C497.055 1219.99 497.915 1220.77 497.915 1221.54C497.915 1222.31 497.055 1223.09 496.194 1223.09C495.333 1223.09 494.473 1222.31 494.473 1221.54Z" fill="white"/>
<path opacity="0.7" d="M394.572 1205.96C394.572 1204.41 396.293 1202.87 398.015 1202.87C399.736 1202.87 401.457 1204.41 401.457 1205.96C401.457 1207.51 399.736 1209.05 398.015 1209.05C396.293 1209.05 394.572 1207.51 394.572 1205.96Z" fill="white"/>
<path opacity="0.7" d="M433.499 1044.45C433.499 1042.9 435.22 1041.35 436.941 1041.35C438.662 1041.35 440.383 1042.9 440.383 1044.45C440.383 1045.99 438.662 1047.54 436.941 1047.54C435.22 1047.54 433.499 1045.99 433.499 1044.45Z" fill="white"/>
<path opacity="0.7" d="M488.637 1088.15C488.637 1086.6 490.358 1085.05 492.079 1085.05C493.8 1085.05 495.522 1086.6 495.522 1088.15C495.522 1089.69 493.8 1091.24 492.079 1091.24C490.358 1091.24 488.637 1090.47 488.637 1088.15Z" fill="white"/>
<path opacity="0.7" d="M623.866 1147.33C623.866 1145.78 625.587 1144.24 627.308 1144.24C629.029 1144.24 630.75 1145.78 630.75 1147.33C630.75 1148.87 629.029 1150.42 627.308 1150.42C625.587 1150.42 623.866 1149.65 623.866 1147.33Z" fill="white"/>
<path opacity="0.7" d="M531.619 1162.2C531.619 1160.65 532.48 1159.88 534.201 1159.88C535.922 1159.88 536.783 1160.65 536.783 1162.2C536.783 1163.74 535.922 1164.52 534.201 1164.52C532.48 1164.52 531.619 1162.97 531.619 1162.2Z" fill="white"/>
<path opacity="0.7" d="M395.073 850.463C395.073 849.689 395.933 848.916 396.794 848.916C397.654 848.916 398.515 849.689 398.515 850.463C398.515 851.236 397.654 852.009 396.794 852.009C395.933 852.783 395.073 852.009 395.073 850.463Z" fill="white"/>
<path opacity="0.7" d="M907.173 818.721C907.173 817.174 908.894 815.627 910.615 815.627C912.336 815.627 914.058 817.174 914.058 818.721C914.058 820.267 912.336 821.814 910.615 821.814C908.894 821.814 907.173 821.04 907.173 818.721Z" fill="white"/>
<path opacity="0.7" d="M241.886 716.847C241.886 716.074 242.747 715.301 243.607 715.301C244.468 715.301 245.328 716.074 245.328 716.847C245.328 717.621 244.468 718.394 243.607 718.394C242.747 718.394 241.886 717.621 241.886 716.847Z" fill="white"/>
<path opacity="0.7" d="M591.746 717.505C591.746 715.959 592.606 715.185 594.327 715.185C596.049 715.185 596.909 715.959 596.909 717.505C596.909 719.052 596.049 719.825 594.327 719.825C592.606 719.825 591.746 719.052 591.746 717.505Z" fill="white"/>
<path opacity="0.7" d="M58.2346 1064.98C58.2346 1064.2 59.0954 1063.43 59.956 1063.43C60.8166 1063.43 61.6772 1064.2 61.6772 1064.98C61.6772 1065.75 60.8166 1066.52 59.956 1066.52C59.0954 1067.3 58.2346 1066.52 58.2346 1064.98Z" fill="white"/>
<path opacity="0.7" d="M18.5001 748.661C18.5001 747.888 19.3606 747.114 20.2212 747.114C21.0818 747.114 21.9423 747.888 21.9423 748.661C21.9423 749.434 21.0818 750.207 20.2212 750.207C19.3606 750.207 18.5001 749.434 18.5001 748.661Z" fill="white"/>
<path opacity="0.7" d="M189.06 880.1C189.06 878.553 190.782 877.007 192.503 877.007C194.224 877.007 195.945 878.553 195.945 880.1C195.945 881.646 194.224 883.193 192.503 883.193C190.782 883.193 189.06 881.646 189.06 880.1Z" fill="white"/>
<path opacity="0.7" d="M151.344 920.096C151.344 918.549 153.065 917.003 154.786 917.003C156.507 917.003 158.228 918.549 158.228 920.096C158.228 921.642 156.507 923.189 154.786 923.189C152.204 923.189 151.344 921.642 151.344 920.096Z" fill="white"/>
<path opacity="0.7" d="M192.038 714.525C192.038 712.978 193.759 711.432 195.48 711.432C197.201 711.432 198.923 712.978 198.923 714.525C198.923 716.071 197.201 717.618 195.48 717.618C193.759 717.618 192.038 716.071 192.038 714.525Z" fill="white"/>
<path opacity="0.7" d="M11.8398 932.725C11.8398 931.178 13.5608 929.632 15.282 929.632C17.0031 929.632 18.7242 931.178 18.7242 932.725C18.7242 934.271 17.0031 935.818 15.282 935.818C12.7003 935.818 11.8398 934.271 11.8398 932.725Z" fill="white"/>
<path opacity="0.7" d="M98.9878 728.58C98.9878 727.033 99.8484 726.26 101.57 726.26C103.291 726.26 104.151 727.033 104.151 728.58C104.151 730.126 103.291 730.9 101.57 730.9C99.8484 730.9 98.9878 730.126 98.9878 728.58Z" fill="white"/>
<path opacity="0.7" d="M79.1429 974.649C79.1429 973.102 80.0035 972.329 81.7247 972.329C83.4458 972.329 84.3065 973.102 84.3065 974.649C84.3065 976.195 83.4458 976.969 81.7247 976.969C80.0035 976.969 79.1429 976.195 79.1429 974.649Z" fill="white"/>
<path opacity="0.7" d="M111.528 1226.29C111.528 1225.52 112.388 1224.75 113.249 1224.75C114.11 1224.75 114.97 1225.52 114.97 1226.29C114.97 1227.07 114.11 1227.84 113.249 1227.84C112.388 1228.61 111.528 1227.84 111.528 1226.29Z" fill="white"/>
<path opacity="0.7" d="M37.2967 1199.48C37.2967 1198.71 38.1574 1197.94 39.018 1197.94C39.8786 1197.94 40.7391 1198.71 40.7391 1199.48C40.7391 1200.26 39.8786 1201.03 39.018 1201.03C38.1574 1201.03 37.2967 1200.26 37.2967 1199.48Z" fill="white"/>
<path opacity="0.7" d="M1121.13 800.474C1121.13 798.154 1123.71 795.834 1126.29 795.834C1128.88 795.834 1131.46 798.154 1131.46 800.474C1131.46 802.794 1128.88 805.113 1126.29 805.113C1122.85 804.34 1121.13 802.794 1121.13 800.474Z" fill="white"/>
<g opacity="0.7">
<path opacity="0.7" d="M1004.51 1140.72L1003.65 1124.48L984.717 1122.94L1002.79 1122.16L1004.51 1105.15L1006.23 1122.16L1024.3 1122.94L1006.23 1124.48L1004.51 1140.72Z" fill="white"/>
<path opacity="0.7" d="M996.767 1130.67L1002.79 1123.71L996.767 1115.98L1004.51 1122.16L1013.12 1115.2L1006.23 1122.94L1013.12 1130.67L1004.51 1124.48L996.767 1130.67Z" fill="white"/>
</g>
<g opacity="0.7">
<path opacity="0.7" d="M1197.6 1183.34L1195.88 1167.1L1177.81 1165.55L1195.88 1164.78L1197.6 1147.77L1199.33 1164.78L1217.4 1165.55L1199.33 1167.1L1197.6 1183.34Z" fill="white"/>
<path opacity="0.7" d="M1189.86 1173.28L1195.88 1165.55L1189.86 1158.59L1197.61 1164L1206.21 1157.82L1198.47 1165.55L1206.21 1172.51L1197.61 1167.1L1189.86 1173.28Z" fill="white"/>
</g>
<g opacity="0.7">
<path opacity="0.7" d="M1098.09 751.083L1097.23 740.257L1084.32 738.711H1097.23L1098.09 726.338L1098.95 738.711H1111.86L1098.95 740.257L1098.09 751.083Z" fill="white"/>
<path opacity="0.7" d="M1092.92 744.124L1097.22 739.485L1092.92 734.072L1098.08 738.711L1104.11 734.072L1098.95 739.485L1104.11 744.124L1098.08 740.258L1092.92 744.124Z" fill="white"/>
</g>
<g opacity="0.7">
<path opacity="0.7" d="M1500.16 1220.4L1499.3 1209.57L1486.39 1208.02H1498.44L1500.16 1195.65L1501.02 1208.02H1513.93L1501.02 1209.57L1500.16 1220.4Z" fill="white"/>
<path opacity="0.7" d="M1494.13 1213.44L1498.43 1208.8L1494.13 1203.39L1500.16 1207.25L1506.18 1203.39L1501.02 1208.03L1506.18 1213.44L1500.16 1209.57L1494.13 1213.44Z" fill="white"/>
</g>
<g opacity="0.7">
<path opacity="0.7" d="M700.226 1194.2L699.366 1183.37L686.457 1181.82H699.366L700.226 1169.45L701.087 1181.82H713.996L701.087 1183.37L700.226 1194.2Z" fill="white"/>
<path opacity="0.7" d="M694.199 1187.24L699.363 1182.6L694.199 1177.18L700.224 1181.05L706.248 1177.18L701.084 1181.82L706.248 1187.24L700.224 1183.37L694.199 1187.24Z" fill="white"/>
</g>
<g opacity="0.7">
<path opacity="0.7" d="M356.699 760.222L354.978 744.757L336.906 742.437H354.978L356.699 724.652L358.42 742.437H376.493L358.42 744.757L356.699 760.222Z" fill="white"/>
<path opacity="0.7" d="M348.955 750.943L354.98 743.211L348.955 735.478L356.701 741.664L365.307 735.478L357.561 743.211L365.307 750.17L356.701 744.757L348.955 750.943Z" fill="white"/>
</g>
<g opacity="0.7">
<path opacity="0.7" d="M207.692 1158.04L206.832 1147.22L193.923 1145.67H206.832L207.692 1133.3L208.553 1145.67H221.462L208.553 1147.22L207.692 1158.04Z" fill="white"/>
<path opacity="0.7" d="M202.526 1151.08L206.829 1146.44L202.526 1141.03L207.69 1144.9L213.714 1141.03L208.55 1145.67L213.714 1151.08L207.69 1147.22L202.526 1151.08Z" fill="white"/>
</g>
<g opacity="0.7">
<path opacity="0.7" d="M497.158 914.138L496.297 902.539L483.389 901.766L496.297 900.993L497.158 889.394L498.018 900.993L510.927 901.766L498.018 902.539L497.158 914.138Z" fill="white"/>
<path opacity="0.7" d="M491.992 907.18L496.294 901.767L491.992 896.354L497.155 900.993L503.179 896.354L498.016 901.767L503.179 906.406L497.155 902.54L491.992 907.18Z" fill="white"/>
</g>
<g opacity="0.7">
<path opacity="0.7" d="M683.624 851.117L682.764 839.518L669.855 838.745L682.764 837.971L683.624 826.372L684.485 837.971L697.393 838.745L684.485 839.518L683.624 851.117Z" fill="white"/>
<path opacity="0.7" d="M678.458 844.158L682.761 838.745L678.458 833.332L683.621 837.972L689.645 833.332L684.482 838.745L689.645 843.385L683.621 839.518L678.458 844.158Z" fill="white"/>
</g>
<path opacity="0.7" d="M1645.57 656.249C1645.57 654.702 1646.43 653.929 1648.15 653.929C1649.88 653.929 1650.74 654.702 1650.74 656.249C1650.74 657.795 1649.88 658.568 1648.15 658.568C1647.29 658.568 1645.57 657.795 1645.57 656.249Z" fill="white"/>
<path opacity="0.7" d="M1539.87 651.107C1539.87 650.334 1540.73 649.561 1541.59 649.561C1542.45 649.561 1543.31 650.334 1543.31 651.107C1543.31 651.88 1542.45 652.654 1541.59 652.654C1540.73 653.427 1539.87 652.654 1539.87 651.107Z" fill="white"/>
<path opacity="0.7" d="M559.426 573.606C559.426 572.832 560.287 572.059 561.147 572.059C562.008 572.059 562.869 572.832 562.869 573.606C562.869 574.379 562.008 575.152 561.147 575.152C560.287 575.152 559.426 574.379 559.426 573.606Z" fill="white"/>
<path opacity="0.7" d="M1518.57 690.348C1518.57 689.575 1519.43 688.802 1520.29 688.802C1521.15 688.802 1522.02 689.575 1522.02 690.348C1522.02 691.122 1521.15 691.895 1520.29 691.895C1519.43 691.895 1518.57 691.122 1518.57 690.348Z" fill="white"/>
<path opacity="0.7" d="M1436.53 591.999C1436.53 590.452 1438.26 588.906 1439.98 588.906C1441.7 588.906 1443.42 590.452 1443.42 591.999C1443.42 593.545 1441.7 595.092 1439.98 595.092C1437.4 595.092 1436.53 593.545 1436.53 591.999Z" fill="white"/>
<path opacity="0.7" d="M1748.58 720.887C1748.58 719.34 1750.3 717.794 1752.03 717.794C1753.75 717.794 1755.47 719.34 1755.47 720.887C1755.47 722.433 1753.75 723.98 1752.03 723.98C1750.3 723.98 1748.58 722.433 1748.58 720.887Z" fill="white"/>
<path opacity="0.7" d="M1675.5 616.61C1675.5 615.837 1676.36 615.064 1677.22 615.064C1678.09 615.064 1678.95 615.837 1678.95 616.61C1678.95 617.383 1678.09 618.157 1677.22 618.157C1676.36 618.93 1675.5 618.157 1675.5 616.61Z" fill="white"/>
<path opacity="0.7" d="M736.917 617.79C736.917 617.017 737.777 616.244 738.638 616.244C739.498 616.244 740.359 617.017 740.359 617.79C740.359 618.564 739.498 619.337 738.638 619.337C737.777 619.337 736.917 618.564 736.917 617.79Z" fill="white"/>
<path opacity="0.7" d="M785.255 674.412C785.255 672.865 786.976 671.319 788.697 671.319C790.418 671.319 792.139 672.865 792.139 674.412C792.139 675.958 790.418 677.505 788.697 677.505C786.976 677.505 785.255 675.958 785.255 674.412Z" fill="white"/>
<path opacity="0.7" d="M869.901 700.178C869.901 698.632 871.622 697.085 873.343 697.085C875.065 697.085 876.786 698.632 876.786 700.178C876.786 701.725 875.065 703.272 873.343 703.272C871.622 703.272 869.901 701.725 869.901 700.178Z" fill="white"/>
<path opacity="0.7" d="M921.77 581.794C921.77 581.021 922.631 580.248 923.491 580.248C924.352 580.248 925.213 581.021 925.213 581.794C925.213 582.568 924.352 583.341 923.491 583.341C922.631 583.341 921.77 582.568 921.77 581.794Z" fill="white"/>
<path opacity="0.7" d="M1184.19 632.566C1184.19 630.246 1186.77 627.926 1189.35 627.926C1191.93 627.926 1194.51 630.246 1194.51 632.566C1194.51 634.885 1191.93 637.205 1189.35 637.205C1186.77 636.432 1184.19 634.885 1184.19 632.566Z" fill="white"/>
<path opacity="0.7" d="M1243.93 642.251C1243.93 641.478 1244.79 640.704 1245.65 640.704C1246.51 640.704 1247.37 641.478 1247.37 642.251C1247.37 643.024 1246.51 643.797 1245.65 643.797C1244.79 643.797 1243.93 643.024 1243.93 642.251Z" fill="white"/>
<path opacity="0.7" d="M1343.12 554.112C1343.12 553.338 1343.98 552.565 1344.84 552.565C1345.7 552.565 1346.56 553.338 1346.56 554.112C1346.56 554.885 1345.7 555.658 1344.84 555.658C1343.98 556.432 1343.12 555.658 1343.12 554.112Z" fill="white"/>
<path opacity="0.7" d="M1061.4 668.292C1061.4 667.519 1062.26 666.746 1063.12 666.746C1063.98 666.746 1064.84 667.519 1064.84 668.292C1064.84 669.066 1063.98 669.839 1063.12 669.839C1062.26 669.839 1061.4 669.066 1061.4 668.292Z" fill="white"/>
<path opacity="0.7" d="M1252.31 718.545C1252.31 717.772 1253.17 716.998 1254.03 716.998C1254.89 716.998 1255.75 717.772 1255.75 718.545C1255.75 719.318 1254.89 720.091 1254.03 720.091C1253.17 720.091 1252.31 719.318 1252.31 718.545Z" fill="white"/>
<path opacity="0.7" d="M1469.49 646.247C1469.49 644.701 1471.21 643.154 1472.93 643.154C1474.66 643.154 1476.38 644.701 1476.38 646.247C1476.38 647.794 1474.66 649.34 1472.93 649.34C1471.21 649.34 1469.49 647.794 1469.49 646.247Z" fill="white"/>
<path opacity="0.7" d="M1431.77 686.243C1431.77 684.697 1433.5 683.15 1435.22 683.15C1436.94 683.15 1438.66 684.697 1438.66 686.243C1438.66 687.79 1436.94 689.336 1435.22 689.336C1433.5 689.336 1431.77 687.79 1431.77 686.243Z" fill="white"/>
<path opacity="0.7" d="M1292.27 698.872C1292.27 697.326 1293.99 695.779 1295.71 695.779C1297.44 695.779 1299.16 697.326 1299.16 698.872C1299.16 700.419 1297.44 701.966 1295.71 701.966C1293.99 701.966 1292.27 700.419 1292.27 698.872Z" fill="white"/>
<path opacity="0.7" d="M1124.05 571.586C1124.05 569.266 1126.63 566.946 1129.21 566.946C1131.8 566.946 1134.38 569.266 1134.38 571.586C1134.38 573.906 1131.8 576.225 1129.21 576.225C1125.77 576.225 1124.05 574.679 1124.05 571.586Z" fill="white"/>
<path opacity="0.7" d="M1159.89 721.996C1159.89 719.676 1162.47 717.356 1165.06 717.356C1167.64 717.356 1170.22 719.676 1170.22 721.996C1170.22 724.315 1167.64 726.635 1165.06 726.635C1162.47 726.635 1159.89 724.315 1159.89 721.996Z" fill="white"/>
<path opacity="0.7" d="M1081.85 701.112C1081.85 699.565 1083.57 698.019 1085.29 698.019C1087.01 698.019 1088.74 699.565 1088.74 701.112C1088.74 702.658 1087.01 704.205 1085.29 704.205C1083.57 704.205 1081.85 702.658 1081.85 701.112Z" fill="white"/>
<path opacity="0.7" d="M1024.34 682.807C1024.34 681.261 1025.2 680.488 1026.92 680.488C1028.64 680.488 1029.5 681.261 1029.5 682.807C1029.5 684.354 1028.64 685.127 1026.92 685.127C1026.06 685.127 1024.34 683.581 1024.34 682.807Z" fill="white"/>
<path opacity="0.7" d="M951.511 733.292C951.511 734.065 950.65 734.839 949.79 734.839C948.929 734.839 948.068 734.065 948.068 733.292C948.068 732.519 948.929 731.746 949.79 731.746C950.65 731.746 951.511 732.519 951.511 733.292Z" fill="white"/>
<path opacity="0.7" d="M818.695 619.247C818.695 620.02 817.834 620.793 816.974 620.793C816.113 620.793 815.253 620.02 815.253 619.247C815.253 618.473 816.113 617.7 816.974 617.7C817.834 617.7 818.695 618.473 818.695 619.247Z" fill="white"/>
<path opacity="0.7" d="M1006.1 612.634C1006.1 614.953 1003.52 617.273 1000.94 617.273C998.355 617.273 995.773 614.953 995.773 612.634C995.773 610.314 998.355 607.994 1000.94 607.994C1004.38 608.767 1006.1 610.314 1006.1 612.634Z" fill="white"/>
<path opacity="0.7" d="M365.142 594.475C365.142 592.929 366.002 592.155 367.723 592.155C369.444 592.155 370.305 592.929 370.305 594.475C370.305 596.022 369.444 596.795 367.723 596.795C366.863 596.795 365.142 596.022 365.142 594.475Z" fill="white"/>
<path opacity="0.7" d="M419.813 602.492C419.813 601.719 420.673 600.945 421.534 600.945C422.394 600.945 423.255 601.719 423.255 602.492C423.255 603.265 422.394 604.038 421.534 604.038C420.673 604.038 419.813 603.265 419.813 602.492Z" fill="white"/>
<path opacity="0.7" d="M259.433 589.333C259.433 588.56 260.293 587.787 261.154 587.787C262.015 587.787 262.875 588.56 262.875 589.333C262.875 590.107 262.015 590.88 261.154 590.88C260.293 591.653 259.433 590.88 259.433 589.333Z" fill="white"/>
<path opacity="0.7" d="M238.142 628.575C238.142 627.802 239.003 627.028 239.863 627.028C240.724 627.028 241.584 627.802 241.584 628.575C241.584 629.348 240.724 630.121 239.863 630.121C239.003 630.121 238.142 629.348 238.142 628.575Z" fill="white"/>
<path opacity="0.7" d="M428.192 678.786C428.192 678.013 429.053 677.239 429.913 677.239C430.774 677.239 431.635 678.013 431.635 678.786C431.635 679.559 430.774 680.332 429.913 680.332C429.053 680.332 428.192 679.559 428.192 678.786Z" fill="white"/>
<path opacity="0.7" d="M466.159 576.892C466.159 575.345 467.019 574.572 468.74 574.572C470.462 574.572 471.322 575.345 471.322 576.892C471.322 578.438 470.462 579.212 468.74 579.212C467.88 579.212 466.159 578.438 466.159 576.892Z" fill="white"/>
<path opacity="0.7" d="M607.655 646.484C607.655 644.938 609.376 643.391 611.097 643.391C612.818 643.391 614.539 644.938 614.539 646.484C614.539 648.031 612.818 649.577 611.097 649.577C609.376 649.577 607.655 648.031 607.655 646.484Z" fill="white"/>
<path opacity="0.7" d="M468.152 659.113C468.152 657.567 469.874 656.02 471.595 656.02C473.316 656.02 475.037 657.567 475.037 659.113C475.037 660.66 473.316 662.206 471.595 662.206C469.874 662.206 468.152 660.66 468.152 659.113Z" fill="white"/>
<path opacity="0.7" d="M395.073 554.837C395.073 554.063 395.933 553.29 396.794 553.29C397.654 553.29 398.515 554.063 398.515 554.837C398.515 555.61 397.654 556.383 396.794 556.383C395.933 557.156 395.073 556.383 395.073 554.837Z" fill="white"/>
<path opacity="0.7" d="M189.06 584.474C189.06 582.927 190.782 581.381 192.503 581.381C194.224 581.381 195.945 582.927 195.945 584.474C195.945 586.02 194.224 587.567 192.503 587.567C190.782 587.567 189.06 586.02 189.06 584.474Z" fill="white"/>
<path opacity="0.7" d="M151.344 624.47C151.344 622.923 153.065 621.376 154.786 621.376C156.507 621.376 158.228 622.923 158.228 624.47C158.228 626.016 156.507 627.563 154.786 627.563C152.204 627.563 151.344 626.016 151.344 624.47Z" fill="white"/>
<path opacity="0.7" d="M11.8398 637.099C11.8398 635.552 13.5608 634.006 15.282 634.006C17.0031 634.006 18.7242 635.552 18.7242 637.099C18.7242 638.645 17.0031 640.192 15.282 640.192C12.7003 640.192 11.8398 638.645 11.8398 637.099Z" fill="white"/>
<path opacity="0.7" d="M79.1429 679.023C79.1429 677.476 80.0035 676.703 81.7247 676.703C83.4458 676.703 84.3065 677.476 84.3065 679.023C84.3065 680.569 83.4458 681.343 81.7247 681.343C80.0035 681.343 79.1429 680.569 79.1429 679.023Z" fill="white"/>
<g opacity="0.7">
<path opacity="0.7" d="M497.158 618.512L496.297 606.913L483.389 606.14L496.297 605.367L497.158 593.768L498.018 605.367L510.927 606.14L498.018 606.913L497.158 618.512Z" fill="white"/>
<path opacity="0.7" d="M491.992 611.553L496.294 606.141L491.992 600.728L497.155 605.367L503.179 600.728L498.016 606.141L503.179 610.78L497.155 606.914L491.992 611.553Z" fill="white"/>
</g>
<g opacity="0.7">
<path opacity="0.7" d="M683.624 555.491L682.764 543.892L669.855 543.118L682.764 542.345L683.624 530.746L684.485 542.345L697.393 543.118L684.485 543.892L683.624 555.491Z" fill="white"/>
<path opacity="0.7" d="M678.458 548.532L682.761 543.119L678.458 537.706L683.621 542.346L689.645 537.706L684.482 543.119L689.645 547.759L683.621 543.892L678.458 548.532Z" fill="white"/>
</g>
<g opacity="0.7">
<path opacity="0.7" d="M587.189 1153.12L585.467 1142.29L573.419 1140.75H585.467L587.189 1128.37L588.049 1140.75H600.958L588.049 1142.29L587.189 1153.12Z" fill="white"/>
<path opacity="0.7" d="M581.162 1146.16L585.465 1141.52L581.162 1136.11L586.325 1139.97L593.21 1136.11L588.046 1140.75L593.21 1146.16L587.186 1142.29L581.162 1146.16Z" fill="white"/>
</g>
</svg>
