<svg width="85" height="88" viewBox="0 0 85 88" fill="none" xmlns="http://www.w3.org/2000/svg">
<g filter="url(#filter0_f_2372_55393)">
<path d="M78.2954 40.17C74.1365 38.8358 69.8862 37.7347 65.5443 36.8305C63.3378 36.3764 61.0954 36.0308 58.8533 35.7294C57.7195 35.5767 55.447 35.0703 56.0012 35.8137C54.1862 33.3664 53.4795 30.0309 52.4779 27.3304C49.9765 20.567 47.3325 13.7312 45.4971 6.8312C45.309 6.11186 44.7042 5.75419 44.0179 5.67382C43.967 5.66578 43.906 5.66177 43.8705 5.66177C43.8603 5.66177 43.8499 5.65775 43.8397 5.65775C43.733 5.6457 43.6212 5.62964 43.5043 5.62964C43.3263 5.62964 43.1383 5.62964 42.9603 5.62964C42.0757 5.62964 41.1555 6.12794 40.9572 6.8312C39.0913 13.6388 35.8323 20.366 33.0309 26.9606C31.8005 29.8541 30.6972 32.9364 28.9177 35.6651C29.0245 35.4963 28.3992 35.4481 27.2197 35.5887C24.9928 35.8419 22.8116 36.1835 20.605 36.5773C15.7903 37.4494 11.0826 38.7112 6.50688 40.174C4.90537 40.6924 4.34091 42.3763 6.00852 43.1719C11.1232 45.6193 16.7512 47.078 22.354 48.6574C24.8859 49.3767 27.3976 50.1402 29.96 50.8033C31.1497 51.1168 32.3243 51.37 32.9496 52.2822C33.6055 53.2507 33.6969 54.6572 33.9308 55.7182C34.5358 58.3665 34.9323 61.0308 35.5882 63.6751C37.0169 69.4981 39.1014 75.2006 40.3928 81.0438C40.7487 82.6151 44.0482 82.6151 44.3837 81.0438C45.5937 75.6186 47.4038 70.2979 48.8833 64.9169C49.9865 60.8982 49.7983 56.0798 51.8523 52.2782C52.8641 50.4055 59.0111 49.6741 61.0854 49.0512C67.1051 47.2268 73.2416 45.8242 78.7885 43.1679C80.451 42.3722 79.9071 40.6884 78.2954 40.17Z" fill="#E6B24C"/>
</g>
<defs>
<filter id="filter0_f_2372_55393" x="0.2" y="0.829638" width="84.4" height="86.1927" filterUnits="userSpaceOnUse" color-interpolation-filters="sRGB">
<feFlood flood-opacity="0" result="BackgroundImageFix"/>
<feBlend mode="normal" in="SourceGraphic" in2="BackgroundImageFix" result="shape"/>
<feGaussianBlur stdDeviation="2.4" result="effect1_foregroundBlur_2372_55393"/>
</filter>
</defs>
</svg>
