<svg width="1980" height="423" viewBox="0 0 1980 423" fill="none" xmlns="http://www.w3.org/2000/svg">
<g clip-path="url(#clip0_15_123)">
<path d="M487.447 284.937C490.309 315.743 479.454 346.746 451.785 373.159C388.923 429.618 316.833 409.428 258.661 369.217C191.761 447.415 7.01747 458.453 0 280.319V-4H624.493C630.245 42.1527 613.134 79.2944 586.412 103.033C674.256 169.234 574.639 310.365 487.447 284.937Z" fill="#FFEEB5"/>
<path d="M231.821 360.206C232.034 360.35 231.647 361.214 230.709 362.743C229.709 364.224 228.423 366.595 226.081 369.124C221.783 374.488 214.329 381.472 203.533 387.988C192.699 394.357 178.448 400.105 161.823 402.949C145.249 405.793 126.332 405.998 107.277 401.884C88.2152 397.956 71.0653 389.967 57.7383 379.977C44.3346 370 35.0841 357.942 29.3233 347.129C23.5417 336.231 21.2291 326.57 19.9519 319.978C19.0434 313.288 18.946 309.585 19.4357 309.525C19.9755 309.455 21.058 313.02 22.8073 319.359C24.9222 325.601 27.928 334.674 34.0045 344.716C40.0722 354.687 49.1633 365.646 61.9653 374.731C74.6964 383.823 90.8729 391.158 108.911 394.875C126.931 398.773 144.862 398.778 160.664 396.427C176.51 394.076 190.194 389.12 200.84 383.612C211.435 377.963 219.096 371.881 223.91 367.249C226.512 365.086 228.128 363.05 229.497 361.876C230.809 360.648 231.606 360.065 231.821 360.206Z" fill="#E8BE29"/>
<path d="M458.952 284.177C459.433 284.084 460.528 287.136 461.784 292.875C462.79 298.625 463.802 307.194 462.321 317.759C462.121 319.077 461.911 320.426 461.702 321.806C461.401 323.168 461.026 324.554 460.672 325.97C460.07 328.84 458.902 331.675 457.852 334.666C455.374 340.5 452.156 346.586 447.658 352.285C438.688 363.636 425.343 373.717 409.352 379.582C401.412 382.578 393.303 384.535 385.391 385.712C377.465 386.878 369.725 387.05 362.404 386.836C347.744 386.138 334.809 383.209 324.479 379.616C303.763 372.227 293.303 363.585 293.769 363.019C294.427 361.938 305.807 368.921 326.14 374.79C336.29 377.645 348.735 379.909 362.619 380.221C369.551 380.244 376.837 379.946 384.256 378.76C391.66 377.563 399.202 375.685 406.571 372.909C421.417 367.463 433.661 358.401 442.157 348.258C446.413 343.159 449.543 337.696 452.074 332.416C453.153 329.701 454.383 327.128 455.077 324.495C455.478 323.194 455.873 321.918 456.256 320.671C456.534 319.395 456.805 318.145 457.068 316.926C459.112 307.118 458.97 298.864 458.867 293.179C458.531 287.499 458.413 284.275 458.952 284.177Z" fill="#E8BE29"/>
<path d="M573.993 132.118C574.188 131.958 574.784 132.299 575.748 133.118C576.692 133.949 578.137 135.182 579.521 137.114C582.5 140.82 586.01 146.958 588.01 155.198C590.043 163.4 590.721 173.608 588.807 184.596C587.901 190.089 586.426 195.789 584.196 201.463C581.999 207.14 579.238 212.884 575.583 218.322C571.97 223.765 567.828 228.727 563.274 233.032C558.645 237.276 553.637 240.821 548.528 243.668C538.127 249.133 527.39 251.344 518.541 251.341C509.632 251.389 502.733 249.457 498.116 248.122C493.592 246.388 491.229 245.219 491.4 244.752C491.571 244.284 494.246 244.552 498.83 245.411C503.488 245.875 510.16 246.943 518.313 246.267C526.428 245.639 535.876 243.133 545.032 237.954C549.531 235.237 553.949 231.945 558.082 228.039C562.147 224.061 565.89 219.504 569.212 214.503C572.574 209.514 575.167 204.22 577.294 198.993C579.453 193.77 580.957 188.515 581.981 183.447C584.123 173.301 584.022 163.879 582.792 156.186C581.589 148.456 579.087 142.509 577.025 138.578C576.099 136.534 575.093 135.103 574.556 134.014C574.002 132.935 573.795 132.282 573.993 132.118Z" fill="#E8BE29"/>
<path d="M243.62 317.967C244.039 318.173 243.257 320.755 240.963 325.055C238.721 329.38 234.671 335.28 228.609 341.756C222.574 348.252 214.214 354.999 203.99 361.087C198.828 364.047 193.221 366.857 187.2 369.335C181.153 371.748 174.72 373.855 167.991 375.527C140.989 382.218 114.919 379.689 97.8698 373.86C80.5931 368.164 72.0417 360.786 72.5373 360.209C73.1892 359.153 82.5812 364.818 99.3919 368.994C116.043 373.325 140.55 374.888 166.118 368.569C172.493 366.987 178.599 365.038 184.366 362.839C190.103 360.578 195.477 358.038 200.462 355.391C210.326 349.928 218.58 343.953 224.798 338.211C237.355 326.764 242.493 317.356 243.62 317.967Z" fill="#E8BE29"/>
<path d="M435.354 244.754C436.153 244.295 440.548 249.73 443.66 260.107C446.767 270.379 448.666 285.444 445.613 301.74C444.085 309.852 441.407 317.427 437.858 323.831C434.265 330.214 429.879 335.418 425.425 338.938C420.997 342.489 416.809 344.547 413.785 345.496C410.759 346.456 408.974 346.558 408.806 346.127C408.316 345.032 414.714 342.537 421.753 335.269C425.283 331.681 428.738 326.776 431.655 320.877C434.531 314.946 436.787 307.991 438.209 300.47C441.047 285.365 440.112 271.196 438.472 261.222C436.844 251.186 434.339 245.25 435.354 244.754Z" fill="#E8BE29"/>
<path d="M591.691 22.2973C592.567 22.0101 594.901 25.4145 595.803 31.7728C596.325 34.9351 596.198 38.7563 595.594 42.9351C594.912 47.1026 593.473 51.5658 591.352 55.9727C587.069 64.809 580.503 71.3222 575.108 74.904C569.645 78.5028 565.577 79.4095 565.14 78.6154C564.586 77.6777 567.553 75.2532 571.621 71.066C575.665 66.8646 580.765 60.7006 584.532 52.9287C588.355 45.1765 590.048 37.537 590.485 31.9164C590.986 26.2931 590.6 22.6043 591.691 22.2973Z" fill="#E8BE29"/>
<path d="M125.629 346.127C125.783 346.6 124.408 347.405 121.7 348.472C120.343 349.002 118.674 349.675 116.624 350.007C115.597 350.207 114.506 350.421 113.347 350.649C112.181 350.9 110.943 351.077 109.624 351.108C106.996 351.229 104.081 351.536 100.984 351.178C99.4355 351.043 97.8073 350.995 96.1702 350.75C94.5389 350.443 92.8635 350.122 91.1408 349.799C84.3505 348.205 77.0351 345.586 70.1916 341.497C63.3571 337.428 57.5342 332.622 52.8058 327.787C48.2631 322.788 44.5346 317.996 42.1689 313.535C37.2045 304.724 36.2842 298.51 37.1337 298.262C38.2428 297.879 40.9094 303.277 46.6703 310.826C49.4371 314.676 53.3456 318.807 57.7997 323.191C62.4367 327.418 67.8997 331.661 74.1237 335.373C80.3595 339.107 86.8607 341.61 92.8959 343.398C94.4268 343.789 95.9135 344.17 97.3648 344.541C98.8249 344.868 100.273 345.014 101.663 345.259C104.438 345.845 107.07 345.825 109.482 346.034C110.695 346.172 111.845 346.169 112.934 346.101C114.031 346.079 115.066 346.056 116.034 346.036C117.998 346.101 119.653 345.851 121.04 345.752C123.815 345.549 125.476 345.654 125.629 346.127Z" fill="#E8BE29"/>
<path d="M1264.86 151.1C1258.32 194.905 1232.65 234.301 1185.16 261.576C1078.49 318.607 985.165 265.928 918.019 190.166C798.316 276.04 537.709 228.318 588.766 -21.7276L685.828 -417L1554.03 -203.807C1546.27 -137.68 1509.8 -91.8855 1464.54 -68.0063C1564.07 54.0191 1377.4 216.217 1264.86 151.1Z" fill="#FFEEB5"/>
<path d="M883.782 168.475C884.028 168.747 883.196 169.817 881.369 171.623C879.474 173.341 876.876 176.198 872.757 178.914C864.951 184.904 852.204 192.068 834.97 197.441C817.733 202.598 795.96 205.723 771.876 204.002C747.862 202.297 721.493 196.125 696.406 183.9C671.247 171.932 650.132 154.971 635.015 136.531C619.786 118.086 611.042 98.1645 606.725 81.165C602.407 64.0411 602.49 49.8199 602.965 40.2194C603.986 30.6077 605.115 25.4265 605.816 25.5114C606.59 25.5978 606.878 30.9235 607.146 40.3329C607.955 49.734 609.037 63.3736 614.057 79.4081C619.088 95.3418 627.986 113.682 642.682 130.681C657.278 147.668 677.263 163.389 701.071 174.714C724.792 186.284 749.72 192.413 772.491 194.539C795.323 196.68 816.039 194.461 832.72 190.438C849.378 186.202 862.105 180.362 870.379 175.565C874.734 173.447 877.676 171.168 879.98 170.003C882.224 168.744 883.53 168.206 883.782 168.475Z" fill="#E8BE29"/>
<path d="M1225.5 140.315C1226.21 140.35 1226.68 144.967 1226.47 153.375C1225.91 161.712 1224.39 173.97 1218.72 188.153C1217.99 189.917 1217.24 191.72 1216.48 193.567C1215.6 195.359 1214.6 197.157 1213.63 199.006C1211.81 202.789 1209.22 206.333 1206.74 210.132C1201.3 217.397 1194.75 224.759 1186.55 231.146C1170.21 243.865 1148.21 253.324 1123.98 256.019C1111.92 257.474 1099.97 257.426 1088.57 256.362C1077.16 255.277 1066.34 252.873 1056.23 250.076C1036.09 244.101 1019.11 235.614 1005.97 227.092C979.694 209.747 968.103 194.162 968.944 193.534C970.228 192.255 983.665 205.849 1009.93 220.949C1023.07 228.384 1039.59 235.78 1058.79 240.954C1068.42 243.352 1078.65 245.424 1089.37 246.309C1100.07 247.173 1111.2 247.136 1122.39 245.792C1144.89 243.289 1165 234.871 1180.28 223.67C1187.94 218.034 1194.15 211.507 1199.47 205.031C1201.9 201.626 1204.49 198.468 1206.35 195.044C1207.35 193.372 1208.34 191.734 1209.3 190.131C1210.12 188.452 1210.92 186.806 1211.7 185.201C1217.89 172.263 1220.52 160.741 1222.31 152.802C1223.78 144.791 1224.72 140.268 1225.5 140.315Z" fill="#E8BE29"/>
<path d="M1437.35 -31.8092C1437.67 -31.9659 1438.39 -31.2888 1439.45 -29.8203C1440.48 -28.3432 1442.07 -26.1351 1443.33 -22.9772C1446.21 -16.8083 1448.99 -7.07571 1448.96 5.06171C1448.98 17.1593 1446.44 31.5821 1440.03 46.204C1436.89 53.5326 1432.9 60.9526 1427.86 68.0796C1422.87 75.2216 1417.07 82.2653 1410.13 88.577C1403.25 94.9107 1395.8 100.395 1388 104.826C1380.11 109.145 1371.94 112.364 1363.87 114.578C1347.54 118.626 1331.86 118.033 1319.56 115.008C1307.16 112.034 1298.22 106.993 1292.26 103.561C1286.56 99.605 1283.68 97.1738 1284.07 96.5823C1284.47 95.9909 1288.1 97.2762 1294.18 100.035C1300.5 102.271 1309.41 106.033 1320.97 107.876C1332.47 109.774 1346.46 109.515 1360.96 105.441C1368.14 103.199 1375.4 100.131 1382.48 96.1124C1389.49 91.9685 1396.25 86.9123 1402.58 81.0935C1408.96 75.3044 1414.37 68.8298 1419.11 62.29C1423.89 55.7652 1427.78 48.9738 1430.93 42.2766C1437.37 28.9027 1440.45 15.7695 1441.37 4.65441C1442.33 -6.50255 1440.88 -15.6245 1439.36 -21.7935C1438.77 -24.9518 1437.86 -27.2839 1437.49 -28.9822C1437.08 -30.6709 1437.02 -31.6496 1437.35 -31.8092Z" fill="#E8BE29"/>
<path d="M914.605 113.781C915.117 114.21 913.149 117.533 908.491 122.728C903.897 127.976 896.253 134.794 885.615 141.729C875.007 148.7 861.081 155.226 844.789 160.2C836.602 162.552 827.847 164.544 818.631 165.934C809.401 167.225 799.738 167.957 789.813 167.985C749.989 168.069 714.609 155.653 692.896 141.729C670.822 127.911 661.452 114.735 662.338 114.102C663.605 112.856 674.728 123.939 696.673 135.484C718.344 147.189 751.88 157.728 789.584 157.672C798.986 157.648 808.14 157.024 816.908 155.935C825.656 154.75 833.995 153.054 841.829 151.076C857.408 146.848 870.922 141.359 881.527 135.499C902.892 123.872 913.247 112.547 914.605 113.781Z" fill="#E8BE29"/>
<path d="M1206.15 77.4527C1207.42 77.0875 1211.68 86.1434 1212.46 101.632C1213.27 116.973 1210.77 138.566 1200.96 160.179C1196.07 170.936 1189.76 180.552 1182.64 188.243C1175.47 195.891 1167.59 201.628 1160.2 205.001C1152.83 208.426 1146.3 209.858 1141.78 210.145C1137.24 210.447 1134.73 209.978 1134.64 209.322C1134.33 207.632 1144.08 206.348 1156.35 198.646C1162.48 194.864 1168.96 189.224 1175.03 182.018C1181.05 174.756 1186.56 165.857 1191.1 155.885C1200.21 135.855 1203.74 115.837 1204.87 101.411C1206.03 86.9026 1204.57 77.7953 1206.15 77.4527Z" fill="#E8BE29"/>
<path d="M740.955 112.649C741.007 113.359 738.821 114.009 734.692 114.569C732.625 114.841 730.074 115.207 727.111 114.969C725.615 114.897 724.025 114.822 722.335 114.743C720.63 114.694 718.847 114.517 717.003 114.11C713.308 113.381 709.152 112.813 704.968 111.259C702.861 110.542 700.614 109.92 698.421 109.02C696.258 108.037 694.039 107.018 691.754 105.98C682.858 101.446 673.582 95.3079 665.464 87.2874C657.351 79.2973 650.897 70.6269 645.974 62.291C641.365 53.7914 637.817 45.8556 636.051 38.847C632.157 24.9028 633 15.9487 634.265 15.8942C635.938 15.7404 637.802 24.1554 643.234 36.6177C645.767 42.9137 649.79 49.991 654.486 57.6069C659.489 65.066 665.635 72.8306 673.021 80.1151C680.416 87.4349 688.599 93.1346 696.379 97.6808C698.374 98.7476 700.311 99.7836 702.202 100.796C704.12 101.748 706.084 102.446 707.932 103.261C711.591 105.023 715.255 105.894 718.539 107.007C720.177 107.613 721.778 108.002 723.314 108.28C724.847 108.623 726.294 108.945 727.646 109.248C730.355 110.009 732.741 110.225 734.702 110.561C738.63 111.227 740.904 111.939 740.955 112.649Z" fill="#E8BE29"/>
<path d="M1980.34 -59L1980.32 374.606C1938.17 417.716 1783.6 422.581 1707.53 342.189C1614.21 389.634 1467.99 277.114 1526.71 188.245C1457.4 199.853 1395.93 128.758 1426.17 52.4119C1357.46 83.8414 1282.67 7.78454 1308.07 -59H1980.34Z" fill="#FBF1CF"/>
<path d="M1693.07 322.341C1693.17 322.527 1692.5 323.085 1691.1 323.984C1690.4 324.434 1689.53 324.966 1688.47 325.583C1687.43 326.204 1686.22 326.927 1684.75 327.512C1679.07 330.274 1670.23 333.249 1658.89 334.47C1653.23 335.149 1646.97 335.067 1640.28 334.617C1633.64 333.827 1626.5 332.813 1619.29 330.583C1612.07 328.495 1604.63 325.696 1597.35 321.937C1590.04 318.249 1582.75 313.823 1575.91 308.454C1569.07 303.115 1562.76 297.376 1557.41 291.141C1552.08 284.905 1547.4 278.46 1543.76 271.816C1542.78 270.204 1542.06 268.461 1541.21 266.826C1540.39 265.173 1539.58 263.545 1538.97 261.85C1538.31 260.181 1537.66 258.533 1537.03 256.913C1536.53 255.244 1536.03 253.599 1535.54 251.983C1535.31 251.176 1535.07 250.374 1534.84 249.579C1534.67 248.765 1534.51 247.961 1534.34 247.161C1534.02 245.564 1533.71 243.999 1533.4 242.465C1533.09 239.346 1532.62 236.364 1532.59 233.496C1532.43 227.759 1532.89 222.569 1533.75 218.121C1534.25 215.907 1534.63 213.831 1535.17 211.975C1535.8 210.147 1536.38 208.475 1536.9 206.972C1537.37 205.46 1538 204.198 1538.56 203.109C1539.11 202.018 1539.59 201.108 1539.99 200.381C1540.8 198.926 1541.31 198.215 1541.5 198.307C1541.69 198.398 1541.55 199.282 1541.13 200.869C1540.91 201.662 1540.62 202.63 1540.26 203.762C1539.89 204.889 1539.45 206.18 1539.17 207.7C1537.55 213.6 1536.1 222.446 1536.92 233.238C1537.08 235.936 1537.66 238.727 1538.06 241.639C1538.41 243.072 1538.76 244.536 1539.12 246.024C1539.3 246.768 1539.48 247.52 1539.67 248.276C1539.91 249.018 1540.17 249.765 1540.42 250.518C1540.92 252.026 1541.44 253.555 1541.96 255.111C1542.6 256.624 1543.26 258.158 1543.93 259.716C1544.54 261.293 1545.35 262.816 1546.16 264.357C1547 265.886 1547.71 267.512 1548.68 269.02C1552.25 275.233 1556.79 281.276 1561.92 287.159C1567.07 293.041 1573.11 298.481 1579.64 303.582C1586.18 308.712 1593.13 312.975 1600.07 316.573C1607 320.241 1614.05 323.018 1620.91 325.157C1627.75 327.437 1634.5 328.569 1640.81 329.549C1647.16 330.183 1653.12 330.518 1658.55 330.137C1669.41 329.516 1678.06 327.31 1683.86 325.291C1685.35 324.892 1686.61 324.357 1687.71 323.921C1688.82 323.49 1689.76 323.141 1690.54 322.876C1692.09 322.348 1692.97 322.156 1693.07 322.341Z" fill="#F0D269"/>
<path d="M1521.06 171.817C1521.15 172.171 1518.91 173.187 1514.57 174.095C1510.25 175.025 1503.69 175.43 1495.78 174.009C1487.87 172.65 1478.83 168.876 1470.15 162.795C1465.84 159.705 1461.67 156.004 1457.71 151.818C1453.78 147.601 1450.2 142.813 1446.99 137.637C1443.75 132.474 1441.22 127.06 1439.19 121.686C1437.13 116.325 1435.75 110.923 1434.87 105.714C1433.9 100.514 1433.73 95.4591 1433.74 90.7652C1433.95 86.064 1434.39 81.6928 1435.32 77.8008C1437.05 69.9928 1439.8 64.0802 1442.12 60.328C1444.48 56.5853 1446.16 54.8007 1446.48 55.0079C1446.87 55.2583 1445.89 57.474 1444.26 61.3973C1442.66 65.3374 1440.69 71.1681 1439.59 78.5811C1438.98 82.2756 1438.82 86.3867 1438.83 90.7724C1439.04 95.1581 1439.37 99.8544 1440.43 104.688C1441.4 109.526 1442.8 114.543 1444.81 119.536C1446.77 124.536 1449.18 129.588 1452.21 134.417C1455.23 139.26 1458.54 143.764 1462.14 147.75C1465.78 151.705 1469.58 155.238 1473.49 158.226C1481.37 164.101 1489.51 167.985 1496.73 169.767C1503.94 171.605 1510.08 171.896 1514.31 171.718C1518.54 171.567 1520.95 171.35 1521.06 171.817Z" fill="#F0D269"/>
<path d="M1457.42 17.9265C1457.7 18.1625 1456.31 20.5034 1453.04 24.1786C1449.75 27.8297 1444.26 32.5984 1436.35 36.7143C1428.48 40.8832 1417.98 43.8311 1406.15 44.1947C1394.36 44.4091 1381.24 42.0103 1368.94 36.0857C1356.58 30.3224 1346.39 21.7365 1339.07 12.5028C1331.75 3.21122 1327.39 -6.71374 1325.11 -15.2611C1322.84 -23.8566 1322.61 -31.0625 1322.69 -35.9467C1323.01 -40.8502 1323.5 -43.5067 1323.9 -43.485C1325.06 -43.5139 1324.1 -32.5605 1329.27 -16.5086C1331.94 -8.57542 1336.41 0.472887 1343.45 8.93114C1350.51 17.3364 1360.05 25.1685 1371.56 30.5295C1383.01 36.0472 1395.13 38.4242 1406.09 38.5326C1417.07 38.4868 1426.89 36.2085 1434.49 32.7862C1442.12 29.4217 1447.74 25.4358 1451.4 22.4326C1455.05 19.4148 1457.06 17.6134 1457.42 17.9265Z" fill="#F0D269"/>
<path d="M1959 335.817C1959.2 335.877 1959.1 336.754 1958.7 338.403C1958.5 339.227 1958.23 340.246 1957.89 341.448C1957.47 342.618 1956.82 343.902 1956.16 345.383C1953.39 351.216 1947.49 358.995 1937.89 365.642C1928.26 372.118 1915.41 377.706 1900.54 380.873C1885.7 384.233 1868.94 385.499 1851.5 384.63C1816.56 382.932 1785.81 372.335 1766.31 360.315C1756.52 354.337 1749.34 348.343 1744.97 343.658C1743.81 342.558 1742.88 341.484 1742.12 340.511C1741.34 339.557 1740.69 338.741 1740.18 338.066C1739.17 336.72 1738.72 335.952 1738.88 335.812C1739.7 334.986 1748.78 345.98 1768.47 356.541C1787.9 367.229 1817.85 376.834 1851.82 378.489C1868.77 379.334 1885.02 378.269 1899.37 375.331C1913.77 372.576 1926.13 367.651 1935.52 362.001C1944.85 356.182 1950.81 349.4 1954.07 344.212C1954.86 342.893 1955.65 341.753 1956.22 340.706C1956.72 339.629 1957.16 338.716 1957.54 337.982C1958.29 336.518 1958.8 335.757 1959 335.817Z" fill="#F0D269"/>
<path d="M1477.75 -29.2831C1477.96 -29.2662 1478.11 -28.8375 1478.2 -28.0114C1478.3 -27.1805 1478.33 -25.9523 1478.07 -24.4061C1477.65 -21.3017 1476.27 -16.8895 1473.52 -12.0462C1468.08 -2.31877 1457.39 9.09697 1443 17.8515C1428.73 26.5963 1413.13 30.9458 1401.71 29.0336C1396.05 28.2195 1391.78 25.9557 1389.38 23.923C1388.1 22.9909 1387.35 21.9842 1386.85 21.3316C1386.36 20.662 1386.18 20.2454 1386.33 20.0913C1386.47 19.9395 1386.94 20.0527 1387.66 20.3923C1388.39 20.7174 1389.31 21.3629 1390.66 21.9048C1393.22 23.1571 1397.13 24.513 1402.16 24.7129C1412.23 25.3752 1426.3 20.874 1439.81 12.606C1453.4 4.338 1463.92 -5.92895 1469.84 -14.3583C1472.85 -18.5682 1474.68 -22.3228 1475.75 -25.0106C1476.33 -26.3496 1476.68 -27.4286 1476.97 -28.168C1477.28 -28.9049 1477.54 -29.2975 1477.75 -29.2831Z" fill="#F0D269"/>
<path d="M1482.56 148.938C1482.35 149.542 1475.12 147.637 1466.45 139.588C1462.21 135.564 1457.79 129.955 1454.43 122.93C1451.04 115.924 1448.66 107.6 1447.77 98.7181C1445.98 80.9057 1450.21 64.7141 1455.79 54.5098C1458.53 49.3534 1461.55 45.6445 1463.9 43.3999C1466.24 41.1288 1467.89 40.2907 1468.13 40.5604C1468.83 41.2637 1463.86 46.2346 1459.71 56.3763C1455.46 66.3614 1452.21 81.5608 1453.87 98.0919C1454.7 106.341 1456.73 114.021 1459.57 120.565C1462.38 127.127 1466.05 132.479 1469.58 136.573C1476.77 144.747 1483.07 148.037 1482.56 148.938Z" fill="#F0D269"/>
<path d="M1703.9 304.278C1704.1 304.589 1702.19 306.342 1698.19 308.768C1694.2 311.198 1687.92 313.975 1679.75 315.947C1663.47 320.051 1639.34 319.384 1615.38 310.222C1609.4 307.963 1603.76 305.249 1598.48 302.337C1593.21 299.385 1588.4 296.063 1584 292.653C1575.33 285.666 1568.6 277.923 1564.57 270.409C1560.41 262.955 1558.92 256.026 1558.73 251.323C1558.52 248.967 1558.77 247.132 1558.95 245.909C1559.14 244.683 1559.34 244.057 1559.55 244.069C1559.76 244.078 1559.98 244.721 1560.19 245.911C1560.41 247.101 1560.54 248.84 1561.1 251.017C1561.99 255.371 1563.99 261.554 1568.29 268.189C1572.49 274.879 1579.09 281.811 1587.46 288.176C1591.72 291.28 1596.34 294.332 1601.39 297.07C1606.46 299.77 1611.85 302.32 1617.56 304.476C1640.45 313.216 1663.22 314.516 1678.89 311.689C1694.73 309.045 1703.36 303.301 1703.9 304.278Z" fill="#F0D269"/>
<path d="M1800.13 350.037C1800.16 350.452 1798.91 350.844 1796.44 351.107C1795.26 351.075 1793.78 351.005 1792.07 350.834C1790.44 350.5 1788.51 350.203 1786.49 349.613C1778.36 347.306 1767.73 342.444 1757.32 335.052C1746.84 327.796 1738.59 319.367 1733.96 312.238C1729.22 305.109 1728.45 299.613 1729.16 299.461C1730.08 299.158 1732.18 303.683 1737.43 309.622C1742.6 315.609 1750.79 323.061 1760.84 330.021C1770.81 337.107 1780.64 342.321 1787.91 345.512C1789.73 346.324 1791.42 346.868 1792.88 347.499C1794.36 347.952 1795.65 348.347 1796.71 348.734C1798.81 349.175 1800.09 349.613 1800.13 350.037Z" fill="#F0D269"/>
<path d="M1963.72 309.095C1963.93 309.146 1963.95 309.779 1963.8 310.959C1963.64 312.132 1963.42 313.905 1962.64 316.031C1961.31 320.347 1958.36 326.435 1952.97 332.579C1947.63 338.752 1939.99 344.944 1930.59 350.026C1925.91 352.612 1920.81 354.956 1915.38 356.971C1909.97 359.05 1904.23 360.789 1898.28 362.214C1886.38 365.126 1874.74 366.381 1864.16 366.629C1853.56 366.798 1844.01 365.88 1836.14 364.319C1828.26 362.778 1822.09 360.55 1818.05 358.621C1813.98 356.721 1811.99 355.175 1812.16 354.854C1812.59 353.922 1821.43 358.147 1836.84 360.032C1844.52 360.998 1853.75 361.437 1863.97 360.972C1874.17 360.427 1885.39 359.047 1896.84 356.244C1919.79 350.808 1939.17 340.599 1949.79 329.624C1955.22 324.263 1958.51 318.95 1960.43 315.118C1961.51 313.238 1962.07 311.653 1962.62 310.62C1963.14 309.579 1963.51 309.045 1963.72 309.095Z" fill="#F0D269"/>
</g>
<defs>
<clipPath id="clip0_15_123">
<rect width="1980" height="423" fill="white"/>
</clipPath>
</defs>
</svg>
