<svg width="2363" height="643" viewBox="0 0 2363 643" fill="none" xmlns="http://www.w3.org/2000/svg">
<g clip-path="url(#clip0_20_229)">
<path d="M970.741 297.339C970.741 303.186 970.174 308.908 969.071 314.292C963.494 342.268 944.4 362.839 921.681 362.839C902.303 362.839 885.603 347.821 877.6 326.029C870.478 325.356 863.735 322.748 857.749 318.415C851.1 327.88 843.38 335.957 834.841 342.268C801.851 328.932 768.955 315.302 736.122 301.924C725.598 297.633 715.042 293.384 704.455 289.178C697.838 271.972 694.12 252.452 694.12 231.796C694.12 223.299 694.75 215.011 695.948 206.976C704.581 149.048 742.865 105.381 788.806 105.381C831.533 105.381 867.611 143.117 879.427 195.029C879.963 194.987 880.498 194.903 881.034 194.903C900.538 194.903 917.364 210.089 925.305 232.049C950.701 234.531 970.741 262.759 970.741 297.339Z" fill="white"/>
<path d="M601.134 135.208C601.134 172.564 578.448 202.853 550.467 202.853C527.245 202.853 507.709 181.945 501.722 153.507C497.437 158.345 491.86 161.29 485.81 161.29C474.403 161.29 464.824 150.983 461.957 136.974C453.45 158.555 436.498 173.279 416.962 173.279C390.368 173.279 368.595 146.061 366.326 111.355C364.152 130.159 352.021 144.547 337.369 144.547C327.632 144.547 319.062 138.194 313.705 128.477C310.019 135.46 303.937 140.003 297.037 140.003C289.411 140.003 282.763 134.408 279.234 126.121C274.066 137.185 264.897 144.547 254.404 144.547C246.086 144.547 238.587 139.919 233.262 132.473C229.701 151.067 217.129 164.824 202.099 164.824C184.296 164.824 169.896 145.556 169.896 121.83C169.896 121.367 169.896 120.904 169.928 120.442C175.725 131.758 185.462 139.204 196.522 139.204C211.552 139.204 224.124 125.448 227.684 106.896C233.041 114.3 240.509 118.927 248.827 118.927C259.32 118.927 268.489 111.565 273.688 100.543C277.186 108.789 283.834 114.384 291.46 114.384C298.36 114.384 304.441 109.84 308.16 102.899C313.485 112.617 322.087 118.927 331.792 118.927C346.475 118.927 358.575 104.54 360.749 85.7773C363.017 120.442 384.822 147.66 411.384 147.66C430.92 147.66 447.872 132.936 456.38 111.397C459.247 125.364 468.826 135.67 480.233 135.67C486.314 135.67 491.86 132.768 496.176 127.888C502.132 156.368 521.667 177.276 544.89 177.276C572.902 177.276 595.557 146.987 595.557 109.63C595.557 107.695 595.494 105.802 595.368 103.909C599.055 113.248 601.134 123.933 601.134 135.208Z" fill="#FFFBEB"/>
<path d="M595.555 109.63C595.555 146.987 572.9 177.276 544.888 177.276C521.666 177.276 502.13 156.368 496.175 127.888C491.858 132.768 486.312 135.67 480.231 135.67C468.824 135.67 459.245 125.364 456.378 111.397C447.871 132.936 430.918 147.66 411.383 147.66C384.82 147.66 363.016 120.442 360.747 85.7773C358.573 104.54 346.473 118.927 331.79 118.927C322.085 118.927 313.483 112.617 308.158 102.899C304.44 109.84 298.358 114.384 291.458 114.384C283.832 114.384 277.184 108.789 273.686 100.543C268.487 111.565 259.318 118.927 248.825 118.927C240.507 118.927 233.039 114.3 227.683 106.896C224.122 125.448 211.55 139.204 196.52 139.204C185.46 139.204 175.724 131.758 169.926 120.441C170.461 97.304 184.641 78.794 202.097 78.794C211.802 78.794 220.498 84.5994 226.391 93.644C230.14 77.7422 241.263 66.2156 254.403 66.2156C267.542 66.2156 278.665 77.7422 282.383 93.644C286.101 88.5538 291.3 85.3566 297.035 85.3566C301.95 85.3566 306.425 87.6703 309.954 91.4985C314.144 76.7326 324.826 66.2156 337.367 66.2156C352.019 66.2156 364.15 80.603 366.324 99.3654C368.593 64.7012 390.366 37.4829 416.96 37.4829C436.559 37.4829 453.574 52.291 462.05 73.9561C462.617 75.3444 463.121 76.8168 463.594 78.2892C466.304 86.5766 467.816 95.7475 467.816 105.381V105.634C472.322 99.2391 478.687 95.2427 485.808 95.2427C493.307 95.2427 500.019 99.7019 504.556 106.769C512.622 83.6318 530.11 67.5617 550.465 67.5617C570.001 67.5617 586.922 82.2856 595.366 103.909C595.492 105.802 595.555 107.695 595.555 109.63Z" fill="white"/>
<path d="M632.48 169.093C618.515 187.738 618.515 217.972 632.48 236.617C646.445 255.262 669.091 255.262 683.056 236.617C697.021 217.972 697.021 187.738 683.056 169.093C669.091 150.449 646.448 150.449 632.48 169.093Z" fill="white"/>
<path d="M2204.93 64.4905C2204.93 67.0988 2204.75 69.6229 2204.43 72.1049H2204.4C2201.75 92.2135 2188.55 107.484 2172.73 107.484C2164.26 107.484 2156.54 103.067 2150.8 95.9155C2146.11 116.697 2131.68 131.842 2114.6 131.842C2103.1 131.842 2092.82 124.943 2085.89 114.173C2080.6 128.434 2069.63 138.236 2056.9 138.236C2048.08 138.236 2040.08 133.525 2034.25 125.868C2034.81 131.968 2035.16 138.194 2035.16 144.546C2035.16 157.377 2033.9 169.829 2031.57 181.693H2031.54C1973.12 200.876 1916.15 227.337 1858.49 256.532C1858.46 256.532 1858.46 256.532 1858.46 256.532C1851.68 249.17 1845.6 240.714 1840.34 231.375C1834.42 249.086 1821.15 261.454 1805.68 261.454C1799.28 261.454 1793.26 259.309 1787.97 255.564C1787.97 256.238 1788.03 256.869 1788.03 257.5C1788.03 273.107 1783.94 287.452 1777.1 298.684H1777.07C1768.12 313.45 1754.41 322.874 1739.07 322.874C1736.52 322.874 1734.03 322.621 1731.6 322.074H1731.57C1717.42 319.214 1705.32 308.234 1697.92 292.837C1692.12 303.564 1682.7 310.548 1672.08 310.548C1661.52 310.548 1652.23 303.691 1646.43 293.173C1643.94 297.843 1639.91 300.872 1635.34 300.872C1630.39 300.872 1626.04 297.338 1623.68 292.08C1622.42 289.345 1621.73 286.106 1621.73 282.698C1621.73 282.362 1621.73 282.025 1621.76 281.689C1623.02 282.236 1624.37 282.53 1625.79 282.53C1630.36 282.53 1634.39 279.501 1636.88 274.832C1642.68 285.349 1651.98 292.206 1662.53 292.206C1673.15 292.206 1682.57 285.223 1688.37 274.495C1695.77 289.892 1707.87 300.872 1722.02 303.733H1722.05C1724.48 304.28 1726.97 304.532 1729.52 304.532C1744.87 304.532 1758.57 295.109 1767.52 280.343H1767.55C1774.39 269.11 1778.49 254.765 1778.49 239.158C1778.49 238.527 1778.42 237.896 1778.42 237.223C1783.72 240.967 1789.73 243.112 1796.13 243.112C1811.6 243.112 1824.87 230.744 1830.79 213.033C1836.05 222.373 1842.13 230.828 1848.91 238.19C1848.91 238.19 1848.91 238.19 1848.94 238.19C1906.6 208.995 1963.57 182.534 2021.99 163.351H2022.02C2024.35 151.488 2025.61 139.035 2025.61 126.205C2025.61 119.852 2025.27 113.626 2024.7 107.526C2030.53 115.183 2038.53 119.894 2047.36 119.894C2060.09 119.894 2071.05 110.092 2076.34 95.8313C2083.28 106.601 2093.55 113.5 2105.05 113.5C2122.13 113.5 2136.56 98.3554 2141.25 77.5737C2146.99 84.7253 2154.71 89.1425 2163.18 89.1425C2179 89.1425 2192.2 73.8717 2194.85 53.7631H2194.88C2195.2 51.281 2195.39 48.757 2195.39 46.1487C2195.39 41.0585 2194.73 36.1786 2193.5 31.6353C2200.49 39.502 2204.93 51.2811 2204.93 64.4905Z" fill="#FFFBEB"/>
<path d="M2195.39 46.1489C2195.39 48.7571 2195.2 51.2812 2194.88 53.7632H2194.85C2192.21 73.8718 2179 89.1426 2163.19 89.1426C2154.71 89.1426 2146.99 84.7255 2141.25 77.5739C2136.56 98.3556 2122.13 113.5 2105.05 113.5C2093.55 113.5 2083.28 106.601 2076.35 95.8315C2071.05 110.093 2060.09 119.895 2047.36 119.895C2038.53 119.895 2030.53 115.183 2024.7 107.526C2025.27 113.626 2025.62 119.852 2025.62 126.205C2025.62 139.036 2024.35 151.488 2022.02 163.351H2021.99C1963.57 182.534 1906.6 208.995 1848.94 238.191C1848.91 238.191 1848.91 238.191 1848.91 238.191C1842.14 230.829 1836.05 222.373 1830.79 213.034C1824.87 230.744 1811.6 243.112 1796.13 243.112C1789.74 243.112 1783.72 240.967 1778.42 237.223C1778.42 237.896 1778.49 238.527 1778.49 239.158C1778.49 254.765 1774.39 269.111 1767.55 280.343H1767.52C1758.57 295.109 1744.87 304.532 1729.52 304.532C1726.97 304.532 1724.48 304.28 1722.05 303.733H1722.02C1707.87 300.872 1695.77 289.892 1688.37 274.495C1682.57 285.223 1673.15 292.206 1662.53 292.206C1651.98 292.206 1642.68 285.349 1636.88 274.832C1634.39 279.502 1630.36 282.53 1625.79 282.53C1624.37 282.53 1623.02 282.236 1621.76 281.689C1622.14 272.098 1628.06 264.525 1635.34 264.525C1637.07 264.525 1638.74 264.988 1640.29 265.787C1641.14 243.323 1655 225.444 1672.08 225.444C1680.05 225.444 1687.3 229.356 1692.91 235.835C1699.62 210.383 1717.7 192.126 1739.07 192.126C1749.91 192.126 1759.86 196.879 1767.99 204.83C1770.17 179.631 1786.21 160.028 1805.68 160.028C1810.59 160.028 1815.29 161.332 1819.61 163.603C1818.98 157.377 1818.63 151.025 1818.63 144.547C1818.63 64.701 1867.09 0 1926.9 0C1960.77 0 1990.95 20.7397 2010.81 53.2584C2012.85 56.5818 2014.78 60.0315 2016.57 63.6073C2019.98 70.2962 2022.97 77.4056 2025.49 84.8517C2028.96 65.921 2041.68 51.8702 2056.9 51.8702C2065.54 51.8702 2073.35 56.4135 2079.15 63.7755C2084.51 44.5503 2098.34 30.794 2114.6 30.794C2125.91 30.794 2136.02 37.4828 2142.96 47.9999C2147.81 32.4346 2159.31 21.4548 2172.73 21.4548C2180.64 21.4548 2187.89 25.2831 2193.5 31.6354C2194.73 36.1788 2195.39 41.0586 2195.39 46.1489Z" fill="white"/>
<path d="M2274.66 57.6543C2270.23 57.6543 2266.39 60.885 2264.3 65.643C2261.83 46.8174 2249.55 32.4932 2234.75 32.4932C2218.16 32.4932 2204.72 50.4437 2204.72 72.5884C2204.72 94.7332 2218.16 112.684 2234.75 112.684C2249.1 112.684 2261.09 99.2303 2264.06 81.2587C2266.08 86.3448 2270.04 89.8449 2274.66 89.8449C2281.32 89.8449 2286.71 82.6385 2286.71 73.7495C2286.71 64.8647 2281.32 57.6543 2274.66 57.6543Z" fill="white"/>
<path d="M1612.17 285.74C1607.66 285.74 1604 290.624 1604 296.644C1604 302.664 1607.66 307.548 1612.17 307.548C1616.68 307.548 1620.33 302.668 1620.33 296.644C1620.33 290.62 1616.68 285.74 1612.17 285.74Z" fill="white"/>
<path d="M1591.57 297.443C1588.63 297.443 1586.25 300.628 1586.25 304.553C1586.25 308.478 1588.63 311.662 1591.57 311.662C1594.51 311.662 1596.9 308.478 1596.9 304.553C1596.9 300.624 1594.51 297.443 1591.57 297.443Z" fill="white"/>
<path d="M1515.1 335.62C1515.1 349.082 1506.94 360.02 1496.86 360.02C1491.19 360.02 1486.14 356.57 1482.8 351.186C1480.95 368.728 1469.7 382.232 1456.08 382.232C1449.34 382.232 1443.2 378.908 1438.47 373.482C1434.66 403.56 1415.12 426.488 1391.52 426.488C1378.1 426.488 1366 419.042 1357.33 407.094C1362.15 409.324 1367.32 410.502 1372.71 410.502C1396.31 410.502 1415.85 387.575 1419.66 357.538C1424.39 362.965 1430.53 366.246 1437.24 366.246C1450.89 366.246 1462.13 352.742 1463.96 335.2C1467.3 340.584 1472.37 344.034 1478.02 344.034C1488.1 344.034 1496.26 333.096 1496.26 319.634C1496.26 316.732 1495.88 313.913 1495.16 311.347C1495.72 311.263 1496.29 311.221 1496.86 311.221C1506.94 311.221 1515.1 322.158 1515.1 335.62Z" fill="#FFFBEB"/>
<path d="M1342.4 395.904C1334.24 426.993 1312.12 449.289 1286.06 449.289C1270.3 449.289 1256 441.086 1245.38 427.75C1252.12 431.326 1259.5 433.303 1267.25 433.303C1298 433.303 1323.3 402.215 1326.52 362.292C1329.01 375.67 1334.68 387.365 1342.4 395.904Z" fill="#FFFBEB"/>
<path d="M1496.26 319.635C1496.26 333.096 1488.1 344.034 1478.02 344.034C1472.37 344.034 1467.3 340.585 1463.96 335.2C1462.13 352.742 1450.89 366.246 1437.24 366.246C1430.53 366.246 1424.39 362.965 1419.66 357.538C1415.85 387.575 1396.31 410.502 1372.71 410.502C1367.32 410.502 1362.15 409.324 1357.33 407.095C1351.63 399.186 1347.41 389.3 1345.36 378.278C1344.86 384.378 1343.85 390.267 1342.4 395.904C1334.68 387.365 1329.01 375.67 1326.52 362.292C1323.3 402.215 1298 433.303 1267.25 433.303C1259.5 433.303 1252.12 431.326 1245.38 427.75C1238.57 419.252 1233.28 408.609 1230.04 396.704C1226.95 399.228 1223.42 400.91 1219.61 401.415C1218.82 401.542 1218 401.584 1217.18 401.584C1208.17 401.584 1200.29 395.105 1195.97 385.429C1195.88 385.261 1195.82 385.051 1195.72 384.883C1195.66 385.051 1195.56 385.219 1195.5 385.387C1189.11 399.144 1177.73 408.357 1164.72 408.357C1153.53 408.357 1143.51 401.541 1136.89 390.856H1136.86C1131.66 382.485 1128.51 371.757 1128.51 360.02C1128.51 333.307 1144.74 311.684 1164.72 311.684C1167.84 311.684 1170.86 312.189 1173.76 313.156C1173.76 313.198 1173.76 313.198 1173.76 313.198C1178.99 315.007 1183.81 318.331 1187.84 322.832C1193.2 328.721 1197.27 336.672 1199.35 345.801C1203.85 339.533 1210.15 335.621 1217.18 335.621C1222.1 335.621 1226.66 337.556 1230.51 340.879C1239.17 311.137 1260.76 290.019 1286.06 290.019C1293.84 290.019 1301.25 291.996 1308.05 295.614C1316.84 300.283 1324.6 307.645 1330.74 316.942C1337.48 327.123 1342.3 339.617 1344.45 353.415C1347.88 322.748 1367.64 299.232 1391.52 299.232C1396.88 299.232 1402.01 300.409 1406.8 302.555C1410.02 304.027 1413.04 305.92 1415.88 308.192C1422.53 313.451 1428.07 320.813 1432.11 329.563C1436.61 318.036 1445.65 310.127 1456.08 310.127C1457.34 310.127 1458.61 310.253 1459.83 310.464C1460.24 310.548 1460.62 310.632 1461.03 310.758C1468.91 312.693 1475.59 319.214 1479.46 328.174C1481.67 319.046 1487.75 312.231 1495.16 311.347C1495.88 313.913 1496.26 316.732 1496.26 319.635Z" fill="white"/>
<path d="M1109.69 371.732C1117.16 371.732 1123.22 363.648 1123.22 353.676C1123.22 343.705 1117.16 335.621 1109.69 335.621C1102.22 335.621 1096.17 343.705 1096.17 353.676C1096.17 363.648 1102.22 371.732 1109.69 371.732Z" fill="white"/>
<path d="M1072.17 332.163C1066.83 332.163 1062.5 337.943 1062.5 345.073C1062.5 352.204 1066.83 357.984 1072.17 357.984C1077.51 357.984 1081.84 352.204 1081.84 345.073C1081.84 337.943 1077.51 332.163 1072.17 332.163Z" fill="white"/>
<path d="M2363.21 113.843V668.885H0V274.423C268.649 169.498 244.067 227.407 548.953 259.916C760.602 282.459 1230.86 427.045 1445 423.226C1583 357.139 1804.58 198.296 1942.27 168.549C2079.18 138.974 2219.81 110.564 2363.21 113.843Z" fill="#FFFAE9"/>
<path d="M2363.21 113.843V668.885H0V274.423C268.649 169.498 244.067 227.407 548.953 259.916C760.602 282.459 1230.86 427.045 1445 423.226C1583 357.139 1804.58 198.296 1942.27 168.549C2079.18 138.974 2219.81 110.564 2363.21 113.843Z" fill="#FFFAE9"/>
<path d="M2363.21 358.8V667.076H0V474.824C104.863 393.506 227.845 351.985 349.755 345.717C518.834 337.009 686.685 391.235 845.871 467.841C1012.15 547.813 1173.83 600.246 1350.5 606.135C1500.83 611.184 1649.52 596.486 1789.67 523.666C1929.83 450.803 2071.02 371.715 2220.82 353.71C2267.77 348.073 2316.07 349.461 2363.21 358.8Z" fill="#FFF5D3"/>
<path d="M2363.21 94.6114V173.447C2330.82 163.73 2297.89 157.125 2264.87 153.675C2181.84 144.967 2105.56 157.461 2031.57 181.693H2031.54C1973.12 200.876 1916.15 227.337 1858.49 256.532C1858.46 256.532 1858.46 256.532 1858.46 256.532C1831.58 270.162 1804.51 284.381 1777.1 298.684H1777.07C1770.67 302.05 1764.21 305.415 1757.75 308.781C1749.09 313.282 1740.36 317.741 1731.6 322.074H1731.57C1593.37 391.024 1444.61 441.296 1296.42 448.069C1296.39 448.111 1296.36 448.111 1296.33 448.069C1290.53 448.363 1284.7 448.532 1278.91 448.7H1278.81C1258.23 449.163 1237.69 448.742 1217.18 447.438C1086.82 439.066 960.187 393.002 834.843 342.267C801.852 328.932 768.956 315.301 736.123 301.924C725.599 297.633 715.044 293.384 704.457 289.177C556.614 230.239 404.55 180.052 251.004 193.766C164.133 201.507 76.0638 233.184 0 289.303V210.467C52.5262 171.722 110.756 144.631 170.372 128.981C197.123 121.998 224.127 117.328 251.004 114.93C289.32 111.523 327.541 112.07 365.604 115.814C365.982 115.772 366.392 115.814 366.77 115.898C443.275 123.386 519.244 143.453 594.299 169.114C604.95 172.774 615.568 176.56 626.187 180.389C648.716 188.55 671.12 197.132 693.46 205.966C694.279 206.303 695.13 206.597 695.949 206.976C709.372 212.276 722.763 217.661 736.123 223.088C813.322 254.513 890.803 287.536 969.073 314.292C1000.11 324.893 1031.3 334.485 1062.66 342.646C1068.99 344.286 1075.32 345.885 1081.69 347.4C1086.57 348.577 1091.49 349.713 1096.37 350.807C1105.26 352.784 1114.14 354.635 1123.06 356.36C1124.89 356.697 1126.71 357.075 1128.54 357.412C1157.91 362.839 1187.46 366.709 1217.18 368.602C1316.31 374.954 1416.57 359.768 1514.66 330.446C1538.73 323.252 1562.71 315.217 1586.47 306.467C1589.87 305.205 1593.27 303.901 1596.68 302.597C1599.23 301.671 1601.78 300.704 1604.33 299.694C1609.57 297.675 1614.8 295.613 1619.99 293.552C1621.22 293.047 1622.45 292.543 1623.68 292.08C1669.28 273.612 1714.08 252.662 1757.75 229.945C1907.49 152.077 2044.77 74.5449 2204.4 72.1049H2204.72C2224.41 71.8525 2244.45 72.6938 2264.87 74.8393C2272.05 75.5965 2279.2 76.4799 2286.36 77.5737C2312.16 81.3178 2337.84 86.9971 2363.21 94.6114Z" fill="white"/>
</g>
<defs>
<clipPath id="clip0_20_229">
<rect width="2363" height="643" fill="white"/>
</clipPath>
</defs>
</svg>
